<?xml version="1.0" encoding="utf-8"?>
<!-- Generator: Adobe Illustrator 26.0.3, SVG Export Plug-In . SVG Version: 6.00 Build 0)  -->
<svg version="1.1" id="Layer_1" xmlns="http://www.w3.org/2000/svg" xmlns:xlink="http://www.w3.org/1999/xlink" x="0px" y="0px"
	 viewBox="0 0 707.5 760" style="enable-background:new 0 0 707.5 760;" xml:space="preserve">
<g>
	<path d="M282,125.4c-20.6,6.2-27.3,15.9-27,37.5c1.3,84.9,0.6,169.8,0.5,254.7c-0.1,19.4-4.8,37.2-28.2,37.6
		c-23.6,0.4-28.5-16.6-28.5-36.6c0.1-98.5,0.3-197-0.2-295.5c-0.1-20.9,8-33.2,27.8-39.8c69.5-23.1,138.7-47.2,208.3-69.9
		c29.4-9.6,43.2,1.1,43.4,33.1c0.4,93.2-0.1,186.5,0.3,279.8c0,18.7-3.4,35.7-24.8,36.7c-22.6,1.1-30.1-15.5-30.1-35.7
		c-0.1-70.3-0.1-140.5-0.1-210.7c0-11.1,0-22.3,0-38.7C372.7,95.2,327.8,111.7,282,125.4z"/>
	<path d="M467.8,579.6c14.2,15.2,18,32.3,1.8,46.9c-15.5,14-31,6.4-43.9-7.2c-21.7-22.9-43.6-45.4-65.2-68.3
		c-13.2-14-16.7-29.5-2.7-44.7c24.2-26.2,47.8-53.2,74.6-76.4c7.9-6.9,25.8-2.2,39.1-2.8c0.5,13.3,4.1,27.6,0.5,39.6
		c-3.2,10.4-14.6,18.4-25.4,31c46.6,0,87.4,1.2,128.1-0.4c32.5-1.3,57.7-24,64.2-55.3c6.4-30.8-3.5-57.7-30.2-73.3
		c-15.3-9-35.5-11.3-53.8-12.9c-19.7-1.7-37.5-5.5-37.6-28.2c-0.1-22.4,17.4-28.1,37.3-28.9c77.9-3.3,139.9,50,142.9,123.3
		c3,74.4-56,132.1-136.3,132.7c-36.3,0.2-72.6,0-116.3,0C456.6,567.4,462.1,573.6,467.8,579.6z"/>
	<path d="M205.5,554.4c-25.2,0-50.4,1.2-75.5-0.2c-68-3.9-119.4-58.5-120-125.9c-0.6-66.8,48.5-121.9,113.9-128.2
		c18.2-1.7,35.2,0.3,39.2,21.5c4.4,22.9-10.1,30.6-30.5,34.5c-47.7,9.1-70,37.5-65.4,80.1c4.2,38.6,33.9,61.4,81,61.7
		c45.2,0.2,90.4-1.7,135.3,1.4c11.1,0.8,21.1,17.3,31.6,26.6c-10.2,9.6-19.5,25.5-31,27.4c-25.6,4.2-52.3,1.3-78.5,1.3
		C205.6,554.5,205.6,554.5,205.5,554.4z"/>
	<path d="M200.7,623.1c3.4-9.6,15.3-20.7,24.9-22.3c7.7-1.3,20,9,25.8,17.3c4.7,6.8,4.6,18.2,3.7,27.3c-2.2,20.7,7.3,26.9,26.6,28.7
		c53.1,5.1,105.9,12.5,159,17.9c22,2.3,41.5,7,37.9,34.2c-3.4,25.7-24,25.1-43.7,22.7c-60.2-7.2-120.5-14.3-180.6-22.1
		c-55.6-7.2-55.5-7.6-54.6-63.2C199.7,650,196.4,635.2,200.7,623.1z"/>
</g>
</svg>
