<svg xmlns="http://www.w3.org/2000/svg" xmlns:xlink="http://www.w3.org/1999/xlink" width="14.54" height="70" viewBox="0 0 14.54 70">
  <defs>
    <clipPath id="clip-path">
      <path id="Caminho_764" data-name="Caminho 764" d="M0-275.012H.54v-70H0Z" transform="translate(0 345.012)" fill="none"/>
    </clipPath>
    <filter id="Elipse_1" x="0" y="2" width="8" height="8" filterUnits="userSpaceOnUse">
      <feOffset dy="3" input="SourceAlpha"/>
      <feGaussianBlur stdDeviation="3" result="blur"/>
      <feFlood flood-opacity="0.161" result="color"/>
      <feComposite operator="out" in="SourceGraphic" in2="blur"/>
      <feComposite operator="in" in="color"/>
      <feComposite operator="in" in2="SourceGraphic"/>
    </filter>
    <filter id="Elipse_2" x="0" y="17" width="8" height="8" filterUnits="userSpaceOnUse">
      <feOffset dy="3" input="SourceAlpha"/>
      <feGaussianBlur stdDeviation="3" result="blur-2"/>
      <feFlood flood-opacity="0.161" result="color-2"/>
      <feComposite operator="out" in="SourceGraphic" in2="blur-2"/>
      <feComposite operator="in" in="color-2"/>
      <feComposite operator="in" in2="SourceGraphic"/>
    </filter>
    <filter id="Elipse_3" x="0" y="31" width="8" height="8" filterUnits="userSpaceOnUse">
      <feOffset dy="3" input="SourceAlpha"/>
      <feGaussianBlur stdDeviation="3" result="blur-3"/>
      <feFlood flood-opacity="0.161" result="color-3"/>
      <feComposite operator="out" in="SourceGraphic" in2="blur-3"/>
      <feComposite operator="in" in="color-3"/>
      <feComposite operator="in" in2="SourceGraphic"/>
    </filter>
    <filter id="Elipse_4" x="0" y="46" width="8" height="8" filterUnits="userSpaceOnUse">
      <feOffset dy="3" input="SourceAlpha"/>
      <feGaussianBlur stdDeviation="3" result="blur-4"/>
      <feFlood flood-opacity="0.161" result="color-4"/>
      <feComposite operator="out" in="SourceGraphic" in2="blur-4"/>
      <feComposite operator="in" in="color-4"/>
      <feComposite operator="in" in2="SourceGraphic"/>
    </filter>
    <filter id="Elipse_5" x="0" y="60" width="8" height="8" filterUnits="userSpaceOnUse">
      <feOffset dy="3" input="SourceAlpha"/>
      <feGaussianBlur stdDeviation="3" result="blur-5"/>
      <feFlood flood-opacity="0.161" result="color-5"/>
      <feComposite operator="out" in="SourceGraphic" in2="blur-5"/>
      <feComposite operator="in" in="color-5"/>
      <feComposite operator="in" in2="SourceGraphic"/>
    </filter>
  </defs>
  <g id="bg_furo_carderno" transform="translate(-245 -337)">
    <g id="Grupo_800" data-name="Grupo 800" transform="translate(259 682.012)">
      <g id="Grupo_799" data-name="Grupo 799" transform="translate(0 -345.012)" clip-path="url(#clip-path)">
        <g id="Grupo_798" data-name="Grupo 798" transform="translate(0.27 0)">
          <path id="Caminho_763" data-name="Caminho 763" d="M0,0V70" fill="none" stroke="#fdacc9" stroke-width="0.54"/>
        </g>
      </g>
    </g>
    <g data-type="innerShadowGroup">
      <circle id="Elipse_1-2" data-name="Elipse 1" cx="4" cy="4" r="4" transform="translate(245 339)" fill="#fff"/>
      <g transform="matrix(1, 0, 0, 1, 245, 337)" filter="url(#Elipse_1)">
        <circle id="Elipse_1-3" data-name="Elipse 1" cx="4" cy="4" r="4" transform="translate(0 2)" fill="#fff"/>
      </g>
      <g id="Elipse_1-4" data-name="Elipse 1" transform="translate(245 339)" fill="none" stroke="#fafafa" stroke-width="1">
        <circle cx="4" cy="4" r="4" stroke="none"/>
        <circle cx="4" cy="4" r="3.5" fill="none"/>
      </g>
    </g>
    <g data-type="innerShadowGroup">
      <circle id="Elipse_2-2" data-name="Elipse 2" cx="4" cy="4" r="4" transform="translate(245 354)" fill="#fff"/>
      <g transform="matrix(1, 0, 0, 1, 245, 337)" filter="url(#Elipse_2)">
        <circle id="Elipse_2-3" data-name="Elipse 2" cx="4" cy="4" r="4" transform="translate(0 17)" fill="#fff"/>
      </g>
      <g id="Elipse_2-4" data-name="Elipse 2" transform="translate(245 354)" fill="none" stroke="#fafafa" stroke-width="1">
        <circle cx="4" cy="4" r="4" stroke="none"/>
        <circle cx="4" cy="4" r="3.5" fill="none"/>
      </g>
    </g>
    <g data-type="innerShadowGroup">
      <circle id="Elipse_3-2" data-name="Elipse 3" cx="4" cy="4" r="4" transform="translate(245 368)" fill="#fff"/>
      <g transform="matrix(1, 0, 0, 1, 245, 337)" filter="url(#Elipse_3)">
        <circle id="Elipse_3-3" data-name="Elipse 3" cx="4" cy="4" r="4" transform="translate(0 31)" fill="#fff"/>
      </g>
      <g id="Elipse_3-4" data-name="Elipse 3" transform="translate(245 368)" fill="none" stroke="#fafafa" stroke-width="1">
        <circle cx="4" cy="4" r="4" stroke="none"/>
        <circle cx="4" cy="4" r="3.5" fill="none"/>
      </g>
    </g>
    <g data-type="innerShadowGroup">
      <circle id="Elipse_4-2" data-name="Elipse 4" cx="4" cy="4" r="4" transform="translate(245 383)" fill="#fff"/>
      <g transform="matrix(1, 0, 0, 1, 245, 337)" filter="url(#Elipse_4)">
        <circle id="Elipse_4-3" data-name="Elipse 4" cx="4" cy="4" r="4" transform="translate(0 46)" fill="#fff"/>
      </g>
      <g id="Elipse_4-4" data-name="Elipse 4" transform="translate(245 383)" fill="none" stroke="#fafafa" stroke-width="1">
        <circle cx="4" cy="4" r="4" stroke="none"/>
        <circle cx="4" cy="4" r="3.5" fill="none"/>
      </g>
    </g>
    <g data-type="innerShadowGroup">
      <circle id="Elipse_5-2" data-name="Elipse 5" cx="4" cy="4" r="4" transform="translate(245 397)" fill="#fff"/>
      <g transform="matrix(1, 0, 0, 1, 245, 337)" filter="url(#Elipse_5)">
        <circle id="Elipse_5-3" data-name="Elipse 5" cx="4" cy="4" r="4" transform="translate(0 60)" fill="#fff"/>
      </g>
      <g id="Elipse_5-4" data-name="Elipse 5" transform="translate(245 397)" fill="none" stroke="#fafafa" stroke-width="1">
        <circle cx="4" cy="4" r="4" stroke="none"/>
        <circle cx="4" cy="4" r="3.5" fill="none"/>
      </g>
    </g>
  </g>
</svg>
