<svg xmlns="http://www.w3.org/2000/svg" xmlns:xlink="http://www.w3.org/1999/xlink" width="86.229" height="153.07" viewBox="0 0 86.229 153.07">
  <defs>
    <clipPath id="clip-path">
      <path id="Caminho_1425" data-name="Caminho 1425" d="M19.27-155.055,0-148.041V-1.985a3.683,3.683,0,0,0,1.263-.224h0L83.794-32.247A3.7,3.7,0,0,0,86-36.987h0L43.032-155.055Z" fill="none"/>
    </clipPath>
  </defs>
  <g id="bg_secconheca1" transform="translate(0 155.055)">
    <g id="Grupo_1475" data-name="Grupo 1475" clip-path="url(#clip-path)">
      <g id="Grupo_1457" data-name="Grupo 1457" transform="translate(-20.408 -130.031)">
        <path id="Caminho_1407" data-name="Caminho 1407" d="M0,0C7.243-.217,14.1-.671,20.948-.573,32.805-.4,44.1,2.117,53.284,10.144,70.727,25.381,75.392,44.966,71.235,66.967,68.624,80.782,60.161,90.162,46.91,94.991a134.315,134.315,0,0,1-13.8,4.271c-6.1,1.5-12.3,2.611-18.542,3.908a14.1,14.1,0,0,0,.15,1.821,21.015,21.015,0,0,0,.65,2.011c12.775-2.1,25.237-4.4,36.941-9.895,12.777-5.993,20.046-16.052,22.856-29.583a69.785,69.785,0,0,0-.757-30.73C69.093,14.537,52.384-.963,30.224-4a108.964,108.964,0,0,0-29.109.16C.7-2.406.363-1.249,0,0" fill="#fff0d3"/>
      </g>
      <g id="Grupo_1458" data-name="Grupo 1458" transform="translate(-21.052 -121.878)">
        <path id="Caminho_1408" data-name="Caminho 1408" d="M0,0C2.147-.24,3.954-.467,5.767-.641A81.04,81.04,0,0,1,43.611,4.274c8.119,3.183,14.375,8.564,16.9,16.96a155.893,155.893,0,0,1,5.22,24.109c1.4,10.449-2.6,19.362-10.016,26.715a46.523,46.523,0,0,1-18.564,11.5c-7.4,2.38-14.936,4.323-22.631,6.52.1.623.243,1.538.429,2.713C28.9,90.159,42.3,86.691,53.771,78.263c10.045-7.382,15.368-17.381,15.515-30,.117-10.036-2.324-19.546-5.855-28.821A29.291,29.291,0,0,0,49.675,3.7C34.174-4.643,17.509-5.289.3-3.451.192-2.236.109-1.272,0,0" fill="#fff0d3"/>
      </g>
      <g id="Grupo_1459" data-name="Grupo 1459" transform="translate(-7.101 -34.83)">
        <path id="Caminho_1409" data-name="Caminho 1409" d="M0,0C7.35-2.22,14.39-3.9,21.083-6.475c9.3-3.583,16.857-9.626,20.6-19.152A51.513,51.513,0,0,0,41.8-63.643a21.824,21.824,0,0,0-7.986-10C19.591-82.813,3.759-84.632-12.928-82.382l.438,2.768c5.453-.071,10.636-.513,15.75-.1a80.02,80.02,0,0,1,15.216,2.657C35.272-72.312,40.059-66.3,41.614-48.9,43.46-28.227,35.168-14.631,16.467-8.182c-5.5,1.9-11.235,3.121-17.019,4.7C-.43-2.717-.295-1.864,0,0" fill="#fff0d3"/>
      </g>
      <g id="Grupo_1460" data-name="Grupo 1460" transform="translate(-4.118 -14.829)">
        <path id="Caminho_1410" data-name="Caminho 1410" d="M0,0Q.22.688.442,1.377C6.068-.015,11.656-1.589,17.326-2.766,35.375-6.513,49.665-15.29,58.154-32.282c6.213-12.436,9.773-25.27,6.4-39.2-3.062-12.644-8.95-24.047-16.142-34.773A52.259,52.259,0,0,0,32.89-121.673C21-129.156,7.867-130-5.627-128.717c-.927.088-1.8.725-3.219,1.326a6.733,6.733,0,0,0,1.369.453c1.831-.124,3.661-.281,5.492-.419,20.574-1.554,37.68,4.872,49.244,22.555A162.9,162.9,0,0,1,59.828-81.185c6.127,13.942,5.742,28.119-.367,42.106-7.052,16.147-17.812,28.242-35.609,32.7Q13.5-3.793,3.176-1.1C2.1-.815,1.058-.369,0,0" fill="#fff0d3"/>
      </g>
      <g id="Grupo_1461" data-name="Grupo 1461" transform="translate(-8.542 -43.864)">
        <path id="Caminho_1411" data-name="Caminho 1411" d="M0,0,.2,1.052C2.825.636,5.494.394,8.072-.225,22.235-3.632,32.248-11.434,34.266-26.662a76.558,76.558,0,0,0,.3-18.474C33.3-56.318,27.206-62.537,16.313-65.3,8.157-67.368-.058-67.129-8.3-66.015a9.755,9.755,0,0,0-2.147.829q.114.462.23.924c1.195-.092,2.394-.15,3.585-.28a66.345,66.345,0,0,1,22.916,1.048C24.3-61.571,30.075-56.846,32.022-48.8a54.275,54.275,0,0,1,1.3,15.643C32.308-15.274,25.718-7.308,8.439-2.169,5.657-1.342,2.815-.718,0,0" fill="#fff0d3"/>
      </g>
      <g id="Grupo_1462" data-name="Grupo 1462" transform="translate(-9.295 -48.225)">
        <path id="Caminho_1412" data-name="Caminho 1412" d="M0,0Q.177.711.353,1.421C4.374.476,8.464-.244,12.4-1.457c10.879-3.352,17.09-10.482,17.144-21.836.038-8.026-1.524-16.154-3.206-24.059-1.2-5.643-5.518-9.068-11.254-10.451-7.648-1.844-15.264-1.282-22.87.221a4.438,4.438,0,0,0-1.243.738,8.3,8.3,0,0,0,3.974.478c6.389.028,12.821-.321,19.153.309a11.677,11.677,0,0,1,10.8,9.664c1.355,6.379,2.951,12.825,3.217,19.293C28.69-13.206,22.04-5.167,8.532-2.094c-1.678.382-3.371.706-5.044,1.109C2.314-.7,1.162-.331,0,0" fill="#fff0d3"/>
      </g>
      <g id="Grupo_1463" data-name="Grupo 1463" transform="translate(-11.236 -55.207)">
        <path id="Caminho_1413" data-name="Caminho 1413" d="M0,0C7.324,2.152,20.41-4.434,24.405-11.487c4.233-7.474,2.023-22.381-4.2-28.36C14.882-44.953.146-46.562-6.563-42.217c1.634-.025,2.568.008,3.494-.062,2.861-.217,5.716-.618,8.579-.685,7.453-.177,13.778,2.114,16.707,9.537A42.43,42.43,0,0,1,24.96-21.442c.49,6-1.9,11.323-7.039,14.449C13.7-4.422,8.78-2.984,4.145-1.105A39.7,39.7,0,0,1,0,0" fill="#fff0d3"/>
      </g>
      <g id="Grupo_1464" data-name="Grupo 1464" transform="translate(-11.469 -61.585)">
        <path id="Caminho_1414" data-name="Caminho 1414" d="M0,0,.533,1.284C6.85-.29,12.872-2.594,17.576-7.4a14.146,14.146,0,0,0-2.683-22.024c-6.084-3.7-12.846-3.639-19.645-2.551-.08.012-.1.386-.3,1.19C-3.761-30.8-2.6-30.9-1.46-30.811c3.98.317,8.07.23,11.9,1.172,5.218,1.281,8.4,5.019,9.27,10.428A11.875,11.875,0,0,1,14.257-6.7,81.134,81.134,0,0,1,4.538-1.65,45.653,45.653,0,0,1,0,0" fill="#fff0d3"/>
      </g>
      <g id="Grupo_1465" data-name="Grupo 1465" transform="translate(-15.542 -89.347)">
        <path id="Caminho_1415" data-name="Caminho 1415" d="M0,0Q-.1.59-.2,1.179a79.883,79.883,0,0,1,9.208,1.4c6.362,1.706,9.2,8.511,5.393,13.811-1.87,2.6-5.212,4.173-7.966,6.1A15.45,15.45,0,0,1,3.4,23.775c4.987.91,10.62-2.464,12.981-7.056,2.037-3.962,1.584-9.629-1.384-12.572C10.752-.058,5.395-.27,0,0" fill="#fff0d3"/>
      </g>
      <g id="Grupo_1466" data-name="Grupo 1466" transform="translate(-20.408 -130.031)">
        <path id="Caminho_1416" data-name="Caminho 1416" d="M0,0C.363-1.249.7-2.406,1.115-3.836A108.964,108.964,0,0,1,30.224-4C52.384-.963,69.093,14.537,74.4,36.794a69.785,69.785,0,0,1,.757,30.73c-2.81,13.531-10.079,23.59-22.856,29.583C40.6,102.6,28.139,104.9,15.364,107a21.015,21.015,0,0,1-.65-2.011,14.1,14.1,0,0,1-.15-1.821c6.246-1.3,12.443-2.4,18.542-3.908a134.315,134.315,0,0,0,13.8-4.271c13.251-4.829,21.714-14.209,24.325-28.024,4.157-22-.508-41.586-17.951-56.823C44.1,2.117,32.805-.4,20.948-.573,14.1-.671,7.243-.217,0,0" fill="#fff0d3"/>
      </g>
      <g id="Grupo_1467" data-name="Grupo 1467" transform="translate(-21.052 -121.878)">
        <path id="Caminho_1417" data-name="Caminho 1417" d="M0,0C.109-1.272.192-2.236.3-3.451,17.509-5.289,34.174-4.643,49.675,3.7A29.291,29.291,0,0,1,63.431,19.446c3.531,9.275,5.972,18.785,5.855,28.821-.147,12.615-5.47,22.614-15.515,30C42.3,86.691,28.9,90.159,14.947,92.792c-.186-1.175-.331-2.09-.429-2.713,7.695-2.2,15.233-4.14,22.631-6.52a46.523,46.523,0,0,0,18.564-11.5c7.415-7.353,11.413-16.266,10.016-26.715a155.893,155.893,0,0,0-5.22-24.109c-2.523-8.4-8.779-13.777-16.9-16.96A81.04,81.04,0,0,0,5.767-.641C3.954-.467,2.147-.24,0,0" fill="#fff0d3"/>
      </g>
      <g id="Grupo_1468" data-name="Grupo 1468" transform="translate(-7.101 -34.83)">
        <path id="Caminho_1418" data-name="Caminho 1418" d="M0,0C-.295-1.864-.43-2.717-.552-3.486c5.784-1.575,11.517-2.8,17.019-4.7C35.168-14.631,43.46-28.227,41.614-48.9c-1.555-17.4-6.342-23.416-23.138-28.16A80.02,80.02,0,0,0,3.26-79.713c-5.114-.414-10.3.028-15.75.1l-.438-2.768c16.687-2.25,32.519-.431,46.744,8.742a21.824,21.824,0,0,1,7.986,10,51.513,51.513,0,0,1-.117,38.016c-3.745,9.526-11.3,15.569-20.6,19.152C14.39-3.9,7.35-2.22,0,0" fill="#fff0d3"/>
      </g>
      <g id="Grupo_1469" data-name="Grupo 1469" transform="translate(-4.118 -14.829)">
        <path id="Caminho_1419" data-name="Caminho 1419" d="M0,0C1.058-.369,2.1-.815,3.176-1.1Q13.505-3.773,23.852-6.383c17.8-4.454,28.557-16.549,35.609-32.7,6.109-13.987,6.494-28.164.367-42.106A162.9,162.9,0,0,0,47.259-104.8c-11.564-17.683-28.67-24.109-49.244-22.555-1.831.138-3.661.3-5.492.419a6.733,6.733,0,0,1-1.369-.453c1.417-.6,2.292-1.238,3.219-1.326C7.867-130,21-129.156,32.89-121.673a52.259,52.259,0,0,1,15.522,15.421C55.6-95.526,61.492-84.123,64.554-71.479c3.373,13.927-.187,26.761-6.4,39.2C49.665-15.29,35.375-6.513,17.326-2.766,11.656-1.589,6.068-.015.442,1.377Q.221.688,0,0" fill="#fff0d3"/>
      </g>
      <g id="Grupo_1470" data-name="Grupo 1470" transform="translate(-8.542 -43.864)">
        <path id="Caminho_1420" data-name="Caminho 1420" d="M0,0C2.815-.718,5.657-1.342,8.439-2.169,25.718-7.308,32.308-15.274,33.326-33.157a54.275,54.275,0,0,0-1.3-15.643C30.075-56.846,24.3-61.571,16.287-63.494A66.345,66.345,0,0,0-6.629-64.542c-1.191.13-2.39.188-3.585.28q-.116-.462-.23-.924A9.755,9.755,0,0,1-8.3-66.015c8.239-1.114,16.454-1.353,24.61.715C27.206-62.537,33.3-56.318,34.568-45.136a76.558,76.558,0,0,1-.3,18.474C32.248-11.434,22.235-3.632,8.072-.225,5.494.394,2.825.636.2,1.052L0,0" fill="#fff0d3"/>
      </g>
      <g id="Grupo_1471" data-name="Grupo 1471" transform="translate(-9.295 -48.225)">
        <path id="Caminho_1421" data-name="Caminho 1421" d="M0,0C1.162-.331,2.314-.7,3.488-.985c1.673-.4,3.366-.727,5.044-1.109C22.04-5.167,28.69-13.206,28.119-27.1c-.266-6.468-1.862-12.914-3.217-19.293a11.677,11.677,0,0,0-10.8-9.664c-6.332-.63-12.764-.281-19.153-.309a8.3,8.3,0,0,1-3.974-.478,4.438,4.438,0,0,1,1.243-.738c7.606-1.5,15.222-2.065,22.87-.221C20.822-56.42,25.14-52.995,26.34-47.352c1.682,7.905,3.244,16.033,3.206,24.059C29.492-11.939,23.281-4.809,12.4-1.457,8.464-.244,4.374.476.353,1.421Q.176.71,0,0" fill="#fff0d3"/>
      </g>
      <g id="Grupo_1472" data-name="Grupo 1472" transform="translate(-11.236 -55.207)">
        <path id="Caminho_1422" data-name="Caminho 1422" d="M0,0A39.7,39.7,0,0,0,4.145-1.105C8.78-2.984,13.7-4.422,17.921-6.993c5.135-3.126,7.529-8.452,7.039-14.449a42.43,42.43,0,0,0-2.743-11.985c-2.929-7.423-9.254-9.714-16.707-9.537-2.863.067-5.718.468-8.579.685-.926.07-1.86.037-3.494.062,6.709-4.345,21.445-2.736,26.763,2.37,6.228,5.979,8.438,20.886,4.2,28.36C20.41-4.434,7.324,2.152,0,0" fill="#fff0d3"/>
      </g>
      <g id="Grupo_1473" data-name="Grupo 1473" transform="translate(-11.469 -61.585)">
        <path id="Caminho_1423" data-name="Caminho 1423" d="M0,0A45.653,45.653,0,0,0,4.538-1.65,81.134,81.134,0,0,0,14.257-6.7a11.875,11.875,0,0,0,5.455-12.508c-.87-5.409-4.052-9.147-9.27-10.428-3.832-.942-7.922-.855-11.9-1.172-1.142-.091-2.3.008-3.587.022.193-.8.215-1.178.3-1.19,6.8-1.088,13.561-1.146,19.645,2.551A14.146,14.146,0,0,1,17.576-7.4C12.872-2.594,6.85-.29.533,1.284L0,0" fill="#fff0d3"/>
      </g>
      <g id="Grupo_1474" data-name="Grupo 1474" transform="translate(-15.542 -89.347)">
        <path id="Caminho_1424" data-name="Caminho 1424" d="M0,0C5.395-.27,10.752-.058,14.993,4.147c2.968,2.943,3.421,8.61,1.384,12.572C14.016,21.311,8.383,24.685,3.4,23.775a15.45,15.45,0,0,0,3.042-1.289c2.754-1.923,6.1-3.494,7.966-6.1,3.807-5.3.969-12.1-5.393-13.811A79.883,79.883,0,0,0-.2,1.179Q-.1.59,0,0" fill="#fff0d3"/>
      </g>
    </g>
  </g>
</svg>
