<svg xmlns="http://www.w3.org/2000/svg" xmlns:xlink="http://www.w3.org/1999/xlink" width="562" height="890" viewBox="0 0 562 890">
  <defs>
    <clipPath id="clip-path">
      <rect id="Retângulo_55" data-name="Retângulo 55" width="562" height="890" transform="translate(1156 134)" fill="#fff" stroke="#707070" stroke-width="1"/>
    </clipPath>
    <clipPath id="clip-path-2">
      <path id="Caminho_317" data-name="Caminho 317" d="M0,0H222.219V-142.191H0Z" fill="none"/>
    </clipPath>
    <clipPath id="clip-path-3">
      <path id="Caminho_271" data-name="Caminho 271" d="M0,0H544.252V-1116.85H0Z" fill="none"/>
    </clipPath>
    <clipPath id="clip-path-4">
      <path id="Caminho_294" data-name="Caminho 294" d="M272.126-1116.85C121.835-1116.85,0-995.016,0-844.725H0v572.6C0-121.835,121.835,0,272.126,0h0C422.417,0,544.252-121.835,544.252-272.126h0v-572.6C544.252-995.016,422.417-1116.85,272.126-1116.85Z" fill="none"/>
    </clipPath>
  </defs>
  <g id="bg_sec3_bg" transform="translate(-1156 -134)" clip-path="url(#clip-path)">
    <g id="Grupo_338" data-name="Grupo 338" transform="translate(1109 307.382)">
      <g id="Grupo_337" data-name="Grupo 337" transform="translate(0 -6)" clip-path="url(#clip-path-2)">
        <g id="Grupo_315" data-name="Grupo 315" transform="translate(197.774 -141.339)">
          <path id="Caminho_295" data-name="Caminho 295" d="M0,0C.584,12.312,1.56,23.96,1.6,35.61,1.66,55.781-2.292,75.057-15.67,90.924c-25.4,30.117-58.566,38.633-96.108,32.215C-135.351,119.11-151.555,105-160.162,82.6a229.194,229.194,0,0,1-7.674-23.349c-2.739-10.328-4.806-20.835-7.2-31.42a24.076,24.076,0,0,0-3.093.309,35.624,35.624,0,0,0-3.4,1.165c3.949,21.666,8.24,42.79,17.924,62.534,10.572,21.553,27.9,33.616,50.992,37.994,17.546,3.325,34.963,2.242,52.241-2.2,37.7-9.693,63.56-38.571,68.062-76.35a185.274,185.274,0,0,0-1.138-49.5L0,0" fill="#b3dd9e"/>
        </g>
        <g id="Grupo_316" data-name="Grupo 316" transform="translate(183.888 -142.191)">
          <path id="Caminho_296" data-name="Caminho 296" d="M0,0C.472,3.645.912,6.712,1.26,9.789,3.758,31.841,1.8,53.4-5.975,74.3-11.146,88.2-20.112,99-34.317,103.54a265.106,265.106,0,0,1-40.849,9.593c-17.728,2.686-33.006-3.848-45.731-16.242a79.108,79.108,0,0,1-20.111-31.23c-4.268-12.511-7.8-25.274-11.761-38.3l-4.6.811c4.891,23.657,11.187,46.339,25.862,65.6,12.852,16.866,30.017,25.621,51.476,25.5,17.072-.1,33.174-4.533,48.842-10.814A49.82,49.82,0,0,0-4.818,84.593C8.911,57.983,9.515,29.621,5.878.4L0,0" fill="#b3dd9e"/>
        </g>
        <g id="Grupo_317" data-name="Grupo 317" transform="translate(36.256 -115.879)">
          <path id="Caminho_297" data-name="Caminho 297" d="M0,0C3.993,12.435,7.055,24.359,11.639,35.665c6.369,15.709,16.871,28.382,33.184,34.47,21.514,8.028,43.474,7.527,64.658-.93a37.119,37.119,0,0,0,16.764-13.878c15.18-24.467,17.8-51.446,13.48-79.76l-4.694.828c.282,9.271,1.188,18.073.636,26.783A136.1,136.1,0,0,1,131.6,29.135c-7.57,28.707-17.656,37.026-47.205,40.187C49.3,73.076,25.928,59.377,14.4,27.763c-3.39-9.3-5.641-19.016-8.492-28.806L0,0" fill="#b3dd9e"/>
        </g>
        <g id="Grupo_318" data-name="Grupo 318" transform="translate(2.329 -110.213)">
          <path id="Caminho_298" data-name="Caminho 298" d="M0,0-2.33.793C.206,10.319,3.049,19.776,5.219,29.385c6.908,30.584,22.259,54.627,51.41,68.561,21.336,10.2,43.268,15.87,66.855,9.721,21.412-5.583,40.631-15.935,58.66-28.485a88.853,88.853,0,0,0,25.765-26.858c12.374-20.452,13.412-42.8,10.836-65.715-.177-1.574-1.285-3.043-2.35-5.436a11.478,11.478,0,0,0-.73,2.342c.266,3.111.587,6.218.877,9.328,3.252,34.945-7.168,64.228-36.9,84.421a277.265,277.265,0,0,1-39.795,22.077c-23.529,10.834-47.652,10.6-71.621.626C40.557,88.453,19.667,70.512,11.563,40.377Q6.85,22.848,1.957,5.369C1.449,3.54.659,1.788,0,0" fill="#b3dd9e"/>
        </g>
        <g id="Grupo_319" data-name="Grupo 319" transform="translate(51.578 -118.599)">
          <path id="Caminho_299" data-name="Caminho 299" d="M0,0-1.783.368C-1,4.823-.508,9.355.623,13.721,6.837,37.708,20.4,54.505,46.363,57.485a130.147,130.147,0,0,0,31.428-.035c18.98-2.483,29.375-13.037,33.75-31.644,3.276-13.933,2.626-27.9.487-41.877a16.661,16.661,0,0,0-1.474-3.627l-1.564.418c.191,2.03.325,4.068.583,6.089,1.664,13.062,1.761,26.083-1.1,39.007-3.032,13.686-10.9,23.646-24.524,27.2A92.329,92.329,0,0,1,57.38,55.694c-30.444-1.2-44.188-12.172-53.44-41.405C2.45,9.582,1.3,4.766,0,0" fill="#b3dd9e"/>
        </g>
        <g id="Grupo_320" data-name="Grupo 320" transform="translate(58.974 -120.008)">
          <path id="Caminho_300" data-name="Caminho 300" d="M0,0-2.406.642C-.679,7.452.667,14.388,2.847,21.05,8.869,39.453,21.18,49.8,40.493,49.558c13.65-.174,27.428-3.071,40.822-6.166,9.562-2.209,15.259-9.654,17.441-19.45,2.909-13.063,1.726-26-1.056-38.89a7.539,7.539,0,0,0-1.291-2.093c-1.122,2.487-.723,4.628-.695,6.774.141,10.866.926,21.8.043,32.584-.776,9.466-6.49,16.436-16.116,18.657-10.808,2.494-21.725,5.4-32.716,6.044C23.311,48.4,9.443,37.331,3.814,14.449c-.7-2.844-1.3-5.712-2.035-8.546C1.263,3.915.6,1.966,0,0" fill="#b3dd9e"/>
        </g>
        <g id="Grupo_321" data-name="Grupo 321" transform="translate(70.789 -123.519)">
          <path id="Caminho_301" data-name="Caminho 301" d="M0,0C-3.443,12.521,8.147,34.58,20.261,41.165c12.836,6.978,38.124,2.776,48.108-7.993,8.525-9.2,10.825-34.307,3.235-45.588.092,2.779.064,4.368.211,5.941.453,4.86,1.219,9.7,1.419,14.57.521,12.671-3.186,23.495-15.724,28.7a72.251,72.251,0,0,1-20.3,5.022c-10.184,1.01-19.313-2.9-24.782-11.543C7.927,23.166,5.335,14.844,2,7.017A67.44,67.44,0,0,1,0,0" fill="#b3dd9e"/>
        </g>
        <g id="Grupo_322" data-name="Grupo 322" transform="translate(81.63 -124.104)">
          <path id="Caminho_302" data-name="Caminho 302" d="M0,0-2.168.944C.7,11.641,4.794,21.815,13.114,29.672a24.062,24.062,0,0,0,37.378-5.217C56.6,14,56.3,2.5,54.247-9.032c-.024-.135-.659-.162-2.033-.465.062,2.187.265,4.154.144,6.1-.421,6.778-.152,13.731-1.64,20.277-2.025,8.911-8.287,14.435-17.461,16.074-8.984,1.6-16.366-1.549-21.434-8.906C8.318,18.962,5.741,13.217,2.942,7.67A77.119,77.119,0,0,1,0,0" fill="#b3dd9e"/>
        </g>
        <g id="Grupo_323" data-name="Grupo 323" transform="translate(128.725 -131.854)">
          <path id="Caminho_303" data-name="Caminho 303" d="M0,0-2.011-.3c-.668,5.242-.838,10.609-2.108,15.7-2.712,10.872-14.2,15.9-23.329,9.582-4.481-3.1-7.251-8.739-10.6-13.367-1.075-1.483-1.539-3.41-2.282-5.134-1.4,8.508,4.506,17.988,12.386,21.867,6.8,3.346,16.423,2.409,21.341-2.727C.418,18.284.619,9.168,0,0" fill="#b3dd9e"/>
        </g>
        <g id="Grupo_324" data-name="Grupo 324" transform="translate(92.439 -126.052)">
          <path id="Caminho_304" data-name="Caminho 304" d="M0,0C4.233,7.279,9.056,12.381,17.274,12.347c5.123-.021,8.834-2.677,11.078-7.3C30.3,1.043,30.1-1.556,27.216-5.184,26.862,2.11,25.6,9.8,17.042,8.793,11.4,8.128,6.239,3.385,0,0" fill="#b3dd9e"/>
        </g>
        <g id="Grupo_325" data-name="Grupo 325" transform="translate(99.355 -127.748)">
          <path id="Caminho_305" data-name="Caminho 305" d="M0,0C1.206,6.147,5.389,8.847,10.394,7.326,14.91,5.953,16.819,2.24,15.2-2.031,8.725,7.987,7.959,6.118,0,0" fill="#b3dd9e"/>
        </g>
        <g id="Grupo_326" data-name="Grupo 326" transform="translate(197.774 -141.339)">
          <path id="Caminho_306" data-name="Caminho 306" d="M0,0,6.556,1.783a185.274,185.274,0,0,1,1.138,49.5c-4.5,37.779-30.366,66.657-68.062,76.35-17.278,4.442-34.7,5.525-52.241,2.2-23.1-4.378-40.42-16.441-50.992-37.994-9.684-19.744-13.975-40.868-17.924-62.534a35.624,35.624,0,0,1,3.4-1.165,24.076,24.076,0,0,1,3.093-.309c2.39,10.585,4.457,21.092,7.2,31.42A229.194,229.194,0,0,0-160.162,82.6c8.607,22.394,24.811,36.509,48.384,40.538,37.542,6.418,70.712-2.1,96.108-32.215C-2.292,75.057,1.66,55.781,1.6,35.61,1.56,23.96.584,12.312,0,0" fill="#b3dd9e"/>
        </g>
        <g id="Grupo_327" data-name="Grupo 327" transform="translate(183.888 -142.191)">
          <path id="Caminho_307" data-name="Caminho 307" d="M0,0,5.878.4c3.637,29.22,3.033,57.582-10.7,84.192A49.82,49.82,0,0,1-31.19,108.456c-15.668,6.281-31.77,10.715-48.842,10.814-21.459.124-38.624-8.631-51.476-25.5-14.675-19.258-20.971-41.94-25.862-65.6l4.6-.811c3.964,13.022,7.493,25.785,11.761,38.3A79.108,79.108,0,0,0-120.9,96.891c12.725,12.394,28,18.928,45.731,16.242a265.106,265.106,0,0,0,40.849-9.593C-20.112,99-11.146,88.2-5.975,74.3,1.8,53.4,3.758,31.841,1.26,9.789.912,6.712.472,3.645,0,0" fill="#b3dd9e"/>
        </g>
        <g id="Grupo_328" data-name="Grupo 328" transform="translate(36.256 -115.879)">
          <path id="Caminho_308" data-name="Caminho 308" d="M0,0,5.912-1.043c2.851,9.79,5.1,19.506,8.492,28.806C25.928,59.377,49.3,73.076,84.395,69.322c29.549-3.161,39.635-11.48,47.205-40.187a136.1,136.1,0,0,0,4.067-25.957c.552-8.71-.354-17.512-.636-26.783l4.694-.828c4.323,28.314,1.7,55.293-13.48,79.76a37.119,37.119,0,0,1-16.764,13.878c-21.184,8.457-43.144,8.958-64.658.93C28.51,64.047,18.008,51.374,11.639,35.665,7.055,24.359,3.993,12.435,0,0" fill="#b3dd9e"/>
        </g>
        <g id="Grupo_329" data-name="Grupo 329" transform="translate(2.329 -110.213)">
          <path id="Caminho_309" data-name="Caminho 309" d="M0,0C.659,1.788,1.449,3.54,1.957,5.369q4.859,17.488,9.606,35.008c8.1,30.135,28.994,48.076,56.665,59.59,23.969,9.975,48.092,10.208,71.621-.626a277.265,277.265,0,0,0,39.795-22.077c29.73-20.193,40.15-49.476,36.9-84.421-.29-3.11-.611-6.217-.877-9.328a11.478,11.478,0,0,1,.73-2.342c1.065,2.393,2.173,3.862,2.35,5.436,2.576,22.912,1.538,45.263-10.836,65.715a88.853,88.853,0,0,1-25.765,26.858c-18.029,12.55-37.248,22.9-58.66,28.485-23.587,6.149-45.519.477-66.855-9.721-29.151-13.934-44.5-37.977-51.41-68.561C3.049,19.776.206,10.319-2.33.793L0,0" fill="#b3dd9e"/>
        </g>
        <g id="Grupo_330" data-name="Grupo 330" transform="translate(51.578 -118.599)">
          <path id="Caminho_310" data-name="Caminho 310" d="M0,0C1.3,4.766,2.45,9.582,3.94,14.289c9.252,29.233,23,40.2,53.44,41.405a92.329,92.329,0,0,0,26.566-2.682c13.627-3.55,21.492-13.51,24.524-27.2,2.864-12.924,2.767-25.945,1.1-39.007-.258-2.021-.392-4.059-.583-6.089l1.564-.418a16.661,16.661,0,0,1,1.474,3.627c2.139,13.98,2.789,27.944-.487,41.877-4.375,18.607-14.77,29.161-33.75,31.644a130.147,130.147,0,0,1-31.428.035C20.4,54.505,6.837,37.708.623,13.721-.508,9.355-1,4.823-1.783.368L0,0" fill="#b3dd9e"/>
        </g>
        <g id="Grupo_331" data-name="Grupo 331" transform="translate(58.974 -120.008)">
          <path id="Caminho_311" data-name="Caminho 311" d="M0,0C.6,1.966,1.263,3.915,1.779,5.9c.735,2.834,1.336,5.7,2.035,8.546C9.443,37.331,23.311,48.4,46.925,47.018c10.991-.644,21.908-3.55,32.716-6.044,9.626-2.221,15.34-9.191,16.116-18.657.883-10.789.1-21.718-.043-32.584-.028-2.146-.427-4.287.695-6.774A7.539,7.539,0,0,1,97.7-14.948c2.782,12.892,3.965,25.827,1.056,38.89-2.182,9.8-7.879,17.241-17.441,19.45-13.394,3.1-27.172,5.992-40.822,6.166C21.18,49.8,8.869,39.453,2.847,21.05.667,14.388-.679,7.452-2.406.642L0,0" fill="#b3dd9e"/>
        </g>
        <g id="Grupo_332" data-name="Grupo 332" transform="translate(70.789 -123.519)">
          <path id="Caminho_312" data-name="Caminho 312" d="M0,0A67.44,67.44,0,0,0,2,7.017c3.332,7.827,5.924,16.149,10.422,23.255,5.469,8.64,14.6,12.553,24.782,11.543a72.251,72.251,0,0,0,20.3-5.022c12.538-5.2,16.245-16.027,15.724-28.7-.2-4.867-.966-9.71-1.419-14.57-.147-1.573-.119-3.162-.211-5.941,7.59,11.281,5.29,36.391-3.235,45.588C58.385,43.941,33.1,48.143,20.261,41.165,8.147,34.58-3.443,12.521,0,0" fill="#b3dd9e"/>
        </g>
        <g id="Grupo_333" data-name="Grupo 333" transform="translate(81.63 -124.104)">
          <path id="Caminho_313" data-name="Caminho 313" d="M0,0A77.119,77.119,0,0,0,2.942,7.67c2.8,5.547,5.376,11.292,8.881,16.378,5.068,7.357,12.45,10.511,21.434,8.906,9.174-1.639,15.436-7.163,17.461-16.074,1.488-6.546,1.219-13.5,1.64-20.277.121-1.946-.082-3.913-.144-6.1,1.374.3,2.009.33,2.033.465C56.3,2.5,56.6,14,50.492,24.455a24.062,24.062,0,0,1-37.378,5.217C4.794,21.815.7,11.641-2.168.944L0,0" fill="#b3dd9e"/>
        </g>
        <g id="Grupo_334" data-name="Grupo 334" transform="translate(128.725 -131.854)">
          <path id="Caminho_314" data-name="Caminho 314" d="M0,0C.619,9.168.418,18.284-6.607,25.622c-4.918,5.136-14.543,6.073-21.341,2.727C-35.828,24.47-41.733,14.99-40.334,6.482c.743,1.724,1.207,3.651,2.282,5.134,3.353,4.628,6.123,10.266,10.6,13.367C-18.321,31.3-6.831,26.273-4.119,15.4c1.27-5.092,1.44-10.459,2.108-15.7L0,0" fill="#b3dd9e"/>
        </g>
        <g id="Grupo_335" data-name="Grupo 335" transform="translate(92.439 -126.052)">
          <path id="Caminho_315" data-name="Caminho 315" d="M0,0C6.239,3.385,11.4,8.128,17.042,8.793,25.6,9.8,26.862,2.11,27.216-5.184,30.1-1.556,30.3,1.043,28.352,5.049c-2.244,4.621-5.955,7.277-11.078,7.3C9.056,12.381,4.233,7.279,0,0" fill="#b3dd9e"/>
        </g>
        <g id="Grupo_336" data-name="Grupo 336" transform="translate(99.355 -127.748)">
          <path id="Caminho_316" data-name="Caminho 316" d="M0,0C7.959,6.118,8.725,7.987,15.2-2.031c1.614,4.271-.3,7.984-4.811,9.357C5.389,8.847,1.206,6.147,0,0" fill="#b3dd9e"/>
        </g>
      </g>
    </g>
    <g id="Grupo_314" data-name="Grupo 314" transform="translate(1174 1263.425)">
      <g id="Grupo_290" data-name="Grupo 290" clip-path="url(#clip-path-3)">
        <g id="Grupo_289" data-name="Grupo 289" transform="translate(272.126 -1116.85)">
          <path id="Caminho_270" data-name="Caminho 270" d="M0,0C-150.291,0-272.126,121.835-272.126,272.126v572.6c0,150.291,121.835,272.126,272.126,272.126S272.126,995.015,272.126,844.724v-572.6C272.126,121.835,150.291,0,0,0" fill="#ffc593"/>
        </g>
      </g>
      <g id="Grupo_313" data-name="Grupo 313" clip-path="url(#clip-path-4)">
        <g id="Grupo_291" data-name="Grupo 291" transform="translate(130.876 -1103.1)">
          <path id="Caminho_272" data-name="Caminho 272" d="M0,0C.584,12.312,1.56,23.96,1.6,35.61,1.66,55.781-2.292,75.057-15.67,90.924c-25.4,30.117-58.566,38.633-96.108,32.215C-135.351,119.11-151.555,105-160.162,82.6a229.194,229.194,0,0,1-7.674-23.349c-2.739-10.328-4.806-20.835-7.2-31.42a24.076,24.076,0,0,0-3.093.309,35.907,35.907,0,0,0-3.4,1.165c3.949,21.666,8.24,42.79,17.924,62.534,10.572,21.553,27.9,33.616,50.992,37.994,17.546,3.325,34.963,2.242,52.241-2.2,37.7-9.693,63.56-38.571,68.062-76.35a185.274,185.274,0,0,0-1.138-49.5L0,0" fill="#fff"/>
        </g>
        <g id="Grupo_292" data-name="Grupo 292" transform="translate(116.99 -1103.953)">
          <path id="Caminho_273" data-name="Caminho 273" d="M0,0C.472,3.645.912,6.712,1.26,9.789,3.758,31.841,1.8,53.4-5.975,74.3-11.146,88.2-20.112,99-34.317,103.54a265.106,265.106,0,0,1-40.849,9.593c-17.728,2.686-33.006-3.848-45.731-16.242a79.108,79.108,0,0,1-20.111-31.23c-4.268-12.511-7.8-25.274-11.761-38.3l-4.6.811c4.891,23.657,11.187,46.339,25.862,65.6,12.852,16.866,30.017,25.621,51.476,25.5,17.072-.1,33.174-4.533,48.842-10.814A49.82,49.82,0,0,0-4.818,84.593C8.911,57.984,9.515,29.621,5.878.4L0,0" fill="#fff"/>
        </g>
        <g id="Grupo_293" data-name="Grupo 293" transform="translate(-30.642 -1077.641)">
          <path id="Caminho_274" data-name="Caminho 274" d="M0,0C3.993,12.435,7.055,24.359,11.639,35.665c6.369,15.709,16.871,28.382,33.184,34.47,21.514,8.028,43.474,7.527,64.658-.93a37.119,37.119,0,0,0,16.764-13.878c15.18-24.467,17.8-51.446,13.48-79.76l-4.694.828c.282,9.271,1.188,18.073.636,26.783A136.1,136.1,0,0,1,131.6,29.135c-7.57,28.707-17.656,37.026-47.205,40.187C49.3,73.076,25.928,59.377,14.4,27.763c-3.39-9.3-5.641-19.016-8.492-28.805L0,0" fill="#fff"/>
        </g>
        <g id="Grupo_294" data-name="Grupo 294" transform="translate(-64.568 -1071.974)">
          <path id="Caminho_275" data-name="Caminho 275" d="M0,0-2.33.793C.206,10.319,3.049,19.776,5.219,29.385c6.908,30.584,22.259,54.627,51.41,68.561,21.336,10.2,43.268,15.87,66.855,9.721,21.412-5.583,40.631-15.935,58.66-28.485a88.853,88.853,0,0,0,25.765-26.858c12.374-20.452,13.412-42.8,10.836-65.715-.177-1.574-1.285-3.043-2.35-5.436a11.478,11.478,0,0,0-.73,2.342c.266,3.111.587,6.218.877,9.328,3.252,34.945-7.168,64.229-36.9,84.422a277.356,277.356,0,0,1-39.795,22.076c-23.529,10.834-47.652,10.6-71.621.626C40.557,88.453,19.667,70.513,11.563,40.377Q6.85,22.849,1.957,5.369C1.449,3.54.659,1.788,0,0" fill="#fff"/>
        </g>
        <g id="Grupo_295" data-name="Grupo 295" transform="translate(-15.319 -1080.361)">
          <path id="Caminho_276" data-name="Caminho 276" d="M0,0-1.783.368C-1,4.823-.508,9.355.623,13.721,6.837,37.708,20.4,54.505,46.363,57.485a130.147,130.147,0,0,0,31.428-.035c18.98-2.483,29.375-13.036,33.75-31.644,3.276-13.933,2.626-27.9.487-41.877a16.661,16.661,0,0,0-1.474-3.627l-1.564.418c.191,2.03.325,4.068.583,6.089,1.664,13.062,1.761,26.083-1.1,39.007-3.032,13.686-10.9,23.646-24.524,27.2A92.329,92.329,0,0,1,57.38,55.694c-30.444-1.2-44.188-12.172-53.44-41.405C2.45,9.582,1.3,4.766,0,0" fill="#fff"/>
        </g>
        <g id="Grupo_296" data-name="Grupo 296" transform="translate(-7.924 -1081.77)">
          <path id="Caminho_277" data-name="Caminho 277" d="M0,0-2.406.642C-.679,7.453.667,14.388,2.847,21.05,8.869,39.453,21.18,49.8,40.493,49.558c13.65-.174,27.428-3.071,40.822-6.166,9.562-2.209,15.259-9.654,17.441-19.45,2.909-13.063,1.726-26-1.056-38.89a7.539,7.539,0,0,0-1.291-2.093c-1.122,2.487-.723,4.628-.695,6.774.141,10.866.926,21.8.043,32.584-.776,9.466-6.49,16.436-16.116,18.657-10.808,2.5-21.725,5.4-32.716,6.044C23.311,48.4,9.443,37.331,3.814,14.449c-.7-2.844-1.3-5.712-2.035-8.546C1.263,3.915.6,1.966,0,0" fill="#fff"/>
        </g>
        <g id="Grupo_297" data-name="Grupo 297" transform="translate(3.891 -1085.28)">
          <path id="Caminho_278" data-name="Caminho 278" d="M0,0C-3.443,12.521,8.147,34.58,20.261,41.165c12.836,6.978,38.124,2.776,48.108-7.993,8.525-9.2,10.825-34.307,3.235-45.588.092,2.779.064,4.368.211,5.941.453,4.86,1.219,9.7,1.419,14.57.521,12.671-3.186,23.495-15.724,28.7a72.251,72.251,0,0,1-20.3,5.022c-10.184,1.01-19.313-2.9-24.782-11.543C7.927,23.166,5.335,14.844,2,7.017A67.44,67.44,0,0,1,0,0" fill="#fff"/>
        </g>
        <g id="Grupo_298" data-name="Grupo 298" transform="translate(14.733 -1085.865)">
          <path id="Caminho_279" data-name="Caminho 279" d="M0,0-2.168.945C.7,11.641,4.794,21.815,13.114,29.672a24.062,24.062,0,0,0,37.378-5.217C56.6,14,56.3,2.5,54.247-9.032c-.024-.135-.659-.162-2.033-.465.062,2.187.265,4.154.144,6.1-.421,6.778-.152,13.73-1.64,20.277-2.025,8.911-8.287,14.435-17.461,16.074-8.984,1.6-16.366-1.549-21.434-8.906C8.318,18.962,5.741,13.217,2.942,7.67A77.119,77.119,0,0,1,0,0" fill="#fff"/>
        </g>
        <g id="Grupo_299" data-name="Grupo 299" transform="translate(61.827 -1093.615)">
          <path id="Caminho_280" data-name="Caminho 280" d="M0,0-2.011-.3c-.668,5.243-.838,10.609-2.108,15.7-2.712,10.872-14.2,15.9-23.329,9.582-4.481-3.1-7.251-8.739-10.6-13.367-1.075-1.483-1.539-3.41-2.282-5.134-1.4,8.508,4.506,17.988,12.386,21.867,6.8,3.346,16.423,2.409,21.341-2.727C.418,18.284.619,9.168,0,0" fill="#fff"/>
        </g>
        <g id="Grupo_300" data-name="Grupo 300" transform="translate(25.542 -1087.814)">
          <path id="Caminho_281" data-name="Caminho 281" d="M0,0C4.233,7.279,9.056,12.381,17.274,12.347c5.123-.021,8.834-2.677,11.078-7.3C30.3,1.043,30.1-1.556,27.216-5.184,26.862,2.11,25.6,9.8,17.042,8.793,11.4,8.128,6.239,3.385,0,0" fill="#fff"/>
        </g>
        <g id="Grupo_301" data-name="Grupo 301" transform="translate(32.457 -1089.509)">
          <path id="Caminho_282" data-name="Caminho 282" d="M0,0C1.206,6.147,5.389,8.847,10.394,7.326,14.91,5.953,16.819,2.24,15.2-2.031,8.725,7.987,7.959,6.118,0,0" fill="#fff"/>
        </g>
        <g id="Grupo_302" data-name="Grupo 302" transform="translate(130.876 -1103.1)">
          <path id="Caminho_283" data-name="Caminho 283" d="M0,0,6.556,1.783a185.274,185.274,0,0,1,1.138,49.5c-4.5,37.779-30.366,66.657-68.062,76.35-17.278,4.442-34.7,5.525-52.241,2.2-23.1-4.378-40.42-16.441-50.992-37.994-9.684-19.744-13.975-40.868-17.924-62.534a35.907,35.907,0,0,1,3.4-1.165,24.076,24.076,0,0,1,3.093-.309c2.39,10.585,4.457,21.092,7.2,31.42A229.194,229.194,0,0,0-160.162,82.6c8.607,22.394,24.811,36.509,48.384,40.538,37.542,6.418,70.712-2.1,96.108-32.215C-2.292,75.057,1.66,55.781,1.6,35.61,1.56,23.96.584,12.312,0,0" fill="#fff"/>
        </g>
        <g id="Grupo_303" data-name="Grupo 303" transform="translate(116.99 -1103.953)">
          <path id="Caminho_284" data-name="Caminho 284" d="M0,0,5.878.4c3.637,29.22,3.033,57.583-10.7,84.192A49.82,49.82,0,0,1-31.19,108.456c-15.668,6.281-31.77,10.715-48.842,10.814-21.459.124-38.624-8.631-51.476-25.5-14.675-19.258-20.971-41.94-25.862-65.6l4.6-.811c3.964,13.022,7.493,25.785,11.761,38.3A79.108,79.108,0,0,0-120.9,96.891c12.725,12.394,28,18.928,45.731,16.242a265.106,265.106,0,0,0,40.849-9.593C-20.112,99-11.146,88.2-5.975,74.3,1.8,53.4,3.758,31.841,1.26,9.789.912,6.712.472,3.645,0,0" fill="#fff"/>
        </g>
        <g id="Grupo_304" data-name="Grupo 304" transform="translate(-30.642 -1077.641)">
          <path id="Caminho_285" data-name="Caminho 285" d="M0,0,5.912-1.042c2.851,9.789,5.1,19.5,8.492,28.805C25.928,59.377,49.3,73.076,84.395,69.322c29.549-3.161,39.635-11.48,47.205-40.187a136.1,136.1,0,0,0,4.067-25.957c.552-8.71-.354-17.512-.636-26.783l4.694-.828c4.323,28.314,1.7,55.293-13.48,79.76a37.119,37.119,0,0,1-16.764,13.878c-21.184,8.457-43.144,8.958-64.658.93C28.51,64.047,18.008,51.374,11.639,35.665,7.055,24.359,3.993,12.435,0,0" fill="#fff"/>
        </g>
        <g id="Grupo_305" data-name="Grupo 305" transform="translate(-64.568 -1071.974)">
          <path id="Caminho_286" data-name="Caminho 286" d="M0,0C.659,1.788,1.449,3.54,1.957,5.369q4.859,17.488,9.606,35.008c8.1,30.136,28.994,48.076,56.665,59.59,23.969,9.975,48.092,10.208,71.621-.626a277.356,277.356,0,0,0,39.795-22.076c29.73-20.193,40.15-49.477,36.9-84.422-.29-3.11-.611-6.217-.877-9.328a11.478,11.478,0,0,1,.73-2.342c1.065,2.393,2.173,3.862,2.35,5.436,2.576,22.912,1.538,45.263-10.836,65.715a88.853,88.853,0,0,1-25.765,26.858c-18.029,12.55-37.248,22.9-58.66,28.485-23.587,6.149-45.519.477-66.855-9.721-29.151-13.934-44.5-37.977-51.41-68.561C3.049,19.776.206,10.319-2.33.793L0,0" fill="#fff"/>
        </g>
        <g id="Grupo_306" data-name="Grupo 306" transform="translate(-15.319 -1080.361)">
          <path id="Caminho_287" data-name="Caminho 287" d="M0,0C1.3,4.766,2.45,9.582,3.94,14.289c9.252,29.233,23,40.2,53.44,41.405a92.329,92.329,0,0,0,26.566-2.682c13.627-3.55,21.492-13.51,24.524-27.2,2.864-12.924,2.767-25.945,1.1-39.007-.258-2.021-.392-4.059-.583-6.089l1.564-.418a16.661,16.661,0,0,1,1.474,3.627c2.139,13.98,2.789,27.944-.487,41.877-4.375,18.608-14.77,29.161-33.75,31.644a130.147,130.147,0,0,1-31.428.035C20.4,54.505,6.837,37.708.623,13.721-.508,9.355-1,4.823-1.783.368L0,0" fill="#fff"/>
        </g>
        <g id="Grupo_307" data-name="Grupo 307" transform="translate(-7.924 -1081.77)">
          <path id="Caminho_288" data-name="Caminho 288" d="M0,0C.6,1.966,1.263,3.915,1.779,5.9c.735,2.834,1.336,5.7,2.035,8.546C9.443,37.331,23.311,48.4,46.925,47.018c10.991-.644,21.908-3.549,32.716-6.044,9.626-2.221,15.34-9.191,16.116-18.657.883-10.789.1-21.718-.043-32.584-.028-2.146-.427-4.287.695-6.774A7.539,7.539,0,0,1,97.7-14.948c2.782,12.892,3.965,25.827,1.056,38.89-2.182,9.8-7.879,17.241-17.441,19.45-13.394,3.1-27.172,5.992-40.822,6.166C21.18,49.8,8.869,39.453,2.847,21.05.667,14.388-.679,7.453-2.406.642L0,0" fill="#fff"/>
        </g>
        <g id="Grupo_308" data-name="Grupo 308" transform="translate(3.891 -1085.28)">
          <path id="Caminho_289" data-name="Caminho 289" d="M0,0A67.44,67.44,0,0,0,2,7.017c3.332,7.827,5.924,16.149,10.422,23.255,5.469,8.64,14.6,12.553,24.782,11.543a72.251,72.251,0,0,0,20.3-5.022c12.538-5.2,16.245-16.027,15.724-28.7-.2-4.867-.966-9.71-1.419-14.57-.147-1.573-.119-3.162-.211-5.941,7.59,11.281,5.29,36.391-3.235,45.588C58.385,43.941,33.1,48.143,20.261,41.165,8.147,34.58-3.443,12.521,0,0" fill="#fff"/>
        </g>
        <g id="Grupo_309" data-name="Grupo 309" transform="translate(14.733 -1085.865)">
          <path id="Caminho_290" data-name="Caminho 290" d="M0,0A77.119,77.119,0,0,0,2.942,7.67c2.8,5.547,5.376,11.292,8.881,16.378,5.068,7.357,12.45,10.511,21.434,8.906,9.174-1.639,15.436-7.163,17.461-16.074,1.488-6.547,1.219-13.5,1.64-20.277.121-1.946-.082-3.913-.144-6.1,1.374.3,2.009.33,2.033.465C56.3,2.5,56.6,14,50.492,24.455a24.062,24.062,0,0,1-37.378,5.217C4.794,21.815.7,11.641-2.168.945L0,0" fill="#fff"/>
        </g>
        <g id="Grupo_310" data-name="Grupo 310" transform="translate(61.827 -1093.615)">
          <path id="Caminho_291" data-name="Caminho 291" d="M0,0C.619,9.168.418,18.284-6.607,25.622c-4.918,5.136-14.543,6.073-21.341,2.727C-35.828,24.47-41.733,14.99-40.334,6.482c.743,1.724,1.207,3.651,2.282,5.134,3.353,4.628,6.123,10.266,10.6,13.367C-18.321,31.3-6.831,26.273-4.119,15.4c1.27-5.092,1.44-10.458,2.108-15.7L0,0" fill="#fff"/>
        </g>
        <g id="Grupo_311" data-name="Grupo 311" transform="translate(25.542 -1087.814)">
          <path id="Caminho_292" data-name="Caminho 292" d="M0,0C6.239,3.385,11.4,8.128,17.042,8.793,25.6,9.8,26.862,2.11,27.216-5.184,30.1-1.556,30.3,1.043,28.352,5.049c-2.244,4.621-5.955,7.277-11.078,7.3C9.056,12.381,4.233,7.279,0,0" fill="#fff"/>
        </g>
        <g id="Grupo_312" data-name="Grupo 312" transform="translate(32.457 -1089.509)">
          <path id="Caminho_293" data-name="Caminho 293" d="M0,0C7.959,6.118,8.725,7.987,15.2-2.031c1.614,4.271-.3,7.984-4.811,9.357C5.389,8.847,1.206,6.147,0,0" fill="#fff"/>
        </g>
      </g>
    </g>
  </g>
</svg>
