<svg xmlns="http://www.w3.org/2000/svg" xmlns:xlink="http://www.w3.org/1999/xlink" width="91.459" height="202.687" viewBox="0 0 91.459 202.687">
  <defs>
    <clipPath id="clip-path">
      <path id="Caminho_1438" data-name="Caminho 1438" d="M64.273-215.433,4.567-51.39A5.138,5.138,0,0,0,7.637-44.8h0L95.715-12.746V-215.433Z" fill="none"/>
    </clipPath>
  </defs>
  <g id="bg_secconheca12" transform="translate(-4.255 215.433)">
    <g id="Grupo_1489" data-name="Grupo 1489" clip-path="url(#clip-path)">
      <g id="Grupo_1477" data-name="Grupo 1477" transform="translate(152.416 -180.665)">
        <path id="Caminho_1426" data-name="Caminho 1426" d="M0,0C-10.064-.3-19.59-.933-29.1-.8-45.58-.56-61.266,2.942-74.033,14.094c-24.235,21.17-30.717,48.381-24.941,78.949,3.628,19.195,15.386,32.227,33.8,38.937A186.793,186.793,0,0,0-46,137.915c8.474,2.09,17.084,3.628,25.763,5.429a19.647,19.647,0,0,1-.208,2.53,29.122,29.122,0,0,1-.9,2.794c-17.75-2.917-35.063-6.119-51.326-13.747-17.752-8.327-27.852-22.3-31.756-41.1a96.98,96.98,0,0,1,1.052-42.7C-96,20.2-72.782-1.338-41.993-5.552A151.3,151.3,0,0,1-1.55-5.329C-.972-3.343-.5-1.736,0,0" fill="#fff0d3"/>
      </g>
      <g id="Grupo_1478" data-name="Grupo 1478" transform="translate(153.311 -169.337)">
        <path id="Caminho_1427" data-name="Caminho 1427" d="M0,0C-2.983-.333-5.494-.649-8.012-.89c-18.046-1.725-35.623.181-52.581,6.829-11.28,4.421-19.972,11.9-23.478,23.563A216.494,216.494,0,0,0-91.323,63c-1.941,14.517,3.613,26.9,13.916,37.117A64.624,64.624,0,0,0-51.614,116.1c10.278,3.308,20.751,6.007,31.443,9.06-.137.865-.338,2.136-.6,3.768-19.39-3.657-38-8.476-53.941-20.186C-88.666,98.482-96.061,84.589-96.266,67.062c-.162-13.944,3.229-27.158,8.135-40.043A40.7,40.7,0,0,1-69.018,5.141C-47.482-6.451-24.327-7.349-.411-4.8-.266-3.107-.152-1.768,0,0" fill="#fff0d3"/>
      </g>
      <g id="Grupo_1479" data-name="Grupo 1479" transform="translate(133.927 -48.392)">
        <path id="Caminho_1428" data-name="Caminho 1428" d="M0,0C-10.212-3.084-19.994-5.414-29.293-9c-12.92-4.977-23.42-13.374-28.624-26.61a71.568,71.568,0,0,1-.163-52.818,30.319,30.319,0,0,1,11.1-13.89c19.765-12.746,41.761-15.273,64.946-12.146-.27,1.7-.468,2.957-.609,3.846-7.575-.1-14.777-.713-21.883-.138a111.2,111.2,0,0,0-21.14,3.691c-23.337,6.592-29.988,14.948-32.148,39.126-2.565,28.718,8.955,47.607,34.939,56.568C-15.235-8.732-7.269-7.032.767-4.843L0,0" fill="#fff0d3"/>
      </g>
      <g id="Grupo_1480" data-name="Grupo 1480" transform="translate(129.783 -20.604)">
        <path id="Caminho_1429" data-name="Caminho 1429" d="M0,0Q-.307.957-.614,1.914C-8.431-.021-16.195-2.208-24.073-3.844-49.149-9.049-69-21.244-80.8-44.852c-8.633-17.28-13.578-35.111-8.892-54.461,4.254-17.567,12.435-33.41,22.427-48.314A72.588,72.588,0,0,1-45.7-169.051c16.527-10.4,34.767-11.564,53.515-9.787,1.288.122,2.5,1.006,4.473,1.841a9.256,9.256,0,0,1-1.9.63c-2.545-.173-5.087-.391-7.631-.583-28.585-2.158-52.353,6.77-68.42,31.338A226.314,226.314,0,0,0-83.124-112.8c-8.513,19.371-7.979,39.069.509,58.5,9.8,22.435,24.748,39.24,49.475,45.428q14.382,3.6,28.727,7.346C-2.911-1.133-1.469-.513,0,0" fill="#fff0d3"/>
      </g>
      <g id="Grupo_1481" data-name="Grupo 1481" transform="translate(135.93 -60.944)">
        <path id="Caminho_1430" data-name="Caminho 1430" d="M0,0Q-.138.73-.275,1.461C-3.925.883-7.633.548-11.215-.313c-19.678-4.733-33.59-15.574-36.394-36.732a106.31,106.31,0,0,1-.419-25.667C-46.27-78.249-37.8-86.888-22.666-90.727c11.332-2.874,22.747-2.542,34.194-1a13.621,13.621,0,0,1,2.983,1.152q-.159.642-.319,1.284c-1.661-.127-3.327-.208-4.981-.389C-1.48-90.848-12.116-90.741-22.63-88.219-33.764-85.547-41.786-78.982-44.492-67.8A75.429,75.429,0,0,0-46.3-46.068c1.414,24.847,10.571,35.914,34.577,43.054C-7.86-1.864-3.911-1,0,0" fill="#fff0d3"/>
      </g>
      <g id="Grupo_1482" data-name="Grupo 1482" transform="translate(136.975 -67.004)">
        <path id="Caminho_1431" data-name="Caminho 1431" d="M0,0Q-.245.987-.49,1.974c-5.587-1.313-11.27-2.313-16.742-4C-32.347-6.681-40.976-16.587-41.051-32.364c-.052-11.15,2.117-22.444,4.454-33.427,1.667-7.84,7.667-12.6,15.636-14.521C-10.334-82.874.247-82.092,10.815-80a6.154,6.154,0,0,1,1.728,1.025c-2.015.951-3.769.656-5.522.664-8.877.039-17.814-.446-26.612.429-7.72.769-13.33,5.535-15.007,13.428-1.884,8.863-4.1,17.819-4.47,26.805C-39.862-18.348-30.623-7.18-11.855-2.909c2.333.531,4.684.981,7.009,1.541C-3.215-.976-1.614-.461,0,0" fill="#fff0d3"/>
      </g>
      <g id="Grupo_1483" data-name="Grupo 1483" transform="translate(152.416 -180.665)">
        <path id="Caminho_1432" data-name="Caminho 1432" d="M0,0C-.5-1.736-.972-3.343-1.55-5.329a151.3,151.3,0,0,0-40.443-.223C-72.782-1.338-96,20.2-103.377,51.121a96.98,96.98,0,0,0-1.052,42.7c3.9,18.8,14,32.776,31.756,41.1,16.263,7.628,33.576,10.83,51.326,13.747a29.122,29.122,0,0,0,.9-2.794,19.647,19.647,0,0,0,.208-2.53c-8.679-1.8-17.289-3.339-25.763-5.429a186.793,186.793,0,0,1-19.179-5.935c-18.411-6.71-30.169-19.742-33.8-38.937-5.776-30.568.706-57.779,24.941-78.949C-61.266,2.942-45.58-.56-29.1-.8-19.59-.933-10.064-.3,0,0" fill="#fff0d3"/>
      </g>
      <g id="Grupo_1484" data-name="Grupo 1484" transform="translate(153.311 -169.337)">
        <path id="Caminho_1433" data-name="Caminho 1433" d="M0,0C-.152-1.768-.266-3.107-.411-4.8-24.327-7.349-47.482-6.451-69.018,5.141A40.7,40.7,0,0,0-88.131,27.019c-4.906,12.885-8.3,26.1-8.135,40.043.205,17.527,7.6,31.42,21.557,41.676,15.937,11.71,34.551,16.529,53.941,20.186.259-1.632.46-2.9.6-3.768-10.692-3.053-21.165-5.752-31.443-9.06a64.624,64.624,0,0,1-25.793-15.979C-87.71,89.9-93.264,77.517-91.323,63a216.494,216.494,0,0,1,7.252-33.5c3.506-11.666,12.2-19.142,23.478-23.563C-43.635-.709-26.058-2.615-8.012-.89-5.494-.649-2.983-.333,0,0" fill="#fff0d3"/>
      </g>
      <g id="Grupo_1485" data-name="Grupo 1485" transform="translate(133.927 -48.392)">
        <path id="Caminho_1434" data-name="Caminho 1434" d="M0,0,.767-4.843c-8.036-2.189-16-3.889-23.646-6.525-25.984-8.961-37.5-27.85-34.939-56.568,2.16-24.178,8.811-32.534,32.148-39.126a111.2,111.2,0,0,1,21.14-3.691c7.106-.575,14.308.039,21.883.138.141-.889.339-2.142.609-3.846-23.185-3.127-45.181-.6-64.946,12.146a30.319,30.319,0,0,0-11.1,13.89,71.568,71.568,0,0,0,.163,52.818c5.2,13.236,15.7,21.633,28.624,26.61C-19.994-5.414-10.212-3.084,0,0" fill="#fff0d3"/>
      </g>
      <g id="Grupo_1486" data-name="Grupo 1486" transform="translate(129.783 -20.604)">
        <path id="Caminho_1435" data-name="Caminho 1435" d="M0,0C-1.469-.513-2.911-1.133-4.413-1.522Q-18.765-5.24-33.14-8.868C-57.867-15.056-72.817-31.861-82.615-54.3c-8.488-19.433-9.022-39.131-.509-58.5a226.314,226.314,0,0,1,17.462-32.814c16.067-24.568,39.835-33.5,68.42-31.338,2.544.192,5.086.41,7.631.583a9.256,9.256,0,0,0,1.9-.63c-1.969-.835-3.185-1.719-4.473-1.841-18.748-1.777-36.988-.611-53.515,9.787a72.588,72.588,0,0,0-21.567,21.424c-9.992,14.9-18.173,30.747-22.427,48.314-4.686,19.35.259,37.181,8.892,54.461C-69-21.244-49.149-9.049-24.073-3.844-16.195-2.208-8.431-.021-.614,1.914Q-.308.957,0,0" fill="#fff0d3"/>
      </g>
      <g id="Grupo_1487" data-name="Grupo 1487" transform="translate(135.93 -60.944)">
        <path id="Caminho_1436" data-name="Caminho 1436" d="M0,0C-3.911-1-7.86-1.864-11.726-3.014-35.732-10.154-44.889-21.221-46.3-46.068A75.429,75.429,0,0,1-44.492-67.8c2.706-11.179,10.728-17.744,21.862-20.416,10.514-2.522,21.15-2.629,31.841-1.456,1.654.181,3.32.262,4.981.389q.159-.642.319-1.284a13.621,13.621,0,0,0-2.983-1.152c-11.447-1.547-22.862-1.879-34.194,1C-37.8-86.888-46.27-78.249-48.028-62.712a106.31,106.31,0,0,0,.419,25.667c2.8,21.158,16.716,32,36.394,36.732,3.582.861,7.29,1.2,10.94,1.774Q-.137.73,0,0" fill="#fff0d3"/>
      </g>
      <g id="Grupo_1488" data-name="Grupo 1488" transform="translate(136.975 -67.004)">
        <path id="Caminho_1437" data-name="Caminho 1437" d="M0,0C-1.614-.461-3.215-.976-4.846-1.368c-2.325-.56-4.676-1.01-7.009-1.541C-30.623-7.18-39.862-18.348-39.068-37.653c.369-8.986,2.586-17.942,4.47-26.805,1.677-7.893,7.287-12.659,15.007-13.428,8.8-.875,17.735-.39,26.612-.429,1.753-.008,3.507.287,5.522-.664A6.154,6.154,0,0,0,10.815-80c-10.568-2.088-21.149-2.87-31.776-.308C-28.93-78.39-34.93-73.631-36.6-65.791c-2.337,10.983-4.506,22.277-4.454,33.427.075,15.777,8.7,25.683,23.819,30.339C-11.76-.339-6.077.661-.49,1.974Q-.245.987,0,0" fill="#fff0d3"/>
      </g>
    </g>
  </g>
</svg>
