<svg xmlns="http://www.w3.org/2000/svg" xmlns:xlink="http://www.w3.org/1999/xlink" width="35.419" height="28.371" viewBox="0 0 35.419 28.371">
  <defs>
    <clipPath id="clip-path">
      <path id="Caminho_1670" data-name="Caminho 1670" d="M0,0H35.419V-28.371H0Z" fill="none"/>
    </clipPath>
  </defs>
  <g id="pv_aberturacapmpg" transform="translate(0 28.371)" clip-path="url(#clip-path)">
    <g id="Grupo_1722" data-name="Grupo 1722" transform="translate(-2.53 -28.371)">
      <path id="Caminho_1667" data-name="Caminho 1667" d="M0,0V10.12a12.649,12.649,0,0,0,25.3,0V0Z" fill="#1c2531"/>
    </g>
    <g id="Grupo_1723" data-name="Grupo 1723" transform="translate(7.988 -28.371)">
      <path id="Caminho_1668" data-name="Caminho 1668" d="M0,0-5.3,6.332-3.659,0H-7.005l-2.1,5.879-1.41,0V17.405l1.06-.073-.288,9.431,1.676.332,2.311-9.426,5.44,10.7,1.03-.717-2.273-9.732,7.785,5.85L7.455,22.1l-8.473-7.327,9.7,2.971.343-1.815-9.466-3.7L9.788,8.354l-.236-2.34L-1.032,10.36l10.759-8.3L7.889,1.191-2.9,8.843,2.35,0Z" fill="#287642"/>
    </g>
    <g id="Grupo_1724" data-name="Grupo 1724" transform="translate(15.18 -28.371)">
      <path id="Caminho_1669" data-name="Caminho 1669" d="M0,0V15.179a10.12,10.12,0,1,0,20.239,0V0Z" fill="#e13f44"/>
    </g>
  </g>
</svg>
