<svg xmlns="http://www.w3.org/2000/svg" width="31.4" height="43.531" viewBox="0 0 31.4 43.531">
  <g id="pv_boxsaibamais_bg1" transform="translate(-191.449 -338.005)">
    <g id="Grupo_825" data-name="Grupo 825" transform="translate(222.738 339.867)">
      <path id="Caminho_728" data-name="Caminho 728" d="M0,0,.111-.678C-1.564-1-3.226-1.444-4.917-1.636-14.2-2.69-21.954-.183-26.513,8.557A49.129,49.129,0,0,0-30.75,19.63c-1.691,7.02.621,12.108,6.582,16.164A41.105,41.105,0,0,0-9.485,41.627,6.257,6.257,0,0,0-8.009,41.6c.022-.2.043-.4.065-.607-.741-.207-1.477-.436-2.224-.618a42.585,42.585,0,0,1-13.588-5.662c-4.41-2.918-6.855-7.034-6.263-12.313a34.868,34.868,0,0,1,2.647-9.719C-22.833,2.119-17.111-1.238-5.565-.544-3.706-.432-1.855-.185,0,0" fill="#ffc593"/>
    </g>
    <g id="Grupo_826" data-name="Grupo 826" transform="translate(222.234 342.662)">
      <path id="Caminho_729" data-name="Caminho 729" d="M0,0,.1-.934c-2.632-.313-5.256-.776-7.9-.909-7.3-.367-12.605,2.569-15.13,9.4a73.467,73.467,0,0,0-3.347,15.211c-.515,3.666,1.337,6.679,4.492,8.771A33.827,33.827,0,0,0-7.944,36.429a2.832,2.832,0,0,0,.912-.172A5.32,5.32,0,0,0-9.324,35.1c-3.846-1.42-7.8-2.62-11.481-4.39a7.493,7.493,0,0,1-4.392-8.2A75.286,75.286,0,0,1-22.9,10.17c2.7-8.5,8.479-11.891,17.3-10.78,1.1.138,2.187.314,3.285.438C-1.55-.084-.773-.055,0,0" fill="#ffc593"/>
    </g>
    <g id="Grupo_827" data-name="Grupo 827" transform="translate(221.874 347.297)">
      <path id="Caminho_730" data-name="Caminho 730" d="M0,0C-3.944-2.9-13.28-1.806-17.237,1.57c-4.192,3.578-6.131,13.052-3.688,18.024,2.086,4.246,10.618,8.45,15.617,7.3-.991-.343-1.547-.568-2.12-.729-1.773-.5-3.582-.882-5.324-1.47-4.533-1.529-7.843-4.3-7.981-9.417a27.221,27.221,0,0,1,.977-7.829A9.512,9.512,0,0,1-12.341.283c3.111-.623,6.392-.411,9.6-.526A25.142,25.142,0,0,1,0,0" fill="#ffc593"/>
    </g>
    <g id="Grupo_828" data-name="Grupo 828" transform="translate(220.614 351.195)">
      <path id="Caminho_731" data-name="Caminho 731" d="M0,0-.039-.891c-4.155-.438-8.292-.37-12.184,1.5a9.078,9.078,0,0,0-3.216,13.869c2.857,3.565,6.947,5.013,11.286,5.85.051.01.146-.21.439-.653-.779-.274-1.5-.468-2.168-.774A48.2,48.2,0,0,1-12.8,15.58a7.669,7.669,0,0,1-3.3-8.322A7.618,7.618,0,0,1-10.068.913,52.016,52.016,0,0,1-3.1,0,29.391,29.391,0,0,1,0,0" fill="#ffc593"/>
    </g>
    <g id="Grupo_829" data-name="Grupo 829" transform="translate(214.294 368.828)">
      <path id="Caminho_732" data-name="Caminho 732" d="M0,0C.126-.223.252-.445.377-.668A51.184,51.184,0,0,1-4.867-3.533c-3.462-2.425-3.68-7.151-.221-9.511,1.7-1.159,4.058-1.372,6.141-1.928a9.891,9.891,0,0,1,2.117-.109c-2.807-1.643-6.944-.845-9.376,1.406C-8.3-11.733-9.274-8.217-8.13-5.791-6.5-2.325-3.312-1.021,0,0" fill="#ffc593"/>
    </g>
    <g id="Grupo_830" data-name="Grupo 830" transform="translate(222.738 339.867)">
      <path id="Caminho_733" data-name="Caminho 733" d="M0,0C-1.855-.185-3.706-.432-5.565-.544c-11.546-.694-17.268,2.663-21.807,13.223A34.868,34.868,0,0,0-30.019,22.4c-.592,5.279,1.853,9.395,6.263,12.313a42.585,42.585,0,0,0,13.588,5.662c.747.182,1.483.411,2.224.618-.022.2-.043.4-.065.607a6.257,6.257,0,0,1-1.476.029,41.105,41.105,0,0,1-14.683-5.833c-5.961-4.056-8.273-9.144-6.582-16.164A49.129,49.129,0,0,1-26.513,8.557C-21.954-.183-14.2-2.69-4.917-1.636c1.691.192,3.353.633,5.028.958L0,0" fill="#ffc593"/>
    </g>
    <g id="Grupo_831" data-name="Grupo 831" transform="translate(222.234 342.662)">
      <path id="Caminho_734" data-name="Caminho 734" d="M0,0C-.773-.055-1.55-.084-2.319-.172-3.417-.3-4.508-.472-5.6-.61-14.424-1.721-20.2,1.666-22.9,10.17A75.286,75.286,0,0,0-25.2,22.509a7.493,7.493,0,0,0,4.392,8.2c3.68,1.77,7.635,2.97,11.481,4.39a5.32,5.32,0,0,1,2.292,1.16,2.832,2.832,0,0,1-.912.172,33.827,33.827,0,0,1-13.839-4.886c-3.155-2.092-5.007-5.1-4.492-8.771A73.467,73.467,0,0,1-22.928,7.561C-20.4.726-15.094-2.21-7.8-1.843c2.641.133,5.265.6,7.9.909L0,0" fill="#ffc593"/>
    </g>
    <g id="Grupo_832" data-name="Grupo 832" transform="translate(221.874 347.297)">
      <path id="Caminho_735" data-name="Caminho 735" d="M0,0A25.142,25.142,0,0,0-2.742-.243c-3.207.115-6.488-.1-9.6.526a9.512,9.512,0,0,0-7.415,7.168,27.221,27.221,0,0,0-.977,7.829c.138,5.119,3.448,7.888,7.981,9.417,1.742.588,3.551.973,5.324,1.47.573.161,1.129.386,2.12.729-5,1.148-13.531-3.056-15.617-7.3-2.443-4.972-.5-14.446,3.688-18.024C-13.28-1.806-3.944-2.9,0,0" fill="#ffc593"/>
    </g>
    <g id="Grupo_833" data-name="Grupo 833" transform="translate(220.614 351.195)">
      <path id="Caminho_736" data-name="Caminho 736" d="M0,0A29.391,29.391,0,0,0-3.1,0a52.016,52.016,0,0,0-6.969.914A7.618,7.618,0,0,0-16.1,7.258a7.669,7.669,0,0,0,3.3,8.322A48.2,48.2,0,0,0-5.882,18.9c.669.306,1.389.5,2.168.774-.293.443-.388.663-.439.653-4.339-.837-8.429-2.285-11.286-5.85A9.078,9.078,0,0,1-12.223.607C-8.331-1.261-4.194-1.329-.039-.891L0,0" fill="#ffc593"/>
    </g>
  </g>
</svg>
