<svg xmlns="http://www.w3.org/2000/svg" xmlns:xlink="http://www.w3.org/1999/xlink" width="32.992" height="20.545" viewBox="0 0 32.992 20.545">
  <defs>
    <clipPath id="clip-path">
      <path id="Caminho_785" data-name="Caminho 785" d="M0,0H32.992V-20.545H0Z" fill="none"/>
    </clipPath>
  </defs>
  <g id="pv_boxmeteriais_bg" transform="translate(0 20.545)">
    <g id="Grupo_824" data-name="Grupo 824" clip-path="url(#clip-path)">
      <g id="Grupo_811" data-name="Grupo 811" transform="translate(0.557 -0.433)">
        <path id="Caminho_772" data-name="Caminho 772" d="M0,0-.522-.015c0-1.3-.087-2.6.015-3.891.56-7.083,3.555-12.5,10.737-14.635A37.272,37.272,0,0,1,19.106-20.1c5.484-.244,8.945,2.218,11.107,7.255a31.262,31.262,0,0,1,2.222,11.8A4.814,4.814,0,0,1,32.2.058L31.737.017c-.047-.582-.111-1.164-.139-1.748a32.368,32.368,0,0,0-2.253-10.96c-1.538-3.714-4.255-6.135-8.279-6.459a26.475,26.475,0,0,0-7.636.566C4.893-16.729,1.558-12.947.4-4.231.215-2.828.131-1.411,0,0" fill="#ffe8d7"/>
      </g>
      <g id="Grupo_812" data-name="Grupo 812" transform="translate(2.715 -0.403)">
        <path id="Caminho_773" data-name="Caminho 773" d="M0,0-.711-.061c.148-2.01.183-4.035.467-6.025.784-5.5,3.745-9.032,9.211-9.925A55.867,55.867,0,0,1,20.8-16.3c2.81.148,4.789,1.966,5.893,4.624A25.706,25.706,0,0,1,28.333-.644a2.159,2.159,0,0,1-.26.656,4.045,4.045,0,0,1-.534-1.878c-.5-3.076-.823-6.2-1.61-9.2a5.7,5.7,0,0,0-5.48-4.466,57.26,57.26,0,0,0-9.539-.078C4.173-14.829.808-11.012.358-4.27.3-3.432.275-2.592.208-1.755.162-1.168.071-.585,0,0" fill="#ffe8d7"/>
      </g>
      <g id="Grupo_813" data-name="Grupo 813" transform="translate(6.226)">
        <path id="Caminho_774" data-name="Caminho 774" d="M0,0C-1.6-3.364.579-10.17,3.672-12.633c3.277-2.61,10.627-2.682,13.983-.138C20.52-10.6,22.42-3.623,20.838-.059c-.112-.789-.2-1.237-.236-1.688-.114-1.395-.139-2.8-.325-4.186-.484-3.6-2.069-6.475-5.869-7.32a20.721,20.721,0,0,0-5.983-.407A7.229,7.229,0,0,0,2-9.167,45.785,45.785,0,0,0,.216-2.081,19.475,19.475,0,0,0,0,0" fill="#ffe8d7"/>
      </g>
      <g id="Grupo_814" data-name="Grupo 814" transform="translate(9.317 -0.375)">
        <path id="Caminho_775" data-name="Caminho 775" d="M0,0-.659-.159A16.786,16.786,0,0,1,2.226-9.032,6.9,6.9,0,0,1,13.04-9.42c2.246,2.649,2.733,5.911,2.728,9.269,0,.04-.178.079-.551.233-.091-.621-.132-1.186-.263-1.73a36.593,36.593,0,0,0-1.472-5.644,5.83,5.83,0,0,0-5.732-3.67A5.793,5.793,0,0,0,2.141-7.38,39.586,39.586,0,0,0,.449-2.312,22,22,0,0,0,0,0" fill="#ffe8d7"/>
      </g>
      <g id="Grupo_815" data-name="Grupo 815" transform="translate(23.391 -2.532)">
        <path id="Caminho_776" data-name="Caminho 776" d="M0,0-.553.185A39.072,39.072,0,0,0-1.93-4.144,4.3,4.3,0,0,0-8.995-5.688c-1.111,1.1-1.612,2.829-2.329,4.3A7.6,7.6,0,0,0-11.712.178,6.385,6.385,0,0,1-9.3-6.614a5.575,5.575,0,0,1,6.162-.292C-.792-5.184-.282-2.62,0,0" fill="#ffe8d7"/>
      </g>
      <g id="Grupo_816" data-name="Grupo 816" transform="translate(12.466 -0.363)">
        <path id="Caminho_777" data-name="Caminho 777" d="M0,0C.833-2.266,1.941-3.947,4.263-4.347a3.392,3.392,0,0,1,3.492,1.51A2.353,2.353,0,0,1,7.943.109C7.48-1.933,6.74-4.043,4.375-3.332,2.815-2.863,1.593-1.266,0,0" fill="#ffe8d7"/>
      </g>
      <g id="Grupo_817" data-name="Grupo 817" transform="translate(14.503 -0.228)">
        <path id="Caminho_778" data-name="Caminho 778" d="M0,0C.035-1.8,1.081-2.766,2.57-2.586a1.925,1.925,0,0,1,1.825,2.4C2.066-2.69,1.943-2.124,0,0" fill="#ffe8d7"/>
      </g>
      <g id="Grupo_818" data-name="Grupo 818" transform="translate(0.557 -0.433)">
        <path id="Caminho_779" data-name="Caminho 779" d="M0,0C.131-1.411.215-2.828.4-4.231c1.157-8.716,4.492-12.5,13.029-14.353a26.475,26.475,0,0,1,7.636-.566c4.024.324,6.741,2.745,8.279,6.459A32.368,32.368,0,0,1,31.6-1.731c.028.584.092,1.166.139,1.748L32.2.058a4.814,4.814,0,0,0,.235-1.1,31.262,31.262,0,0,0-2.222-11.8c-2.162-5.037-5.623-7.5-11.107-7.255a37.272,37.272,0,0,0-8.876,1.555C3.048-16.407.053-10.989-.507-3.906c-.1,1.289-.015,2.594-.015,3.891L0,0" fill="#ffe8d7"/>
      </g>
      <g id="Grupo_819" data-name="Grupo 819" transform="translate(2.715 -0.403)">
        <path id="Caminho_780" data-name="Caminho 780" d="M0,0C.071-.585.162-1.168.208-1.755.275-2.592.3-3.432.358-4.27c.45-6.742,3.815-10.559,10.552-11.344a57.26,57.26,0,0,1,9.539.078,5.7,5.7,0,0,1,5.48,4.466c.787,3,1.109,6.128,1.61,9.2A4.045,4.045,0,0,0,28.073.012a2.159,2.159,0,0,0,.26-.656,25.706,25.706,0,0,0-1.638-11.034c-1.1-2.658-3.083-4.476-5.893-4.624a55.867,55.867,0,0,0-11.835.291C3.5-15.118.54-11.582-.244-6.086-.528-4.1-.563-2.071-.711-.061L0,0" fill="#ffe8d7"/>
      </g>
      <g id="Grupo_820" data-name="Grupo 820" transform="translate(6.226)">
        <path id="Caminho_781" data-name="Caminho 781" d="M0,0A19.475,19.475,0,0,1,.216-2.081,45.785,45.785,0,0,1,2-9.167,7.229,7.229,0,0,1,8.425-13.66a20.721,20.721,0,0,1,5.983.407c3.8.845,5.385,3.716,5.869,7.32.186,1.385.211,2.791.325,4.186.037.451.124.9.236,1.688,1.582-3.564-.318-10.54-3.183-12.712-3.356-2.544-10.706-2.472-13.983.138C.579-10.17-1.6-3.364,0,0" fill="#ffe8d7"/>
      </g>
      <g id="Grupo_821" data-name="Grupo 821" transform="translate(9.317 -0.375)">
        <path id="Caminho_782" data-name="Caminho 782" d="M0,0A22,22,0,0,1,.449-2.312,39.586,39.586,0,0,1,2.141-7.38,5.793,5.793,0,0,1,7.75-10.962a5.83,5.83,0,0,1,5.732,3.67,36.593,36.593,0,0,1,1.472,5.644c.131.544.172,1.109.263,1.73.373-.154.551-.193.551-.233.005-3.358-.482-6.62-2.728-9.269a6.9,6.9,0,0,0-10.814.388A16.786,16.786,0,0,0-.659-.159L0,0" fill="#ffe8d7"/>
      </g>
      <g id="Grupo_822" data-name="Grupo 822" transform="translate(12.466 -0.363)">
        <path id="Caminho_783" data-name="Caminho 783" d="M0,0C1.593-1.266,2.815-2.863,4.375-3.332,6.74-4.043,7.48-1.933,7.943.109a2.353,2.353,0,0,0-.188-2.946,3.392,3.392,0,0,0-3.492-1.51C1.941-3.947.833-2.266,0,0" fill="#ffe8d7"/>
      </g>
      <g id="Grupo_823" data-name="Grupo 823" transform="translate(14.503 -0.228)">
        <path id="Caminho_784" data-name="Caminho 784" d="M0,0C1.943-2.124,2.066-2.69,4.395-.183a1.925,1.925,0,0,0-1.825-2.4C1.081-2.766.035-1.8,0,0" fill="#ffe8d7"/>
      </g>
    </g>
  </g>
</svg>
