<svg xmlns="http://www.w3.org/2000/svg" xmlns:xlink="http://www.w3.org/1999/xlink" width="94.507" height="53.383" viewBox="0 0 94.507 53.383">
  <defs>
    <clipPath id="clip-path">
      <path id="Caminho_1098" data-name="Caminho 1098" d="M25.908-10.012h68.6V-52.248h-68.6Z" fill="none"/>
    </clipPath>
  </defs>
  <g id="pv_boxverifique" transform="translate(0 53.383)">
    <g id="Grupo_1150" data-name="Grupo 1150" clip-path="url(#clip-path)">
      <g id="Grupo_1067" data-name="Grupo 1067" transform="translate(50.412 -39.531)">
        <path id="Caminho_1015" data-name="Caminho 1015" d="M0,0Q.193-1.216.386-2.433.192-1.216,0,0L2.431.321,0,0" fill="#fff"/>
      </g>
      <g id="Grupo_1068" data-name="Grupo 1068" transform="translate(57.79 -19.288)">
        <path id="Caminho_1016" data-name="Caminho 1016" d="M0,0,1.244-.147,0,0,.279,1.785,0,0" fill="#fff"/>
      </g>
      <g id="Grupo_1069" data-name="Grupo 1069" transform="translate(92.771 -24.479)">
        <path id="Caminho_1017" data-name="Caminho 1017" d="M0,0C-.729-1.9-1.455-3.794-2.079-5.424-1.455-3.8-.73-1.9,0,0A.023.023,0,0,1,0,0" fill="#2b2e34"/>
      </g>
      <g id="Grupo_1070" data-name="Grupo 1070" transform="translate(93.489 -6.28)">
        <path id="Caminho_1018" data-name="Caminho 1018" d="M0,0,2.8-2.3c-.135-1.338-.277-2.74-.416-4.11L-.26-7.374l2.173-3.295C1.153-12.809.2-15.505-.762-18.206l-.014,0c.1.63.2,1.272.342,2.231l-2.666.222c-.46-2.543-.113-2.864,2.324-2.453,0-.023-.007-.047-.011-.07,0,0,.05.059.064.074L-2.8-23.623c-.089-.233-.176-.461-.261-.682A18.652,18.652,0,0,1-6.1-24.363c-.233-.043-.335-.782-.5-1.215l1.459-1.68-1.144-1.373-2.1,1.674c-2.222-1.6-1.438-2.875.258-4.106L-11.6-34.2l-3.333,1.189,1.023-3.209-8.436-3.951-2.071,2.727c-.532-1.347-.862-2.181-1.249-3.16L-26.89-40.8l-1.21,2.47L-29.9-41.2h-1.8c.486,1.859,0,3.033-2.451,3.284-.423-1.075-.871-2.213-1.386-3.519l-1.626.074c-.3.646-.516,1.106-.888,1.907L-40.3-41.374l-7.619,2.353c-.434,1.03-.7,1.655-.974,2.311l-2.662-.172c-.229.906-.41,1.621-.533,2.1l-2.765.814c.122,1.517.2,2.5.307,3.818l-3.57-.666c-.1,1.048-.2,2.051-.338,3.524l-2.418.731-2.046,4.009,1.965,1.84-1.21,2.088h-2.368c-.156.646-.293,1.215-.328,1.357l2.277,1.616-.318.778h-2.67l-.49,2.059,2.009,1.855-3.137,3.5,2.868,1.766c.03.275.059.549.089.824l-3.349,1.727c.228,1.11.519,2.533.911,4.443l-.727.957V5.948l3.125,1.676-2.049,2.394,2.312.587,1.488-1.529,3.1,2.048,1.705-2.636,2.292,2.465h1.586c.564-1.151.8-2.293,1.5-2.826.446-.339,1.579.222,2.469.392-.141,1.155-.223,1.829-.32,2.622l1.822.079.694-2.587.825-.181,1.456,2.821h1.369c-.017-2.69.381-3.05,2.777-2.344-.15.771-.3,1.547-.472,2.42h1.984l1.806-3.179,1.815,3.475c.835-.4,1.695-.806,2.347-1.116l2.778,1.218c.648-2.91,1.1-3.162,3.417-2.135l.5,1.874H-22.8l2.094-3.2,1.595,3.32,2.034-.213c-.419-.769-.744-1.363-1.316-2.41L-15.6,7.366l.774.548c-.133,1.13-.266,2.259-.4,3.436H-13.4c.182-.818.329-1.477.4-1.773,2.845-2.236,2.208,2.337,4.142,1.717.056-.776.1-1.448.172-2.375l2.326.165c.225.921.382,1.566.535,2.194h1.954L-2.3,9.454l1.874,1.695,1.815-.831v-2.3l1.6-1.451V1.8L0,0M.156-5.383c.539-.02,1.107.732,1.9,1.322L-.254-1.9-2.309-3.925C-1.112-4.677-.49-5.36.156-5.383m-30.8-8.527A9.847,9.847,0,0,1-33.4-15.079c.943-1.029,1.441-1.574,2.339-2.555a10.171,10.171,0,0,1,1.674,2.4c.1.3-.842,1.358-1.257,1.329m.379,3.7-.778.835-1.472-1.37.777-.833,1.473,1.368m-3.14-11.032,1.219-.167q.153,1.074.307,2.149l-1.228.168q-.148-1.075-.3-2.15m1.627-2.768c-.056-.265.664-.7,1.516-1.516.151,1.291.221,1.883.29,2.475l-.779.4c-.367-.448-.92-.856-1.027-1.359m1.846,5.167q.045-.686.092-1.371h2.4q-.05.844-.1,1.691l-2.387-.32m2.474,7.444,1.4-.066q.12,1,.238,1.992l-1.637.074Zm.17-4.058,2.177-2.056,1.642,1.882c-1.179,2.408-2.167,2.495-3.819.174m1.908-4.9c.537-.381,1.1-1.091,1.606-1.051.522.042.985.812,1.475,1.264l-.324.868-2.562-.243-.195-.838M-22.8-8.129l.882.055q.323,1.268.646,2.534l-1.022.495c-.513-.452-1.346-.844-1.445-1.374-.093-.494.6-1.134.939-1.71m1.25-1.866c-.5.072-1.669-1.14-1.643-1.738.032-.736,1-1.431,1.971-2.665.808,1.273,1.737,2.111,1.588,2.656a2.842,2.842,0,0,1-1.916,1.747m1.733-5.325a1.617,1.617,0,0,1-1.08-1.17c0-.39.72-1.05,1.153-1.076s.9.589,1.727,1.2c-.865.537-1.385,1.115-1.8,1.048m3.657,5.695c.3-.038,1.04.871.99,1.275-.07.557-.658,1.434-1.094,1.477a6.471,6.471,0,0,1-2.3-.639q-.027-.6-.056-1.194a10.459,10.459,0,0,1,2.462-.919m1.7-3.813c-1.144,1.964-1.6,2.011-3.171.208,1.309-2.205,1.945-2.222,3.171-.208m-1.136-4.948a8.081,8.081,0,0,1,2.148-.961l.742.866a6.293,6.293,0,0,1-1.007,1.933,1.66,1.66,0,0,1-1.583-.252c-.334-.333-.52-1.4-.3-1.586M-16.38-.031c.129-.518,1.2-.8,1.853-1.188l.736.623-.644,2.378-.941.163c-.372-.668-1.14-1.435-1-1.976m.933-3.15c1.37-2.672,2.059-2.815,3.878-.97-.266.7-.508,1.338-.948,2.493l-2.93-1.523m2.869-6.139-.747-.3q.174-1.062.349-2.122l2.016.456c-.013.314-.027.628-.04.942l-1.578,1.02m-.2-5.341,2.644-1.981c.1,1.435.152,2.245.207,3.055l-.663.33-2.188-1.4m3.432,5.854c.828-.162,1.8.389,2.7.636l.153,1.331a17.407,17.407,0,0,1-3,1.381c-.253.069-1.189-1-1.118-1.431.12-.723.707-1.809,1.259-1.917m-.048-3.518,1.086.03c-.036.484-.073.967-.108,1.426a3.963,3.963,0,0,1-.714,0c-.108-.479-.182-.967-.264-1.452m2.6,1.91.78-1.941,1.225.6-.99,1.833-1.015-.491M-7.955,1.111c.848-.076,1.85-.454,2.492-.127.47.239.469,1.4.677,2.159l-.8.594L-8.174,2.365l.219-1.254M-6.374-3.43a2.062,2.062,0,0,1,1.01-1.729,7.778,7.778,0,0,1,2.72.784c-.556,1.1-.859,1.7-1.529,3.032-1-.893-1.888-1.366-2.2-2.087M-4.042-.355A8.28,8.28,0,0,1-1.33-1.111C-.89-1.085-.156.033-.209.6S-1.234,2.122-1.631,2.043A8.954,8.954,0,0,1-4.148.655c.035-.337.071-.673.106-1.01M-1.732-13.6c.793-.119,1.684.411,2.823.751-1.347,2.585-2.535,2.66-4.326.909.518-.611.944-1.576,1.5-1.66m-.62,4.455c.545-.06,1.177.684,2.16,1.332-.9.726-1.48,1.544-1.993,1.505A2.065,2.065,0,0,1-3.666-7.689c-.055-.463.792-1.4,1.314-1.46M-5.086-22.217c.683-.084,1.454.545,2.187.867l.03.915a8.79,8.79,0,0,1-2.352,1.2c-.321.062-1.242-.966-1.174-1.381.1-.623.784-1.541,1.309-1.606m-.341,4.625c.442,1.178.7,1.868,1.112,2.961l-2.619,1.122L-8.471-15.7l3.044-1.895M-9.238-24.73l.79-.238,1.407,1.98-.461.652c-.644-.144-1.561-.087-1.855-.488s.054-1.252.119-1.906m.048,4.278c.59.317.947,1.067,1.785,2.112l-3.411.941a7.786,7.786,0,0,1,.073-2.55,1.641,1.641,0,0,1,1.553-.5m-2.442-4.869a10.07,10.07,0,0,1-2.146-1.068l2.127-2.02a10.043,10.043,0,0,1,.922,2.215c.037.263-.656.926-.9.873m.555-6.023.078.719-1.58,1.355c-.387-.841-.659-1.43-1.224-2.658l2.726.584m-3.115,7.887,2.209.511c.023.282.045.565.068.847l-1.942,1.409-.823-.4q.243-1.181.488-2.363m-.706-2.9c-.012.694-.8,1.374-1.247,2.06l-.883-.058c-.359-.737-1.108-1.561-.97-2.189.144-.651,1.148-1.113,1.776-1.657.475.616,1.334,1.237,1.324,1.844m-.213-4.783c-.213.65-1.318,1.008-2.036,1.494l-.9-.625.867-3.017,1.075-.08c.369.755,1.179,1.654.992,2.228m-2.936-5.971,1.633.35q-.125.513-.248,1.026l-1.621-.473c.079-.3.157-.6.236-.9m-.192,14.628c.512.069.9,1.06,1.354,1.654-1.615,1.52-2.685,1.665-3.815-.772.953-.378,1.754-.978,2.461-.882m-3.5-12.3,3.072-.314-1.306,2.864c-.738-1.065-1.09-1.575-1.766-2.55m1.6,7.083-.82.1-.931-1.806c.932.113,1.656.028,1.77.253.195.384.008.962-.019,1.458m.792-10.331-1.563,1.812c-.365-.827-.578-1.307-1.109-2.51l2.672.7m-.3,12.793L-21.76-22.9c-.524-1.162-.867-1.921-1.209-2.681l.576-.635,2.744.975m-5.273-11.129a8.147,8.147,0,0,1,2.374-.4c-.226,1.242-.331,1.816-.507,2.786a7.308,7.308,0,0,1-2.025-.976,1.468,1.468,0,0,1,.158-1.409m2.564,5.106c-1.228,1.644-2.225,1.394-3.394-.21,1.5-1.851,2.451-1.371,3.394.21M-25.4-28.006l1.146,1-.5.7-1.336-.879.686-.814m-.851,3.409q.33.549.662,1.1l-1.708.773-.474-.918,1.52-.953m-3.776-12.391,2.308-.417q.22.365.443.729c-.486.5-.9,1.244-1.485,1.418-.357.107-.974-.657-1.475-1.03q.1-.351.209-.7m2.728,6.03-1.774.154.171-2,1.065-.1q.268.973.538,1.947m-2.962,2.843a10.071,10.071,0,0,1,2.669-.462,11.06,11.06,0,0,1-1.426,2.36c-.174.157-1.089-.16-1.308-.5s-.166-1.279.065-1.4m-1.677-7.6.5,1.116-1.844,1.7c-.59-1.411-.861-2.058-1.377-3.293l2.721.48m-1.5,3.876c.363-.1,1.482.947,1.5,1.5.02.664-.768,1.353-1.56,2.577-.851-1.2-1.735-1.919-1.619-2.4a2.739,2.739,0,0,1,1.681-1.674m-1.483,5.311c.367.4,1.045.822,1.025,1.2-.028.519-.589,1.011-.922,1.514l-.807-.136-.291-2.229ZM-48.062-12.635l-.715-.6c.289-.685.435-1.791.9-1.951.594-.2,1.451.362,2.194.6,0,.322-.005.645-.008.967l-2.374.991m1.938,4.119-1.008.647c-.531-.428-1.306-.763-1.513-1.312-.163-.43.378-1.126.606-1.7l.893-.122q.51,1.247,1.022,2.491M-46.7-16.6l-2.177-2.634a12.251,12.251,0,0,1,2.613-1.026c.311-.043,1.1.791,1.03,1.03A14.693,14.693,0,0,1-46.7-16.6m-3.926-4.5-1.808-2.461,2.469-1.984,1.721,2.485-2.382,1.96m4.115-9.025c-.275-.565-.628-1.087-.55-1.162a10.206,10.206,0,0,1,1.423-1.017l.524.954-1.4,1.225m1.2,8.187q-.114-.873-.227-1.747l1.723-.108c.083.2.167.394.25.59l-1.141,1.4-.6-.136m2.935,5.083.767,1.218L-43.343-14.4q-.443-.7-.884-1.409l1.851-1.048m1.884-.748-.8-.094c-.136-.752-.629-1.9-.33-2.17.538-.487,1.553-.447,2.368-.627q.222.524.446,1.046l-1.687,1.845m2.376,3.718-1.175,1.164-.787-.719,1.011-1.3.951.85m-2.417-8.395c-.2-.423-.372-.862-.549-1.3l.931-.214c.106.453.213.906.324,1.376a3.583,3.583,0,0,1-.706.135m-2.544-10.966q.193-1.217.386-2.433l1.1-.07q.651,1.026,1.3,2.05l-.354.774-2.431-.321m1.033,2.274q.037.45.074.9l-1.583.124c-.025-.294-.049-.589-.074-.883l1.583-.141m-1.311,18.984,3.292.788-2.148,2.589c-.718-1.065-1.228-1.824-1.739-2.582l.6-.8M-38.1-5.02l.674.7-.84,2.5-.894.19q-.633-1.051-1.265-2.1L-38.1-5.02m-1.235-3.627a10.07,10.07,0,0,1,2.076-1.177c.26-.071.993.5.991.775a11.47,11.47,0,0,1-.683,2.524l-2.384-2.122m2.785-6.737c-.387-.735-1.123-1.509-1.045-2.19.058-.5,1.185-.874,1.835-1.305l.76.568q-.3,1.367-.6,2.732l-.949.2m-1.25-6.1c.386-.543.7-1.116.786-1.083a9.347,9.347,0,0,1,1.469.8q-.273.433-.548.867l-1.707-.587m3.344,8.33.162,1.789-1.127.143q-.141-.893-.28-1.785l1.245-.147m-4.364-16.494c-.706-2.619.126-2.886,2.422-1.667l-2.422,1.667m-.551-7.359,2.125-.651.711.709c-.348.607-.656,1.678-1.054,1.713-.626.055-1.314-.588-1.976-.936.065-.278.129-.557.194-.835m1.751,9.484c.1.28.191.561.287.841-.689.474-1.359,1.26-2.073,1.3-.409.024-.89-1.159-1.338-1.8l.722-.825,2.4.48m-5.568-11.529,3.138-.625-1.108,2.992-1,.411-1.7-1.515.671-1.263m.838,11.316q.062.453.122.906l-2.42,1.373-.787-.715c.323-.712.472-1.7,1.025-2.046.423-.264,1.354.291,2.06.482m-2.621-11.64.635.513-.806.891L-45.6-38.3l.633-1.079m.414,3.624c-1.08,2.1-2.021,1.621-3.139.32.832-1.977,1.816-1.539,3.139-.32M-47-28.244q-.183.549-.365,1.1l-3.055-.22q-.085-.551-.17-1.1c.655-.342,1.316-.957,1.962-.943.551.012,1.086.749,1.628,1.165m-1.661-5.337q0,.572.007,1.143h-2.492l-.006-1.143Zm-3.465,2.332L-51.2-30l-.649.58-1.126-1.173.85-.661m1.641,12.5v3.494a9.533,9.533,0,0,1-2.756-.669,1.917,1.917,0,0,1,.02-1.819,9.46,9.46,0,0,1,2.736-1.006M-56-20.192a7.169,7.169,0,0,1,.514-2.252l.991-.108a7.815,7.815,0,0,1,1.088,2.1c.06.3-.735,1.053-1.193,1.1s-1.37-.494-1.4-.836m1.056,7.422-1.7,1.4-.922-.259q.054-1.23.11-2.46l.772-.216,1.736,1.535m4.081,2.5-2.7-1.554,2.213-2.054c.185,1.367.285,2.111.487,3.608m-4.1-18.125c.521-.055,1.619.8,1.609,1.234a7.759,7.759,0,0,1-.991,2.549l-.973.037a7.936,7.936,0,0,1-1.372-2.474c-.061-.382,1.073-1.277,1.727-1.346M-59.172-24.3c.327-.2,1.07.258,1.627.423l.006.883-2,.806-.5-.477c.277-.569.42-1.351.874-1.635m.7,5.3c.826.049,1.6,1.055,2.389,1.648l-.551,1.407-3.674-.309q-.159-.555-.316-1.108c.72-.589,1.47-1.679,2.152-1.638m-3.381,5.631c2.253.4,2.418,1.338,1.2,3.1-.627-.394-1.5-.643-1.691-1.149s.295-1.272.492-1.952M-58.9-4.2l-1.287,2.237-.992-.136q-.354-1.372-.71-2.745l.781-.619L-58.9-4.2M-65.8.424c-.122-1.268-.19-1.981-.278-2.892,2.306.816,2.326.917.278,2.892m.378,4.9c-.526-.855-1.153-1.449-1.036-1.783.174-.5.872-.815,1.348-1.209.337.455.936.91.938,1.367,0,.429-.627.861-1.25,1.625m1.242-12.995,2.01-1.433.622.333-.417,1.731-2.215-.631m5.224,13.943a7.83,7.83,0,0,1-1.6,2.128A15.364,15.364,0,0,1-62.1,6.993a9.148,9.148,0,0,1-.693-1.58,8.935,8.935,0,0,1,2.716-.587c.451.047,1.232,1.077,1.123,1.445m-1.46-2.535c-.763-1.27-1.542-2-1.495-2.662C-61.872.52-60.784-.44-60.3-.363a2.415,2.415,0,0,1,1.693,1.6c.042.619-.891,1.3-1.814,2.5m2.509-9.272c-.86-1.324-1.743-2.088-1.649-2.7a2.577,2.577,0,0,1,1.781-1.6c.416-.081,1.484,1.005,1.494,1.58.013.693-.785,1.4-1.626,2.721m3.391,12.494-2.654.242c.638-1.085.927-2.014,1.247-2.024.553-.019,1.126.532,1.69.844q-.141.468-.283.938m.174-3.764-.842.1L-56.439,1l.651-.585,2.209.1c-.305,1.066-.535,1.869-.764,2.672m-.413-5.22a2.616,2.616,0,0,1-1.652-1.683c-.1-.466.839-1.162,1.7-2.239.763,1.147,1.573,1.837,1.553,2.5-.016.528-1.158,1.52-1.6,1.421m.923-5.064q-.118-.583-.238-1.169l2.009-.518q.132.684.263,1.369l-2.034.318m2.822,13.2c-.457-.328-.931-.491-1.02-.775-.12-.382-.06-1.159.13-1.233a5.924,5.924,0,0,1,1.743-.162l.269.735-1.122,1.435m.506-4.824c-.483-.58-1.262-1.119-1.35-1.754-.063-.462.788-1.049,1.516-1.923.639.932,1.424,1.59,1.321,2.045-.143.624-.959,1.095-1.487,1.632m.963-4.793-1.466-1.825c.1-.262.191-.525.286-.788l2.5.188c.047.257.093.515.139.772L-49.542-3.5m2.629,10.946-1.012-.167q.142-.62.283-1.241l.852.16-.123,1.248M-47.8,3.951l-.249-1.468,2.441-.277q.1.632.2,1.262l-2.394.483m2.613-4.717-2.59-.484,2.082-1.826.821.412q-.156.948-.313,1.9m1.006-7.188L-41.5-6.408l.156.878a8.159,8.159,0,0,1-2.159,1.152,1.656,1.656,0,0,1-1.3-1.005,8.436,8.436,0,0,1,.628-2.571m.717,14.8-.618-.209c-.038-.516-.289-1.191-.055-1.5.255-.341.959-.348,1.468-.5q.257.363.512.725l-1.307,1.488m1.281-3.608L-44.489.921-42-1.233l2.011,2.443L-42.18,3.236m4.934,3.825H-39.74l-.222-.717c.468-.388.917-1.055,1.408-1.086s1.026.569,1.542.893l-.234.91M-39.4,1.247l3.131-.683c-.911,2.687-1.117,2.729-3.131.683M-36.345-2.5l3.244-.62.532.684-1.547,2.8L-36.345-2.5m3.721,5.3-1.667,2.033c-.239-1.166-.593-1.875-.388-2.128.317-.389,1.018-.465,1.556-.674q.249.384.5.769m-1.531,6.1c-.622-.183-1.043-1.048-1.55-1.622.555-.436,1.109-1.209,1.666-1.211s1.1.777,2.013,1.5c-.986.655-1.7,1.461-2.129,1.333m2.367-14.37-2.507-.193.057-1.265h2.513l-.063,1.458m2.85,12.453a10.074,10.074,0,0,1-2.506-1.3l2.5-2.639a11.572,11.572,0,0,1,1.219,2.817c.039.35-.863,1.183-1.215,1.118M-30.806-.072c1.066-1.787,2.033-1.751,3.106-.271-1.232,2.178-1.662,2.217-3.106.271m3.26-3.283-1.186-.033a8.287,8.287,0,0,1-.841-2.492c-.008-.358,1.016-1.044,1.551-1.025s1.5.772,1.468,1.137a8.094,8.094,0,0,1-.992,2.413m3.5,12.664-1.968-.142.063-1.043,1.971.121-.066,1.064m.519-4.081L-26.788,4.4l2.113-2.3,1.659,2.1-.508,1.024M-23.768.213c-.64-.65-1.628-1.221-1.8-1.977-.115-.506.931-1.274,1.873-2.439.823,1.232,1.716,1.985,1.626,2.592-.1.677-1.1,1.222-1.7,1.824M-19.693-.7a9.249,9.249,0,0,1,1.059,2.384c.029.315-.727,1.028-1.041.981a7.737,7.737,0,0,1-2.077-1.06L-19.693-.7m-.847,8.533a7.273,7.273,0,0,1-.971-2.2c-.023-.334.89-1.094,1.237-1.017.658.145,1.214.755,2.2,1.441L-20.54,7.835M-18.8-1.992c-.585-.045-1.121-.741-2.008-1.4l1.953-1.631,1.994,1.867c-.827.53-1.41,1.2-1.939,1.162m3.7,8.946A8.3,8.3,0,0,1-16.589,4.79a1.646,1.646,0,0,1,.915-1.359A9.32,9.32,0,0,1-12.9,4L-15.1,6.954m4.382.545c-.424.177-1.109-.27-1.68-.444l-.054-.731,2.032-.866.488.518c-.251.534-.382,1.354-.786,1.523m.759-4.821a8.133,8.133,0,0,1-2.175.482l-.572-.928A6.211,6.211,0,0,1-11.329.539c.281-.169,1.183.291,1.492.7.229.3.123,1.311-.125,1.438m-.48-4.32c-.043-.3-.087-.607-.13-.911L-8.9-3.789l.614.309c-.085.645.046,1.519-.321,1.866-.319.3-1.2,0-1.836-.028m2.761,8.886c-.229.049-.892-.622-.849-.88A8.253,8.253,0,0,1-7.6,4.391l2.1,1.809A10.882,10.882,0,0,1-7.681,7.244M-3.04,9.716l-2.229-.439c0-.6-.169-1.29.033-1.423a12.652,12.652,0,0,1,2.424-.935c-.106,1.3-.157,1.926-.228,2.8m.265-2.837-1.048-.361L-4.06,4.16l2.388-.237q.336.725.673,1.451L-2.775,6.879m1.662,2.314-.539-.505c.235-.719.47-1.438.91-2.782L1.285,8.191l-2.4,1M1.314,5.905C.7,5.318-.1,4.906-.14,4.431-.194,3.787.335,3.1.835,1.895,1.888,3.016,2.35,3.506,2.951,4.145L1.314,5.905" fill="#287642"/>
      </g>
      <g id="Grupo_1071" data-name="Grupo 1071" transform="translate(84.002 -11.739)">
        <path id="Caminho_1019" data-name="Caminho 1019" d="M0,0A17.337,17.337,0,0,0,3-1.382q-.077-.665-.152-1.33C1.938-2.96.97-3.51.141-3.348-.411-3.24-1-2.154-1.117-1.432-1.188-1-.252.069,0,0" fill="#fff"/>
      </g>
      <g id="Grupo_1072" data-name="Grupo 1072" transform="translate(61.541 -36.622)">
        <path id="Caminho_1020" data-name="Caminho 1020" d="M0,0C-.016-.552-1.135-1.6-1.5-1.5A2.735,2.735,0,0,0-3.18.176c-.115.482.769,1.205,1.62,2.4C-.769,1.353.02.665,0,0" fill="#fff"/>
      </g>
      <g id="Grupo_1073" data-name="Grupo 1073" transform="translate(64.102 -21.52)">
        <path id="Caminho_1021" data-name="Caminho 1021" d="M0,0A10.211,10.211,0,0,0-1.674-2.395L-4.013.161A9.81,9.81,0,0,0-1.257,1.329C-.842,1.358.1.3,0,0" fill="#fff"/>
      </g>
      <g id="Grupo_1074" data-name="Grupo 1074" transform="translate(86.555 -19.79)">
        <path id="Caminho_1022" data-name="Caminho 1022" d="M0,0,2.62-1.122C2.209-2.214,1.949-2.9,1.507-4.083l-3.044,1.9L0,0" fill="#fff"/>
      </g>
      <g id="Grupo_1075" data-name="Grupo 1075" transform="translate(65.467 -13.185)">
        <path id="Caminho_1023" data-name="Caminho 1023" d="M0,0C-.535-.019-1.56.667-1.551,1.025A8.287,8.287,0,0,0-.71,3.517L.476,3.55a8.094,8.094,0,0,0,.992-2.413C1.5.772.533.019,0,0" fill="#fff"/>
      </g>
      <g id="Grupo_1076" data-name="Grupo 1076" transform="translate(90.846 -10.656)">
        <path id="Caminho_1024" data-name="Caminho 1024" d="M0,0A7.778,7.778,0,0,0-2.72-.784,2.062,2.062,0,0,0-3.73.945c.313.721,1.2,1.2,2.2,2.087C-.859,1.7-.556,1.1,0,0" fill="#fff"/>
      </g>
      <g id="Grupo_1077" data-name="Grupo 1077" transform="translate(49.984 -10.658)">
        <path id="Caminho_1025" data-name="Caminho 1025" d="M0,0A8.159,8.159,0,0,0,2.159-1.152L2-2.031-.673-3.576A8.438,8.438,0,0,0-1.3-1.006,1.655,1.655,0,0,0,0,0" fill="#fff"/>
      </g>
      <g id="Grupo_1078" data-name="Grupo 1078" transform="translate(37.081 -9.99)">
        <path id="Caminho_1026" data-name="Caminho 1026" d="M0,0A2.612,2.612,0,0,0,1.652,1.683c.445.1,1.587-.892,1.6-1.42.02-.665-.79-1.354-1.554-2.5C.84-1.162-.1-.466,0,0" fill="#fff"/>
      </g>
      <g id="Grupo_1079" data-name="Grupo 1079" transform="translate(88.268 -25.51)">
        <path id="Caminho_1027" data-name="Caminho 1027" d="M0,0A8.81,8.81,0,0,0,2.353-1.205L2.322-2.12c-.733-.322-1.5-.951-2.187-.867C-.39-2.922-1.073-2-1.174-1.382-1.242-.966-.321.062,0,0" fill="#fff"/>
      </g>
      <g id="Grupo_1080" data-name="Grupo 1080" transform="translate(76.604 -27.11)">
        <path id="Caminho_1028" data-name="Caminho 1028" d="M0,0C-.454-.594-.841-1.585-1.354-1.654c-.707-.1-1.508.5-2.461.882C-2.685,1.665-1.615,1.521,0,0" fill="#fff"/>
      </g>
      <g id="Grupo_1081" data-name="Grupo 1081" transform="translate(93.235 -8.176)">
        <path id="Caminho_1029" data-name="Caminho 1029" d="M0,0,2.315-2.165C1.517-2.755.95-3.507.41-3.488c-.646.024-1.268.707-2.465,1.459L0,0" fill="#fff"/>
      </g>
      <g id="Grupo_1082" data-name="Grupo 1082" transform="translate(91.305 -12.592)">
        <path id="Caminho_1030" data-name="Caminho 1030" d="M0,0C.512.039,1.089-.779,1.992-1.5,1.01-2.153.377-2.9-.167-2.837c-.522.057-1.369,1-1.315,1.46A2.066,2.066,0,0,0,0,0" fill="#fff"/>
      </g>
      <g id="Grupo_1083" data-name="Grupo 1083" transform="translate(75.866 -19.51)">
        <path id="Caminho_1031" data-name="Caminho 1031" d="M0,0C1.567,1.8,2.027,1.756,3.171-.208,1.945-2.223,1.309-2.2,0,0" fill="#fff"/>
      </g>
      <g id="Grupo_1084" data-name="Grupo 1084" transform="translate(72.681 -9.671)">
        <path id="Caminho_1032" data-name="Caminho 1032" d="M0,0C.887.657,1.422,1.354,2.007,1.4c.529.04,1.112-.632,1.94-1.162L1.953-1.63,0,0" fill="#fff"/>
      </g>
      <g id="Grupo_1085" data-name="Grupo 1085" transform="translate(54.085 -31.66)">
        <path id="Caminho_1033" data-name="Caminho 1033" d="M0,0C.714-.042,1.384-.828,2.072-1.3c-.1-.281-.191-.561-.286-.842l-2.4-.48-.722.826C-.89-1.159-.409.024,0,0" fill="#fff"/>
      </g>
      <g id="Grupo_1086" data-name="Grupo 1086" transform="translate(43.067 -33.645)">
        <path id="Caminho_1034" data-name="Caminho 1034" d="M0,0,3.055.22l.366-1.1c-.542-.415-1.077-1.152-1.628-1.164-.647-.014-1.308.6-1.962.943Q-.085-.551,0,0" fill="#fff"/>
      </g>
      <g id="Grupo_1087" data-name="Grupo 1087" transform="translate(82.673 -23.68)">
        <path id="Caminho_1035" data-name="Caminho 1035" d="M0,0,3.411-.94c-.838-1.046-1.195-1.8-1.784-2.113a1.644,1.644,0,0,0-1.554.5A7.778,7.778,0,0,0,0,0" fill="#fff"/>
      </g>
      <g id="Grupo_1088" data-name="Grupo 1088" transform="translate(71.131 -37.545)">
        <path id="Caminho_1036" data-name="Caminho 1036" d="M0,0C-.943-1.581-1.9-2.061-3.394-.21-2.224,1.394-1.228,1.644,0,0" fill="#fff"/>
      </g>
      <g id="Grupo_1089" data-name="Grupo 1089" transform="translate(52.844 -39.21)">
        <path id="Caminho_1037" data-name="Caminho 1037" d="M0,0Q.177-.387.353-.774-.3-1.8-.95-2.824l-1.1.07q-.192,1.216-.385,2.433L0,0" fill="#fff"/>
      </g>
      <g id="Grupo_1090" data-name="Grupo 1090" transform="translate(90.389 -22.035)">
        <path id="Caminho_1038" data-name="Caminho 1038" d="M0,0,2.667-.223c-.148-.958-.246-1.6-.343-2.23C-.112-2.864-.459-2.543,0,0" fill="#fff"/>
      </g>
      <g id="Grupo_1091" data-name="Grupo 1091" transform="translate(92.767 -24.484)">
        <path id="Caminho_1039" data-name="Caminho 1039" d="M0,0-.064-.074-.039,0,0,0,0,0H0" fill="#fff"/>
      </g>
      <g id="Grupo_1092" data-name="Grupo 1092" transform="translate(92.766 -24.485)">
        <path id="Caminho_1040" data-name="Caminho 1040" d="M0,0-.064-.073,0,0H0" fill="#fff"/>
      </g>
      <g id="Grupo_1093" data-name="Grupo 1093" transform="translate(92.713 -24.489)">
        <path id="Caminho_1041" data-name="Caminho 1041" d="M0,0,.015,0-.011-.069C-.007-.046,0-.023,0,0" fill="#fff"/>
      </g>
      <g id="Grupo_1094" data-name="Grupo 1094" transform="translate(53.426 -17.486)">
        <path id="Caminho_1042" data-name="Caminho 1042" d="M0,0-3.292-.787l-.6.794,1.739,2.582L0,0" fill="#fff"/>
      </g>
      <g id="Grupo_1095" data-name="Grupo 1095" transform="translate(51.871 -26.153)">
        <path id="Caminho_1043" data-name="Caminho 1043" d="M0,0C-.3.271.194,1.418.33,2.171l.8.094L2.813.42Q2.591-.1,2.367-.627C1.552-.447.538-.487,0,0" fill="#fff"/>
      </g>
      <g id="Grupo_1096" data-name="Grupo 1096" transform="translate(48.055 -32.452)">
        <path id="Caminho_1044" data-name="Caminho 1044" d="M0,0,.787.715,3.207-.659q-.06-.451-.122-.905c-.7-.191-1.637-.746-2.06-.483C.472-1.7.323-.712,0,0" fill="#fff"/>
      </g>
      <g id="Grupo_1097" data-name="Grupo 1097" transform="translate(32.832 -16.548)">
        <path id="Caminho_1045" data-name="Caminho 1045" d="M0,0C1.218-1.763,1.054-2.7-1.2-3.1c-.2.68-.685,1.445-.493,1.952S-.627-.4,0,0" fill="#fff"/>
      </g>
      <g id="Grupo_1098" data-name="Grupo 1098" transform="translate(58.49 -24.591)">
        <path id="Caminho_1046" data-name="Caminho 1046" d="M0,0-.76-.568c-.65.43-1.777.806-1.834,1.3-.079.681.657,1.456,1.044,2.191l.949-.2Q-.3,1.366,0,0" fill="#fff"/>
      </g>
      <g id="Grupo_1099" data-name="Grupo 1099" transform="translate(52.332 -42.965)">
        <path id="Caminho_1047" data-name="Caminho 1047" d="M0,0,1.108-2.992l-3.138.625L-2.7-1.1-1,.411,0,0" fill="#fff"/>
      </g>
      <g id="Grupo_1100" data-name="Grupo 1100" transform="translate(71.199 -11.325)">
        <path id="Caminho_1048" data-name="Caminho 1048" d="M0,0,1.022-.5Q.7-1.763.376-3.029l-.882-.055c-.344.576-1.032,1.216-.939,1.71C-1.346-.844-.513-.452,0,0" fill="#fff"/>
      </g>
      <g id="Grupo_1101" data-name="Grupo 1101" transform="translate(47.809 -20.874)">
        <path id="Caminho_1049" data-name="Caminho 1049" d="M0,0C-.743-.234-1.6-.8-2.194-.6c-.468.16-.614,1.266-.9,1.952l.715.6L-.008.967C0,.645,0,.322,0,0" fill="#fff"/>
      </g>
      <g id="Grupo_1102" data-name="Grupo 1102" transform="translate(44.844 -15.462)">
        <path id="Caminho_1050" data-name="Caminho 1050" d="M0,0C.208.549.982.885,1.513,1.312L2.521.665,1.5-1.825.606-1.7C.378-1.126-.163-.43,0,0" fill="#fff"/>
      </g>
      <g id="Grupo_1103" data-name="Grupo 1103" transform="translate(81.575 -28.379)">
        <path id="Caminho_1051" data-name="Caminho 1051" d="M0,0-.069-.848l-2.208-.51L-2.766,1l.824.4L0,0" fill="#fff"/>
      </g>
      <g id="Grupo_1104" data-name="Grupo 1104" transform="translate(70.52 -31.862)">
        <path id="Caminho_1052" data-name="Caminho 1052" d="M0,0C.342.759.685,1.518,1.208,2.68,2.049,1.749,2.488,1.262,3.32.339L.576-.636,0,0" fill="#fff"/>
      </g>
      <g id="Grupo_1105" data-name="Grupo 1105" transform="translate(66.044 -26.493)">
        <path id="Caminho_1053" data-name="Caminho 1053" d="M0,0H-2.4q-.045.685-.091,1.371l2.387.32Q-.051.845,0,0" fill="#fff"/>
      </g>
      <g id="Grupo_1106" data-name="Grupo 1106" transform="translate(48.934 -42.032)">
        <path id="Caminho_1054" data-name="Caminho 1054" d="M0,0C-1.323-1.219-2.307-1.657-3.139.32-2.022,1.621-1.08,2.1,0,0" fill="#fff"/>
      </g>
      <g id="Grupo_1107" data-name="Grupo 1107" transform="translate(70.434 -40.266)">
        <path id="Caminho_1055" data-name="Caminho 1055" d="M0,0C.177-.97.282-1.544.508-2.786a8.148,8.148,0,0,0-2.375.4A1.468,1.468,0,0,0-2.024-.976,7.342,7.342,0,0,0,0,0" fill="#fff"/>
      </g>
      <g id="Grupo_1108" data-name="Grupo 1108" transform="translate(36.038 -20.369)">
        <path id="Caminho_1056" data-name="Caminho 1056" d="M0,0Q-.056,1.23-.11,2.46l.922.259,1.7-1.4L.772-.216,0,0" fill="#fff"/>
      </g>
      <g id="Grupo_1109" data-name="Grupo 1109" transform="translate(71.189 -26.421)">
        <path id="Caminho_1057" data-name="Caminho 1057" d="M0,0C-.489-.451-.953-1.221-1.475-1.263c-.5-.041-1.068.67-1.606,1.05.065.279.13.559.2.838L-.323.868C-.215.579-.108.289,0,0" fill="#fff"/>
      </g>
      <g id="Grupo_1110" data-name="Grupo 1110" transform="translate(56.956 -43.229)">
        <path id="Caminho_1058" data-name="Caminho 1058" d="M0,0-.712-.71l-2.125.652q-.1.417-.193.835c.662.347,1.349.99,1.976.935C-.656,1.678-.348.606,0,0" fill="#fff"/>
      </g>
      <g id="Grupo_1111" data-name="Grupo 1111" transform="translate(54.67 -35.928)">
        <path id="Caminho_1059" data-name="Caminho 1059" d="M0,0,2.422-1.667C.126-2.886-.7-2.619,0,0" fill="#fff"/>
      </g>
      <g id="Grupo_1112" data-name="Grupo 1112" transform="translate(59.194 -11.944)">
        <path id="Caminho_1060" data-name="Caminho 1060" d="M0,0,2.507.193,2.57-1.264H.057L0,0" fill="#fff"/>
      </g>
      <g id="Grupo_1113" data-name="Grupo 1113" transform="translate(83.562 -19.867)">
        <path id="Caminho_1061" data-name="Caminho 1061" d="M0,0C-.055-.81-.11-1.621-.207-3.056c-1.14.855-1.655,1.241-2.644,1.981L-.663.329,0,0" fill="#fff"/>
      </g>
      <g id="Grupo_1114" data-name="Grupo 1114" transform="translate(44.833 -38.718)">
        <path id="Caminho_1062" data-name="Caminho 1062" d="M0,0C0-.381,0-.762-.007-1.143H-2.5c0,.381,0,.762,0,1.143Z" fill="#fff"/>
      </g>
      <g id="Grupo_1115" data-name="Grupo 1115" transform="translate(82.529 -17.562)">
        <path id="Caminho_1063" data-name="Caminho 1063" d="M0,0-2.016-.456Q-2.19.6-2.365,1.666l.747.3L-.04.942C-.027.628-.013.314,0,0" fill="#fff"/>
      </g>
      <g id="Grupo_1116" data-name="Grupo 1116" transform="translate(85.987 -28.616)">
        <path id="Caminho_1064" data-name="Caminho 1064" d="M0,0,.462-.652-.946-2.632l-.789.238c-.066.654-.409,1.511-.12,1.906S-.644-.144,0,0" fill="#fff"/>
      </g>
      <g id="Grupo_1117" data-name="Grupo 1117" transform="translate(51.881 -21.923)">
        <path id="Caminho_1065" data-name="Caminho 1065" d="M0,0Q-.384-.609-.767-1.218L-2.618-.17q.443.705.884,1.409L0,0" fill="#fff"/>
      </g>
      <g id="Grupo_1118" data-name="Grupo 1118" transform="translate(64.724 -41.539)">
        <path id="Caminho_1066" data-name="Caminho 1066" d="M0,0C.584-.174,1-.915,1.485-1.418l-.443-.729-2.308.417c-.069.233-.139.467-.209.7C-.974-.657-.357.107,0,0" fill="#fff"/>
      </g>
      <g id="Grupo_1119" data-name="Grupo 1119" transform="translate(62.048 -40.88)">
        <path id="Caminho_1067" data-name="Caminho 1067" d="M0,0-.5-1.116-3.221-1.6C-2.7-.361-2.434.286-1.845,1.7L0,0" fill="#fff"/>
      </g>
      <g id="Grupo_1120" data-name="Grupo 1120" transform="translate(42.627 -16.548)">
        <path id="Caminho_1068" data-name="Caminho 1068" d="M0,0C-.2-1.5-.3-2.242-.487-3.608L-2.7-1.555,0,0" fill="#fff"/>
      </g>
      <g id="Grupo_1121" data-name="Grupo 1121" transform="translate(73.75 -23.846)">
        <path id="Caminho_1069" data-name="Caminho 1069" d="M0,0A1.587,1.587,0,0,0-1.153,1.076a1.617,1.617,0,0,0,1.08,1.17c.415.067.935-.511,1.8-1.048C.9.589.431-.026,0,0" fill="#fff"/>
      </g>
      <g id="Grupo_1122" data-name="Grupo 1122" transform="translate(58.662 -30.09)">
        <path id="Caminho_1070" data-name="Caminho 1070" d="M0,0C.333-.5.894-1,.922-1.515c.02-.382-.658-.8-1.025-1.2l-1,.353L-.807-.137,0,0" fill="#fff"/>
      </g>
      <g id="Grupo_1123" data-name="Grupo 1123" transform="translate(64.412 -37.085)">
        <path id="Caminho_1071" data-name="Caminho 1071" d="M0,0,1.774-.154Q1.506-1.127,1.236-2.1q-.532.049-1.065.1L0,0" fill="#fff"/>
      </g>
      <g id="Grupo_1124" data-name="Grupo 1124" transform="translate(64.412 -37.085)">
        <path id="Caminho_1072" data-name="Caminho 1072" d="M0,0,1.774-.154Q1.506-1.127,1.236-2.1q.269.974.538,1.947L0,0" fill="#fff"/>
      </g>
      <g id="Grupo_1125" data-name="Grupo 1125" transform="translate(84.59 -10.069)">
        <path id="Caminho_1073" data-name="Caminho 1073" d="M0,0-1.673,1.236c.043.3.087.607.13.911.634.032,1.517.329,1.836.028C.66,1.828.529.954.614.309L0,0" fill="#fff"/>
      </g>
      <g id="Grupo_1126" data-name="Grupo 1126" transform="translate(61.302 -27.688)">
        <path id="Caminho_1074" data-name="Caminho 1074" d="M0,0-1.219.167q.15,1.076.3,2.15L.307,2.149Q.154,1.075,0,0" fill="#fff"/>
      </g>
      <g id="Grupo_1127" data-name="Grupo 1127" transform="translate(35.95 -29.274)">
        <path id="Caminho_1075" data-name="Caminho 1075" d="M0,0-.006-.883c-.557-.165-1.3-.627-1.627-.423-.454.283-.6,1.066-.873,1.635q.251.239.5.476L0,0" fill="#fff"/>
      </g>
      <g id="Grupo_1128" data-name="Grupo 1128" transform="translate(67.429 -17.743)">
        <path id="Caminho_1076" data-name="Caminho 1076" d="M0,0-1.4.066v2L.238,1.992Q.119,1,0,0" fill="#fff"/>
      </g>
      <g id="Grupo_1129" data-name="Grupo 1129" transform="translate(82.49 -36.905)">
        <path id="Caminho_1077" data-name="Caminho 1077" d="M0,0-.078-.719-2.8-1.3l1.225,2.658L0,0" fill="#fff"/>
      </g>
      <g id="Grupo_1130" data-name="Grupo 1130" transform="translate(58.069 -17.503)">
        <path id="Caminho_1078" data-name="Caminho 1078" d="M0,0,1.128-.143Q1.047-1.037.965-1.932l-1.244.147L0,0" fill="#fff"/>
      </g>
      <g id="Grupo_1131" data-name="Grupo 1131" transform="translate(88.7 -18.037)">
        <path id="Caminho_1079" data-name="Caminho 1079" d="M0,0-1.225-.6q-.39.971-.781,1.941l1.016.491L0,0" fill="#fff"/>
      </g>
      <g id="Grupo_1132" data-name="Grupo 1132" transform="translate(31.94 -15.053)">
        <path id="Caminho_1080" data-name="Caminho 1080" d="M0,0-.621-.332-2.632,1.1l2.216.631Q-.208.865,0,0" fill="#fff"/>
      </g>
      <g id="Grupo_1133" data-name="Grupo 1133" transform="translate(41.428 -15.057)">
        <path id="Caminho_1081" data-name="Caminho 1081" d="M0,0-2.009.518q.119.585.238,1.169L.262,1.369Q.131.685,0,0" fill="#fff"/>
      </g>
      <g id="Grupo_1134" data-name="Grupo 1134" transform="translate(63.516 -29.33)">
        <path id="Caminho_1082" data-name="Caminho 1082" d="M0,0C-.069-.592-.139-1.184-.29-2.475c-.852.82-1.573,1.251-1.516,1.517.107.5.66.911,1.027,1.358L0,0" fill="#fff"/>
      </g>
      <g id="Grupo_1135" data-name="Grupo 1135" transform="translate(49.924 -29.488)">
        <path id="Caminho_1083" data-name="Caminho 1083" d="M0,0C-.083-.2-.167-.393-.25-.59l-1.723.108q.114.873.227,1.746l.605.137L0,0" fill="#fff"/>
      </g>
      <g id="Grupo_1136" data-name="Grupo 1136" transform="translate(60.974 -17.023)">
        <path id="Caminho_1084" data-name="Caminho 1084" d="M0,0,1.472,1.37,2.249.535.777-.834,0,0" fill="#fff"/>
      </g>
      <g id="Grupo_1137" data-name="Grupo 1137" transform="translate(74.14 -44.315)">
        <path id="Caminho_1085" data-name="Caminho 1085" d="M0,0-2.672-.7C-2.141.5-1.928.985-1.563,1.812L0,0" fill="#fff"/>
      </g>
      <g id="Grupo_1138" data-name="Grupo 1138" transform="translate(47.849 -38.589)">
        <path id="Caminho_1086" data-name="Caminho 1086" d="M0,0A10.2,10.2,0,0,0-1.423,1.016c-.078.076.275.6.55,1.162L.524.954,0,0" fill="#fff"/>
      </g>
      <g id="Grupo_1139" data-name="Grupo 1139" transform="translate(54.199 -19.006)">
        <path id="Caminho_1087" data-name="Caminho 1087" d="M0,0,1.174-1.165l-.95-.849L-.787-.72,0,0" fill="#fff"/>
      </g>
      <g id="Grupo_1140" data-name="Grupo 1140" transform="translate(66.189 -29.006)">
        <path id="Caminho_1088" data-name="Caminho 1088" d="M0,0,1.707-.774l-.661-1.1-1.52.954L0,0" fill="#fff"/>
      </g>
      <g id="Grupo_1141" data-name="Grupo 1141" transform="translate(57.946 -28.044)">
        <path id="Caminho_1089" data-name="Caminho 1089" d="M0,0A9.347,9.347,0,0,0-1.469-.8c-.09-.033-.4.54-.787,1.083L-.549.867,0,0" fill="#fff"/>
      </g>
      <g id="Grupo_1142" data-name="Grupo 1142" transform="translate(71.597 -35.695)">
        <path id="Caminho_1090" data-name="Caminho 1090" d="M0,0,.931,1.806l.82-.1c.027-.5.214-1.074.019-1.458C1.656.028.932.113,0,0" fill="#fff"/>
      </g>
      <g id="Grupo_1143" data-name="Grupo 1143" transform="translate(69.232 -33.29)">
        <path id="Caminho_1091" data-name="Caminho 1091" d="M0,0-1.146-1l-.686.813L-.5.7,0,0" fill="#fff"/>
      </g>
      <g id="Grupo_1144" data-name="Grupo 1144" transform="translate(42.287 -36.275)">
        <path id="Caminho_1092" data-name="Caminho 1092" d="M0,0-.925-1.254l-.85.661L-.65.58,0,0" fill="#fff"/>
      </g>
      <g id="Grupo_1145" data-name="Grupo 1145" transform="translate(49.936 -36.233)">
        <path id="Caminho_1093" data-name="Caminho 1093" d="M0,0,1.584-.124q-.037-.45-.074-.9L-.073-.883C-.049-.589-.025-.294,0,0" fill="#fff"/>
      </g>
      <g id="Grupo_1146" data-name="Grupo 1146" transform="translate(85.074 -17.149)">
        <path id="Caminho_1094" data-name="Caminho 1094" d="M0,0C.035-.459.071-.943.108-1.426l-1.087-.03C-.9-.971-.823-.484-.714,0A3.952,3.952,0,0,0,0,0" fill="#fff"/>
      </g>
      <g id="Grupo_1147" data-name="Grupo 1147" transform="translate(77.075 -43.041)">
        <path id="Caminho_1095" data-name="Caminho 1095" d="M0,0-1.633-.35c-.078.3-.157.6-.236.9l1.622.474Q-.124.513,0,0" fill="#fff"/>
      </g>
      <g id="Grupo_1148" data-name="Grupo 1148" transform="translate(52.407 -29.862)">
        <path id="Caminho_1096" data-name="Caminho 1096" d="M0,0C.178.435.346.874.55,1.3a3.426,3.426,0,0,0,.7-.134C1.144.692,1.038.239.931-.214L0,0" fill="#fff"/>
      </g>
      <g id="Grupo_1149" data-name="Grupo 1149" transform="translate(49.155 -45.144)">
        <path id="Caminho_1097" data-name="Caminho 1097" d="M0,0-.635-.513-1.268.566l.462.325L0,0" fill="#fff"/>
      </g>
    </g>
    <g id="Grupo_1151" data-name="Grupo 1151" transform="translate(42.003 -53.383)">
      <path id="Caminho_1099" data-name="Caminho 1099" d="M0,0-8.633,22.128-10.186,3.747l-3.681-1.072,1.482,20.24-8-19.633-4.942-.356,9.085,21.962L-36.632,18.9l-2.6,3.534L-19,29.673l-23,1.513.58,5.2,22.162-1.953-16.983,6.608,1.15,2.336,17.755-5.9L-30.68,50.965l5.273,2.418L-12.534,40.52l9.974-1.834L8.763,27.57l-10.477-.494L5.5,17.682,4.261,16.141-6.091,26.259,3.577,2.2Z" fill="#b3dd9e"/>
    </g>
  </g>
</svg>
