<svg xmlns="http://www.w3.org/2000/svg" width="434.798" height="61.033" viewBox="0 0 434.798 61.033">
  <g id="pv_box002_bgroxo" transform="translate(-13 -240.033)">
    <g id="Grupo_794" data-name="Grupo 794" transform="translate(38.025 257.35)">
      <path id="Caminho_692" data-name="Caminho 692" d="M0,0-.814.733A73.268,73.268,0,0,1,4.992,6.992C8.584,11.847,6.736,18.348.98,19.978c-2.826.8-6.119.019-9.193-.172a14.19,14.19,0,0,1-2.917-.812c3.058,3.5,9.024,4.293,13.338,2.346,3.722-1.68,6.632-6,6.182-9.81C7.746,6.094,4.025,2.885,0,0" fill="#9fa6d5"/>
    </g>
    <g id="Grupo_795" data-name="Grupo 795" transform="translate(15.407 289.2)">
      <path id="Caminho_696" data-name="Caminho 696" d="M0,0C1.023.425,2.061.817,3.064,1.284c1.431.666,2.83,1.4,4.252,2.083C18.76,8.87,28.118,6.9,35.637-3.4c3.5-4.791,6.034-10.327,8.7-15.676a10.7,10.7,0,0,0-2.234-13.1c-4.184-4.066-9-7.486-13.565-11.152a7.6,7.6,0,0,1-2.578-2.611,4.055,4.055,0,0,1,1.313.181c6.314,3.262,12.1,7.2,16.533,12.892,3.326,4.265,4.469,9.186,2.11,13.919C42.613-12.309,39.1-5.586,34.488.149,27.97,8.265,19.446,9.836,9.729,6.032,6.211,4.655,2.866,2.837-.558,1.221L0,0" fill="#9fa6d5"/>
    </g>
    <g id="Grupo_796" data-name="Grupo 796" transform="translate(17.998 283.083)">
      <path id="Caminho_697" data-name="Caminho 697" d="M0,0A36.156,36.156,0,0,0,3.605,1.572C8,2.87,12.351,4.645,16.847,5.21c5.468.687,10.224-1.767,13.3-6.349A38.934,38.934,0,0,0,35.014-11.3c2.134-7-1.1-12.25-6.544-16.377-2.092-1.585-4.369-2.927-6.545-4.4-.7-.478-1.356-1.034-2.543-1.949,7.293.711,16.946,10.275,17.848,16.973,1.056,7.843-5.865,19.8-13.167,22.745C17.172,8.466,4.026,5.724,0,0" fill="#9fa6d5"/>
    </g>
    <g id="Grupo_797" data-name="Grupo 797" transform="translate(21.471 278.374)">
      <path id="Caminho_698" data-name="Caminho 698" d="M0,0A41.605,41.605,0,0,0,4.2,1.406a74.359,74.359,0,0,0,9.855,1.921A10.886,10.886,0,0,0,25.1-2.533c2.463-4.377,2.313-8.875-.7-12.771-2.212-2.863-5.2-5.135-7.87-7.633-.768-.717-1.655-1.307-2.586-2.031.6-.467.826-.723.891-.686,5.5,3.1,10.383,6.917,12.638,13.041A12.968,12.968,0,0,1,16.834,4.718C10.715,5.484,5.08,3.7-.351,1.225L0,0" fill="#9fa6d5"/>
    </g>
    <path id="Caminho_762" data-name="Caminho 762" d="M0,0H434.8V-61.033H0Z" transform="translate(13 301.066)" fill="none"/>
  </g>
</svg>
