<svg xmlns="http://www.w3.org/2000/svg" xmlns:xlink="http://www.w3.org/1999/xlink" width="16.482" height="24.494" viewBox="0 0 16.482 24.494">
  <defs>
    <clipPath id="clip-path">
      <path id="Caminho_1232" data-name="Caminho 1232" d="M0,0H16.482V-24.494H0Z" fill="none"/>
    </clipPath>
    <clipPath id="clip-path-2">
      <path id="Caminho_1249" data-name="Caminho 1249" d="M0-24.493V-8.241A8.241,8.241,0,0,0,8.241,0h0a8.241,8.241,0,0,0,8.241-8.241h0V-24.493Z" fill="none"/>
    </clipPath>
  </defs>
  <g id="pv_bilhete2" transform="translate(0 24.494)">
    <g id="Grupo_1285" data-name="Grupo 1285" clip-path="url(#clip-path)">
      <g id="Grupo_1284" data-name="Grupo 1284" transform="translate(0 -24.494)">
        <path id="Caminho_1231" data-name="Caminho 1231" d="M0,0V16.253a8.241,8.241,0,0,0,16.482,0V0Z" fill="#287642"/>
      </g>
    </g>
    <g id="Grupo_1302" data-name="Grupo 1302" clip-path="url(#clip-path-2)">
      <g id="Grupo_1286" data-name="Grupo 1286" transform="translate(-5.39 -7.643)">
        <path id="Caminho_1233" data-name="Caminho 1233" d="M0,0C.311-.375.568-.695.835-1.007A18.271,18.271,0,0,1,7.743-6.138a5.964,5.964,0,0,1,5.4.1,35.3,35.3,0,0,1,4.623,3.093,6.947,6.947,0,0,1,2.56,5.9,10.5,10.5,0,0,1-1.21,4.774c-.827,1.544-1.745,3.04-2.65,4.6l.495.373C18.81,10.1,20.44,7.436,20.981,4.272a8.131,8.131,0,0,0-2.182-7.3,17.6,17.6,0,0,0-5.464-3.757,6.606,6.606,0,0,0-4.7-.4C4.816-6.106,2.012-3.6-.493-.606L0,0" fill="#b3dd9e"/>
      </g>
      <g id="Grupo_1287" data-name="Grupo 1287" transform="translate(10.508 4.291)">
        <path id="Caminho_1234" data-name="Caminho 1234" d="M0,0C.845-1.511,1.724-2.886,2.406-4.353a7.653,7.653,0,0,0,.341-6.333,11.611,11.611,0,0,0-5.935-6.185,4.92,4.92,0,0,0-2.862-.37A15.042,15.042,0,0,0-15-11.337l.505.38c.873-.866,1.644-1.749,2.539-2.483a18.021,18.021,0,0,1,2.884-1.953c3.468-1.861,5.186-1.635,8.164.944,3.537,3.063,4.322,6.567,2.3,10.543C.794-2.737.056-1.64-.636-.479L0,0" fill="#b3dd9e"/>
      </g>
      <g id="Grupo_1288" data-name="Grupo 1288" transform="translate(8.859 3.051)">
        <path id="Caminho_1235" data-name="Caminho 1235" d="M0,0,.2.14C.558-.339.953-.8,1.274-1.3c1.764-2.771,2.166-5.605.108-8.391a17.218,17.218,0,0,0-2.845-3.044,4.889,4.889,0,0,0-6.119-.411,14.451,14.451,0,0,0-4.1,3.739,2.184,2.184,0,0,0-.219.471l.182.113c.18-.2.365-.4.538-.607A14.986,14.986,0,0,1-7.3-12.85a4.409,4.409,0,0,1,4.854-.081A12.228,12.228,0,0,1,.212-10.6c2.636,3.06,2.815,5.384.817,8.924C.707-1.1.344-.557,0,0" fill="#b3dd9e"/>
      </g>
      <g id="Grupo_1289" data-name="Grupo 1289" transform="translate(6.645 1.634)">
        <path id="Caminho_1236" data-name="Caminho 1236" d="M0,0C1.525-.8,2.616-3.916,2.159-5.686A6.292,6.292,0,0,0-2.965-9.627,6.091,6.091,0,0,0-7.677-5.82c.261-.26.417-.4.557-.557.43-.483.83-1,1.284-1.455,1.181-1.2,2.566-1.815,4.2-1.07A9.57,9.57,0,0,1,.69-7.388,3.343,3.343,0,0,1,1.812-3.941,21.172,21.172,0,0,1,.5-.829,8.969,8.969,0,0,1,0,0" fill="#b3dd9e"/>
      </g>
      <g id="Grupo_1290" data-name="Grupo 1290" transform="translate(5.608 0.636)">
        <path id="Caminho_1237" data-name="Caminho 1237" d="M0,0,.288.125a7.757,7.757,0,0,0,1.4-4.079A3.189,3.189,0,0,0-2.194-7.106,6.3,6.3,0,0,0-5.78-4.443c-.011.015.044.079.139.239.206-.2.378-.4.578-.565A16.866,16.866,0,0,1-2.949-6.443,2.694,2.694,0,0,1,.188-6.2,2.679,2.679,0,0,1,1.263-3.32,18.543,18.543,0,0,1,.478-.979,10.286,10.286,0,0,1,0,0" fill="#b3dd9e"/>
      </g>
      <g id="Grupo_1291" data-name="Grupo 1291" transform="translate(0.599 -3.23)">
        <path id="Caminho_1238" data-name="Caminho 1238" d="M0,0,.153.222A17.847,17.847,0,0,1,1.866-.993,1.988,1.988,0,0,1,4.9.4a7.067,7.067,0,0,1-.338,2.237,3.454,3.454,0,0,1-.291.685,2.95,2.95,0,0,0,1-3.177A2.578,2.578,0,0,0,3.081-1.676,4.134,4.134,0,0,0,0,0" fill="#b3dd9e"/>
      </g>
      <g id="Grupo_1292" data-name="Grupo 1292" transform="translate(4.442 -0.236)">
        <path id="Caminho_1239" data-name="Caminho 1239" d="M0,0A2.612,2.612,0,0,0-.365-2.791,1.568,1.568,0,0,0-2.074-3.2,1.087,1.087,0,0,0-2.963-2.17c.739-.625,1.6-1.2,2.275-.277A7.614,7.614,0,0,1,0,0" fill="#b3dd9e"/>
      </g>
      <g id="Grupo_1293" data-name="Grupo 1293" transform="translate(3.652 -0.753)">
        <path id="Caminho_1240" data-name="Caminho 1240" d="M0,0A1.053,1.053,0,0,0-.229-1.67a.891.891,0,0,0-1.343.38C-.014-1.568-.126-1.325,0,0" fill="#b3dd9e"/>
      </g>
      <g id="Grupo_1294" data-name="Grupo 1294" transform="translate(-5.39 -7.643)">
        <path id="Caminho_1241" data-name="Caminho 1241" d="M0,0-.493-.606c2.505-2.994,5.309-5.5,9.13-6.575a6.606,6.606,0,0,1,4.7.4A17.6,17.6,0,0,1,18.8-3.024a8.131,8.131,0,0,1,2.182,7.3C20.44,7.436,18.81,10.1,16.959,12.71l-.495-.373c.9-1.562,1.823-3.058,2.65-4.6a10.5,10.5,0,0,0,1.21-4.774,6.947,6.947,0,0,0-2.56-5.9,35.3,35.3,0,0,0-4.623-3.093,5.964,5.964,0,0,0-5.4-.1A18.271,18.271,0,0,0,.835-1.007C.568-.695.311-.375,0,0" fill="#b3dd9e"/>
      </g>
      <g id="Grupo_1295" data-name="Grupo 1295" transform="translate(10.508 4.291)">
        <path id="Caminho_1242" data-name="Caminho 1242" d="M0,0-.636-.479C.056-1.64.794-2.737,1.389-3.906c2.024-3.976,1.239-7.48-2.3-10.543-2.978-2.579-4.7-2.8-8.164-.944a18.021,18.021,0,0,0-2.884,1.953c-.9.734-1.666,1.617-2.539,2.483l-.505-.38a15.042,15.042,0,0,1,8.951-5.9,4.92,4.92,0,0,1,2.862.37,11.611,11.611,0,0,1,5.935,6.185,7.653,7.653,0,0,1-.341,6.333C1.724-2.886.845-1.511,0,0" fill="#b3dd9e"/>
      </g>
      <g id="Grupo_1296" data-name="Grupo 1296" transform="translate(8.859 3.051)">
        <path id="Caminho_1243" data-name="Caminho 1243" d="M0,0C.344-.557.707-1.1,1.029-1.674c2-3.54,1.819-5.864-.817-8.924A12.228,12.228,0,0,0-2.45-12.931,4.409,4.409,0,0,0-7.3-12.85a14.986,14.986,0,0,0-3.881,3.419c-.173.208-.358.4-.538.607l-.182-.113a2.184,2.184,0,0,1,.219-.471,14.451,14.451,0,0,1,4.1-3.739,4.889,4.889,0,0,1,6.119.411A17.218,17.218,0,0,1,1.382-9.692C3.44-6.906,3.038-4.072,1.274-1.3.953-.8.558-.339.2.14L0,0" fill="#b3dd9e"/>
      </g>
      <g id="Grupo_1297" data-name="Grupo 1297" transform="translate(7.389 0.557)">
        <path id="Caminho_1244" data-name="Caminho 1244" d="M0,0A8.969,8.969,0,0,0,.5-.829,21.172,21.172,0,0,0,1.812-3.941,3.343,3.343,0,0,0,.69-7.388,9.57,9.57,0,0,0-1.632-8.9c-1.638-.745-3.023-.126-4.2,1.07-.454.46-.854.972-1.284,1.455-.14.156-.3.3-.557.557A6.091,6.091,0,0,1-2.965-9.627,6.292,6.292,0,0,1,2.159-5.686C2.616-3.916,1.525-.8,0,0" fill="#b3dd9e"/>
      </g>
      <g id="Grupo_1298" data-name="Grupo 1298" transform="translate(5.608 0.636)">
        <path id="Caminho_1245" data-name="Caminho 1245" d="M0,0A10.286,10.286,0,0,0,.478-.979,18.543,18.543,0,0,0,1.263-3.32,2.679,2.679,0,0,0,.188-6.2a2.694,2.694,0,0,0-3.137-.239A16.866,16.866,0,0,0-5.063-4.769c-.2.164-.372.362-.578.565-.1-.16-.15-.224-.139-.239A6.3,6.3,0,0,1-2.194-7.106,3.189,3.189,0,0,1,1.691-3.954,7.757,7.757,0,0,1,.288.125L0,0" fill="#b3dd9e"/>
      </g>
      <g id="Grupo_1299" data-name="Grupo 1299" transform="translate(0.599 -3.23)">
        <path id="Caminho_1246" data-name="Caminho 1246" d="M0,0A4.134,4.134,0,0,1,3.081-1.676,2.578,2.578,0,0,1,5.275.147a2.95,2.95,0,0,1-1,3.177,3.454,3.454,0,0,0,.291-.685A7.067,7.067,0,0,0,4.9.4,1.988,1.988,0,0,0,1.866-.993,17.847,17.847,0,0,0,.153.222L0,0" fill="#b3dd9e"/>
      </g>
      <g id="Grupo_1300" data-name="Grupo 1300" transform="translate(4.442 -0.236)">
        <path id="Caminho_1247" data-name="Caminho 1247" d="M0,0A7.614,7.614,0,0,0-.688-2.447c-.676-.921-1.536-.348-2.275.277A1.087,1.087,0,0,1-2.074-3.2a1.568,1.568,0,0,1,1.709.414A2.612,2.612,0,0,1,0,0" fill="#b3dd9e"/>
      </g>
      <g id="Grupo_1301" data-name="Grupo 1301" transform="translate(3.652 -0.753)">
        <path id="Caminho_1248" data-name="Caminho 1248" d="M0,0C-.126-1.325-.014-1.568-1.572-1.29A.891.891,0,0,1-.229-1.67,1.053,1.053,0,0,1,0,0" fill="#b3dd9e"/>
      </g>
    </g>
  </g>
</svg>
