<svg xmlns="http://www.w3.org/2000/svg" xmlns:xlink="http://www.w3.org/1999/xlink" width="31.4" height="43.53" viewBox="0 0 31.4 43.53">
  <defs>
    <clipPath id="clip-path">
      <path id="Caminho_751" data-name="Caminho 751" d="M0,0H31.4V-43.53H0Z" fill="none"/>
    </clipPath>
  </defs>
  <g id="pv_boxsaibamais_bg2" transform="translate(0 43.53)">
    <g id="Grupo_780" data-name="Grupo 780" clip-path="url(#clip-path)">
      <g id="Grupo_767" data-name="Grupo 767" transform="translate(0.112 -1.862)">
        <path id="Caminho_738" data-name="Caminho 738" d="M0,0-.111.678c1.675.325,3.337.766,5.028.958C14.2,2.69,21.954.183,26.513-8.557A49.129,49.129,0,0,0,30.75-19.63c1.691-7.02-.621-12.108-6.582-16.164A41.105,41.105,0,0,0,9.485-41.627a6.257,6.257,0,0,0-1.476.029c-.022.2-.043.4-.065.607.741.207,1.477.436,2.224.618a42.585,42.585,0,0,1,13.588,5.662c4.41,2.918,6.855,7.034,6.263,12.313a34.868,34.868,0,0,1-2.647,9.719C22.833-2.119,17.111,1.238,5.565.544,3.706.432,1.855.185,0,0" fill="#ffc593"/>
      </g>
      <g id="Grupo_768" data-name="Grupo 768" transform="translate(0.615 -4.657)">
        <path id="Caminho_739" data-name="Caminho 739" d="M0,0-.1.934c2.632.313,5.256.776,7.9.909,7.3.367,12.605-2.569,15.13-9.4a73.467,73.467,0,0,0,3.347-15.211c.515-3.666-1.337-6.679-4.492-8.771A33.827,33.827,0,0,0,7.944-36.429a2.832,2.832,0,0,0-.912.172A5.32,5.32,0,0,0,9.324-35.1c3.846,1.42,7.8,2.62,11.481,4.39a7.493,7.493,0,0,1,4.392,8.2A75.286,75.286,0,0,1,22.9-10.17C20.2-1.666,14.424,1.721,5.6.61,4.508.472,3.417.3,2.319.172,1.55.084.773.055,0,0" fill="#ffc593"/>
      </g>
      <g id="Grupo_769" data-name="Grupo 769" transform="translate(0.976 -9.292)">
        <path id="Caminho_740" data-name="Caminho 740" d="M0,0C3.944,2.9,13.28,1.806,17.237-1.57c4.192-3.578,6.131-13.052,3.688-18.024-2.086-4.246-10.618-8.45-15.617-7.3.991.343,1.547.568,2.12.729,1.773.5,3.582.882,5.324,1.47,4.533,1.529,7.843,4.3,7.981,9.417a27.221,27.221,0,0,1-.977,7.829A9.512,9.512,0,0,1,12.341-.283C9.23.34,5.949.128,2.742.243A25.4,25.4,0,0,1,0,0" fill="#ffc593"/>
      </g>
      <g id="Grupo_770" data-name="Grupo 770" transform="translate(2.236 -13.19)">
        <path id="Caminho_741" data-name="Caminho 741" d="M0,0,.039.891c4.155.438,8.292.37,12.184-1.5a9.078,9.078,0,0,0,3.216-13.869c-2.857-3.565-6.947-5.013-11.286-5.85-.051-.01-.146.21-.439.653.779.274,1.5.468,2.168.774A48.2,48.2,0,0,1,12.8-15.58a7.669,7.669,0,0,1,3.3,8.322A7.618,7.618,0,0,1,10.068-.913,52.016,52.016,0,0,1,3.1,0,29.391,29.391,0,0,1,0,0" fill="#ffc593"/>
      </g>
      <g id="Grupo_771" data-name="Grupo 771" transform="translate(8.555 -30.823)">
        <path id="Caminho_742" data-name="Caminho 742" d="M0,0C-.126.223-.252.445-.377.668A51.184,51.184,0,0,1,4.867,3.533c3.462,2.425,3.68,7.151.221,9.511C3.39,14.2,1.03,14.416-1.053,14.972a9.891,9.891,0,0,1-2.117.109c2.807,1.643,6.944.845,9.376-1.406C8.3,11.733,9.274,8.217,8.13,5.791,6.5,2.325,3.312,1.021,0,0" fill="#ffc593"/>
      </g>
      <g id="Grupo_772" data-name="Grupo 772" transform="translate(3.011 -17.26)">
        <path id="Caminho_743" data-name="Caminho 743" d="M0,0C3.136-.507,5.585-1.515,6.684-4.415A4.463,4.463,0,0,0,5.611-9.3a3.1,3.1,0,0,0-3.757-.983C4.375-9.175,6.913-7.69,5.4-4.813,4.4-2.916,2.036-1.74,0,0" fill="#ffc593"/>
      </g>
      <g id="Grupo_773" data-name="Grupo 773" transform="translate(3.348 -19.924)">
        <path id="Caminho_744" data-name="Caminho 744" d="M0,0C2.328.406,3.844-.7,3.985-2.67A2.533,2.533,0,0,0,1.34-5.63C3.993-1.993,3.231-1.976,0,0" fill="#ffc593"/>
      </g>
      <g id="Grupo_774" data-name="Grupo 774" transform="translate(0.112 -1.862)">
        <path id="Caminho_745" data-name="Caminho 745" d="M0,0C1.855.185,3.706.432,5.565.544c11.546.694,17.268-2.663,21.807-13.223A34.868,34.868,0,0,0,30.019-22.4c.592-5.279-1.853-9.395-6.263-12.313a42.585,42.585,0,0,0-13.588-5.662c-.747-.182-1.483-.411-2.224-.618.022-.2.043-.4.065-.607a6.257,6.257,0,0,1,1.476-.029,41.105,41.105,0,0,1,14.683,5.833c5.961,4.056,8.273,9.144,6.582,16.164A49.129,49.129,0,0,1,26.513-8.557C21.954.183,14.2,2.69,4.917,1.636,3.226,1.444,1.564,1-.111.678L0,0" fill="#ffc593"/>
      </g>
      <g id="Grupo_775" data-name="Grupo 775" transform="translate(0.615 -4.657)">
        <path id="Caminho_746" data-name="Caminho 746" d="M0,0C.773.055,1.55.084,2.319.172,3.417.3,4.508.472,5.6.61,14.424,1.721,20.2-1.666,22.9-10.17A75.286,75.286,0,0,0,25.2-22.509a7.493,7.493,0,0,0-4.392-8.2c-3.68-1.77-7.635-2.97-11.481-4.39a5.32,5.32,0,0,1-2.292-1.16,2.832,2.832,0,0,1,.912-.172,33.827,33.827,0,0,1,13.839,4.886c3.155,2.092,5.007,5.1,4.492,8.771A73.467,73.467,0,0,1,22.928-7.561C20.4-.726,15.094,2.21,7.8,1.843,5.157,1.71,2.533,1.247-.1.934L0,0" fill="#ffc593"/>
      </g>
      <g id="Grupo_776" data-name="Grupo 776" transform="translate(0.976 -9.292)">
        <path id="Caminho_747" data-name="Caminho 747" d="M0,0A25.4,25.4,0,0,0,2.742.243c3.207-.115,6.488.1,9.6-.526a9.512,9.512,0,0,0,7.415-7.168,27.221,27.221,0,0,0,.977-7.829c-.138-5.119-3.448-7.888-7.981-9.417-1.742-.588-3.551-.973-5.324-1.47-.573-.161-1.129-.386-2.12-.729,5-1.148,13.531,3.056,15.617,7.3,2.443,4.972.5,14.446-3.688,18.024C13.28,1.806,3.944,2.9,0,0" fill="#ffc593"/>
      </g>
      <g id="Grupo_777" data-name="Grupo 777" transform="translate(2.236 -13.19)">
        <path id="Caminho_748" data-name="Caminho 748" d="M0,0A29.391,29.391,0,0,0,3.1,0a52.016,52.016,0,0,0,6.969-.914A7.618,7.618,0,0,0,16.1-7.258a7.669,7.669,0,0,0-3.3-8.322A48.2,48.2,0,0,0,5.882-18.9c-.669-.306-1.389-.5-2.168-.774.293-.443.388-.663.439-.653,4.339.837,8.429,2.285,11.286,5.85A9.078,9.078,0,0,1,12.223-.607C8.331,1.261,4.194,1.329.039.891L0,0" fill="#ffc593"/>
      </g>
      <g id="Grupo_778" data-name="Grupo 778" transform="translate(3.011 -17.26)">
        <path id="Caminho_749" data-name="Caminho 749" d="M0,0C2.036-1.74,4.4-2.916,5.4-4.813,6.913-7.69,4.375-9.175,1.854-10.286A3.1,3.1,0,0,1,5.611-9.3,4.463,4.463,0,0,1,6.684-4.415C5.585-1.515,3.136-.507,0,0" fill="#ffc593"/>
      </g>
      <g id="Grupo_779" data-name="Grupo 779" transform="translate(3.348 -19.924)">
        <path id="Caminho_750" data-name="Caminho 750" d="M0,0C3.231-1.976,3.993-1.993,1.34-5.63A2.533,2.533,0,0,1,3.985-2.67C3.844-.7,2.328.406,0,0" fill="#ffc593"/>
      </g>
    </g>
  </g>
</svg>
