<svg xmlns="http://www.w3.org/2000/svg" xmlns:xlink="http://www.w3.org/1999/xlink" width="113.955" height="99.486" viewBox="0 0 113.955 99.486">
  <defs>
    <clipPath id="clip-path">
      <path id="Caminho_178" data-name="Caminho 178" d="M0,0H113.955V-99.486H0Z" fill="none"/>
    </clipPath>
  </defs>
  <g id="pv_boxaberturaatv_bg" transform="translate(0 99.486)">
    <g id="Grupo_195" data-name="Grupo 195" clip-path="url(#clip-path)">
      <g id="Grupo_194" data-name="Grupo 194" transform="translate(105.81 -52.44)">
        <path id="Caminho_177" data-name="Caminho 177" d="M0,0,2.812-5.006-.145-10.878l-4.445.067c.427-1.971.766-3.538,1.326-6.126l-8.244-9.685-.023,0c.5.883,1.013,1.78,1.777,3.121l-3.806,1.841c-2.129-3.519-1.8-4.192,2.029-4.962l-.056-.1.136.073L-17.6-33.52l-.773-.865A29.367,29.367,0,0,1-22.9-32.748c-.369.067-.941-.973-1.436-1.522.425-1.18.786-2.185,1.194-3.321l-2.47-1.394-2.137,3.676c-4.192-1.125-3.761-3.458-1.962-6.248l-6.915-2.7L-40.861-40.6c-.156-2.588-.225-3.742-.321-5.347l-14.7-1.1c-.514,1.792-.868,3.027-1.5,5.225l-3.645-3.988-1.913.408c-.1,1.148-.188,2.189-.375,4.355l-4.294-3.24-2.658,1.02c1.776,2.487,1.724,4.509-1.743,6.267l-4.051-4.444-2.357,1.032c-.076,1.13-.129,1.935-.222,3.335l-4.41-1.585-9.9,7.81c-.053,1.776-.085,2.854-.119,3.986l-4.025,1.252c.178,1.475.319,2.64.414,3.429l-3.614,2.775,2.63,5.5-5.646,1.03c.45,1.616.88,3.159,1.513,5.428l-3.151,2.457c-.231,2.246-.485,4.712-.732,7.115l3.949,1.622c-.22,1.406-.417,2.66-.594,3.788l-3.492,1.341c.138,1.048.26,1.97.29,2.2l4.28,1.112q-.012.667-.025,1.336l-3.938,1.512q.239,1.766.451,3.336l4.022,1.62c-.938,2.491-1.788,4.748-2.63,6.98l5.239,1,.6,1.175-3.954,4.462,3.878,6.086-.528,1.834c.827,2.155,1.542,4.015,2.1,5.474l5.567.72c-.719,2.046-1.128,3.212-1.657,4.718L-88.37,52c.606-1.426,1.094-2.572,1.324-3.115l5.737,1.29c.391-1.883.609-2.937,1.012-4.884l4.788,2.366,2.338-.9c.176-2.031-.125-3.861.6-5.05.464-.757,2.455-.564,3.865-.816.451,1.8.714,2.844,1.024,4.077l2.733-.913-.452-4.238,1.113-.735,3.758,3.367,2.019-.775c-1.56-3.988-1.179-4.748,2.76-5.056.218,1.231.437,2.47.684,3.864l2.926-1.124c.246-1.658.458-3.091.851-5.747l4.66,4.137,2.824-2.987,4.793.237c-.705-4.692-.181-5.322,3.822-5.109l1.812,2.5,6.3-2.418c.425-2.009.732-3.457,1.26-5.95l4.247,4.031,2.879-1.469L-22,23.753l3.2-3.976,1.454.376,1.363,5.334,2.691-1.033c-.2-1.319-.356-2.381-.427-2.859,2.922-4.933,4.591,2.223,7.089.206l-1.1-3.627L-4.208,17.1l2.042,2.957L.716,18.953c.421-1.182.811-2.278,1.281-3.6L5.729,16.81l2.2-2.263L6.619,11.128c.574-1.15,1.068-2.141,1.526-3.06C7.151,5.477,6.213,3.035,5.428.989L0,0M-2.841-8.088c.784-.334,2.051.462,3.564.887l-2.18,4.528L-5.645-4.524c1.336-1.8,1.864-3.163,2.8-3.564m-50.3,4.77c-1.231.376-2.7-.044-4.732-.176l1.992-5.122c1.6,1.018,3,1.582,3.836,2.611.318.393-.467,2.5-1.1,2.687m2.67,5.287q-.336.841-.671,1.681l-2.952-1.2q.334-.84.67-1.679l2.953,1.2M-61.393-12.647l1.7-.938,1.679,3.019-1.715.945-1.667-3.026m.822-5.034c-.235-.363.583-1.411,1.371-3.111l1.84,3.513-.921,1.035c-.8-.457-1.846-.75-2.29-1.437m5.67,6.632q-.324-1.044-.647-2.089l3.534-1.356.816,2.569-3.7.876m7.9,9.661,2.026-.89q.744,1.412,1.487,2.825l-2.372,1.038Q-46.435.1-47.005-1.388M-49.07-7.514c.58-1.22,1.2-2.515,2.039-4.287,1.727.921,2.664,1.421,3.495,1.866C-43.9-5.69-45.309-5-49.07-7.514m.02-8.359c.577-.87,1-2.245,1.771-2.47.793-.234,1.917.648,2.9,1.042l.018,1.473-3.918,1.089-.767-1.134M-38.263.827l1.332-.416,2.4,3.4-1.225,1.314c-1.015-.381-2.468-.492-2.916-1.223-.418-.682.231-2.023.41-3.074m.779-3.479C-38.172-2.265-40.6-3.4-40.9-4.3c-.372-1.112.656-2.691,1.387-5.076,1.918,1.434,3.767,2.153,3.859,3.047a4.5,4.5,0,0,1-1.831,3.682m-.481-8.895a2.565,2.565,0,0,1-2.26-1.128,2.52,2.52,0,0,1,1.087-2.251c.621-.282,1.665.366,3.23.8-.969,1.288-1.406,2.441-2.057,2.576m8.643,6.392c.416-.225,2.032.706,2.188,1.334.215.868-.153,2.5-.771,2.815-1.048.528-2.486.277-3.76.353l-.764-1.742a16.551,16.551,0,0,1,3.107-2.76m.338-6.631c-.568,3.567-1.219,3.9-4.559,2.106.673-4.019,1.6-4.4,4.559-2.106m-4.5-6.708a12.662,12.662,0,0,1,2.621-2.644l1.589.866c-.091,1.166.088,2.465-.384,3.443-.243.5-1.816.82-2.479.521-.682-.306-1.566-1.789-1.347-2.186m9.3,27.723c-.1-.843,1.309-1.869,2.056-2.814l1.441.508q.2,1.95.407,3.9l-1.3.775c-.931-.782-2.5-1.487-2.609-2.368m-.42-5.21c.5-4.745,1.432-5.349,5.167-3.637.007,1.194.013,2.276.024,4.242L-24.6,4.019m.73-10.746-1.27-.017-.7-3.352,3.234-.463.478,1.422-1.746,2.41m-3.341-7.824,2.77-4.441c.962,2.077,1.5,3.25,2.048,4.424l-.79.864-4.028-.847m8.4,6.756c1.13-.71,2.872-.44,4.354-.586q.491.945.983,1.89a27.4,27.4,0,0,1-3.636,3.752c-.333.244-2.323-.814-2.464-1.5-.236-1.142.01-3.088.763-3.561M-20.888-13l1.62-.569.655,2.18a6.228,6.228,0,0,1-1.056.4c-.434-.651-.821-1.334-1.219-2.009m4.924,1.366q.022-1.664.044-3.326l2.15.2q-.208,1.641-.416,3.283l-1.778-.155M-11.1,6.155c1.208-.593,2.469-1.722,3.6-1.6.83.089,1.493,1.824,2.23,2.825L-6.11,8.716l-4.6-.574q-.2-.993-.392-1.987m-.258-7.643c-.475-.487-.1-2.825.5-3.141C-9.741-5.211-8.17-4.915-6.4-5c-.191,1.951-.3,3.015-.526,5.371-1.987-.759-3.564-.96-4.437-1.855m5.194,3.249C-4.991.824-3.932-.475-2.6-.9-1.931-1.108-.212.137.032,1S-.611,3.852-1.241,3.959c-1.423.243-2.994-.371-4.5-.637l-.42-1.561m-4.15-21c1.1-.626,2.718-.342,4.592-.482-.511,4.6-2.22,5.388-5.862,3.8.416-1.2.494-2.877,1.27-3.318m1.627,6.971c.769-.4,2.126.349,3.945.757-.918,1.59-1.3,3.132-2.08,3.364A3.274,3.274,0,0,1-9.794-9.349a3.127,3.127,0,0,1,1.106-2.915m-11.487-17.87c.96-.512,2.456-.013,3.721.05l.566,1.343c-.9,1.082-1.649,2.413-2.783,3.122-.438.274-2.383-.733-2.52-1.388-.206-.982.278-2.734,1.016-3.127m2.134,7.065,3.331,3.77-3.224,3.15-3.515-2.38,3.408-4.54m-9.692-8.449,1.029-.8,3.206,2.145-.309,1.231c-1.032.15-2.353.753-3.015.324s-.634-1.89-.911-2.9m2.511,6.33c1.051.137,2.005,1.049,3.838,2.128l-4.5,3.329c-.635-1.655-1.375-2.755-1.346-3.829a2.583,2.583,0,0,1,2-1.628M-31.6-31.04a15.89,15.89,0,0,1-3.775-.372c.775-1.643,1.211-2.565,1.986-4.206a15.941,15.941,0,0,1,2.623,2.769c.2.37-.44,1.748-.834,1.809M-34.219-40.3l.525,1.024c-.424.793-.849,1.586-1.557,2.908l-3.322-3.256,4.354-.676m-.1,13.484,3.55-.492q.292.609.584,1.22L-32.242-22.9l-1.445-.134q-.313-1.893-.628-3.787m-2.695-3.91c.378,1.037-.393,2.493-.664,3.766l-1.336.415c-.951-.893-2.526-1.693-2.679-2.7-.159-1.049,1.058-2.3,1.674-3.467,1.051.645,2.673,1.082,3.005,1.99m-3.043-6.987c.057,1.086-1.369,2.245-2.151,3.372l-1.681-.42q-.222-2.487-.443-4.973l1.541-.728c.976.913,2.683,1.79,2.734,2.749m-7.736-7.21,2.608-.4q.109.831.22,1.664l-2.661.214q-.084-.737-.167-1.474m8.06,21.844c.8-.187,1.933,1.066,2.941,1.692C-38.3-18.217-39.8-17.4-42.856-20.378c1.19-1.1,2.03-2.447,3.127-2.7m-12.185-16.3,4.352-2.207c-.114,1.939-.171,2.918-.293,5l-4.059-2.788m6.4,9.618-1.156.606c-.6-.542-1.208-1.085-2.4-2.157,1.44-.36,2.459-.9,2.756-.627.507.46.56,1.425.8,2.178m-4.725-15.8-1.272,3.578-3.068-3.1,4.34-.475m6.855,19.179c-.7,1.842-1.072,2.815-1.78,4.674l-3.311-3.3q.243-.636.487-1.271l4.6-.105M-57.508-39.935c.638-.754,1.756-1.1,3.273-1.94.375,1.973.548,2.885.84,4.427-1.441-.081-2.615.1-3.542-.3a2.348,2.348,0,0,1-.571-2.183m6.693,6.136c-.873,3.138-2.485,3.331-5.126,1.61,1.15-3.6,2.834-3.425,5.126-1.61m-2.633,6.568,2.259.831q-.168.658-.335,1.316l-2.471-.55q.273-.8.547-1.6m.689,5.546,1.6,1.257-2.077,2.117-1.223-1.1,1.7-2.278M-65.4-37.96l3.166-1.925,1.07.832c-.431,1.022-.62,2.358-1.383,2.948-.466.36-1.812-.425-2.762-.7q-.046-.579-.091-1.159m7.463,7.417-2.53,1.233q-.445-1.539-.89-3.076l1.515-.745,1.905,2.588m-2.748,5.9c.634-.741,1.718-1.093,3.674-2.2-.341,2.269-.306,3.417-.758,4.316-.167.331-1.7.377-2.211,0s-.975-1.806-.7-2.122M-67.49-34.986l1.374,1.374c-.434.884-.869,1.768-1.752,3.567l-3.91-4.114,4.288-.827m-.009,6.611c.476-.36,2.726.568,3.065,1.379.408.976-.362,2.446-.831,4.712-1.938-1.3-3.654-1.868-3.759-2.651a4.343,4.343,0,0,1,1.525-3.44m.842,8.732c.771.391,2.011.63,2.2,1.209.256.788-.293,1.836-.5,2.773l-1.269.254q-.851-1.573-1.7-3.147l1.266-1.089M-78.1,8.439l-1.4-.492c.035-1.183-.382-2.909.218-3.412.76-.638,2.347-.282,3.577-.355l.54,1.442L-78.1,8.439m5.207,5.024-1.118,1.532c-1.026-.335-2.36-.395-2.98-1.094-.485-.547-.084-1.887-.077-2.874l1.247-.687,2.928,3.123M-78.36,1.771-83.074-.911a19.256,19.256,0,0,1,3.269-3c.434-.241,2.077.551,2.106.946a23.5,23.5,0,0,1-.661,4.739m-8.359-4.465L-90.79-5.327l2.51-4.348,3.956,2.719c-.833,1.484-1.457,2.593-2.4,4.262m.922-15.743c-.728-.682-1.547-1.258-1.474-1.414a16.019,16.019,0,0,1,1.519-2.316l1.317,1.12c-.4.763-.8,1.525-1.362,2.61m6.442,11.486q-.664-1.233-1.33-2.467l2.48-1.135.705.735q-.442,1.363-.884,2.728l-.971.139m7.229,5.892L-70.3.316-72.15,3.14l-2.108-1.594,2.132-2.605m2.354-2.178L-71-2.925c-.63-1.042-2.012-2.467-1.724-3.039.516-1.028,2.034-1.543,3.134-2.272l1.255,1.3q-.719,1.848-1.435,3.7M-64.148.942l-1.068,2.395q-.786-.31-1.571-.624.376-1.247.752-2.5l1.887.724M-72.5-10.165c-.541-.512-1.04-1.069-1.55-1.615l1.251-.845,1.263,1.861a5.534,5.534,0,0,1-.964.6M-82.509-25.019l-.819-3.833,1.577-.725,3.092,2.308q-.041.675-.08,1.351l-3.77.9m2.821,2.794q.312.648.623,1.3l-2.265,1.081-.612-1.271,2.254-1.106m8.9,28.953,5.305-.694L-67.18,11.1l-4.038-2.853q.211-.758.425-1.517m11.73,7.385,1.4.666q.094,2.1.188,4.2l-1.21.79-3.067-2.411,2.692-3.24m-3.891-4.69A15.893,15.893,0,0,1-60.562,6.5a2.052,2.052,0,0,1,1.9.59c.363.968.264,2.108.431,4.138l-4.727-1.8m.265-11.588c-.989-.873-2.516-1.607-2.789-2.664-.2-.773,1.248-1.969,1.962-2.977l1.444.414.672,4.4-1.289.828m-5.323-8.357a8.416,8.416,0,0,1,.543-2.055,14.755,14.755,0,0,1,2.625.362l-.315,1.6-2.853.094M-58.328-.037l1.261,2.566-1.582.851L-60.08.885l1.752-.922M-74.173-22.076c-2.534-3.492-1.461-4.359,2.621-3.848l-2.621,3.848M-79.184-32.7l2.763-2.171,1.455.651c-.168,1.1-.011,2.865-.578,3.142-.893.436-2.274-.13-3.449-.272q-.095-.675-.191-1.35m7.994,13.1.9,1.088c-.745,1.095-1.285,2.641-2.314,3.109-.589.268-1.974-1.218-3-1.915l.594-1.635,3.818-.647M-85.98-33.577c1.079-.684,2.158-1.368,4.272-2.706.035,2.443.053,3.758.072,5.074l-1.246,1.178-3.367-1.29q.133-1.128.269-2.256m7.691,16.342q.348.638.7,1.276l-2.787,3.411-1.569-.616c.07-1.242-.275-2.8.344-3.622.474-.631,2.165-.334,3.315-.449M-88.795-33.049l1.229.4q-.34.889-.68,1.78l-.867-.221.318-1.962m2.678,5.151c-.4,3.729-2.057,3.553-4.448,2.253.1-3.41,1.8-3.316,4.448-2.253m.674,12.541q.045.921.089,1.841l-4.633,1.4-.877-1.54c.77-.879,1.394-2.167,2.356-2.512.82-.294,2.029.5,3.065.808m-5.494-6.989.662,1.7-3.676,1.411-.66-1.695,3.674-1.411m-3.781,5.427,2.08,1.339q-.313.615-.628,1.23L-95.6-15.456l.877-1.463M-85.17.72c.8,2.094,1.23,3.2,1.993,5.192-1.765.282-3.171.8-4.447.568-.522-.095-1.334-2.14-1.007-2.715C-88,2.65-86.649,1.948-85.17.72m-8.95.983a11.467,11.467,0,0,1-.527-3.638l1.4-.72a12.487,12.487,0,0,1,2.8,2.5c.261.417-.484,1.982-1.132,2.31s-2.3.043-2.541-.449m5.79,10.432-1.7,3.04-1.507.138q-.621-1.86-1.241-3.718l1.016-.758,3.436,1.3m7.448,1.407-4.869-.782,2.092-4.3,2.777,5.086M-97.273-11.069c.737-.376,2.844.274,3.076.922.46,1.285.046,2.882-.007,4.35l-1.415.606c-1.2-.936-2.731-1.678-3.435-2.9-.307-.533.856-2.505,1.781-2.978M-101.145-2.6c.366-.489,1.725-.223,2.641-.293l.513,1.309-2.5,2.332L-101.5.32c.083-1-.152-2.246.356-2.924m4.05,7.48c1.247-.394,2.955.666,4.464,1.1q-.006,1.2-.01,2.4L-98.237,10l-1.1-1.467c.726-1.283,1.21-3.328,2.24-3.654M-98.87,15.159c3.554-.676,4.33.62,3.538,3.93-1.15-.232-2.579-.107-3.151-.751s-.29-2.057-.387-3.179m9.6,11.941q-.312,2.028-.623,4.055l-1.54.358q-1.307-1.838-2.614-3.676.4-.681.8-1.362l3.978.625m-7.546,10.789c-.9-1.815-1.412-2.836-2.061-4.141,3.867-.093,3.954.046,2.061,4.141m3.352,7.065c-1.265-.972-2.528-1.5-2.546-2.062-.028-.841.821-1.706,1.3-2.561.758.486,1.9.823,2.163,1.5.248.637-.433,1.635-.915,3.122m-5.582-20.013,2.149-3.268,1.106.142q.186,1.406.373,2.809l-3.628.317M-83.39,42.7c.1,1.206-.646,2.478-1.153,4.07a24.054,24.054,0,0,1-3.075-1.216A14.584,14.584,0,0,1-89.541,43.6c1.36-.951,2.41-2.074,3.671-2.411.691-.185,2.431.9,2.48,1.512m-3.6-2.941c-1.849-1.454-3.413-2.092-3.722-3.109-.257-.846.8-2.888,1.563-3.05,1.051-.223,3,.536,3.407,1.413.416.9-.569,2.442-1.248,4.746m-1.588-15.2c-2.022-1.479-3.762-2.115-3.972-3.08A4.081,4.081,0,0,1-90.835,18.1c.566-.356,2.762.653,3.1,1.5.414,1.022-.359,2.525-.848,4.963m12.129,16.647-3.776,1.862c.322-1.974.219-3.517.685-3.714.805-.341,1.964.153,2.975.3q.057.777.116,1.555m-1.89-5.692-1.184.625-3.156-2.691q.313-.618.626-1.238l3.317-1.1c.158,1.757.278,3.08.4,4.4m-3.586-7.524a4.145,4.145,0,0,1-3.4-1.565c-.417-.634.576-2.2,1.234-4.291,1.781,1.273,3.369,1.84,3.718,2.838.277.794-.842,2.914-1.554,3.018m-1.527-8.046q-.508-.8-1.018-1.6l2.668-1.908,1.168,1.886-2.818,1.625m11.694,18.021c-.862-.229-1.654-.2-1.947-.574-.394-.5-.749-1.689-.511-1.906a9.282,9.282,0,0,1,2.478-1.228l.816.94c-.262.865-.523,1.731-.836,2.768m-2.006-7.455c-1.043-.589-2.5-.949-2.991-1.842-.357-.65.563-2,1.139-3.716,1.474,1.023,3.008,1.556,3.114,2.29.146,1.009-.79,2.171-1.262,3.268m-1.313-7.668-3.2-1.881q-.015-.668-.029-1.333l3.8-1.137.645,1.068-1.209,3.283m10.122,14.777-1.588.325-.291-2,1.348-.245.531,1.924m-3.3-4.686q-.6-1.021-1.2-2.041l3.443-1.794L-65,30.862l-3.256,2.074m1.164-8.489-4.1.747,2.03-3.893,1.446.147.621,3M-69.7,13.195l4.829.782.732,1.217a12.9,12.9,0,0,1-2.528,2.935,2.621,2.621,0,0,1-2.493-.758c-.511-.989-.351-2.326-.54-4.176m9.5,21.583-1.031.04c-.35-.745-1.106-1.6-.94-2.2.181-.652,1.217-1.06,1.88-1.574l1.17.786q-.54,1.476-1.079,2.951m-.17-6.085L-65.1,26.56l2.449-4.613,4.359,2.492c-.579,1.184-1.074,2.194-2.083,4.254m9.461,2.889-3.679,1.413-.737-.94c.469-.842.752-2.087,1.458-2.412s1.838.266,2.783.455q.089.743.175,1.484m-6.5-7.418,4.229-2.787c.188,4.508-.091,4.687-4.229,2.787m2.372-7.3,4.431-2.758,1.175.715-.687,5.03-4.919-2.987m8.514,5.774-1.3,3.966c-1.018-1.6-1.945-2.45-1.786-2.943.244-.757,1.235-1.267,1.91-1.882q.587.431,1.175.859m1.219,9.928c-1.022.08-2.136-.967-3.211-1.533.57-.962.946-2.424,1.767-2.742s2.067.531,3.825,1.089c-1.082,1.531-1.668,3.131-2.381,3.186m-4.7-22.694L-53.819,11q-.318-.956-.637-1.911l3.708-1.423.738,2.2M-38.7,26.763c-1.208.226-2.547-.24-4.437-.508.791-1.93,1.227-3,2.186-5.338,1.652,1.613,2.837,2.4,3.4,3.5A2.7,2.7,0,0,1-38.7,26.763m-6.781-9.426c.553-3.259,2-3.753,4.427-2.162-.575,3.935-1.185,4.236-4.427,2.162m2.937-6.726-1.769.624c-.933-1.057-2.156-1.995-2.662-3.228-.216-.527.9-2.126,1.7-2.4s2.649.3,2.814.859c.372,1.264-.011,2.751-.087,4.146m12.391,16.836-2.984.9q-.25-.794-.5-1.586l2.977-.935q.253.808.509,1.618m-1.562-6.358L-37,21.712c.832-2.129,1.2-3.081,1.8-4.616l3.646,2.183q-.083.9-.164,1.81m-3.221-7.315c-1.315-.6-3.1-.892-3.78-1.918-.458-.688.646-2.421,1.371-4.686,1.917,1.365,3.665,1.978,3.877,2.931.238,1.064-.918,2.435-1.468,3.673m5.49-3.66c1.453,1.391,2.472,2.027,2.923,2.943A2.314,2.314,0,0,1-27.5,15.1c-.991.218-2.12-.186-3.668-.4.6-1.591.957-2.553,1.721-4.59m3.619,13.159c-1.1-1.048-2.226-1.725-2.684-2.711a2.613,2.613,0,0,1,1.245-2.213c1.054-.156,2.221.435,4.066.9l-2.627,4.027M-28.87,7.686c-.888.265-2.075-.467-3.758-.941l1.95-3.529,4.006,1.645c-.918,1.256-1.395,2.585-2.2,2.825m10.558,11.2c-1.534-1-2.789-1.468-3.426-2.373a2.622,2.622,0,0,1,.574-2.538c.937-.547,2.261-.427,4.426-.725-.685,2.451-1.018,3.647-1.574,5.636m6.775-1.671c-.525.5-1.79.227-2.732.291l-.5-1.056,2.5-2.437,1.016.494c-.066.935.208,2.229-.291,2.708m-1.63-7.594A12.735,12.735,0,0,1-16.1,11.568l-1.372-1.056c.322-1.126.405-2.44,1.07-3.3.319-.411,1.911-.238,2.6.2.512.322.929,1.877.636,2.207m-3.172-6.148-.712-1.279,1.763-2.784,1.082.11c.242,1.007.934,2.233.59,2.956-.3.627-1.77.687-2.723,1M-7.2,15.114c-.309.2-1.67-.419-1.755-.828a13.206,13.206,0,0,1,.25-3.459l4.135,1.5a17.072,17.072,0,0,1-2.63,2.79m8.255,1.045-3.537.61c-.34-.885-.986-1.821-.764-2.134A19.912,19.912,0,0,1-.2,11.874c.582,1.985.865,2.951,1.257,4.285M-.17,11.793l-1.751.057L-3.616,8.481l3.387-1.7,1.82,1.775L-.17,11.793m3.772,2.5-1.083-.446c-.064-1.2-.127-2.4-.245-4.649l4.294,2.249L3.6,14.291m1.7-6.26C4.064,7.506,2.65,7.347,2.32,6.663c-.446-.926-.06-2.254-.008-4.32l4.4,2.146c-.462,1.162-.845,2.123-1.411,3.542" fill="#9fa6d5"/>
      </g>
    </g>
  </g>
</svg>
