<svg xmlns="http://www.w3.org/2000/svg" width="33.854" height="32.091" viewBox="0 0 33.854 32.091">
  <g id="pv_capituloa" transform="translate(0 32.091)">
    <g id="Grupo_1612" data-name="Grupo 1612" transform="translate(24.248 -32.091)">
      <path id="Caminho_1557" data-name="Caminho 1557" d="M0,0-4.311,15.376l.077-13.443-2.655.773.281,12.852-8.2-8.684-1.827,1.173,7.506,9.258L-20.84,11.3l-1.278,2.078,9.8,5.906-11.6,1.808-.328,1.437,14.055,1.217-9.253,6.667,1.1,1.679L-8.2,27.625l.387,1.188L4.742,23.741,4.126,22.2l5.48-4.878L8.132,13.679,1.956,18.255,6.521,9.692,5.487,7.132l-7.324,9.61L1.752,1.622Z" fill="#287642"/>
    </g>
  </g>
</svg>
