<svg xmlns="http://www.w3.org/2000/svg" xmlns:xlink="http://www.w3.org/1999/xlink" width="37.527" height="14.942" viewBox="0 0 37.527 14.942">
  <defs>
    <clipPath id="clip-path">
      <path id="Caminho_1556" data-name="Caminho 1556" d="M1.072-14.942A1.073,1.073,0,0,0,0-13.87H0v12.8A1.072,1.072,0,0,0,1.072,0H36.455a1.071,1.071,0,0,0,1.072-1.072h0v-12.8a1.072,1.072,0,0,0-1.072-1.072H1.072Z" fill="none"/>
    </clipPath>
  </defs>
  <g id="pv_capitulob" transform="translate(0 14.942)">
    <g id="Grupo_1611" data-name="Grupo 1611" clip-path="url(#clip-path)">
      <g id="Grupo_1595" data-name="Grupo 1595" transform="translate(3.388 -21.21)">
        <path id="Caminho_1540" data-name="Caminho 1540" d="M0,0C.266,2.084.447,4.068.786,6.024c.586,3.388,1.82,6.506,4.535,8.773,5.154,4.3,10.973,4.751,17.085,2.563a10.314,10.314,0,0,0,6.921-8.236,38.933,38.933,0,0,0,.6-4.146c.154-1.815.19-3.639.278-5.487a4.13,4.13,0,0,1,.528-.039,5.919,5.919,0,0,1,.6.095,39.955,39.955,0,0,1-1.157,11.026,11.489,11.489,0,0,1-7.435,7.886,20.226,20.226,0,0,1-8.833,1.177A15.062,15.062,0,0,1,.226,8.835,31.609,31.609,0,0,1-1.048.493L0,0" fill="#ffe8d7"/>
      </g>
      <g id="Grupo_1596" data-name="Grupo 1596" transform="translate(5.693 -21.764)">
        <path id="Caminho_1541" data-name="Caminho 1541" d="M0,0C.029.626.046,1.154.078,1.68A23.491,23.491,0,0,0,3.2,12.294a7.662,7.662,0,0,0,5.622,4.069,45.106,45.106,0,0,0,7.14.4,8.927,8.927,0,0,0,7.2-4.079,13.481,13.481,0,0,0,2.452-5.837c.346-2.227.56-4.473.84-6.776h.8c-.121,4.115-.507,8.109-2.4,11.775a10.45,10.45,0,0,1-7.885,5.8,22.633,22.633,0,0,1-8.518-.369,8.49,8.49,0,0,1-5.133-3.225C.22,10-.72,5.253-.975.241L0,0" fill="#ffe8d7"/>
      </g>
      <g id="Grupo_1597" data-name="Grupo 1597" transform="translate(31.251 -21.717)">
        <path id="Caminho_1542" data-name="Caminho 1542" d="M0,0C-.3,2.2-.463,4.3-.9,6.331A9.84,9.84,0,0,1-5.448,13.1a14.933,14.933,0,0,1-10.88,1.758,6.324,6.324,0,0,1-3.224-1.833C-22.824,9.365-24.063,4.915-24.175.034h.812c.227,1.565.336,3.069.686,4.515a23.224,23.224,0,0,0,1.451,4.236c2.12,4.594,4.059,5.692,9.112,5.348,6-.409,9.519-3.4,10.518-9.047C-1.3,3.425-1.212,1.727-1.023,0Z" fill="#ffe8d7"/>
      </g>
      <g id="Grupo_1598" data-name="Grupo 1598" transform="translate(37.113 -21.77)">
        <path id="Caminho_1543" data-name="Caminho 1543" d="M0,0,.414.064C.271,1.738.074,3.41-.006,5.087c-.255,5.337-2.12,9.827-6.6,13.029-3.279,2.343-6.793,3.944-10.934,3.61a31.434,31.434,0,0,1-10.689-3.045,15.15,15.15,0,0,1-5.119-3.745c-2.682-3.067-3.518-6.788-3.764-10.71a4.048,4.048,0,0,1,.234-.982,1.912,1.912,0,0,1,.192.372c.047.53.085,1.061.129,1.591.488,5.962,3.1,10.569,8.691,13.078a47.257,47.257,0,0,0,7.333,2.528A14.668,14.668,0,0,0-8.493,18.8c4.3-2.751,7.279-6.381,7.747-11.679.182-2.054.378-4.107.576-6.16C-.138.637-.058.32,0,0" fill="#ffe8d7"/>
      </g>
      <g id="Grupo_1599" data-name="Grupo 1599" transform="translate(28.599 -21.72)">
        <path id="Caminho_1544" data-name="Caminho 1544" d="M0,0,.31.009C.31.78.362,1.555.3,2.321c-.333,4.21-2.114,7.431-6.382,8.7a22.21,22.21,0,0,1-5.276.924c-3.26.145-5.317-1.319-6.6-4.312A18.586,18.586,0,0,1-19.279.618a2.828,2.828,0,0,1,.14-.652l.275.024c.028.346.066.692.082,1.039a19.262,19.262,0,0,0,1.34,6.514,5.665,5.665,0,0,0,4.921,3.839,15.711,15.711,0,0,0,4.538-.336C-2.908,9.944-.926,7.7-.238,2.515-.128,1.681-.078.839,0,0" fill="#ffe8d7"/>
      </g>
      <g id="Grupo_1600" data-name="Grupo 1600" transform="translate(27.316 -21.738)">
        <path id="Caminho_1545" data-name="Caminho 1545" d="M0,0,.423.037C.335,1.231.314,2.435.145,3.617c-.466,3.267-2.226,5.369-5.475,5.9a33.169,33.169,0,0,1-7.034.174,4.009,4.009,0,0,1-3.5-2.749A15.285,15.285,0,0,1-16.841.383a1.276,1.276,0,0,1,.155-.39,2.4,2.4,0,0,1,.317,1.116c.3,1.829.49,3.686.957,5.471a3.386,3.386,0,0,0,3.257,2.654,34,34,0,0,0,5.67.047C-2.48,8.814-.48,6.545-.213,2.538c.034-.5.05-1,.089-1.5C-.1.695-.042.348,0,0" fill="#ffe8d7"/>
      </g>
      <g id="Grupo_1601" data-name="Grupo 1601" transform="translate(25.229 -21.977)">
        <path id="Caminho_1546" data-name="Caminho 1546" d="M0,0C.948,2-.344,6.045-2.182,7.509-4.13,9.06-8.5,9.1-10.494,7.591-12.2,6.3-13.326,2.153-12.386.035c.067.469.119.735.141,1,.067.829.082,1.664.193,2.487.287,2.142,1.23,3.849,3.488,4.352a12.342,12.342,0,0,0,3.556.242A4.3,4.3,0,0,0-1.19,5.449,27.1,27.1,0,0,0-.129,1.237,11.366,11.366,0,0,0,0,0" fill="#ffe8d7"/>
      </g>
      <g id="Grupo_1602" data-name="Grupo 1602" transform="translate(23.392 -21.754)">
        <path id="Caminho_1547" data-name="Caminho 1547" d="M0,0,.392.094A9.973,9.973,0,0,1-1.323,5.368,4.1,4.1,0,0,1-7.751,5.6,8.1,8.1,0,0,1-9.372.09c0-.024.1-.047.327-.139.054.369.079.705.156,1.028a21.773,21.773,0,0,0,.876,3.355A3.463,3.463,0,0,0-4.607,6.515,3.441,3.441,0,0,0-1.273,4.386,23.336,23.336,0,0,0-.267,1.374,13.076,13.076,0,0,0,0,0" fill="#ffe8d7"/>
      </g>
      <g id="Grupo_1603" data-name="Grupo 1603" transform="translate(3.388 -21.21)">
        <path id="Caminho_1548" data-name="Caminho 1548" d="M0,0-1.048.493A31.609,31.609,0,0,0,.226,8.835a15.062,15.062,0,0,0,13.684,10.8,20.226,20.226,0,0,0,8.833-1.177,11.489,11.489,0,0,0,7.435-7.886A39.955,39.955,0,0,0,31.335-.453a5.919,5.919,0,0,0-.6-.095,4.13,4.13,0,0,0-.528.039c-.088,1.848-.124,3.672-.278,5.487a38.933,38.933,0,0,1-.6,4.146,10.314,10.314,0,0,1-6.921,8.236C16.294,19.548,10.475,19.1,5.321,14.8,2.606,12.53,1.372,9.412.786,6.024.447,4.068.266,2.084,0,0" fill="#ffe8d7"/>
      </g>
      <g id="Grupo_1604" data-name="Grupo 1604" transform="translate(5.693 -21.764)">
        <path id="Caminho_1549" data-name="Caminho 1549" d="M0,0-.975.241C-.72,5.253.22,10,3.312,14.056a8.49,8.49,0,0,0,5.133,3.225,22.633,22.633,0,0,0,8.518.369,10.45,10.45,0,0,0,7.885-5.8c1.893-3.666,2.279-7.66,2.4-11.775h-.8c-.28,2.3-.494,4.549-.84,6.776a13.481,13.481,0,0,1-2.452,5.837,8.927,8.927,0,0,1-7.2,4.079,45.106,45.106,0,0,1-7.14-.4A7.662,7.662,0,0,1,3.2,12.294,23.491,23.491,0,0,1,.078,1.68C.046,1.154.029.626,0,0" fill="#ffe8d7"/>
      </g>
      <g id="Grupo_1605" data-name="Grupo 1605" transform="translate(31.251 -21.717)">
        <path id="Caminho_1550" data-name="Caminho 1550" d="M0,0H-1.023C-1.212,1.727-1.3,3.425-1.6,5.086c-1,5.648-4.515,8.638-10.518,9.047-5.053.344-6.992-.754-9.112-5.348a23.224,23.224,0,0,1-1.451-4.236c-.35-1.446-.459-2.95-.686-4.515h-.812c.112,4.881,1.351,9.331,4.623,12.989a6.324,6.324,0,0,0,3.224,1.833A14.933,14.933,0,0,0-5.448,13.1,9.84,9.84,0,0,0-.9,6.331C-.463,4.3-.3,2.2,0,0" fill="#ffe8d7"/>
      </g>
      <g id="Grupo_1606" data-name="Grupo 1606" transform="translate(37.113 -21.77)">
        <path id="Caminho_1551" data-name="Caminho 1551" d="M0,0C-.058.32-.138.637-.17.959c-.2,2.053-.394,4.106-.576,6.16-.468,5.3-3.443,8.928-7.747,11.679a14.668,14.668,0,0,1-12.04,2.015,47.257,47.257,0,0,1-7.333-2.528c-5.587-2.509-8.2-7.116-8.691-13.078-.044-.53-.082-1.061-.129-1.591a1.912,1.912,0,0,0-.192-.372,4.048,4.048,0,0,0-.234.982c.246,3.922,1.082,7.643,3.764,10.71a15.15,15.15,0,0,0,5.119,3.745A31.434,31.434,0,0,0-17.54,21.726c4.141.334,7.655-1.267,10.934-3.61,4.48-3.2,6.345-7.692,6.6-13.029C.074,3.41.271,1.738.414.064L0,0" fill="#ffe8d7"/>
      </g>
      <g id="Grupo_1607" data-name="Grupo 1607" transform="translate(28.599 -21.72)">
        <path id="Caminho_1552" data-name="Caminho 1552" d="M0,0C-.078.839-.128,1.681-.238,2.515c-.688,5.18-2.67,7.429-7.745,8.531a15.711,15.711,0,0,1-4.538.336,5.665,5.665,0,0,1-4.921-3.839,19.262,19.262,0,0,1-1.34-6.514C-18.8.682-18.836.336-18.864-.01l-.275-.024a2.828,2.828,0,0,0-.14.652,18.586,18.586,0,0,0,1.321,7.015c1.285,2.993,3.342,4.457,6.6,4.312a22.21,22.21,0,0,0,5.276-.924C-1.812,9.752-.031,6.531.3,2.321.362,1.555.31.78.31.009L0,0" fill="#ffe8d7"/>
      </g>
      <g id="Grupo_1608" data-name="Grupo 1608" transform="translate(27.316 -21.738)">
        <path id="Caminho_1553" data-name="Caminho 1553" d="M0,0C-.042.348-.1.695-.124,1.043c-.039.5-.055,1-.089,1.5C-.48,6.545-2.48,8.814-6.485,9.281a34,34,0,0,1-5.67-.047A3.386,3.386,0,0,1-15.412,6.58c-.467-1.785-.659-3.642-.957-5.471a2.4,2.4,0,0,0-.317-1.116,1.276,1.276,0,0,0-.155.39,15.285,15.285,0,0,0,.974,6.558,4.009,4.009,0,0,0,3.5,2.749A33.169,33.169,0,0,0-5.33,9.516c3.249-.53,5.009-2.632,5.475-5.9C.314,2.435.335,1.231.423.037L0,0" fill="#ffe8d7"/>
      </g>
      <g id="Grupo_1609" data-name="Grupo 1609" transform="translate(25.229 -21.977)">
        <path id="Caminho_1554" data-name="Caminho 1554" d="M0,0A11.366,11.366,0,0,1-.129,1.237,27.1,27.1,0,0,1-1.19,5.449,4.3,4.3,0,0,1-5.008,8.12a12.342,12.342,0,0,1-3.556-.242c-2.258-.5-3.2-2.21-3.488-4.352-.111-.823-.126-1.658-.193-2.487-.022-.269-.074-.535-.141-1-.94,2.118.189,6.265,1.892,7.556C-8.5,9.1-4.13,9.06-2.182,7.509-.344,6.045.948,2,0,0" fill="#ffe8d7"/>
      </g>
      <g id="Grupo_1610" data-name="Grupo 1610" transform="translate(23.392 -21.754)">
        <path id="Caminho_1555" data-name="Caminho 1555" d="M0,0A13.076,13.076,0,0,1-.267,1.374,23.336,23.336,0,0,1-1.273,4.386,3.441,3.441,0,0,1-4.607,6.515,3.463,3.463,0,0,1-8.013,4.334,21.773,21.773,0,0,1-8.889.979c-.077-.323-.1-.659-.156-1.028-.222.092-.327.115-.327.139A8.1,8.1,0,0,0-7.751,5.6a4.1,4.1,0,0,0,6.428-.231A9.973,9.973,0,0,0,.392.094L0,0" fill="#ffe8d7"/>
      </g>
    </g>
  </g>
</svg>
