<svg xmlns="http://www.w3.org/2000/svg" xmlns:xlink="http://www.w3.org/1999/xlink" width="113.386" height="141.732" viewBox="0 0 113.386 141.732">
  <defs>
    <clipPath id="clip-path">
      <path id="Caminho_148" data-name="Caminho 148" d="M0,0H113.386V-141.732H0Z" fill="none"/>
    </clipPath>
    <clipPath id="clip-path-2">
      <path id="Caminho_159" data-name="Caminho 159" d="M0-141.732v85.039A56.694,56.694,0,0,0,56.693,0h0a56.693,56.693,0,0,0,56.693-56.693h0v-85.039Z" fill="none"/>
    </clipPath>
  </defs>
  <g id="pv_capitulo" transform="translate(0 141.732)">
    <g id="Grupo_163" data-name="Grupo 163" clip-path="url(#clip-path)">
      <g id="Grupo_162" data-name="Grupo 162" transform="translate(0 -141.732)">
        <path id="Caminho_147" data-name="Caminho 147" d="M0,0V85.039a56.693,56.693,0,0,0,113.386,0V0Z" fill="#ac2d31"/>
      </g>
    </g>
    <g id="Grupo_174" data-name="Grupo 174" clip-path="url(#clip-path-2)">
      <g id="Grupo_164" data-name="Grupo 164" transform="translate(182.657 -184.291)">
        <path id="Caminho_149" data-name="Caminho 149" d="M0,0C-1.2,9.388-2.015,18.325-3.54,27.139c-2.642,15.262-8.2,29.31-20.432,39.524-23.219,19.388-49.436,21.4-76.967,11.546-17.288-6.19-27.659-19.024-31.181-37.1a175.776,175.776,0,0,1-2.69-18.679c-.694-8.175-.856-16.4-1.252-24.718a18.68,18.68,0,0,0-2.38-.179c-.838.047-1.668.254-2.726.428.1,16.909.525,33.455,5.215,49.675,5.121,17.707,16.612,29.139,33.493,35.528a91.15,91.15,0,0,0,39.795,5.3c29.8-2.3,53.2-20.691,61.645-48.657A142.246,142.246,0,0,0,4.72,2.223L0,0" fill="#ffe8d7"/>
      </g>
      <g id="Grupo_165" data-name="Grupo 165" transform="translate(172.271 -186.788)">
        <path id="Caminho_150" data-name="Caminho 150" d="M0,0C-.129,2.819-.2,5.2-.352,7.57-1.4,24.578-5.758,40.616-14.424,55.384c-5.764,9.823-13.983,16.793-25.33,18.333a203.662,203.662,0,0,1-32.167,1.807c-13.764-.333-24.445-7.31-32.414-18.378a60.738,60.738,0,0,1-11.043-26.3C-116.938,20.82-117.9,10.7-119.166.323h-3.587c.545,18.54,2.281,36.531,10.81,53.05,7.469,14.467,19.281,23.376,35.524,26.143,12.923,2.2,25.689,1,38.374-1.665A38.255,38.255,0,0,0-14.922,63.323C-.993,45.033,3.245,23.667,4.391,1.087L0,0" fill="#ffe8d7"/>
      </g>
      <g id="Grupo_166" data-name="Grupo 166" transform="translate(57.13 -186.575)">
        <path id="Caminho_151" data-name="Caminho 151" d="M0,0C1.361,9.935,2.087,19.359,4.045,28.52c2.722,12.727,8.974,23.711,20.5,30.489a67.283,67.283,0,0,0,49.015,7.918,28.5,28.5,0,0,0,14.527-8.259C102.825,42.191,108.4,22.14,108.912.155h-3.66c-1.023,7.048-1.511,13.824-3.091,20.337a104.526,104.526,0,0,1-6.535,19.085C86.074,60.274,77.338,65.22,54.573,63.67,27.533,61.829,11.689,48.355,7.19,22.914,5.867,15.429,5.46,7.783,4.61,0Z" fill="#ffe8d7"/>
      </g>
      <g id="Grupo_167" data-name="Grupo 167" transform="translate(30.721 -186.814)">
        <path id="Caminho_152" data-name="Caminho 152" d="M0,0-1.867.289C-1.22,7.83-.331,15.36.029,22.915c1.145,24.048,9.547,44.275,29.732,58.7,14.774,10.556,30.6,17.769,49.257,16.264,16.935-1.367,32.847-6.632,48.154-13.718a68.233,68.233,0,0,0,23.063-16.873c12.083-13.815,15.849-30.578,16.956-48.247.076-1.213-.567-2.472-1.053-4.423a8.9,8.9,0,0,0-.864,1.673c-.214,2.389-.385,4.781-.581,7.171-2.2,26.857-13.983,47.611-39.156,58.916A212.833,212.833,0,0,1,92.5,93.763c-19.236,5.055-37.445,1.663-54.24-9.075C18.874,72.291,5.47,55.94,3.36,32.073c-.818-9.255-1.7-18.5-2.6-27.752C.623,2.87.26,1.44,0,0" fill="#ffe8d7"/>
      </g>
      <g id="Grupo_168" data-name="Grupo 168" transform="translate(69.079 -186.589)">
        <path id="Caminho_153" data-name="Caminho 153" d="M0,0-1.4.04c0,3.474-.234,6.966.039,10.418,1.5,18.967,9.519,33.477,28.751,39.191a99.95,99.95,0,0,0,23.769,4.164c14.683.653,23.95-5.941,29.74-19.428,4.335-10.1,5.705-20.745,5.951-31.6a12.775,12.775,0,0,0-.631-2.939l-1.238.107c-.127,1.561-.3,3.119-.371,4.682-.483,10.1-2.147,19.958-6.035,29.348-4.118,9.944-11.393,16.428-22.17,17.295a70.924,70.924,0,0,1-20.446-1.514C13.1,44.8,4.173,34.668,1.074,11.33.575,7.572.351,3.777,0,0" fill="#ffe8d7"/>
      </g>
      <g id="Grupo_169" data-name="Grupo 169" transform="translate(182.657 -184.291)">
        <path id="Caminho_154" data-name="Caminho 154" d="M0,0,4.72,2.223A142.246,142.246,0,0,1-1.02,39.805C-9.461,67.771-32.869,86.159-62.665,88.462a91.15,91.15,0,0,1-39.795-5.3c-16.881-6.389-28.372-17.821-33.493-35.528-4.69-16.22-5.118-32.766-5.215-49.675,1.058-.174,1.888-.381,2.726-.428a18.68,18.68,0,0,1,2.38.179c.4,8.323.558,16.543,1.252,24.718A175.776,175.776,0,0,0-132.12,41.1c3.522,18.08,13.893,30.914,31.181,37.1,27.531,9.858,53.748,7.842,76.967-11.546C-11.741,56.449-6.182,42.4-3.54,27.139-2.015,18.325-1.2,9.388,0,0" fill="#ffe8d7"/>
      </g>
      <g id="Grupo_170" data-name="Grupo 170" transform="translate(172.271 -186.788)">
        <path id="Caminho_155" data-name="Caminho 155" d="M0,0,4.391,1.087C3.245,23.667-.993,45.033-14.922,63.323A38.255,38.255,0,0,1-38.045,77.851c-12.685,2.66-25.451,3.866-38.374,1.665-16.243-2.767-28.055-11.676-35.524-26.143-8.529-16.519-10.265-34.51-10.81-53.05h3.587c1.262,10.376,2.228,20.5,3.788,30.526a60.738,60.738,0,0,0,11.043,26.3c7.969,11.068,18.65,18.045,32.414,18.378a203.662,203.662,0,0,0,32.167-1.807c11.347-1.54,19.566-8.51,25.33-18.333C-5.758,40.616-1.4,24.578-.352,7.57-.2,5.2-.129,2.819,0,0" fill="#ffe8d7"/>
      </g>
      <g id="Grupo_171" data-name="Grupo 171" transform="translate(57.13 -186.575)">
        <path id="Caminho_156" data-name="Caminho 156" d="M0,0H4.61c.85,7.783,1.257,15.429,2.58,22.914,4.5,25.441,20.343,38.915,47.383,40.756,22.765,1.55,31.5-3.4,41.053-24.093a104.526,104.526,0,0,0,6.535-19.085c1.58-6.513,2.068-13.289,3.091-20.337h3.66c-.507,21.985-6.087,42.036-20.828,58.513a28.5,28.5,0,0,1-14.527,8.259,67.283,67.283,0,0,1-49.015-7.918C13.019,52.231,6.767,41.247,4.045,28.52,2.087,19.359,1.361,9.935,0,0" fill="#ffe8d7"/>
      </g>
      <g id="Grupo_172" data-name="Grupo 172" transform="translate(30.721 -186.814)">
        <path id="Caminho_157" data-name="Caminho 157" d="M0,0C.26,1.44.623,2.87.764,4.321c.9,9.248,1.778,18.5,2.6,27.752,2.11,23.867,15.514,40.218,34.9,52.615,16.795,10.738,35,14.13,54.24,9.075a212.833,212.833,0,0,0,33.035-11.387c25.173-11.305,36.956-32.059,39.156-58.916.2-2.39.367-4.782.581-7.171a8.9,8.9,0,0,1,.864-1.673c.486,1.951,1.129,3.21,1.053,4.423-1.107,17.669-4.873,34.432-16.956,48.247a68.233,68.233,0,0,1-23.063,16.873C111.865,91.245,95.953,96.51,79.018,97.877c-18.655,1.505-34.483-5.708-49.257-16.264C9.576,67.19,1.174,46.963.029,22.915-.331,15.36-1.22,7.83-1.867.289L0,0" fill="#ffe8d7"/>
      </g>
      <g id="Grupo_173" data-name="Grupo 173" transform="translate(69.079 -186.589)">
        <path id="Caminho_158" data-name="Caminho 158" d="M0,0C.351,3.777.575,7.572,1.074,11.33,4.173,34.668,13.1,44.8,35.962,49.764a70.924,70.924,0,0,0,20.446,1.514c10.777-.867,18.052-7.351,22.17-17.295,3.888-9.39,5.552-19.249,6.035-29.348.074-1.563.244-3.121.371-4.682l1.238-.107a12.775,12.775,0,0,1,.631,2.939c-.246,10.855-1.616,21.5-5.951,31.6-5.79,13.487-15.057,20.081-29.74,19.428a99.95,99.95,0,0,1-23.769-4.164C8.161,43.935.142,29.425-1.358,10.458-1.631,7.006-1.4,3.514-1.4.04L0,0" fill="#ffe8d7"/>
      </g>
    </g>
  </g>
</svg>
