<svg xmlns="http://www.w3.org/2000/svg" xmlns:xlink="http://www.w3.org/1999/xlink" width="19.842" height="17.456" viewBox="0 0 19.842 17.456">
  <defs>
    <clipPath id="clip-path">
      <path id="Caminho_662" data-name="Caminho 662" d="M0,0H19.842V-17.456H0Z" fill="none"/>
    </clipPath>
  </defs>
  <g id="pv_dica_bg" transform="translate(0 17.456)">
    <g id="Grupo_686" data-name="Grupo 686" clip-path="url(#clip-path)">
      <g id="Grupo_681" data-name="Grupo 681" transform="translate(13.283 -32.795)">
        <path id="Caminho_657" data-name="Caminho 657" d="M0,0C-.371.574-.691,1.054-1,1.543A25.642,25.642,0,0,0-4.949,12.96a8.362,8.362,0,0,0,2.418,7.183,49.339,49.339,0,0,0,6.093,4.884,9.752,9.752,0,0,0,8.983.936,14.728,14.728,0,0,0,5.881-3.635c1.719-1.759,3.335-3.621,5.044-5.491l.708.5c-2.717,3.582-5.592,6.888-9.6,8.947a11.413,11.413,0,0,1-10.69.159,24.733,24.733,0,0,1-7.339-5.73A9.278,9.278,0,0,1-5.969,14.6c-.174-5.57,2-10.382,4.949-15L0,0" fill="#b3dd9e"/>
      </g>
      <g id="Grupo_682" data-name="Grupo 682" transform="translate(35.975 -16.546)">
        <path id="Caminho_658" data-name="Caminho 658" d="M0,0C-1.667,1.769-3.137,3.527-4.813,5.059A10.746,10.746,0,0,1-13.149,8.19,16.309,16.309,0,0,1-23.936,2.853a6.9,6.9,0,0,1-1.7-3.674c-.59-5.327,1.131-10.069,4.126-14.479l.722.515c-.79,1.535-1.647,2.941-2.252,4.449a25.244,25.244,0,0,0-1.4,4.686c-1.029,5.429,0,7.634,4.71,10.533C-14.136,8.326-9.113,7.9-4.644,3.51-3.329,2.219-2.173.767-.91-.649L0,0" fill="#b3dd9e"/>
      </g>
      <g id="Grupo_683" data-name="Grupo 683" transform="translate(33.619 -18.23)">
        <path id="Caminho_659" data-name="Caminho 659" d="M0,0,.27.2C-.219.89-.664,1.612-1.2,2.255-4.17,5.787-7.8,7.521-12.394,5.942a24.243,24.243,0,0,1-5.277-2.524c-2.989-1.938-3.89-4.544-3.134-8.02a20.274,20.274,0,0,1,3.274-7.074,3.091,3.091,0,0,1,.538-.491l.229.2c-.194.325-.38.657-.586.976a21.024,21.024,0,0,0-2.94,6.641,6.187,6.187,0,0,0,1.941,6.533A17.147,17.147,0,0,0-14.1,4.758C-8.891,7-5.7,6.254-1.807,2.085-1.179,1.413-.6.7,0,0" fill="#b3dd9e"/>
      </g>
      <g id="Grupo_684" data-name="Grupo 684" transform="translate(13.283 -32.795)">
        <path id="Caminho_660" data-name="Caminho 660" d="M0,0-1.02-.4c-2.952,4.618-5.123,9.43-4.949,15a9.278,9.278,0,0,0,2.518,6.122,24.733,24.733,0,0,0,7.339,5.73,11.413,11.413,0,0,0,10.69-.159c4.008-2.059,6.883-5.365,9.6-8.947l-.708-.5c-1.709,1.87-3.325,3.732-5.044,5.491a14.728,14.728,0,0,1-5.881,3.635,9.752,9.752,0,0,1-8.983-.936,49.339,49.339,0,0,1-6.093-4.884A8.362,8.362,0,0,1-4.949,12.96,25.642,25.642,0,0,1-1,1.543C-.691,1.054-.371.574,0,0" fill="#b3dd9e"/>
      </g>
      <g id="Grupo_685" data-name="Grupo 685" transform="translate(35.975 -16.546)">
        <path id="Caminho_661" data-name="Caminho 661" d="M0,0-.91-.649C-2.173.767-3.329,2.219-4.644,3.51-9.113,7.9-14.136,8.326-19.731,4.883c-4.711-2.9-5.739-5.1-4.71-10.533a25.244,25.244,0,0,1,1.4-4.686c.605-1.508,1.462-2.914,2.252-4.449l-.722-.515c-3,4.41-4.716,9.152-4.126,14.479a6.9,6.9,0,0,0,1.7,3.674A16.309,16.309,0,0,0-13.149,8.19,10.746,10.746,0,0,0-4.813,5.059C-3.137,3.527-1.667,1.769,0,0" fill="#b3dd9e"/>
      </g>
    </g>
  </g>
</svg>
