<svg xmlns="http://www.w3.org/2000/svg" xmlns:xlink="http://www.w3.org/1999/xlink" width="55" height="21" viewBox="0 0 55 21">
  <defs>
    <clipPath id="clip-path">
      <rect id="Retângulo_67" data-name="Retângulo 67" width="55" height="21" transform="translate(978 173)" fill="#fff" stroke="#707070" stroke-width="1"/>
    </clipPath>
    <clipPath id="clip-path-2">
      <path id="Caminho_1651" data-name="Caminho 1651" d="M34.8-13.337h67.6V-33.448H34.8Z" fill="none"/>
    </clipPath>
    <clipPath id="clip-path-3">
      <path id="Caminho_1663" data-name="Caminho 1663" d="M0-33.449v16.724A16.725,16.725,0,0,0,16.725,0H51.874A16.724,16.724,0,0,0,68.6-16.725h0V-33.449Z" fill="none"/>
    </clipPath>
  </defs>
  <g id="pv_midiaemfocompg" transform="translate(-978 -173)" clip-path="url(#clip-path)">
    <g id="Grupo_1718" data-name="Grupo 1718">
      <g id="Grupo_1705" data-name="Grupo 1705" transform="translate(937 206.898)" clip-path="url(#clip-path-2)">
        <g id="Grupo_1696" data-name="Grupo 1696" transform="translate(91.567 -43.507)">
          <path id="Caminho_1642" data-name="Caminho 1642" d="M0,0C-.257.978-.461,1.806-.691,2.627A37.155,37.155,0,0,1-9.329,18.31c-2.81,3-6.293,4.815-10.5,4.485a77.2,77.2,0,0,1-11.735-1.832c-4.938-1.172-8.27-4.436-10.319-8.927A21.459,21.459,0,0,1-43.906,1.971c.185-3.636.59-7.258.909-10.992L-44.291-9.3c-1.185,6.541-1.9,12.981-.055,19.426A17.326,17.326,0,0,0-33.483,22.018a38.65,38.65,0,0,0,13.962,2.358A14.162,14.162,0,0,0-10.1,21.055C-3.714,15.711-.593,8.546,1.5.718L0,0" fill="#b3dd9e"/>
        </g>
        <g id="Grupo_1697" data-name="Grupo 1697" transform="translate(50.029 -52.258)">
          <path id="Caminho_1643" data-name="Caminho 1643" d="M0,0C-.249,3.587-.69,6.947-.666,10.308c.033,4.671,1.469,9,5.119,12.26A25.417,25.417,0,0,0,21.539,29.1a10.591,10.591,0,0,0,5.854-1.781C33.937,22.672,37.443,16.071,39.264,8.4l-1.32-.28c-.894,2.392-1.575,4.731-2.63,6.893A36.725,36.725,0,0,1,31.535,21.2c-4.987,6.524-8.5,7.588-16.6,5.3C5.322,23.786.612,17.848.885,8.584c.081-2.725.5-5.437.777-8.231L0,0" fill="#b3dd9e"/>
        </g>
        <g id="Grupo_1698" data-name="Grupo 1698" transform="translate(43.638 -54.966)">
          <path id="Caminho_1644" data-name="Caminho 1644" d="M0,0-.621-.026C-.975,2.662-1.251,5.362-1.7,8.035c-1.425,8.509-.236,16.172,5.165,22.6,3.953,4.708,8.494,8.316,14.591,9.061A43.506,43.506,0,0,0,34.53,38.176a22.6,22.6,0,0,0,8.657-4.343c4.906-4.019,7.363-9.638,9.035-15.757a6.933,6.933,0,0,0-.008-1.622c-.283.366-.375.436-.4.527-.247.823-.48,1.65-.721,2.474-2.707,9.266-8.034,15.738-16.953,17.984a65.881,65.881,0,0,1-11.447,1.739c-6.548.461-12.138-1.971-16.726-6.88C.669,26.63-2.414,19.984-1.312,11.473q.641-4.95,1.235-9.906C-.014,1.048-.024.522,0,0" fill="#b3dd9e"/>
        </g>
        <g id="Grupo_1699" data-name="Grupo 1699" transform="translate(54.339 -51.347)">
          <path id="Caminho_1645" data-name="Caminho 1645" d="M0,0-.507-.093c-.259,1.218-.6,2.424-.762,3.655-.872,6.764.938,12.466,7.448,15.943a37.8,37.8,0,0,0,8.261,3.282c5.246,1.354,9.08-.247,12.172-4.532a29.231,29.231,0,0,0,4.5-10.621A4.433,4.433,0,0,0,31.1,6.555L30.65,6.5c-.162.537-.339,1.07-.483,1.613a30.313,30.313,0,0,1-4.362,9.825c-2.226,3.171-5.333,4.886-9.284,4.364a26.889,26.889,0,0,1-7.26-2.1C1.387,16.709-1.079,12.473-.457,4.054-.357,2.7-.155,1.351,0,0" fill="#b3dd9e"/>
        </g>
        <g id="Grupo_1700" data-name="Grupo 1700" transform="translate(59.9 -50.589)">
          <path id="Caminho_1646" data-name="Caminho 1646" d="M0,0C-2.212,2.83-1.47,9.666,1.025,12.613c2.644,3.122,9.727,4.7,13.475,3C17.7,14.161,20.927,8,20.11,4.333c-.266.718-.439,1.12-.565,1.536-.388,1.286-.692,2.6-1.148,3.862-1.186,3.284-3.291,5.654-7.129,5.667a21.04,21.04,0,0,1-5.858-.845A7.132,7.132,0,0,1,.1,9.016,42.979,42.979,0,0,1-.206,2,17.846,17.846,0,0,1,0,0" fill="#b3dd9e"/>
        </g>
        <g id="Grupo_1701" data-name="Grupo 1701" transform="translate(91.567 -43.507)">
          <path id="Caminho_1647" data-name="Caminho 1647" d="M0,0,1.5.718c-2.1,7.828-5.217,14.993-11.6,20.337a14.162,14.162,0,0,1-9.421,3.321,38.65,38.65,0,0,1-13.962-2.358A17.326,17.326,0,0,1-44.346,10.13c-1.844-6.445-1.13-12.885.055-19.426L-43-9.021c-.319,3.734-.724,7.356-.909,10.992a21.459,21.459,0,0,0,2.023,10.065c2.049,4.491,5.381,7.755,10.319,8.927A77.2,77.2,0,0,0-19.829,22.8c4.207.33,7.69-1.483,10.5-4.485A37.155,37.155,0,0,0-.691,2.627C-.461,1.806-.257.978,0,0" fill="#b3dd9e"/>
        </g>
        <g id="Grupo_1702" data-name="Grupo 1702" transform="translate(50.029 -52.258)">
          <path id="Caminho_1648" data-name="Caminho 1648" d="M0,0,1.662.353C1.389,3.147.966,5.859.885,8.584c-.273,9.264,4.437,15.2,14.051,17.92,8.094,2.288,11.612,1.224,16.6-5.3a36.725,36.725,0,0,0,3.779-6.189c1.055-2.162,1.736-4.5,2.63-6.893l1.32.28c-1.821,7.669-5.327,14.27-11.871,18.917A10.591,10.591,0,0,1,21.539,29.1,25.417,25.417,0,0,1,4.453,22.568C.8,19.308-.633,14.979-.666,10.308-.69,6.947-.249,3.587,0,0" fill="#b3dd9e"/>
        </g>
        <g id="Grupo_1703" data-name="Grupo 1703" transform="translate(54.339 -51.347)">
          <path id="Caminho_1649" data-name="Caminho 1649" d="M0,0C-.155,1.351-.357,2.7-.457,4.054-1.079,12.473,1.387,16.709,9.261,20.2a26.889,26.889,0,0,0,7.26,2.1c3.951.522,7.058-1.193,9.284-4.364a30.313,30.313,0,0,0,4.362-9.825c.144-.543.321-1.076.483-1.613l.455.057a4.433,4.433,0,0,1,.008,1.079,29.231,29.231,0,0,1-4.5,10.621c-3.092,4.285-6.926,5.886-12.172,4.532A37.8,37.8,0,0,1,6.179,19.5c-6.51-3.477-8.32-9.179-7.448-15.943.159-1.231.5-2.437.762-3.655L0,0" fill="#b3dd9e"/>
        </g>
        <g id="Grupo_1704" data-name="Grupo 1704" transform="translate(59.9 -50.589)">
          <path id="Caminho_1650" data-name="Caminho 1650" d="M0,0A17.846,17.846,0,0,0-.206,2,42.979,42.979,0,0,0,.1,9.016,7.132,7.132,0,0,0,5.41,14.553a21.04,21.04,0,0,0,5.858.845c3.838-.013,5.943-2.383,7.129-5.667.456-1.262.76-2.576,1.148-3.862.126-.416.3-.818.565-1.536C20.927,8,17.7,14.161,14.5,15.612c-3.748,1.7-10.831.123-13.475-3C-1.47,9.666-2.212,2.83,0,0" fill="#b3dd9e"/>
        </g>
      </g>
      <path id="Caminho_1653" data-name="Caminho 1653" d="M0,0H102.4V-33.449H0Z" transform="translate(937 206.898)" fill="none"/>
      <g id="Grupo_1717" data-name="Grupo 1717" transform="translate(937 206.898)" clip-path="url(#clip-path-3)">
        <g id="Grupo_1708" data-name="Grupo 1708" transform="translate(91.567 -43.507)">
          <path id="Caminho_1654" data-name="Caminho 1654" d="M0,0C-.257.978-.461,1.806-.691,2.627A37.155,37.155,0,0,1-9.329,18.31c-2.81,3-6.293,4.815-10.5,4.485a77.2,77.2,0,0,1-11.735-1.832c-4.938-1.172-8.27-4.436-10.319-8.927A21.459,21.459,0,0,1-43.906,1.971c.185-3.636.59-7.258.909-10.992L-44.291-9.3c-1.185,6.541-1.9,12.981-.055,19.426A17.326,17.326,0,0,0-33.483,22.018a38.65,38.65,0,0,0,13.962,2.358A14.162,14.162,0,0,0-10.1,21.055C-3.714,15.711-.593,8.546,1.5.718L0,0" fill="#fff"/>
        </g>
        <g id="Grupo_1709" data-name="Grupo 1709" transform="translate(50.029 -52.258)">
          <path id="Caminho_1655" data-name="Caminho 1655" d="M0,0C-.249,3.587-.69,6.947-.666,10.308c.033,4.671,1.469,9,5.119,12.26A25.417,25.417,0,0,0,21.539,29.1a10.591,10.591,0,0,0,5.854-1.781C33.937,22.672,37.443,16.071,39.264,8.4l-1.32-.28c-.894,2.392-1.575,4.731-2.63,6.893A36.725,36.725,0,0,1,31.535,21.2c-4.987,6.524-8.5,7.588-16.6,5.3C5.322,23.786.612,17.848.885,8.584c.081-2.725.5-5.437.777-8.231L0,0" fill="#fff"/>
        </g>
        <g id="Grupo_1710" data-name="Grupo 1710" transform="translate(43.638 -54.966)">
          <path id="Caminho_1656" data-name="Caminho 1656" d="M0,0-.621-.026C-.975,2.662-1.251,5.362-1.7,8.035c-1.425,8.509-.236,16.172,5.165,22.6,3.953,4.708,8.494,8.316,14.591,9.061A43.506,43.506,0,0,0,34.53,38.176a22.6,22.6,0,0,0,8.657-4.343c4.906-4.019,7.363-9.638,9.035-15.757a6.933,6.933,0,0,0-.008-1.622c-.283.366-.375.436-.4.527-.247.823-.48,1.65-.721,2.474-2.707,9.266-8.034,15.738-16.953,17.984a65.881,65.881,0,0,1-11.447,1.739c-6.548.461-12.138-1.971-16.726-6.88C.669,26.63-2.414,19.984-1.312,11.473q.641-4.95,1.235-9.906C-.014,1.048-.024.522,0,0" fill="#fff"/>
        </g>
        <g id="Grupo_1711" data-name="Grupo 1711" transform="translate(54.339 -51.347)">
          <path id="Caminho_1657" data-name="Caminho 1657" d="M0,0-.507-.093c-.259,1.218-.6,2.424-.762,3.655-.872,6.764.938,12.466,7.448,15.943a37.8,37.8,0,0,0,8.261,3.282c5.246,1.354,9.08-.247,12.172-4.532a29.231,29.231,0,0,0,4.5-10.621A4.433,4.433,0,0,0,31.1,6.555L30.65,6.5c-.162.537-.339,1.07-.483,1.613a30.313,30.313,0,0,1-4.362,9.825c-2.226,3.171-5.333,4.886-9.284,4.364a26.889,26.889,0,0,1-7.26-2.1C1.387,16.709-1.079,12.473-.457,4.054-.357,2.7-.155,1.351,0,0" fill="#fff"/>
        </g>
        <g id="Grupo_1712" data-name="Grupo 1712" transform="translate(59.9 -50.589)">
          <path id="Caminho_1658" data-name="Caminho 1658" d="M0,0C-2.212,2.83-1.47,9.666,1.025,12.613c2.644,3.122,9.727,4.7,13.475,3C17.7,14.161,20.927,8,20.11,4.333c-.266.718-.439,1.12-.565,1.536-.388,1.286-.692,2.6-1.148,3.862-1.186,3.284-3.291,5.654-7.129,5.667a21.04,21.04,0,0,1-5.858-.845A7.132,7.132,0,0,1,.1,9.016,42.979,42.979,0,0,1-.206,2,17.846,17.846,0,0,1,0,0" fill="#fff"/>
        </g>
        <g id="Grupo_1713" data-name="Grupo 1713" transform="translate(91.567 -43.507)">
          <path id="Caminho_1659" data-name="Caminho 1659" d="M0,0,1.5.718c-2.1,7.828-5.217,14.993-11.6,20.337a14.162,14.162,0,0,1-9.421,3.321,38.65,38.65,0,0,1-13.962-2.358A17.326,17.326,0,0,1-44.346,10.13c-1.844-6.445-1.13-12.885.055-19.426L-43-9.021c-.319,3.734-.724,7.356-.909,10.992a21.459,21.459,0,0,0,2.023,10.065c2.049,4.491,5.381,7.755,10.319,8.927A77.2,77.2,0,0,0-19.829,22.8c4.207.33,7.69-1.483,10.5-4.485A37.155,37.155,0,0,0-.691,2.627C-.461,1.806-.257.978,0,0" fill="#fff"/>
        </g>
        <g id="Grupo_1714" data-name="Grupo 1714" transform="translate(50.029 -52.258)">
          <path id="Caminho_1660" data-name="Caminho 1660" d="M0,0,1.662.353C1.389,3.147.966,5.859.885,8.584c-.273,9.264,4.437,15.2,14.051,17.92,8.094,2.288,11.612,1.224,16.6-5.3a36.725,36.725,0,0,0,3.779-6.189c1.055-2.162,1.736-4.5,2.63-6.893l1.32.28c-1.821,7.669-5.327,14.27-11.871,18.917A10.591,10.591,0,0,1,21.539,29.1,25.417,25.417,0,0,1,4.453,22.568C.8,19.308-.633,14.979-.666,10.308-.69,6.947-.249,3.587,0,0" fill="#fff"/>
        </g>
        <g id="Grupo_1715" data-name="Grupo 1715" transform="translate(54.339 -51.347)">
          <path id="Caminho_1661" data-name="Caminho 1661" d="M0,0C-.155,1.351-.357,2.7-.457,4.054-1.079,12.473,1.387,16.709,9.261,20.2a26.889,26.889,0,0,0,7.26,2.1c3.951.522,7.058-1.193,9.284-4.364a30.313,30.313,0,0,0,4.362-9.825c.144-.543.321-1.076.483-1.613l.455.057a4.433,4.433,0,0,1,.008,1.079,29.231,29.231,0,0,1-4.5,10.621c-3.092,4.285-6.926,5.886-12.172,4.532A37.8,37.8,0,0,1,6.179,19.5c-6.51-3.477-8.32-9.179-7.448-15.943.159-1.231.5-2.437.762-3.655L0,0" fill="#fff"/>
        </g>
        <g id="Grupo_1716" data-name="Grupo 1716" transform="translate(59.9 -50.589)">
          <path id="Caminho_1662" data-name="Caminho 1662" d="M0,0A17.846,17.846,0,0,0-.206,2,42.979,42.979,0,0,0,.1,9.016,7.132,7.132,0,0,0,5.41,14.553a21.04,21.04,0,0,0,5.858.845c3.838-.013,5.943-2.383,7.129-5.667.456-1.262.76-2.576,1.148-3.862.126-.416.3-.818.565-1.536C20.927,8,17.7,14.161,14.5,15.612c-3.748,1.7-10.831.123-13.475-3C-1.47,9.666-2.212,2.83,0,0" fill="#fff"/>
        </g>
      </g>
    </g>
  </g>
</svg>
