<svg xmlns="http://www.w3.org/2000/svg" width="335.878" height="8.28" viewBox="0 0 335.878 8.28">
  <g id="pv_moudura" transform="translate(0 8.28)">
    <g id="Grupo_1342" data-name="Grupo 1342" transform="translate(0 -5.356)">
      <path id="Caminho_1288" data-name="Caminho 1288" d="M0,0V5.353H5.648L.015-.015Z" fill="#e13f44"/>
    </g>
    <g id="Grupo_1343" data-name="Grupo 1343" transform="translate(186.351 -0.003)">
      <path id="Caminho_1289" data-name="Caminho 1289" d="M0,0H11.261L5.628-5.368Z" fill="#e13f44"/>
    </g>
    <g id="Grupo_1344" data-name="Grupo 1344" transform="translate(8.103 -0.005)">
      <path id="Caminho_1290" data-name="Caminho 1290" d="M0,0,11.254,0,5.624-5.365Z" fill="#e13f44"/>
    </g>
    <g id="Grupo_1345" data-name="Grupo 1345" transform="translate(200.066 -0.005)">
      <path id="Caminho_1291" data-name="Caminho 1291" d="M0,0,11.255,0,5.624-5.365Z" fill="#e13f44"/>
    </g>
    <g id="Grupo_1346" data-name="Grupo 1346" transform="translate(21.811 -0.002)">
      <path id="Caminho_1292" data-name="Caminho 1292" d="M0,0,11.256,0,5.63-5.367Z" fill="#e13f44"/>
    </g>
    <g id="Grupo_1347" data-name="Grupo 1347" transform="translate(213.774 -0.002)">
      <path id="Caminho_1293" data-name="Caminho 1293" d="M0,0,11.256,0,5.63-5.367Z" fill="#e13f44"/>
    </g>
    <g id="Grupo_1348" data-name="Grupo 1348" transform="translate(35.519 -0.003)">
      <path id="Caminho_1294" data-name="Caminho 1294" d="M0,0,11.255,0,5.63-5.366Z" fill="#e13f44"/>
    </g>
    <g id="Grupo_1349" data-name="Grupo 1349" transform="translate(227.482 -0.003)">
      <path id="Caminho_1295" data-name="Caminho 1295" d="M0,0,11.256,0,5.631-5.366Z" fill="#e13f44"/>
    </g>
    <g id="Grupo_1350" data-name="Grupo 1350" transform="translate(49.227 -0.003)">
      <path id="Caminho_1296" data-name="Caminho 1296" d="M0,0,11.267,0,5.631-5.367Z" fill="#e13f44"/>
    </g>
    <g id="Grupo_1351" data-name="Grupo 1351" transform="translate(241.191 -0.003)">
      <path id="Caminho_1297" data-name="Caminho 1297" d="M0,0,11.267,0,5.631-5.367Z" fill="#e13f44"/>
    </g>
    <g id="Grupo_1352" data-name="Grupo 1352" transform="translate(62.946 -0.004)">
      <path id="Caminho_1298" data-name="Caminho 1298" d="M0,0,11.252,0,5.621-5.365Z" fill="#e13f44"/>
    </g>
    <g id="Grupo_1353" data-name="Grupo 1353" transform="translate(254.91 -0.004)">
      <path id="Caminho_1299" data-name="Caminho 1299" d="M0,0,11.252,0,5.621-5.365Z" fill="#e13f44"/>
    </g>
    <g id="Grupo_1354" data-name="Grupo 1354" transform="translate(76.645 -0.004)">
      <path id="Caminho_1300" data-name="Caminho 1300" d="M0,0,11.267,0,5.637-5.364Z" fill="#e13f44"/>
    </g>
    <g id="Grupo_1355" data-name="Grupo 1355" transform="translate(268.609 -0.004)">
      <path id="Caminho_1301" data-name="Caminho 1301" d="M0,0,11.267,0,5.637-5.364Z" fill="#e13f44"/>
    </g>
    <g id="Grupo_1356" data-name="Grupo 1356" transform="translate(90.35 -0.001)">
      <path id="Caminho_1302" data-name="Caminho 1302" d="M0,0H11.271L5.634-5.37Z" fill="#e13f44"/>
    </g>
    <g id="Grupo_1357" data-name="Grupo 1357" transform="translate(282.314 -0.001)">
      <path id="Caminho_1303" data-name="Caminho 1303" d="M0,0H11.27L5.634-5.37Z" fill="#e13f44"/>
    </g>
    <g id="Grupo_1358" data-name="Grupo 1358" transform="translate(1.286 -8.275)">
      <path id="Caminho_1304" data-name="Caminho 1304" d="M0,0,5.628,5.368,11.261,0Z" fill="#e13f44"/>
    </g>
    <g id="Grupo_1359" data-name="Grupo 1359" transform="translate(193.25 -8.275)">
      <path id="Caminho_1305" data-name="Caminho 1305" d="M0,0,5.628,5.368,11.261,0Z" fill="#e13f44"/>
    </g>
    <g id="Grupo_1360" data-name="Grupo 1360" transform="translate(15.001 -8.273)">
      <path id="Caminho_1306" data-name="Caminho 1306" d="M0,0,5.624,5.365,11.255,0Z" fill="#e13f44"/>
    </g>
    <g id="Grupo_1361" data-name="Grupo 1361" transform="translate(206.965 -8.273)">
      <path id="Caminho_1307" data-name="Caminho 1307" d="M0,0,5.624,5.365,11.254,0Z" fill="#e13f44"/>
    </g>
    <g id="Grupo_1362" data-name="Grupo 1362" transform="translate(34.34 -2.911)">
      <path id="Caminho_1308" data-name="Caminho 1308" d="M0,0,5.625-5.365H-5.631Z" fill="#e13f44"/>
    </g>
    <g id="Grupo_1363" data-name="Grupo 1363" transform="translate(226.303 -2.911)">
      <path id="Caminho_1309" data-name="Caminho 1309" d="M0,0,5.625-5.365H-5.631Z" fill="#e13f44"/>
    </g>
    <g id="Grupo_1364" data-name="Grupo 1364" transform="translate(48.048 -2.911)">
      <path id="Caminho_1310" data-name="Caminho 1310" d="M0,0,5.625-5.364l-11.256,0Z" fill="#e13f44"/>
    </g>
    <g id="Grupo_1365" data-name="Grupo 1365" transform="translate(240.012 -2.911)">
      <path id="Caminho_1311" data-name="Caminho 1311" d="M0,0,5.625-5.364l-11.256,0Z" fill="#e13f44"/>
    </g>
    <g id="Grupo_1366" data-name="Grupo 1366" transform="translate(67.393 -8.28)">
      <path id="Caminho_1312" data-name="Caminho 1312" d="M0,0-11.267,0l5.631,5.365Z" fill="#e13f44"/>
    </g>
    <g id="Grupo_1367" data-name="Grupo 1367" transform="translate(259.357 -8.28)">
      <path id="Caminho_1313" data-name="Caminho 1313" d="M0,0-11.267,0l5.631,5.365Z" fill="#e13f44"/>
    </g>
    <g id="Grupo_1368" data-name="Grupo 1368" transform="translate(69.844 -8.276)">
      <path id="Caminho_1314" data-name="Caminho 1314" d="M0,0,5.621,5.365,11.251,0Z" fill="#e13f44"/>
    </g>
    <g id="Grupo_1369" data-name="Grupo 1369" transform="translate(261.808 -8.276)">
      <path id="Caminho_1315" data-name="Caminho 1315" d="M0,0,5.621,5.365,11.251,0Z" fill="#e13f44"/>
    </g>
    <g id="Grupo_1370" data-name="Grupo 1370" transform="translate(83.543 -8.276)">
      <path id="Caminho_1316" data-name="Caminho 1316" d="M0,0,5.637,5.364,11.267,0Z" fill="#e13f44"/>
    </g>
    <g id="Grupo_1371" data-name="Grupo 1371" transform="translate(275.507 -8.276)">
      <path id="Caminho_1317" data-name="Caminho 1317" d="M0,0,5.637,5.364,11.267,0Z" fill="#e13f44"/>
    </g>
    <g id="Grupo_1372" data-name="Grupo 1372" transform="translate(97.196 -8.274)">
      <path id="Caminho_1318" data-name="Caminho 1318" d="M0,0,5.624,5.364,11.255,0Z" fill="#e13f44"/>
    </g>
    <g id="Grupo_1373" data-name="Grupo 1373" transform="translate(289.159 -8.274)">
      <path id="Caminho_1319" data-name="Caminho 1319" d="M0,0,5.624,5.364,11.255,0Z" fill="#e13f44"/>
    </g>
    <g id="Grupo_1374" data-name="Grupo 1374" transform="translate(116.534 -2.911)">
      <path id="Caminho_1320" data-name="Caminho 1320" d="M0,0,5.626-5.365l-11.256,0Z" fill="#e13f44"/>
    </g>
    <g id="Grupo_1375" data-name="Grupo 1375" transform="translate(308.497 -2.911)">
      <path id="Caminho_1321" data-name="Caminho 1321" d="M0,0,5.626-5.365l-11.256,0Z" fill="#e13f44"/>
    </g>
    <g id="Grupo_1376" data-name="Grupo 1376" transform="translate(130.243 -2.911)">
      <path id="Caminho_1322" data-name="Caminho 1322" d="M0,0,5.625-5.365l-11.255,0Z" fill="#e13f44"/>
    </g>
    <g id="Grupo_1377" data-name="Grupo 1377" transform="translate(322.206 -2.911)">
      <path id="Caminho_1323" data-name="Caminho 1323" d="M0,0,5.625-5.365l-11.255,0Z" fill="#e13f44"/>
    </g>
    <g id="Grupo_1378" data-name="Grupo 1378" transform="translate(149.588 -8.28)">
      <path id="Caminho_1324" data-name="Caminho 1324" d="M0,0-11.267,0l5.63,5.366Z" fill="#e13f44"/>
    </g>
    <g id="Grupo_1379" data-name="Grupo 1379" transform="translate(330.285 -8.277)">
      <path id="Caminho_1325" data-name="Caminho 1325" d="M0,0,5.593,5.331V0Z" fill="#e13f44"/>
    </g>
    <g id="Grupo_1380" data-name="Grupo 1380" transform="translate(152.039 -8.276)">
      <path id="Caminho_1326" data-name="Caminho 1326" d="M0,0,5.621,5.366,11.252,0Z" fill="#e13f44"/>
    </g>
    <g id="Grupo_1381" data-name="Grupo 1381" transform="translate(165.738 -8.276)">
      <path id="Caminho_1327" data-name="Caminho 1327" d="M0,0,5.637,5.364,11.267,0Z" fill="#e13f44"/>
    </g>
    <g id="Grupo_1382" data-name="Grupo 1382" transform="translate(185.077 -2.909)">
      <path id="Caminho_1328" data-name="Caminho 1328" d="M0,0,5.637-5.369H-5.634Z" fill="#e13f44"/>
    </g>
    <g id="Grupo_1383" data-name="Grupo 1383" transform="translate(104.094 -0.007)">
      <path id="Caminho_1329" data-name="Caminho 1329" d="M0,0,11.254,0,5.624-5.364Z" fill="#e13f44"/>
    </g>
    <g id="Grupo_1384" data-name="Grupo 1384" transform="translate(296.058 -0.007)">
      <path id="Caminho_1330" data-name="Caminho 1330" d="M0,0,11.255,0,5.624-5.364Z" fill="#e13f44"/>
    </g>
    <g id="Grupo_1385" data-name="Grupo 1385" transform="translate(117.802 -0.003)">
      <path id="Caminho_1331" data-name="Caminho 1331" d="M0,0,11.256,0,5.63-5.367Z" fill="#e13f44"/>
    </g>
    <g id="Grupo_1386" data-name="Grupo 1386" transform="translate(309.766 -0.003)">
      <path id="Caminho_1332" data-name="Caminho 1332" d="M0,0,11.256,0,5.63-5.367Z" fill="#e13f44"/>
    </g>
    <g id="Grupo_1387" data-name="Grupo 1387" transform="translate(131.511 -0.003)">
      <path id="Caminho_1333" data-name="Caminho 1333" d="M0,0,11.255,0,5.63-5.367Z" fill="#e13f44"/>
    </g>
    <g id="Grupo_1388" data-name="Grupo 1388" transform="translate(323.474 -0.003)">
      <path id="Caminho_1334" data-name="Caminho 1334" d="M0,0,11.256,0,5.631-5.367Z" fill="#e13f44"/>
    </g>
    <g id="Grupo_1389" data-name="Grupo 1389" transform="translate(145.219 -0.003)">
      <path id="Caminho_1335" data-name="Caminho 1335" d="M0,0,11.267,0,5.632-5.367Z" fill="#e13f44"/>
    </g>
    <g id="Grupo_1390" data-name="Grupo 1390" transform="translate(158.937 -0.004)">
      <path id="Caminho_1336" data-name="Caminho 1336" d="M0,0,11.252,0,5.621-5.365Z" fill="#e13f44"/>
    </g>
    <g id="Grupo_1391" data-name="Grupo 1391" transform="translate(172.636 -0.004)">
      <path id="Caminho_1337" data-name="Caminho 1337" d="M0,0,11.267,0,5.637-5.364Z" fill="#e13f44"/>
    </g>
  </g>
</svg>
