<svg xmlns="http://www.w3.org/2000/svg" xmlns:xlink="http://www.w3.org/1999/xlink" width="152.788" height="127.648" viewBox="0 0 152.788 127.648">
  <defs>
    <clipPath id="clip-path">
      <path id="Caminho_539" data-name="Caminho 539" d="M0,0H152.787V-127.648H0Z" fill="none"/>
    </clipPath>
  </defs>
  <g id="pv_oed_bg" transform="translate(0.001 127.648)">
    <g id="Grupo_562" data-name="Grupo 562" clip-path="url(#clip-path)">
      <g id="Grupo_452" data-name="Grupo 452" transform="translate(65.13 -42.01)">
        <path id="Caminho_429" data-name="Caminho 429" d="M0,0Q.368,2.314.734,4.63.368,2.315,0,0L4.627-.611,0,0" fill="#fff"/>
      </g>
      <g id="Grupo_453" data-name="Grupo 453" transform="translate(79.17 -80.536)">
        <path id="Caminho_430" data-name="Caminho 430" d="M0,0,2.368.279,0,0Q.266-1.7.532-3.4.265-1.7,0,0" fill="#fff"/>
      </g>
      <g id="Grupo_454" data-name="Grupo 454" transform="translate(145.744 -70.656)">
        <path id="Caminho_431" data-name="Caminho 431" d="M0,0C-1.388,3.614-2.77,7.221-3.957,10.323-2.77,7.222-1.39,3.616-.009.01L0,0" fill="#2b2e34"/>
      </g>
      <g id="Grupo_455" data-name="Grupo 455" transform="translate(147.111 -105.291)">
        <path id="Caminho_432" data-name="Caminho 432" d="M0,0,5.323,4.383C5.065,6.93,4.8,9.6,4.532,12.2L-.5,14.034c1.331,2.018,2.389,3.621,4.136,6.271-1.446,4.073-3.266,9.2-5.09,14.343l-.028.005c.184-1.2.371-2.421.651-4.246L-5.9,29.984c-.874,4.839-.213,5.45,4.424,4.669l-.021.132.122-.14c-1.381,3.606-2.761,7.212-3.948,10.313l-.5,1.3a35.65,35.65,0,0,0-5.789.11c-.444.084-.639,1.489-.958,2.314l2.776,3.2-2.176,2.614-3.99-3.187c-4.228,3.051-2.737,5.472.491,7.815l-6.61,5.978-6.345-2.263c.943,2.956,1.364,4.274,1.948,6.107l-16.056,7.52-3.941-5.191c-1.013,2.564-1.641,4.152-2.377,6.014l-2.327.364-2.3-4.7-3.43,5.456h-3.429c.924-3.536-.008-5.772-4.664-6.248-.806,2.045-1.659,4.21-2.638,6.7l-3.1-.142-1.689-3.628L-76.7,78.74l-14.5-4.479-1.854-4.4-5.066.328-1.016-4.006-5.261-1.549c.232-2.888.382-4.763.583-7.267l-6.793,1.269c-.192-2-.374-3.9-.643-6.707l-4.6-1.392-3.894-7.628,3.74-3.5c-.855-1.475-1.617-2.791-2.3-3.974h-4.506c-.3-1.23-.559-2.311-.624-2.582l4.332-3.075q-.3-.741-.6-1.482h-5.082l-.933-3.917,3.824-3.532c-2.13-2.378-4.06-4.533-5.97-6.664l5.459-3.361.168-1.568-6.373-3.287c.433-2.112.988-4.82,1.734-8.456-.064-.083-.842-1.106-1.385-1.82v-7.01l5.948-3.189c-1.691-1.977-2.654-3.1-3.9-4.557l4.4-1.116,2.833,2.908,5.9-3.9,3.246,5.018c1.625-1.749,2.862-3.079,4.362-4.692h3.017c1.074,2.191,1.526,4.363,2.859,5.378.849.646,3-.422,4.7-.746-.268-2.2-.424-3.48-.608-4.989l3.468-.152c.479,1.788.9,3.356,1.32,4.925l1.57.343,2.771-5.368h2.606c-.033,5.12.724,5.8,5.285,4.46l-.9-4.605h3.776c.991,1.746,1.848,3.254,3.437,6.051,1.519-2.91,2.376-4.551,3.454-6.614l4.465,2.123,5.287-2.318c1.233,5.54,2.094,6.018,6.5,4.065.3-1.121.633-2.361.957-3.568h8.13l3.985,6.1c1.435-2.988,2.191-4.562,3.036-6.32l3.872.407L-35-17.086l5.318,3.067,1.472-1.043c-.253-2.15-.506-4.3-.769-6.539H-25.5c.347,1.558.627,2.811.753,3.375,5.415,4.254,4.2-4.448,7.883-3.267.107,1.477.2,2.754.328,4.519l4.426-.314c.428-1.753.727-2.98,1.019-4.175h3.719l2.994,3.47,3.568-3.226L2.64-19.637v4.379L5.677-12.5V-3.43L0,0M.3,10.245c1.027.038,2.107-1.394,3.625-2.516L-.484,3.608-4.395,7.469C-2.117,8.9-.933,10.2.3,10.245M-58.321,26.473c-1.546.108-3.023,1.207-5.245,2.224l4.451,4.863c1.358-1.822,2.693-3.052,3.186-4.557.189-.576-1.6-2.585-2.392-2.53m.72-7.047-1.48-1.588-2.8,2.607,1.479,1.586,2.8-2.6m-5.976,21,2.32.318.585-4.09-2.336-.32q-.285,2.046-.569,4.092m3.1,5.267c-.107.505,1.265,1.325,2.885,2.885.288-2.456.421-3.583.553-4.709l-1.482-.762c-.7.852-1.752,1.629-1.956,2.586m3.513-9.832q.088,1.3.175,2.608h4.559q-.1-1.608-.191-3.218l-4.543.61m4.709-14.168,2.663.126.453-3.791-3.116-.142Zm.323,7.723,4.144,3.912,3.124-3.58c-2.244-4.583-4.124-4.75-7.268-.332m3.631,9.322c1.023.724,2.1,2.076,3.057,2,.993-.08,1.876-1.545,2.806-2.4l-.615-1.653-4.876.463-.372,1.6m4.92-23.264,1.678-.106,1.23-4.821L-42.421,9.6c-.976.861-2.562,1.607-2.75,2.615-.176.941,1.132,2.159,1.787,3.255m2.379,3.551c-.941-.137-3.177,2.17-3.127,3.308.062,1.4,1.9,2.723,3.751,5.072,1.537-2.423,3.306-4.018,3.023-5.055a5.408,5.408,0,0,0-3.647-3.325m3.3,10.134a3.079,3.079,0,0,0-2.055,2.228,3.023,3.023,0,0,0,2.195,2.046c.82.05,1.713-1.12,3.285-2.28-1.646-1.022-2.635-2.122-3.425-1.994m6.959-10.838c.565.073,1.981-1.658,1.885-2.426-.132-1.062-1.253-2.729-2.082-2.812-1.406-.14-2.915.756-4.38,1.217q-.054,1.135-.107,2.272a19.994,19.994,0,0,0,4.684,1.749m3.243,7.257c-2.178-3.738-3.053-3.828-6.035-.4,2.491,4.2,3.7,4.23,6.035.4m-2.163,9.415c1.1.92,2.693,1.259,4.088,1.83l1.413-1.649c-.606-1.262-.965-2.789-1.918-3.679-.491-.457-2.4-.136-3.013.481-.634.634-.988,2.669-.57,3.017M-31.174.06c.246.985,2.279,1.524,3.526,2.259l1.4-1.185q-.612-2.262-1.225-4.526l-1.791-.31C-29.971-2.43-31.432-.971-31.174.06M-29.4,6.054c2.606,5.084,3.918,5.358,7.38,1.846-.507-1.335-.968-2.546-1.8-4.745l-5.576,2.9m5.459,11.683-1.421.563q.331,2.021.664,4.04l3.837-.869q-.039-.9-.076-1.792l-3-1.942M-24.317,27.9c1.881,1.41,2.861,2.145,5.031,3.77.185-2.731.289-4.273.394-5.815l-1.261-.627L-24.317,27.9m6.53-11.141c1.577.308,3.419-.74,5.149-1.211q.144-1.266.29-2.532a33.181,33.181,0,0,0-5.708-2.63c-.48-.13-2.262,1.9-2.126,2.725.227,1.376,1.345,3.442,2.395,3.648m-.091,6.695,2.067-.058c-.069-.92-.139-1.84-.205-2.714a7.5,7.5,0,0,0-1.359.008c-.207.913-.347,1.84-.5,2.764m4.947-3.634,1.485,3.694,2.332-1.142L-11,18.887l-1.933.935M-15.139-2.114c1.613.145,3.52.864,4.743.242.894-.456.891-2.675,1.288-4.109l-1.525-1.131L-15.557-4.5q.208,1.193.418,2.386m3.008,8.643c-.324.746,1.1,3.2,1.922,3.29,1.5.171,3.143-.832,5.177-1.492-1.057-2.1-1.634-3.24-2.91-5.77-1.906,1.7-3.593,2.6-4.189,3.972M-7.693.675c1.725.544,3.476,1.54,5.162,1.44C-1.693,2.065-.3-.063-.4-1.134s-1.952-2.9-2.708-2.754c-1.7.339-3.2,1.7-4.789,2.641l.2,1.922M-3.3,25.89c1.51.227,3.2-.783,5.372-1.429-2.563-4.92-4.823-5.063-8.233-1.729.986,1.161,1.8,3,2.861,3.158m-1.18-8.478c1.036.114,2.241-1.3,4.11-2.536-1.719-1.38-2.817-2.937-3.792-2.863a3.933,3.933,0,0,0-2.82,2.62c-.1.881,1.509,2.67,2.5,2.779m-5.2,24.869c1.3.16,2.767-1.037,4.162-1.65q.029-.87.058-1.741c-1.482-.822-2.9-1.988-4.478-2.293-.61-.118-2.363,1.839-2.234,2.629.192,1.184,1.492,2.932,2.492,3.055m-.65-8.8c.842-2.241,1.337-3.556,2.118-5.635L-13.2,25.71l-2.925,4.164,5.792,3.606M-17.58,47.064l1.5.453,2.679-3.769-.879-1.24c-1.226.274-2.971.166-3.53.929s.1,2.382.228,3.627m.091-8.141c1.122-.6,1.8-2.031,3.4-4.02l-6.493-1.79c0,2.12-.357,3.665.14,4.852a3.125,3.125,0,0,0,2.956.958m-4.648,9.266c-1.206.258-2.291,1.084-4.085,2.033l4.049,3.844c.825-1.853,1.582-2.993,1.754-4.215.07-.5-1.249-1.762-1.718-1.662m1.056,11.463q.073-.686.148-1.369L-23.939,55.7l-2.33,5.058,5.188-1.11M-27.01,44.641l4.2-.971q.066-.807.131-1.614l-3.7-2.68-1.568.768q.465,2.249.929,4.5m-1.343,5.519c-.022-1.319-1.517-2.614-2.372-3.919l-1.682.109c-.683,1.4-2.109,2.972-1.845,4.167.274,1.239,2.184,2.117,3.379,3.153.9-1.171,2.539-2.354,2.52-3.51m-.4,9.1c-.405-1.238-2.509-1.92-3.875-2.843l-1.709,1.189q.825,2.871,1.649,5.741l2.046.153c.7-1.437,2.245-3.149,1.889-4.24m-5.588,11.362,3.108-.666-.471-1.952-3.085.9q.223.86.448,1.717m-.365-27.837c.975-.132,1.713-2.018,2.577-3.148-3.074-2.894-5.111-3.169-7.261,1.468,1.814.721,3.339,1.862,4.684,1.68M-41.378,66.2l5.846.6c-.965-2.115-1.451-3.183-2.485-5.449-1.4,2.027-2.075,3-3.361,4.851m3.047-13.479-1.561-.181-1.772,3.438c1.775-.215,3.152-.054,3.37-.482.371-.73.014-1.83-.037-2.775m1.507,19.661L-39.8,68.936l-2.111,4.779,5.085-1.33m-.57-24.346-4.019-4.455c-1,2.212-1.649,3.656-2.3,5.1q.548.6,1.1,1.21l5.223-1.856M-47.43,69.218c1.044.568,2.449.473,4.519.763-.431-2.363-.63-3.455-.966-5.3-1.586.708-2.983,1.011-3.853,1.857a2.793,2.793,0,0,0,.3,2.681m4.879-9.717c-2.337-3.128-4.233-2.653-6.459.4,2.845,3.523,4.665,2.608,6.459-.4m-5.8-6.2,2.181-1.9-.945-1.325-2.541,1.673,1.305,1.548m-1.62-6.486q.63-1.045,1.259-2.09l-3.249-1.472-.9,1.747,2.892,1.815m-7.185,23.581,4.391.793.844-1.387c-.926-.956-1.715-2.366-2.827-2.7-.679-.2-1.854,1.251-2.806,1.96q.2.666.4,1.332m5.191-11.476-3.377-.293q.164,1.908.326,3.815l2.026.183q.513-1.853,1.025-3.705m-5.637-5.41c1.032.556,2.4.484,5.08.879-1.364-2.386-1.82-3.683-2.716-4.492-.33-.3-2.07.305-2.488.943s-.316,2.433.124,2.67M-60.79,67.971q.476-1.062.952-2.123l-3.511-3.23c-1.122,2.686-1.637,3.917-2.62,6.267l5.179-.914M-63.654,60.6c.691.2,2.82-1.8,2.851-2.852.038-1.264-1.462-2.575-2.968-4.9-1.62,2.276-3.3,3.651-3.083,4.57a5.21,5.21,0,0,0,3.2,3.186m-2.823-10.107c.7-.767,1.99-1.565,1.952-2.292-.053-.989-1.122-1.924-1.755-2.883l-1.536.26q-.277,2.121-.554,4.242l1.893.673m-24.99-26.442-1.361,1.149c.549,1.305.826,3.41,1.718,3.714,1.13.387,2.76-.69,4.175-1.136l-.015-1.841-4.517-1.886m3.686-7.839L-89.7,14.976c-1.009.813-2.484,1.451-2.879,2.5-.309.819.719,2.143,1.153,3.242l1.7.232,1.944-4.74M-88.88,31.6l-4.143,5.014c2.091.878,3.486,1.744,4.972,1.951.593.083,2.1-1.505,1.96-1.959-.444-1.461-1.461-2.748-2.789-5.006m-7.471,8.566-3.442,4.683,4.7,3.778c1.218-1.761,2.127-3.073,3.274-4.73l-4.532-3.731m7.832,17.177c-.525,1.074-1.2,2.068-1.048,2.211a19.141,19.141,0,0,0,2.708,1.934l1-1.815c-.777-.68-1.553-1.361-2.658-2.33m2.285-15.581q-.214,1.662-.431,3.324l3.279.205q.239-.561.476-1.123L-85.082,41.5l-1.152.26m5.587-9.674q.73-1.158,1.46-2.318l-3.3-2.359q-.841,1.341-1.682,2.682l3.522,2m3.586,1.423-1.517.179c-.259,1.432-1.2,3.615-.627,4.131,1.023.926,2.954.85,4.505,1.193l.848-1.992-3.209-3.511m4.52-7.075-2.234-2.217-1.5,1.37q.961,1.232,1.924,2.464l1.808-1.617m-4.6,15.977c-.387.8-.708,1.64-1.046,2.467l1.772.407c.2-.862.4-1.724.616-2.619a6.835,6.835,0,0,0-1.342-.255m-4.842,20.869q.366,2.314.734,4.63l2.086.133q1.239-1.952,2.48-3.9l-.673-1.473-4.627.611m1.966-4.328.141-1.713L-82.887,57q-.07.841-.14,1.681l3.012.268m-2.5-36.13,6.265-1.5L-80.333,16.4l-3.31,4.914,1.132,1.511m10-13.269,1.284-1.341-1.6-4.764-1.7-.363-2.408,4.005,4.425,2.463m-2.351,6.9c1.69,1.013,2.744,1.908,3.952,2.24.494.136,1.891-.951,1.887-1.474-.01-1.235-.613-2.466-1.3-4.8l-4.538,4.037m5.3,12.822c-.736,1.4-2.137,2.872-1.988,4.168.11.949,2.254,1.664,3.492,2.483l1.446-1.081q-.573-2.6-1.144-5.2l-1.806-.372m-2.379,11.609c.735,1.033,1.325,2.123,1.5,2.061a17.884,17.884,0,0,0,2.8-1.528l-1.044-1.65-3.249,1.117m6.364-15.853q.154-1.7.31-3.4l-2.147-.273-.531,3.4,2.368.279m-8.305,31.39c-1.342,4.984.239,5.492,4.609,3.173l-4.609-3.173m-1.049,14.005,4.044,1.24,1.355-1.351c-.663-1.154-1.249-3.193-2.007-3.259-1.192-.1-2.5,1.12-3.76,1.781q.185.8.368,1.589m3.334-18.049q.271-.8.544-1.6c-1.31-.9-2.584-2.4-3.943-2.479-.779-.046-1.694,2.206-2.548,3.423l1.375,1.571,4.572-.914m-10.6,21.942,5.971,1.189c-1.015-2.741-1.561-4.218-2.108-5.695l-1.91-.781-3.23,2.883,1.277,2.4M-80.6,52.785q.117-.863.233-1.724l-4.606-2.613-1.5,1.36c.614,1.356.9,3.242,1.95,3.9.805.5,2.579-.555,3.921-.918m-4.987,22.153,1.208-.976q-.767-.847-1.534-1.695l-.879.617q.6,1.027,1.205,2.054m.788-6.9c-2.055-3.993-3.848-3.085-5.974-.609,1.583,3.763,3.455,2.929,5.974.609m-4.656-14.288q-.347-1.047-.7-2.093l-5.814.419q-.162,1.047-.323,2.1c1.246.651,2.5,1.821,3.735,1.794,1.048-.023,2.066-1.424,3.1-2.215m-3.161,10.155q.006-1.088.013-2.175h-4.743q0,1.087-.01,2.175Zm-6.594-4.437,1.761-2.387-1.237-1.1-2.142,2.232,1.618,1.258m3.122-23.781V29.04c-2.106.442-3.911.468-5.245,1.273-.547.329-.577,2.96.039,3.461,1.195.973,3.014,1.18,5.206,1.916m-10.489,2.738c-.119,1.39.6,2.853.978,4.286l1.886.2c.74-1.319,1.794-2.577,2.071-3.988.113-.577-1.4-2-2.271-2.094s-2.608.94-2.664,1.591m2.009-14.125-3.228-2.664-1.755.492.21,4.682,1.469.41,3.3-2.92M-96.8,19.54c-2.367,1.364-3.443,1.984-5.138,2.959,1.465,1.36,2.342,2.173,4.211,3.909.351-2.6.543-4.018.927-6.868m-7.808,34.495c.991.1,3.08-1.524,3.061-2.347-.037-1.631-1.192-3.237-1.885-4.853l-1.853-.07c-.942,1.559-2.346,3.044-2.611,4.709-.115.727,2.043,2.43,3.288,2.561m-8.007-7.789c.622.388,2.035-.491,3.1-.8q.006-.84.011-1.681l-3.814-1.533-.956.907c.526,1.083.8,2.572,1.663,3.112m1.325-10.086c1.572-.094,3.035-2.009,4.546-3.136q-.525-1.339-1.048-2.678l-6.993.588q-.3,1.054-.6,2.107c1.37,1.122,2.8,3.2,4.1,3.119m-6.434-10.716c4.287-.769,4.6-2.548,2.282-5.9-1.194.751-2.855,1.224-3.22,2.188s.562,2.42.938,3.715M-112.085,8q-1.224-2.13-2.45-4.259L-116.421,4l-1.353,5.224,1.486,1.178,4.2-2.4M-125.227-.807c-.233,2.413-.363,3.77-.53,5.5,4.389-1.554,4.426-1.746.53-5.5m.719-9.323c-1,1.627-2.195,2.757-1.972,3.393.332.95,1.66,1.552,2.565,2.3.642-.868,1.781-1.733,1.785-2.6,0-.818-1.193-1.64-2.378-3.093m2.363,24.73,3.826,2.728,1.183-.633q-.4-1.647-.793-3.3l-4.216,1.2m9.942-26.535c-.41-1.388-1.8-2.489-3.054-4.049a29.218,29.218,0,0,0-2.933,2.675,17.449,17.449,0,0,0-1.318,3.007c1.94.479,3.605,1.282,5.169,1.118.857-.089,2.343-2.049,2.136-2.751m-2.779,4.826c-1.452,2.415-2.935,3.8-2.844,5.065C-117.75-.99-115.68.837-114.751.691c1.278-.2,3.142-1.884,3.221-3.037.08-1.178-1.694-2.482-3.452-4.763m4.775,17.646c-1.636,2.518-3.318,3.972-3.138,5.14.19,1.232,2.041,2.78,3.391,3.044.79.155,2.823-1.913,2.843-3.007.024-1.319-1.5-2.665-3.1-5.177m6.453-23.779-5.051-.461c1.215,2.066,1.765,3.833,2.374,3.853,1.053.036,2.143-1.012,3.217-1.606l-.54-1.786m.331,7.164-1.6-.191-2.387,4.356L-106.172-.8l4.2-.193c-.58-2.03-1.017-3.557-1.454-5.085m-.785,9.934a4.979,4.979,0,0,0-3.145,3.2c-.195.887,1.6,2.212,3.24,4.261,1.453-2.183,3-3.5,2.956-4.761-.031-1-2.205-2.892-3.051-2.7m1.757,9.637-.453,2.225,3.824.986q.249-1.3.5-2.605l-3.87-.606m5.371-25.127c-.871.624-1.773.935-1.942,1.475-.228.726-.113,2.206.248,2.346a11.263,11.263,0,0,0,3.317.309l.511-1.4c-.667-.855-1.335-1.709-2.134-2.732m.963,9.181c-.919,1.1-2.4,2.13-2.569,3.338-.121.878,1.5,2,2.885,3.659,1.216-1.773,2.71-3.025,2.513-3.891-.272-1.188-1.825-2.084-2.829-3.106m1.833,9.121-2.791,3.473q.273.75.544,1.5l4.759-.358.264-1.468-2.776-3.147m5-20.83-1.926.316q.269,1.18.538,2.362l1.622-.3-.234-2.374M-90.964-7.52q-.237,1.4-.473,2.8l4.646.526q.19-1.2.383-2.4l-4.556-.921m4.972,8.977-4.929.922,3.963,3.475,1.563-.783-.6-3.614m1.915,13.681,5.093-2.942q.148-.836.3-1.672c-1.36-.778-2.651-1.891-4.11-2.192a3.15,3.15,0,0,0-2.476,1.913c-.147,1.324.609,2.747,1.195,4.893m1.366-28.162-1.177.4c-.072.981-.55,2.266-.1,2.862.485.65,1.826.662,2.793.952l.976-1.38-2.487-2.831m2.436,6.865-4.393,4.406,4.745,4.1c1.3-1.58,2.089-2.54,3.827-4.651l-4.179-3.855m9.391-7.279h-4.747q-.212.682-.422,1.364c.89.739,1.746,2.008,2.68,2.068s1.953-1.084,2.934-1.7q-.223-.867-.445-1.732m-4.1,11.065,5.959,1.3c-1.734-5.113-2.126-5.193-5.959-1.3m5.819,7.133L-63,5.94l1.013-1.3-2.944-5.32L-69.169,4.76m7.082-10.094L-65.26-9.2c-.455,2.22-1.13,3.569-.738,4.05.6.741,1.936.885,2.96,1.283l.951-1.463M-65-16.938c-1.184.349-1.985,1.995-2.949,3.088,1.057.828,2.111,2.3,3.17,2.3s2.1-1.479,3.832-2.855c-1.878-1.245-3.228-2.78-4.053-2.536m4.5,27.349-4.771.367.108,2.406h4.784q-.06-1.386-.121-2.773m5.425-23.7c-1.456.265-2.761,1.358-4.77,2.468L-55.08-5.8c1.161-2.508,2.156-3.889,2.32-5.362.073-.664-1.643-2.249-2.312-2.127M-58.628.137c2.028,3.4,3.869,3.332,5.91.516-2.344-4.146-3.161-4.22-5.91-.516m6.2,6.248-2.258.063c-.593,1.579-1.563,3.15-1.6,4.743-.015.681,1.934,1.986,2.953,1.95s2.849-1.468,2.793-2.165c-.127-1.57-1.2-3.065-1.887-4.591m6.667-24.1-3.745.271q.058.993.119,1.985l3.751-.231q-.063-1.013-.125-2.025m.987,7.767-6.212,1.57L-46.96-4-43.8-8l-.966-1.95m-.464,9.545c-1.218,1.236-3.1,2.323-3.423,3.761-.217.964,1.772,2.426,3.565,4.644,1.566-2.346,3.267-3.779,3.1-4.934-.192-1.289-2.085-2.325-3.237-3.471m7.754,1.733c1.033-2.175,1.9-3.321,2.016-4.537.055-.6-1.384-1.957-1.981-1.867-1.209.181-2.3,1.116-3.953,2.018l3.918,4.386M-39.09-14.911c-.79,1.643-1.758,2.879-1.848,4.177-.045.637,1.694,2.082,2.355,1.936,1.252-.277,2.309-1.437,4.186-2.743l-4.693-3.37m3.309,18.7C-36.9,3.876-37.914,5.2-39.6,6.452l3.717,3.1L-32.091,6c-1.574-1.008-2.684-2.287-3.69-2.211m7.038-17.025c-1.293,1.775-2.5,2.834-2.829,4.117A3.132,3.132,0,0,0-29.83-6.53c1.29.209,2.726-.492,5.289-1.086l-4.2-5.618m8.339-1.037c-.807-.337-2.11.514-3.2.845q-.051.7-.1,1.391l3.867,1.648.93-.986c-.478-1.016-.729-2.577-1.5-2.9M-18.959-5.1a15.386,15.386,0,0,0-4.14-.917q-.544.882-1.088,1.766c.849,1.119,1.509,2.55,2.626,3.221.536.323,2.251-.553,2.84-1.334.436-.579.234-2.494-.238-2.736m-.913,8.221q-.125.867-.248,1.733l3.184,2.353,1.169-.587c-.162-1.228.087-2.893-.612-3.552-.607-.573-2.287-.009-3.493.053m5.254-16.911c-.435-.094-1.7,1.183-1.616,1.675.186,1.127.967,2.156,1.774,3.755l4-3.444c-1.847-.936-2.948-1.726-4.162-1.986m8.832-4.7-4.241.835c0,1.133-.323,2.454.061,2.709,1.087.719,2.463,1,4.615,1.777-.2-2.465-.3-3.664-.435-5.321m.5,5.4-1.994.686q-.227,2.244-.452,4.487l4.545.452,1.28-2.76-3.379-2.865M-2.118-17.5l-1.026.962c.447,1.368.895,2.737,1.732,5.294l3.858-4.349L-2.118-17.5M2.5-11.239C1.329-10.12-.192-9.336-.267-8.432c-.1,1.225.905,2.542,1.855,4.826C3.594-5.739,4.471-6.673,5.616-7.889L2.5-11.239" fill="#287642"/>
      </g>
      <g id="Grupo_456" data-name="Grupo 456" transform="translate(129.055 -94.902)">
        <path id="Caminho_433" data-name="Caminho 433" d="M0,0A33.1,33.1,0,0,1,5.708,2.629Q5.563,3.9,5.418,5.161c-1.73.472-3.572,1.52-5.15,1.211C-.781,6.167-1.9,4.1-2.126,2.725-2.262,1.9-.48-.13,0,0" fill="#fff"/>
      </g>
      <g id="Grupo_457" data-name="Grupo 457" transform="translate(32.771 -114.475)">
        <path id="Caminho_434" data-name="Caminho 434" d="M0,0C-1.564.164-3.229-.64-5.169-1.118A17.349,17.349,0,0,1-3.85-4.125,29.047,29.047,0,0,1-.918-6.8C.339-5.24,1.727-4.14,2.136-2.751,2.343-2.05.857-.09,0,0" fill="#fff"/>
      </g>
      <g id="Grupo_458" data-name="Grupo 458" transform="translate(86.308 -47.548)">
        <path id="Caminho_435" data-name="Caminho 435" d="M0,0C-.031,1.05-2.161,3.05-2.851,2.852a5.21,5.21,0,0,1-3.2-3.186c-.22-.919,1.463-2.294,3.082-4.571C-1.463-2.575.038-1.265,0,0" fill="#fff"/>
      </g>
      <g id="Grupo_459" data-name="Grupo 459" transform="translate(91.182 -76.288)">
        <path id="Caminho_436" data-name="Caminho 436" d="M0,0C-.493,1.506-1.828,2.736-3.186,4.557-4.9,2.689-5.844,1.654-7.637-.306c2.222-1.017,3.7-2.116,5.245-2.224C-1.6-2.585.189-.576,0,0" fill="#fff"/>
      </g>
      <g id="Grupo_460" data-name="Grupo 460" transform="translate(133.914 -79.581)">
        <path id="Caminho_437" data-name="Caminho 437" d="M0,0,4.985,2.135C4.2,4.214,3.71,5.529,2.867,7.77L-2.925,4.163,0,0" fill="#fff"/>
      </g>
      <g id="Grupo_461" data-name="Grupo 461" transform="translate(93.781 -92.15)">
        <path id="Caminho_438" data-name="Caminho 438" d="M0,0C-1.019.036-2.968-1.269-2.952-1.95c.037-1.593,1.007-3.164,1.6-4.743L.906-6.756c.688,1.526,1.761,3.02,1.887,4.591C2.85-1.468,1.015-.036,0,0" fill="#fff"/>
      </g>
      <g id="Grupo_462" data-name="Grupo 462" transform="translate(142.079 -96.964)">
        <path id="Caminho_439" data-name="Caminho 439" d="M0,0C-2.034.66-3.673,1.663-5.177,1.492-5.995,1.4-7.423-1.051-7.1-1.8c.6-1.373,2.282-2.274,4.188-3.972C-1.634-3.239-1.058-2.1,0,0" fill="#fff"/>
      </g>
      <g id="Grupo_463" data-name="Grupo 463" transform="translate(64.315 -96.959)">
        <path id="Caminho_440" data-name="Caminho 440" d="M0,0C1.459.3,2.75,1.414,4.11,2.193q-.15.835-.3,1.672L-1.281,6.806c-.586-2.145-1.343-3.569-1.2-4.892A3.152,3.152,0,0,1,0,0" fill="#fff"/>
      </g>
      <g id="Grupo_464" data-name="Grupo 464" transform="translate(39.758 -98.232)">
        <path id="Caminho_441" data-name="Caminho 441" d="M0,0A4.975,4.975,0,0,1,3.145-3.2C3.991-3.392,6.165-1.5,6.2-.5c.038,1.264-1.5,2.577-2.957,4.761C1.6,2.211-.195.887,0,0" fill="#fff"/>
      </g>
      <g id="Grupo_465" data-name="Grupo 465" transform="translate(137.174 -68.694)">
        <path id="Caminho_442" data-name="Caminho 442" d="M0,0C1.581.305,3,1.471,4.477,2.293q-.029.87-.058,1.741c-1.4.613-2.862,1.81-4.162,1.65-1-.123-2.3-1.871-2.492-3.055C-2.363,1.839-.611-.118,0,0" fill="#fff"/>
      </g>
      <g id="Grupo_466" data-name="Grupo 466" transform="translate(48.425 -104.406)">
        <path id="Caminho_443" data-name="Caminho 443" d="M0,0C.166-1.207,1.65-2.233,2.568-3.337c1,1.021,2.558,1.917,2.83,3.106.2.866-1.3,2.118-2.513,3.891C1.5,2-.121.879,0,0" fill="#fff"/>
      </g>
      <g id="Grupo_467" data-name="Grupo 467" transform="translate(114.976 -65.65)">
        <path id="Caminho_444" data-name="Caminho 444" d="M0,0C-.864,1.13-1.6,3.016-2.577,3.148c-1.345.182-2.869-.959-4.684-1.679C-5.111-3.168-3.073-2.894,0,0" fill="#fff"/>
      </g>
      <g id="Grupo_468" data-name="Grupo 468" transform="translate(79.16 -119.141)">
        <path id="Caminho_445" data-name="Caminho 445" d="M0,0C.964-1.093,1.765-2.739,2.949-3.088,3.775-3.332,5.125-1.8,7-.551,5.266.825,4.216,2.307,3.171,2.3S1.057.829,0,0" fill="#fff"/>
      </g>
      <g id="Grupo_469" data-name="Grupo 469" transform="translate(146.627 -101.683)">
        <path id="Caminho_446" data-name="Caminho 446" d="M0,0,4.405,4.121C2.888,5.243,1.807,6.675.78,6.637-.449,6.593-1.633,5.293-3.911,3.861L0,0" fill="#fff"/>
      </g>
      <g id="Grupo_470" data-name="Grupo 470" transform="translate(142.953 -93.278)">
        <path id="Caminho_447" data-name="Caminho 447" d="M0,0C.975-.074,2.073,1.483,3.792,2.863,1.922,4.1.718,5.513-.318,5.4c-.994-.109-2.605-1.9-2.5-2.779A3.932,3.932,0,0,1,0,0" fill="#fff"/>
      </g>
      <g id="Grupo_471" data-name="Grupo 471" transform="translate(138.003 -111.272)">
        <path id="Caminho_448" data-name="Caminho 448" d="M0,0C-.4,1.433-.394,3.653-1.289,4.109c-1.223.622-3.129-.1-4.743-.242l-.417-2.386,4.924-2.612L0,0" fill="#fff"/>
      </g>
      <g id="Grupo_472" data-name="Grupo 472" transform="translate(113.57 -80.113)">
        <path id="Caminho_449" data-name="Caminho 449" d="M0,0C2.983-3.431,3.857-3.341,6.035.4,3.7,4.23,2.491,4.2,0,0" fill="#fff"/>
      </g>
      <g id="Grupo_473" data-name="Grupo 473" transform="translate(107.509 -98.839)">
        <path id="Caminho_450" data-name="Caminho 450" d="M0,0C1.688-1.251,2.707-2.576,3.82-2.661c1.007-.077,2.116,1.2,3.691,2.211L3.716,3.1,0,0" fill="#fff"/>
      </g>
      <g id="Grupo_474" data-name="Grupo 474" transform="translate(125.55 -106.316)">
        <path id="Caminho_451" data-name="Caminho 451" d="M0,0C-1.117-.672-1.778-2.1-2.626-3.222q.544-.882,1.088-1.766a15.463,15.463,0,0,1,4.14.917c.471.243.674,2.158.237,2.737C2.251-.554.536.322,0,0" fill="#fff"/>
      </g>
      <g id="Grupo_475" data-name="Grupo 475" transform="translate(106.172 -116.025)">
        <path id="Caminho_452" data-name="Caminho 452" d="M0,0C.09-1.3,1.058-2.534,1.848-4.177L6.541-.807C4.665.5,3.608,1.659,2.355,1.936,1.694,2.082-.044.637,0,0" fill="#fff"/>
      </g>
      <g id="Grupo_476" data-name="Grupo 476" transform="translate(72.119 -56.991)">
        <path id="Caminho_453" data-name="Caminho 453" d="M0,0C1.359.081,2.633,1.576,3.943,2.479q-.271.8-.544,1.6l-4.572.914L-2.548,3.423C-1.694,2.2-.779-.046,0,0" fill="#fff"/>
      </g>
      <g id="Grupo_477" data-name="Grupo 477" transform="translate(51.15 -53.212)">
        <path id="Caminho_454" data-name="Caminho 454" d="M0,0,5.814-.419l.7,2.093c-1.032.791-2.05,2.193-3.1,2.216C2.181,3.916.924,2.746-.322,2.1Q-.162,1.048,0,0" fill="#fff"/>
      </g>
      <g id="Grupo_478" data-name="Grupo 478" transform="translate(126.526 -72.178)">
        <path id="Caminho_455" data-name="Caminho 455" d="M0,0,6.492,1.79C4.9,3.779,4.218,5.206,3.1,5.81A3.123,3.123,0,0,1,.14,4.851C-.358,3.665,0,2.12,0,0" fill="#fff"/>
      </g>
      <g id="Grupo_479" data-name="Grupo 479" transform="translate(146.844 -113.723)">
        <path id="Caminho_456" data-name="Caminho 456" d="M0,0C.075-.9,1.6-1.688,2.767-2.807L5.883.543C4.738,1.759,3.861,2.693,1.855,4.826.9,2.542-.1,1.225,0,0" fill="#fff"/>
      </g>
      <g id="Grupo_480" data-name="Grupo 480" transform="translate(88.483 -105.154)">
        <path id="Caminho_457" data-name="Caminho 457" d="M0,0C2.749-3.7,3.566-3.63,5.91.516,3.869,3.332,2.028,3.4,0,0" fill="#fff"/>
      </g>
      <g id="Grupo_481" data-name="Grupo 481" transform="translate(85.128 -100.652)">
        <path id="Caminho_458" data-name="Caminho 458" d="M0,0-1.013,1.3-7.186.121-2.944-5.32,0,0" fill="#fff"/>
      </g>
      <g id="Grupo_482" data-name="Grupo 482" transform="translate(104.56 -45.79)">
        <path id="Caminho_459" data-name="Caminho 459" d="M0,0C-1.794,3.008-3.614,3.923-6.459.4-4.233-2.653-2.337-3.128,0,0" fill="#fff"/>
      </g>
      <g id="Grupo_483" data-name="Grupo 483" transform="translate(69.757 -42.621)">
        <path id="Caminho_460" data-name="Caminho 460" d="M0,0Q.336.736.673,1.473l-2.48,3.9-2.086-.133q-.368-2.315-.734-4.63L0,0" fill="#fff"/>
      </g>
      <g id="Grupo_484" data-name="Grupo 484" transform="translate(143.929 -112.757)">
        <path id="Caminho_461" data-name="Caminho 461" d="M0,0-4.545-.452q.225-2.244.452-4.487L-2.1-5.626,1.28-2.761Q.639-1.381,0,0" fill="#fff"/>
      </g>
      <g id="Grupo_485" data-name="Grupo 485" transform="translate(141.21 -75.307)">
        <path id="Caminho_462" data-name="Caminho 462" d="M0,0,5.075.424c-.28,1.824-.468,3.045-.652,4.245C-.214,5.45-.874,4.84,0,0" fill="#fff"/>
      </g>
      <g id="Grupo_486" data-name="Grupo 486" transform="translate(145.735 -70.647)">
        <path id="Caminho_463" data-name="Caminho 463" d="M0,0-.122.141-.074,0,.009-.009,0,0S0,0,0,0" fill="#fff"/>
      </g>
      <g id="Grupo_487" data-name="Grupo 487" transform="translate(145.734 -70.646)">
        <path id="Caminho_464" data-name="Caminho 464" d="M0,0-.121.139,0,0S0,0,0,0" fill="#fff"/>
      </g>
      <g id="Grupo_488" data-name="Grupo 488" transform="translate(145.633 -70.638)">
        <path id="Caminho_465" data-name="Caminho 465" d="M0,0,.028,0-.02.132C-.014.088-.007.044,0,0" fill="#fff"/>
      </g>
      <g id="Grupo_489" data-name="Grupo 489" transform="translate(70.865 -83.966)">
        <path id="Caminho_466" data-name="Caminho 466" d="M0,0-6.265,1.5-7.4-.013l3.31-4.914L0,0" fill="#fff"/>
      </g>
      <g id="Grupo_490" data-name="Grupo 490" transform="translate(67.905 -67.471)">
        <path id="Caminho_467" data-name="Caminho 467" d="M0,0C-.57-.516.369-2.7.628-4.131L2.145-4.31,5.354-.8,4.505,1.193C2.954.85,1.024.926,0,0" fill="#fff"/>
      </g>
      <g id="Grupo_491" data-name="Grupo 491" transform="translate(60.644 -55.483)">
        <path id="Caminho_468" data-name="Caminho 468" d="M0,0,1.5-1.36,6.1,1.254q-.116.861-.233,1.723C4.529,3.34,2.755,4.4,1.95,3.9.9,3.242.614,1.356,0,0" fill="#fff"/>
      </g>
      <g id="Grupo_492" data-name="Grupo 492" transform="translate(119.64 -108.683)">
        <path id="Caminho_469" data-name="Caminho 469" d="M0,0Q.612,2.263,1.225,4.526l-1.4,1.185c-1.247-.735-3.28-1.274-3.526-2.26C-3.961,2.421-2.5.962-1.791-.31L0,0" fill="#fff"/>
      </g>
      <g id="Grupo_493" data-name="Grupo 493" transform="translate(31.672 -85.75)">
        <path id="Caminho_470" data-name="Caminho 470" d="M0,0C2.319,3.356,2.006,5.135-2.282,5.9c-.376-1.294-1.3-2.75-.938-3.715S-1.194.751,0,0" fill="#fff"/>
      </g>
      <g id="Grupo_494" data-name="Grupo 494" transform="translate(80.502 -70.443)">
        <path id="Caminho_471" data-name="Caminho 471" d="M0,0-1.446,1.081C-2.683.262-4.828-.453-4.937-1.4-5.086-2.7-3.686-4.172-2.95-5.57l1.806.372Q-.571-2.6,0,0" fill="#fff"/>
      </g>
      <g id="Grupo_495" data-name="Grupo 495" transform="translate(68.783 -35.475)">
        <path id="Caminho_472" data-name="Caminho 472" d="M0,0,2.109,5.7l-5.972-1.19Q-4.5,3.3-5.139,2.1L-1.91-.781,0,0" fill="#fff"/>
      </g>
      <g id="Grupo_496" data-name="Grupo 496" transform="translate(104.69 -95.69)">
        <path id="Caminho_473" data-name="Caminho 473" d="M0,0,1.945.942.715,5.764-.963,5.87c-.655-1.1-1.963-2.314-1.787-3.255C-2.562,1.607-.976.86,0,0" fill="#fff"/>
      </g>
      <g id="Grupo_497" data-name="Grupo 497" transform="translate(60.175 -77.518)">
        <path id="Caminho_474" data-name="Caminho 474" d="M0,0C-1.415.446-3.045,1.523-4.175,1.136c-.892-.3-1.168-2.409-1.718-3.714l1.361-1.149L-.015-1.841,0,0" fill="#fff"/>
      </g>
      <g id="Grupo_498" data-name="Grupo 498" transform="translate(54.533 -87.818)">
        <path id="Caminho_475" data-name="Caminho 475" d="M0,0C.4-1.046,1.87-1.684,2.879-2.5L4.8-1.267,2.853,3.474l-1.7-.232C.719,2.143-.309.819,0,0" fill="#fff"/>
      </g>
      <g id="Grupo_499" data-name="Grupo 499" transform="translate(124.435 -63.235)">
        <path id="Caminho_476" data-name="Caminho 476" d="M0,0Q-.065.807-.131,1.613l-4.2.972Q-4.8.336-5.263-1.912L-3.7-2.68,0,0" fill="#fff"/>
      </g>
      <g id="Grupo_500" data-name="Grupo 500" transform="translate(103.398 -56.606)">
        <path id="Caminho_477" data-name="Caminho 477" d="M0,0C.651-1.445,1.3-2.889,2.3-5.1L6.319-.646,1.1,1.21Q.549.6,0,0" fill="#fff"/>
      </g>
      <g id="Grupo_501" data-name="Grupo 501" transform="translate(94.878 -66.825)">
        <path id="Caminho_478" data-name="Caminho 478" d="M0,0H-4.559q-.087-1.305-.175-2.609l4.543-.609Q-.1-1.609,0,0" fill="#fff"/>
      </g>
      <g id="Grupo_502" data-name="Grupo 502" transform="translate(62.316 -37.25)">
        <path id="Caminho_479" data-name="Caminho 479" d="M0,0C-2.519,2.321-4.391,3.154-5.974-.609-3.848-3.085-2.055-3.993,0,0" fill="#fff"/>
      </g>
      <g id="Grupo_503" data-name="Grupo 503" transform="translate(103.233 -40.611)">
        <path id="Caminho_480" data-name="Caminho 480" d="M0,0C.337,1.846.536,2.939.966,5.3c-2.07-.291-3.474-.2-4.518-.763a2.79,2.79,0,0,1-.3-2.682C-2.983,1.012-1.586.708,0,0" fill="#fff"/>
      </g>
      <g id="Grupo_504" data-name="Grupo 504" transform="translate(130.876 -117.402)">
        <path id="Caminho_481" data-name="Caminho 481" d="M0,0C-.081-.492,1.181-1.769,1.616-1.676,2.83-1.415,3.931-.626,5.778.311l-4,3.443C.967,2.155.186,1.127,0,0" fill="#fff"/>
      </g>
      <g id="Grupo_505" data-name="Grupo 505" transform="translate(39.7 -107.204)">
        <path id="Caminho_482" data-name="Caminho 482" d="M0,0,2.387-4.356l1.6.191L5.442.919l-4.2.194L0,0" fill="#fff"/>
      </g>
      <g id="Grupo_506" data-name="Grupo 506" transform="translate(71.057 -117.365)">
        <path id="Caminho_483" data-name="Caminho 483" d="M0,0,.423-1.364H5.17L5.614.367c-.981.617-2,1.761-2.933,1.7S.89.739,0,0" fill="#fff"/>
      </g>
      <g id="Grupo_507" data-name="Grupo 507" transform="translate(37.774 -78.478)">
        <path id="Caminho_484" data-name="Caminho 484" d="M0,0-.21-4.682l1.755-.492L4.773-2.51,1.469.41,0,0" fill="#fff"/>
      </g>
      <g id="Grupo_508" data-name="Grupo 508" transform="translate(104.67 -66.961)">
        <path id="Caminho_485" data-name="Caminho 485" d="M0,0C-.931.859-1.813,2.325-2.807,2.4c-.959.077-2.033-1.275-3.057-2q.186-.8.373-1.594l4.876-.464L0,0" fill="#fff"/>
      </g>
      <g id="Grupo_509" data-name="Grupo 509" transform="translate(77.582 -34.973)">
        <path id="Caminho_486" data-name="Caminho 486" d="M0,0-1.355,1.351-5.4.111q-.185-.8-.368-1.589C-4.507-2.14-3.2-3.363-2.006-3.259-1.248-3.193-.663-1.154,0,0" fill="#fff"/>
      </g>
      <g id="Grupo_510" data-name="Grupo 510" transform="translate(73.232 -48.867)">
        <path id="Caminho_487" data-name="Caminho 487" d="M0,0,4.609,3.173C.24,5.492-1.342,4.984,0,0" fill="#fff"/>
      </g>
      <g id="Grupo_511" data-name="Grupo 511" transform="translate(81.843 -94.513)">
        <path id="Caminho_488" data-name="Caminho 488" d="M0,0,4.771-.368q.06,1.387.121,2.774H.108L0,0" fill="#fff"/>
      </g>
      <g id="Grupo_512" data-name="Grupo 512" transform="translate(128.218 -79.434)">
        <path id="Caminho_489" data-name="Caminho 489" d="M0,0C-.1,1.542-.209,3.085-.394,5.815l-5.031-3.77L-1.261-.627,0,0" fill="#fff"/>
      </g>
      <g id="Grupo_513" data-name="Grupo 513" transform="translate(54.511 -43.558)">
        <path id="Caminho_490" data-name="Caminho 490" d="M0,0Q-.006,1.088-.013,2.175H-4.752q0-1.087.01-2.175Z" fill="#fff"/>
      </g>
      <g id="Grupo_514" data-name="Grupo 514" transform="translate(143.967 -121.825)">
        <path id="Caminho_491" data-name="Caminho 491" d="M0,0,1.026-.962,5.59.945,1.732,5.294C.895,2.737.448,1.368,0,0" fill="#fff"/>
      </g>
      <g id="Grupo_515" data-name="Grupo 515" transform="translate(126.252 -83.82)">
        <path id="Caminho_492" data-name="Caminho 492" d="M0,0-3.836.869q-.333-2.021-.664-4.04l1.421-.563,3,1.942Q-.038-.9,0,0" fill="#fff"/>
      </g>
      <g id="Grupo_516" data-name="Grupo 516" transform="translate(132.833 -62.783)">
        <path id="Caminho_493" data-name="Caminho 493" d="M0,0,.879,1.241-1.8,5.01l-1.5-.453C-3.427,3.312-4.08,1.68-3.53.929S-1.226.274,0,0" fill="#fff"/>
      </g>
      <g id="Grupo_517" data-name="Grupo 517" transform="translate(67.924 -75.522)">
        <path id="Caminho_494" data-name="Caminho 494" d="M0,0Q-.73,1.16-1.46,2.318l-3.523-2Q-4.141-1.018-3.3-2.359L0,0" fill="#fff"/>
      </g>
      <g id="Grupo_518" data-name="Grupo 518" transform="translate(92.367 -38.19)">
        <path id="Caminho_495" data-name="Caminho 495" d="M0,0C1.112.332,1.9,1.742,2.826,2.7q-.421.693-.844,1.387l-4.39-.793-.4-1.332C-1.854,1.251-.68-.2,0,0" fill="#fff"/>
      </g>
      <g id="Grupo_519" data-name="Grupo 519" transform="translate(78.082 -106.365)">
        <path id="Caminho_496" data-name="Caminho 496" d="M0,0-5.959-1.3C-2.126-5.193-1.734-5.113,0,0" fill="#fff"/>
      </g>
      <g id="Grupo_520" data-name="Grupo 520" transform="translate(20.63 -112.028)">
        <path id="Caminho_497" data-name="Caminho 497" d="M0,0C-.222-.636.971-1.766,1.973-3.393,3.157-1.94,4.353-1.118,4.35-.3c0,.869-1.142,1.735-1.785,2.6C1.66,1.552.332.95,0,0" fill="#fff"/>
      </g>
      <g id="Grupo_521" data-name="Grupo 521" transform="translate(87.273 -39.443)">
        <path id="Caminho_498" data-name="Caminho 498" d="M0,0Q-.476,1.062-.952,2.123l-5.178.914c.982-2.35,1.5-3.582,2.62-6.267L0,0" fill="#fff"/>
      </g>
      <g id="Grupo_522" data-name="Grupo 522" transform="translate(55.674 -110.016)">
        <path id="Caminho_499" data-name="Caminho 499" d="M0,0Q.237-1.4.473-2.794l4.556.92q-.19,1.2-.383,2.4L0,0" fill="#fff"/>
      </g>
      <g id="Grupo_523" data-name="Grupo 523" transform="translate(50.314 -85.751)">
        <path id="Caminho_500" data-name="Caminho 500" d="M0,0C-.385,2.85-.576,4.266-.927,6.867L-5.138,2.959,0,0" fill="#fff"/>
      </g>
      <g id="Grupo_524" data-name="Grupo 524" transform="translate(109.543 -71.861)">
        <path id="Caminho_501" data-name="Caminho 501" d="M0,0C-.825-.05-2.185-1.306-2.194-2.047A3.078,3.078,0,0,1-.14-4.274C.651-4.4,1.64-3.3,3.286-2.28,1.714-1.121.82.05,0,0" fill="#fff"/>
      </g>
      <g id="Grupo_525" data-name="Grupo 525" transform="translate(80.83 -59.978)">
        <path id="Caminho_502" data-name="Caminho 502" d="M0,0C.633.958,1.7,1.893,1.755,2.882,1.793,3.61.5,4.408-.2,5.174L-2.09,4.5q.277-2.121.554-4.242L0,0" fill="#fff"/>
      </g>
      <g id="Grupo_526" data-name="Grupo 526" transform="translate(91.773 -46.667)">
        <path id="Caminho_503" data-name="Caminho 503" d="M0,0,3.377.292Q2.864,2.146,2.352,4L.326,3.815Q.162,1.907,0,0" fill="#fff"/>
      </g>
      <g id="Grupo_527" data-name="Grupo 527" transform="translate(91.773 -46.667)">
        <path id="Caminho_504" data-name="Caminho 504" d="M0,0,3.377.292Q2.864,2.146,2.352,4,2.865,2.146,3.377.292L0,0" fill="#fff"/>
      </g>
      <g id="Grupo_528" data-name="Grupo 528" transform="translate(56.19 -102.912)">
        <path id="Caminho_505" data-name="Caminho 505" d="M0,0,4.929-.921l.6,3.613-1.563.783L0,0" fill="#fff"/>
      </g>
      <g id="Grupo_529" data-name="Grupo 529" transform="translate(130.175 -98.08)">
        <path id="Caminho_506" data-name="Caminho 506" d="M0,0-3.184-2.352q.123-.867.248-1.734C-1.73-4.147-.05-4.712.557-4.139c.7.66.45,2.324.612,3.552L0,0" fill="#fff"/>
      </g>
      <g id="Grupo_530" data-name="Grupo 530" transform="translate(85.854 -64.55)">
        <path id="Caminho_507" data-name="Caminho 507" d="M0,0-2.32-.318q.285-2.046.568-4.092l2.336.32Q.293-2.045,0,0" fill="#fff"/>
      </g>
      <g id="Grupo_531" data-name="Grupo 531" transform="translate(37.606 -61.531)">
        <path id="Caminho_508" data-name="Caminho 508" d="M0,0Q-.006.84-.011,1.681c-1.061.314-2.474,1.193-3.1.805C-3.972,1.946-4.244.457-4.77-.626l.955-.907L0,0" fill="#fff"/>
      </g>
      <g id="Grupo_532" data-name="Grupo 532" transform="translate(97.515 -83.475)">
        <path id="Caminho_509" data-name="Caminho 509" d="M0,0-2.663-.125V-3.933l3.117.142Q.226-1.895,0,0" fill="#fff"/>
      </g>
      <g id="Grupo_533" data-name="Grupo 533" transform="translate(38.306 -118.994)">
        <path id="Caminho_510" data-name="Caminho 510" d="M0,0,5.051.461l.54,1.786C4.517,2.84,3.427,3.889,2.374,3.853,1.765,3.832,1.214,2.065,0,0" fill="#fff"/>
      </g>
      <g id="Grupo_534" data-name="Grupo 534" transform="translate(48.337 -113.104)">
        <path id="Caminho_511" data-name="Caminho 511" d="M0,0C-.362-.14-.476-1.62-.248-2.346-.079-2.886.823-3.2,1.694-3.821c.8,1.023,1.467,1.877,2.134,2.732q-.255.7-.512,1.4A11.259,11.259,0,0,1,0,0" fill="#fff"/>
      </g>
      <g id="Grupo_535" data-name="Grupo 535" transform="translate(126.177 -47.008)">
        <path id="Caminho_512" data-name="Caminho 512" d="M0,0Q-.073.684-.148,1.369l-5.188,1.11,2.33-5.058L0,0" fill="#fff"/>
      </g>
      <g id="Grupo_536" data-name="Grupo 536" transform="translate(21.353 -100.593)">
        <path id="Caminho_513" data-name="Caminho 513" d="M0,0C.167-1.735.3-3.092.53-5.505,4.427-1.745,4.389-1.554,0,0" fill="#fff"/>
      </g>
      <g id="Grupo_537" data-name="Grupo 537" transform="translate(123.407 -117.326)">
        <path id="Caminho_514" data-name="Caminho 514" d="M0,0Q.051-.7.1-1.391c1.086-.332,2.39-1.182,3.2-.845.768.32,1.019,1.881,1.5,2.9l-.93.987L0,0" fill="#fff"/>
      </g>
      <g id="Grupo_538" data-name="Grupo 538" transform="translate(81.851 -114.495)">
        <path id="Caminho_515" data-name="Caminho 515" d="M0,0,3.173,3.871,2.222,5.333C1.2,4.936-.136,4.791-.738,4.051-1.13,3.569-.455,2.221,0,0" fill="#fff"/>
      </g>
      <g id="Grupo_539" data-name="Grupo 539" transform="translate(79.701 -83.934)">
        <path id="Caminho_516" data-name="Caminho 516" d="M0,0,2.146.272q-.154,1.7-.31,3.405L-.532,3.4Q-.265,1.7,0,0" fill="#fff"/>
      </g>
      <g id="Grupo_540" data-name="Grupo 540" transform="translate(137.997 -82.917)">
        <path id="Caminho_517" data-name="Caminho 517" d="M0,0-2.332,1.142-3.817-2.552l1.933-.935L0,0" fill="#fff"/>
      </g>
      <g id="Grupo_541" data-name="Grupo 541" transform="translate(29.974 -88.596)">
        <path id="Caminho_518" data-name="Caminho 518" d="M0,0-1.182.633-5.009-2.1-.792-3.3,0,0" fill="#fff"/>
      </g>
      <g id="Grupo_542" data-name="Grupo 542" transform="translate(48.031 -88.587)">
        <path id="Caminho_519" data-name="Caminho 519" d="M0,0-3.824-.986l.453-2.226L.5-2.605Q.25-1.3,0,0" fill="#fff"/>
      </g>
      <g id="Grupo_543" data-name="Grupo 543" transform="translate(63.118 -115.056)">
        <path id="Caminho_520" data-name="Caminho 520" d="M0,0C-.445-.6.034-1.881.1-2.862l1.177-.4Q2.526-1.843,3.77-.428L2.793.952C1.826.662.485.65,0,0" fill="#fff"/>
      </g>
      <g id="Grupo_544" data-name="Grupo 544" transform="translate(90.068 -61.425)">
        <path id="Caminho_521" data-name="Caminho 521" d="M0,0-.552,4.71C-2.173,3.149-3.545,2.329-3.437,1.824-3.234.867-2.182.09-1.482-.762L0,0" fill="#fff"/>
      </g>
      <g id="Grupo_545" data-name="Grupo 545" transform="translate(64.201 -61.124)">
        <path id="Caminho_522" data-name="Caminho 522" d="M0,0Q-.238.561-.476,1.123L-3.755.917q.216-1.66.431-3.323l1.152-.26L0,0" fill="#fff"/>
      </g>
      <g id="Grupo_546" data-name="Grupo 546" transform="translate(85.229 -84.846)">
        <path id="Caminho_523" data-name="Caminho 523" d="M0,0,2.8-2.607l1.48,1.589-2.8,2.605L0,0" fill="#fff"/>
      </g>
      <g id="Grupo_547" data-name="Grupo 547" transform="translate(110.287 -32.906)">
        <path id="Caminho_524" data-name="Caminho 524" d="M0,0-5.085,1.33l2.11-4.779L0,0" fill="#fff"/>
      </g>
      <g id="Grupo_548" data-name="Grupo 548" transform="translate(60.252 -43.804)">
        <path id="Caminho_525" data-name="Caminho 525" d="M0,0A19.3,19.3,0,0,1-2.708-1.934c-.149-.144.523-1.137,1.047-2.211L1-1.815,0,0" fill="#fff"/>
      </g>
      <g id="Grupo_549" data-name="Grupo 549" transform="translate(72.336 -81.073)">
        <path id="Caminho_526" data-name="Caminho 526" d="M0,0,2.234,2.217.426,3.833-1.5,1.37,0,0" fill="#fff"/>
      </g>
      <g id="Grupo_550" data-name="Grupo 550" transform="translate(97.609 -122.737)">
        <path id="Caminho_527" data-name="Caminho 527" d="M0,0,3.745-.271Q3.808.742,3.87,1.754L.119,1.985Q.06.992,0,0" fill="#fff"/>
      </g>
      <g id="Grupo_551" data-name="Grupo 551" transform="translate(95.154 -62.041)">
        <path id="Caminho_528" data-name="Caminho 528" d="M0,0,3.249,1.472Q2.62,2.517,1.99,3.562L-.9,1.747,0,0" fill="#fff"/>
      </g>
      <g id="Grupo_552" data-name="Grupo 552" transform="translate(79.467 -63.871)">
        <path id="Caminho_529" data-name="Caminho 529" d="M0,0A17.8,17.8,0,0,1-2.8,1.528c-.172.063-.762-1.028-1.5-2.061L-1.044-1.65,0,0" fill="#fff"/>
      </g>
      <g id="Grupo_553" data-name="Grupo 553" transform="translate(105.447 -49.31)">
        <path id="Caminho_530" data-name="Caminho 530" d="M0,0C.881-1.709,1.326-2.574,1.772-3.438l1.561.182c.051.944.407,2.044.036,2.775C3.152-.053,1.774-.215,0,0" fill="#fff"/>
      </g>
      <g id="Grupo_554" data-name="Grupo 554" transform="translate(100.945 -53.889)">
        <path id="Caminho_531" data-name="Caminho 531" d="M0,0-2.181,1.9-3.486.348-.945-1.325,0,0" fill="#fff"/>
      </g>
      <g id="Grupo_555" data-name="Grupo 555" transform="translate(49.666 -48.207)">
        <path id="Caminho_532" data-name="Caminho 532" d="M0,0-1.761,2.386-3.378,1.129-1.237-1.1,0,0" fill="#fff"/>
      </g>
      <g id="Grupo_556" data-name="Grupo 556" transform="translate(64.223 -48.287)">
        <path id="Caminho_533" data-name="Caminho 533" d="M0,0,3.014.236,2.873,1.949-.14,1.681Q-.07.841,0,0" fill="#fff"/>
      </g>
      <g id="Grupo_557" data-name="Grupo 557" transform="translate(131.095 -84.607)">
        <path id="Caminho_534" data-name="Caminho 534" d="M0,0C.066.874.135,1.794.2,2.714l-2.068.058c.157-.924.3-1.852.5-2.764A7.5,7.5,0,0,1,0,0" fill="#fff"/>
      </g>
      <g id="Grupo_558" data-name="Grupo 558" transform="translate(115.872 -35.331)">
        <path id="Caminho_535" data-name="Caminho 535" d="M0,0-3.108.666q-.223-.858-.448-1.717l3.085-.9L0,0" fill="#fff"/>
      </g>
      <g id="Grupo_559" data-name="Grupo 559" transform="translate(55.904 -119.137)">
        <path id="Caminho_536" data-name="Caminho 536" d="M0,0,1.926-.317,2.16,2.058l-1.622.3Q.268,1.182,0,0" fill="#fff"/>
      </g>
      <g id="Grupo_560" data-name="Grupo 560" transform="translate(68.925 -60.412)">
        <path id="Caminho_537" data-name="Caminho 537" d="M0,0C.338-.827.659-1.663,1.046-2.467a6.809,6.809,0,0,1,1.342.255c-.21.895-.413,1.757-.616,2.619L0,0" fill="#fff"/>
      </g>
      <g id="Grupo_561" data-name="Grupo 561" transform="translate(62.736 -31.329)">
        <path id="Caminho_538" data-name="Caminho 538" d="M0,0-1.208.977-2.413-1.077l.879-.618L0,0" fill="#fff"/>
      </g>
    </g>
    <g id="Grupo_563" data-name="Grupo 563" transform="translate(59.063 -55.318)">
      <path id="Caminho_540" data-name="Caminho 540" d="M0,0-2.749-32.533l-6.516-1.9L-6.641,1.392-20.8-33.355l-8.747-.631,16.08,38.869-36.085-10.6-4.6,6.254,35.8,12.821-40.707,2.678,1.027,9.2,39.225-3.457L-48.87,33.475l2.037,4.136,31.424-10.445L-39.022,51.039l9.333,4.279L-6.905,32.552l17.654-3.245L30.789,9.631,12.247,8.758,25.01-7.869,22.82-10.6,4.5,7.312,21.61-35.27l-6.332-3.894Z" fill="#b3dd9e"/>
    </g>
  </g>
</svg>
