<svg xmlns="http://www.w3.org/2000/svg" width="54.657" height="61.033" viewBox="0 0 54.657 61.033">
  <g id="pv_o0boxdica" transform="translate(-240.476 -583.314)">
    <g id="Grupo_221" data-name="Grupo 221" transform="translate(240.934 636.039)">
      <path id="Caminho_203" data-name="Caminho 203" d="M0,0-.458.867c2.122,1.2,4.174,2.551,6.377,3.577C18.024,10.083,29.66,10.2,39.8.426A70.144,70.144,0,0,0,50.556-12.655c5.473-8.744,4.648-16.684-1.59-24.882-4.67-6.138-10.7-10.655-17.247-14.557a8.934,8.934,0,0,0-2.013-.631l-.363.794c.91.616,1.8,1.259,2.732,1.845A60.861,60.861,0,0,1,47.918-36.257c4.651,5.953,6.1,12.638,2.9,19.521A49.8,49.8,0,0,1,42.829-4.769C31.894,7.479,22.62,9.433,7.292,3.26,4.824,2.266,2.429,1.091,0,0" fill="#fff"/>
    </g>
    <g id="Grupo_222" data-name="Grupo 222" transform="translate(242.883 632.481)">
      <path id="Caminho_204" data-name="Caminho 204" d="M0,0-.558,1.221C2.866,2.837,6.211,4.655,9.729,6.032,19.446,9.836,27.97,8.265,34.488.149,39.1-5.586,42.614-12.309,45.918-18.94c2.359-4.733,1.216-9.654-2.11-13.919-4.434-5.688-10.219-9.63-16.533-12.892a4.055,4.055,0,0,0-1.313-.181,7.6,7.6,0,0,0,2.578,2.611c4.568,3.666,9.381,7.086,13.565,11.152a10.7,10.7,0,0,1,2.234,13.1c-2.668,5.349-5.2,10.885-8.7,15.676C28.118,6.9,18.76,8.87,7.316,3.367,5.894,2.683,4.495,1.95,3.064,1.284,2.061.817,1.023.425,0,0" fill="#fff"/>
    </g>
    <g id="Grupo_223" data-name="Grupo 223" transform="translate(245.474 626.365)">
      <path id="Caminho_205" data-name="Caminho 205" d="M0,0C4.026,5.724,17.172,8.466,24.063,5.686c7.3-2.946,14.223-14.9,13.167-22.745-.9-6.7-10.555-16.262-17.848-16.973,1.187.915,1.839,1.471,2.543,1.949,2.176,1.477,4.453,2.819,6.545,4.4,5.448,4.127,8.678,9.379,6.544,16.377A38.934,38.934,0,0,1,30.142-1.139C27.071,3.443,22.315,5.9,16.847,5.21,12.351,4.645,8,2.87,3.605,1.572A36.156,36.156,0,0,1,0,0" fill="#fff"/>
    </g>
    <g id="Grupo_224" data-name="Grupo 224" transform="translate(248.947 621.656)">
      <path id="Caminho_206" data-name="Caminho 206" d="M0,0-.351,1.225C5.079,3.7,10.715,5.484,16.834,4.718A12.968,12.968,0,0,0,27.478-12.613c-2.255-6.124-7.14-9.941-12.638-13.041-.065-.037-.294.219-.891.686.931.724,1.818,1.314,2.586,2.031,2.674,2.5,5.658,4.77,7.87,7.633,3.012,3.9,3.162,8.394.7,12.771a10.886,10.886,0,0,1-11.051,5.86A74.359,74.359,0,0,1,4.2,1.406,41.605,41.605,0,0,1,0,0" fill="#fff"/>
    </g>
    <g id="Grupo_225" data-name="Grupo 225" transform="translate(265.501 600.631)">
      <path id="Caminho_207" data-name="Caminho 207" d="M0,0-.814.733A73.268,73.268,0,0,1,4.992,6.992C8.584,11.847,6.736,18.348.98,19.978c-2.826.8-6.119.019-9.193-.172a14.19,14.19,0,0,1-2.917-.812c3.058,3.5,9.024,4.293,13.338,2.346,3.722-1.68,6.632-6,6.182-9.81C7.746,6.094,4.025,2.885,0,0" fill="#fff"/>
    </g>
    <g id="Grupo_226" data-name="Grupo 226" transform="translate(251.842 616.493)">
      <path id="Caminho_208" data-name="Caminho 208" d="M0,0C4.478.735,8.253.478,11.056-2.951a6.374,6.374,0,0,0,.762-7.108c-1-2.182-2.148-2.99-4.644-3.035,2.912,2.647,5.677,5.81,2.325,9.022C7.288-1.955,3.546-1.434,0,0" fill="#fff"/>
    </g>
    <g id="Grupo_227" data-name="Grupo 227" transform="translate(253.507 613.036)">
      <path id="Caminho_209" data-name="Caminho 209" d="M0,0C2.97,1.605,5.526.791,6.609-1.811A3.618,3.618,0,0,0,4.367-7.019C6.312-.89,5.273-1.212,0,0" fill="#fff"/>
    </g>
    <g id="Grupo_228" data-name="Grupo 228" transform="translate(240.934 636.039)">
      <path id="Caminho_210" data-name="Caminho 210" d="M0,0C2.429,1.091,4.824,2.266,7.292,3.26c15.328,6.173,24.6,4.219,35.537-8.029a49.8,49.8,0,0,0,7.992-11.967c3.194-6.883,1.748-13.568-2.9-19.521A60.861,60.861,0,0,0,32.075-50.086c-.929-.586-1.822-1.229-2.732-1.845l.363-.794a8.934,8.934,0,0,1,2.013.631c6.547,3.9,12.577,8.419,17.247,14.557,6.238,8.2,7.063,16.138,1.59,24.882A70.144,70.144,0,0,1,39.8.426C29.66,10.2,18.024,10.083,5.919,4.444,3.716,3.418,1.664,2.068-.458.867L0,0" fill="#fff"/>
    </g>
    <g id="Grupo_229" data-name="Grupo 229" transform="translate(242.883 632.481)">
      <path id="Caminho_211" data-name="Caminho 211" d="M0,0C1.023.425,2.061.817,3.064,1.284c1.431.666,2.83,1.4,4.252,2.083C18.76,8.87,28.118,6.9,35.637-3.4c3.5-4.791,6.034-10.327,8.7-15.676a10.7,10.7,0,0,0-2.234-13.1c-4.184-4.066-9-7.486-13.565-11.152a7.6,7.6,0,0,1-2.578-2.611,4.055,4.055,0,0,1,1.313.181c6.314,3.262,12.1,7.2,16.533,12.892,3.326,4.265,4.469,9.186,2.11,13.919C42.614-12.309,39.1-5.586,34.488.149,27.97,8.265,19.446,9.836,9.729,6.032,6.211,4.655,2.866,2.837-.558,1.221L0,0" fill="#fff"/>
    </g>
    <g id="Grupo_230" data-name="Grupo 230" transform="translate(245.474 626.365)">
      <path id="Caminho_212" data-name="Caminho 212" d="M0,0A36.156,36.156,0,0,0,3.605,1.572C8,2.87,12.351,4.645,16.847,5.21c5.468.687,10.224-1.767,13.3-6.349A38.934,38.934,0,0,0,35.014-11.3c2.134-7-1.1-12.25-6.544-16.377-2.092-1.585-4.369-2.927-6.545-4.4-.7-.478-1.356-1.034-2.543-1.949,7.293.711,16.946,10.275,17.848,16.973,1.056,7.843-5.865,19.8-13.167,22.745C17.172,8.466,4.026,5.724,0,0" fill="#fff"/>
    </g>
    <g id="Grupo_231" data-name="Grupo 231" transform="translate(248.947 621.656)">
      <path id="Caminho_213" data-name="Caminho 213" d="M0,0A41.605,41.605,0,0,0,4.2,1.406a74.359,74.359,0,0,0,9.855,1.921A10.886,10.886,0,0,0,25.1-2.533c2.463-4.377,2.313-8.875-.7-12.771-2.212-2.863-5.2-5.135-7.87-7.633-.768-.717-1.655-1.307-2.586-2.031.6-.467.826-.723.891-.686,5.5,3.1,10.383,6.917,12.638,13.041A12.968,12.968,0,0,1,16.834,4.718C10.715,5.484,5.079,3.7-.351,1.225L0,0" fill="#fff"/>
    </g>
    <g id="Grupo_232" data-name="Grupo 232" transform="translate(251.842 616.493)">
      <path id="Caminho_214" data-name="Caminho 214" d="M0,0C3.546-1.434,7.288-1.955,9.5-4.072c3.352-3.212.587-6.375-2.325-9.022,2.5.045,3.645.853,4.644,3.035a6.374,6.374,0,0,1-.762,7.108C8.253.478,4.478.735,0,0" fill="#fff"/>
    </g>
    <g id="Grupo_233" data-name="Grupo 233" transform="translate(253.507 613.036)">
      <path id="Caminho_215" data-name="Caminho 215" d="M0,0C5.273-1.212,6.312-.89,4.367-7.019A3.618,3.618,0,0,1,6.609-1.811C5.526.791,2.97,1.605,0,0" fill="#fff"/>
    </g>
  </g>
</svg>
