<svg xmlns="http://www.w3.org/2000/svg" width="128.033" height="88.262" viewBox="0 0 128.033 88.262">
  <g id="pv_o0sec1_bg" transform="translate(-37.897 -111.59)">
    <g id="Grupo_236" data-name="Grupo 236" transform="translate(153.857 122.592)">
      <path id="Caminho_218" data-name="Caminho 218" d="M0,0C-.28,2.412-.488,4.449-.757,6.478-2.681,21.017-7.382,34.526-15.709,46.684-21.247,54.771-28.722,60.262-38.556,60.9a175.316,175.316,0,0,1-27.726-.379c-11.8-1.112-20.549-7.744-26.726-17.725a52.287,52.287,0,0,1-7.9-23.24c-.736-8.7-.958-17.452-1.419-26.436l-3.079-.215c-.646,15.95-.235,31.5,6.1,46.2,5.544,12.869,15.15,21.227,28.93,24.577,10.962,2.666,22,2.4,33.045.875A32.925,32.925,0,0,0-16.613,53.471C-3.556,38.6,1.365,20.514,3.7,1.2L0,0" fill="#b3dd9e"/>
    </g>
    <g id="Grupo_237" data-name="Grupo 237" transform="translate(54.99 115.861)">
      <path id="Caminho_219" data-name="Caminho 219" d="M0,0C.572,8.611.629,16.746,1.761,24.729c1.572,11.09,6.28,20.9,15.767,27.407a57.9,57.9,0,0,0,41.607,9.74A24.524,24.524,0,0,0,72.1,55.658C85.747,42.4,91.743,25.517,93.5,6.671l-3.142-.219c-1.3,5.989-2.128,11.778-3.874,17.275A90.016,90.016,0,0,1,79.724,39.72c-9.444,17.2-17.241,20.918-36.693,18.221C19.926,54.737,7.132,42.217,4.8,20.1,4.111,13.6,4.22,7.009,3.958.277L0,0" fill="#b3dd9e"/>
    </g>
    <g id="Grupo_238" data-name="Grupo 238" transform="translate(39.341 111.59)">
      <path id="Caminho_220" data-name="Caminho 220" d="M0,0-1.444.148c.042,6.51.269,13.022.09,19.528C-1.922,40.383,3.281,58.2,17.833,71.658c10.651,9.853,22.308,16.891,36.648,16.6,13.018-.269,25.488-3.939,37.6-9.205a53.055,53.055,0,0,0,18.63-13.255c10.059-11.216,13.941-25.406,15.848-40.517.131-1.037-.284-2.152-.538-3.853a8,8,0,0,0-.761,1.39c-.307,2.039-.581,4.084-.874,6.125-3.293,22.941-13.54,40.13-33.447,48.491a151.068,151.068,0,0,1-25.916,8.012c-15,3.313-28.7-.572-40.886-10.689C10.076,63.074.819,48.32.641,27.716Q.538,15.731.324,3.751C.3,2.5.112,1.25,0,0" fill="#b3dd9e"/>
    </g>
    <g id="Grupo_239" data-name="Grupo 239" transform="translate(65.25 116.567)">
      <path id="Caminho_221" data-name="Caminho 221" d="M0,0-1.2-.049c-.209,2.982-.619,5.966-.592,8.947.149,16.373,6.163,29.312,22.331,35.373a86.051,86.051,0,0,0,20.157,5c12.568,1.442,20.92-3.663,26.7-14.9,4.328-8.409,6.144-17.467,7.007-26.773a11.019,11.019,0,0,0-.365-2.561l-1.07.018c-.2,1.332-.442,2.66-.6,4a74.615,74.615,0,0,1-6.943,24.835c-4.132,8.29-10.767,13.42-20.072,13.518a61.031,61.031,0,0,1-17.463-2.528C8.559,39.247,1.5,30.015.242,9.792.039,6.535.075,3.264,0,0" fill="#b3dd9e"/>
    </g>
    <g id="Grupo_240" data-name="Grupo 240" transform="translate(78.354 116.484)">
      <path id="Caminho_222" data-name="Caminho 222" d="M0,0C-4.209,7.478-.3,23.475,6.41,29.634c7.115,6.526,24,7.875,32.124,2.566C45.471,27.666,50.96,11.933,47.9,3.486c-.385,1.8-.657,2.811-.815,3.843-.486,3.189-.769,6.416-1.419,9.57-1.691,8.207-5.8,14.555-14.67,15.886a47.769,47.769,0,0,1-13.821-.025C10.48,31.779,5.253,27.811,3.127,21.4,1.379,16.121,1.048,10.371.163,4.82A44.309,44.309,0,0,1,0,0" fill="#b3dd9e"/>
    </g>
    <g id="Grupo_241" data-name="Grupo 241" transform="translate(85.399 117.842)">
      <path id="Caminho_223" data-name="Caminho 223" d="M0,0-1.541.259c.126,7.317,1.127,14.495,5.206,20.863a15.9,15.9,0,0,0,24.8,2.631C34.053,18.024,35.7,10.6,36.227,2.881c.006-.09-.4-.209-1.229-.623-.311,1.412-.5,2.706-.883,3.934-1.354,4.279-2.293,8.78-4.293,12.74-2.723,5.39-7.622,7.93-13.766,7.515A13.348,13.348,0,0,1,3.736,17.31,91.145,91.145,0,0,1,.66,5.388,50.973,50.973,0,0,1,0,0" fill="#b3dd9e"/>
    </g>
    <g id="Grupo_242" data-name="Grupo 242" transform="translate(153.857 122.592)">
      <path id="Caminho_224" data-name="Caminho 224" d="M0,0,3.7,1.2C1.365,20.514-3.556,38.6-16.613,53.471A32.925,32.925,0,0,1-37.338,64.555c-11.05,1.523-22.083,1.791-33.045-.875-13.78-3.35-23.386-11.708-28.93-24.577-6.331-14.694-6.742-30.245-6.1-46.2l3.079.215c.461,8.984.683,17.732,1.419,26.436a52.287,52.287,0,0,0,7.9,23.24c6.177,9.981,14.929,16.613,26.726,17.725a175.316,175.316,0,0,0,27.726.379c9.834-.641,17.309-6.132,22.847-14.219C-7.382,34.526-2.681,21.017-.757,6.478-.488,4.449-.28,2.412,0,0" fill="#b3dd9e"/>
    </g>
    <g id="Grupo_243" data-name="Grupo 243" transform="translate(54.99 115.861)">
      <path id="Caminho_225" data-name="Caminho 225" d="M0,0,3.958.277C4.22,7.009,4.111,13.6,4.8,20.1,7.132,42.217,19.926,54.737,43.031,57.941c19.452,2.7,27.249-1.025,36.693-18.221a90.016,90.016,0,0,0,6.757-15.993c1.746-5.5,2.573-11.286,3.874-17.275l3.142.219C91.743,25.517,85.747,42.4,72.1,55.658a24.524,24.524,0,0,1-12.968,6.218,57.9,57.9,0,0,1-41.607-9.74C8.041,45.625,3.333,35.819,1.761,24.729.629,16.746.572,8.611,0,0" fill="#b3dd9e"/>
    </g>
    <g id="Grupo_244" data-name="Grupo 244" transform="translate(65.25 116.567)">
      <path id="Caminho_226" data-name="Caminho 226" d="M0,0C.075,3.264.039,6.535.242,9.792,1.5,30.015,8.559,39.247,27.888,44.884a61.031,61.031,0,0,0,17.463,2.528c9.3-.1,15.94-5.228,20.072-13.518A74.615,74.615,0,0,0,72.366,9.059c.158-1.337.4-2.665.6-4l1.07-.018A11.019,11.019,0,0,1,74.4,7.605c-.863,9.306-2.679,18.364-7.007,26.773-5.78,11.232-14.132,16.337-26.7,14.9a86.051,86.051,0,0,1-20.157-5C4.369,38.21-1.645,25.271-1.794,8.9c-.027-2.981.383-5.965.592-8.947L0,0" fill="#b3dd9e"/>
    </g>
    <g id="Grupo_245" data-name="Grupo 245" transform="translate(78.354 116.484)">
      <path id="Caminho_227" data-name="Caminho 227" d="M0,0A44.309,44.309,0,0,0,.163,4.82c.885,5.551,1.216,11.3,2.964,16.576C5.253,27.811,10.48,31.779,17.172,32.76a47.769,47.769,0,0,0,13.821.025c8.871-1.331,12.979-7.679,14.67-15.886.65-3.154.933-6.381,1.419-9.57.158-1.032.43-2.046.815-3.843,3.063,8.447-2.426,24.18-9.363,28.714-8.122,5.309-25.009,3.96-32.124-2.566C-.3,23.475-4.209,7.478,0,0" fill="#b3dd9e"/>
    </g>
    <g id="Grupo_246" data-name="Grupo 246" transform="translate(85.399 117.842)">
      <path id="Caminho_228" data-name="Caminho 228" d="M0,0A50.973,50.973,0,0,0,.66,5.388,91.145,91.145,0,0,0,3.736,17.31a13.348,13.348,0,0,0,12.32,9.137c6.144.415,11.043-2.125,13.766-7.515,2-3.96,2.939-8.461,4.293-12.74.388-1.228.572-2.522.883-3.934.832.414,1.235.533,1.229.623C35.7,10.6,34.053,18.024,28.466,23.753a15.9,15.9,0,0,1-24.8-2.631C-.414,14.754-1.415,7.576-1.541.259L0,0" fill="#b3dd9e"/>
    </g>
  </g>
</svg>
