<svg xmlns="http://www.w3.org/2000/svg" xmlns:xlink="http://www.w3.org/1999/xlink" width="42.074" height="40.347" viewBox="0 0 42.074 40.347">
  <defs>
    <clipPath id="clip-path">
      <path id="Caminho_91" data-name="Caminho 91" d="M0,0H42.074V-40.347H0Z" fill="none"/>
    </clipPath>
  </defs>
  <g id="pv_o3boxfiolaranja1" transform="translate(0 40.347)">
    <g id="Grupo_98" data-name="Grupo 98" clip-path="url(#clip-path)">
      <g id="Grupo_87" data-name="Grupo 87" transform="translate(41.28 -29.867)">
        <path id="Caminho_80" data-name="Caminho 80" d="M0,0C.154-.169.64-.228.794-.4A48.48,48.48,0,0,0-3.813-4.649C-11-10.571-18.341-12.618-26.894-7.789a48.972,48.972,0,0,0-9.55,6.955C-41.667,4.115-42.5,9.621-39.716,16.247a40.955,40.955,0,0,0,9.1,12.842,6.238,6.238,0,0,0,1.25.778c.127-.158.255-.315.383-.473-.507-.575-1-1.165-1.523-1.723a42.44,42.44,0,0,1-8.283-12.106c-2.1-4.832-1.911-9.6,1.449-13.69A34.725,34.725,0,0,1-29.848-4.81c9.523-6.362,16.127-6.062,25.4.784C-2.955-2.923-1.45-1.161,0,0" fill="#ffc593"/>
      </g>
      <g id="Grupo_88" data-name="Grupo 88" transform="translate(39.25 -28.355)">
        <path id="Caminho_81" data-name="Caminho 81" d="M0,0,.59-.727c-2.03-1.69-3.972-3.5-6.107-5.046-5.9-4.266-11.928-4.693-17.747-.351A73.191,73.191,0,0,0-34.317,4.771c-2.42,2.784-2.507,6.307-1.006,9.768a33.694,33.694,0,0,0,8.914,11.594,2.8,2.8,0,0,0,.855.351,5.3,5.3,0,0,0-1.285-2.213c-2.444-3.274-5.1-6.424-7.213-9.9a7.467,7.467,0,0,1,.778-9.235,74.977,74.977,0,0,1,8.615-9.067c6.875-5.638,13.539-5.336,20.306.38.842.71,1.658,1.449,2.508,2.149C-1.249-.912-.616-.466,0,0" fill="#ffe8d7"/>
      </g>
      <g id="Grupo_89" data-name="Grupo 89" transform="translate(36.432 -24.677)">
        <path id="Caminho_82" data-name="Caminho 82" d="M0,0C-1.719-4.568-10.118-8.716-15.257-8.042-20.7-7.328-27.465-.463-28.121,5.018-28.682,9.7-23.833,17.843-19.033,19.6c-.641-.825-.984-1.314-1.376-1.76-1.212-1.378-2.515-2.681-3.651-4.118-2.958-3.738-4.223-7.849-1.559-12.2a27.134,27.134,0,0,1,5.065-6.013A9.477,9.477,0,0,1-10.467-6.461C-7.529-5.294-4.9-3.336-2.16-1.691A25.146,25.146,0,0,1,0,0" fill="#ffc593"/>
      </g>
      <g id="Grupo_90" data-name="Grupo 90" transform="translate(33.264 -22.104)">
        <path id="Caminho_83" data-name="Caminho 83" d="M0,0,.451-.766c-3.235-2.621-6.729-4.809-10.995-5.36A9.046,9.046,0,0,0-20.759,3.719c.453,4.529,3.085,7.96,6.257,11.014.037.036.237-.1.721-.308-.5-.651-1-1.2-1.391-1.823a47.922,47.922,0,0,1-3.982-6.529A7.643,7.643,0,0,1-17.4-2.674,7.593,7.593,0,0,1-8.909-4.7a51.692,51.692,0,0,1,6.32,3.019A29.059,29.059,0,0,1,0,0" fill="#9fa6d5"/>
      </g>
      <g id="Grupo_91" data-name="Grupo 91" transform="translate(20.655 -9.341)">
        <path id="Caminho_84" data-name="Caminho 84" d="M0,0,.678-.353A51.13,51.13,0,0,1-2.15-5.594c-1.578-3.9.806-7.973,4.977-8.069,2.048-.046,4.136,1.056,6.179,1.723a9.884,9.884,0,0,1,1.828,1.057c-1.455-2.9-5.345-4.475-8.6-3.914-2.807.485-5.527,2.9-5.888,5.545C-4.167-5.468-2.214-2.651,0,0" fill="#9fa6d5"/>
      </g>
      <g id="Grupo_92" data-name="Grupo 92" transform="translate(30.408 -19.123)">
        <path id="Caminho_85" data-name="Caminho 85" d="M0,0C-2.9-1.278-5.49-1.764-7.981.062A4.445,4.445,0,0,0-9.738,4.729,3.087,3.087,0,0,0-7.131,7.59c-1.5-2.3-2.82-4.915.005-6.5C-5.263.047-2.645.349,0,0" fill="#9fa6d5"/>
      </g>
      <g id="Grupo_93" data-name="Grupo 93" transform="translate(28.679 -17.079)">
        <path id="Caminho_86" data-name="Caminho 86" d="M0,0C-1.725-1.6-3.594-1.5-4.78.069a2.523,2.523,0,0,0,.605,3.908C-4.418-.5-3.772-.1,0,0" fill="#9fa6d5"/>
      </g>
      <g id="Grupo_94" data-name="Grupo 94" transform="translate(33.264 -22.104)">
        <path id="Caminho_87" data-name="Caminho 87" d="M0,0A29.059,29.059,0,0,0-2.589-1.682,51.692,51.692,0,0,0-8.909-4.7,7.593,7.593,0,0,0-17.4-2.674a7.643,7.643,0,0,0-1.759,8.747A47.922,47.922,0,0,0-15.172,12.6c.393.618.889,1.172,1.391,1.823-.484.211-.684.344-.721.308-3.172-3.054-5.8-6.485-6.257-11.014A9.046,9.046,0,0,1-10.544-6.126c4.266.551,7.76,2.739,10.995,5.36L0,0" fill="#ffc593"/>
      </g>
      <g id="Grupo_95" data-name="Grupo 95" transform="translate(20.655 -9.341)">
        <path id="Caminho_88" data-name="Caminho 88" d="M0,0C-2.214-2.651-4.167-5.468-3.652-9.252c.361-2.648,3.081-5.06,5.888-5.545,3.253-.561,7.143,1.017,8.6,3.914A9.884,9.884,0,0,0,9.006-11.94c-2.043-.667-4.131-1.769-6.179-1.723-4.171.1-6.555,4.164-4.977,8.069A51.13,51.13,0,0,0,.678-.353L0,0" fill="#ffc593"/>
      </g>
      <g id="Grupo_96" data-name="Grupo 96" transform="translate(30.408 -19.123)">
        <path id="Caminho_89" data-name="Caminho 89" d="M0,0C-2.645.349-5.263.047-7.126,1.091c-2.825,1.584-1.509,4.2-.005,6.5A3.087,3.087,0,0,1-9.738,4.729,4.445,4.445,0,0,1-7.981.062C-5.49-1.764-2.9-1.278,0,0" fill="#ffc593"/>
      </g>
      <g id="Grupo_97" data-name="Grupo 97" transform="translate(28.679 -17.079)">
        <path id="Caminho_90" data-name="Caminho 90" d="M0,0C-3.772-.1-4.418-.5-4.175,3.977A2.523,2.523,0,0,1-4.78.069C-3.594-1.5-1.725-1.6,0,0" fill="#ffc593"/>
      </g>
    </g>
  </g>
</svg>
