<svg xmlns="http://www.w3.org/2000/svg" xmlns:xlink="http://www.w3.org/1999/xlink" width="131.378" height="194.903" viewBox="0 0 131.378 194.903">
  <defs>
    <clipPath id="clip-path">
      <path id="Caminho_201" data-name="Caminho 201" d="M0,0H131.378V-194.9H0Z" fill="none"/>
    </clipPath>
  </defs>
  <g id="pv_o0boxaberturaObj_bg" transform="translate(0 194.903)">
    <g id="Grupo_218" data-name="Grupo 218" clip-path="url(#clip-path)">
      <g id="Grupo_196" data-name="Grupo 196" transform="translate(94.356 -14.013)">
        <path id="Caminho_179" data-name="Caminho 179" d="M0,0C-10.548-3.485-20.664-6.426-30.478-10.158-47.471-16.62-62.414-26.171-71.442-42.552c-17.139-31.1-13.591-61.756,3.934-91.271,11.005-18.533,28.115-27.608,49.737-27.617a206.319,206.319,0,0,1,22.125,1.084c9.575,1.031,19.083,2.686,28.761,4.093a21.648,21.648,0,0,0,.739-2.7,32.22,32.22,0,0,0,.117-3.237c-19.505-3.675-38.665-6.888-58.405-5.116-21.549,1.934-37.3,12.614-48.438,30.634C-81.337-123-86.051-107.99-87.894-92.018-91.914-57.17-75.969-26.08-45.636-10.091A166.97,166.97,0,0,0-3.618,4.941L0,0" fill="#fff"/>
      </g>
      <g id="Grupo_197" data-name="Grupo 197" transform="translate(99.559 -25.421)">
        <path id="Caminho_180" data-name="Caminho 180" d="M0,0C-3.219-.78-5.942-1.4-8.643-2.1-28-7.122-45.51-15.732-60.585-29.025-70.612-37.866-76.8-48.9-76.035-62.316a239,239,0,0,1,5.121-37.469c3.467-15.785,13.9-26.53,28.437-33.233A71.31,71.31,0,0,1-9.7-139.853c11.905.45,23.784,1.6,36.021,2.473.185-.948.456-2.343.8-4.133-21.485-3.525-42.6-5.553-63.547.574-18.342,5.366-31.253,16.981-38.079,35.077-5.431,14.4-6.9,29.377-6.677,44.588a44.9,44.9,0,0,0,11.561,29.9C-51.666-11.23-28-1.561-2.236,4.816-1.449,3.121-.824,1.776,0,0" fill="#fff"/>
      </g>
      <g id="Grupo_198" data-name="Grupo 198" transform="translate(125.103 -158.138)">
        <path id="Caminho_181" data-name="Caminho 181" d="M0,0C-11.752-.656-22.774-1.932-33.768-1.727-49.042-1.441-63.1,3.3-73.489,15.062c-13.7,15.509-20.375,34.148-20.1,54.7a33.456,33.456,0,0,0,6.262,18.588c15.684,20.675,37.537,31.6,62.757,37.1.363-1.868.63-3.242.819-4.217-7.892-2.757-15.591-4.837-22.741-8.115a122.68,122.68,0,0,1-20.526-11.806C-88.729,85.677-92.471,74.5-85.586,48.62-77.409,17.876-58.335,2.638-28.012,3.153c8.92.151,17.822,1.395,26.98,2.158C-.805,4.14-.552,2.84,0,0" fill="#fff"/>
      </g>
      <g id="Grupo_199" data-name="Grupo 199" transform="translate(131.293 -188.514)">
        <path id="Caminho_182" data-name="Caminho 182" d="M0,0Q.042-1.109.085-2.216C-8.749-3.16-17.625-3.822-26.41-5.1-54.376-9.165-79.564-4.014-100.7,16.013c-15.472,14.658-27.328,31.28-29.772,53.112-2.218,19.82.284,39.334,5.02,58.558a80.1,80.1,0,0,0,14.277,30.353c13.212,17.017,31.684,25.11,51.794,30.343,1.381.36,2.975-.1,5.332-.222-1.2-.965-1.434-1.284-1.734-1.371-2.7-.781-5.422-1.513-8.132-2.274-30.453-8.551-51.727-26.777-59.115-58.314a249.757,249.757,0,0,1-5.722-40.614c-1.517-23.3,6.471-43.518,22.605-60.465C-87.524,5.556-65.682-6.227-37.708-3.312-26.861-2.181-16.006-1.127-5.15-.088-3.446.076-1.717-.023,0,0" fill="#fff"/>
      </g>
      <g id="Grupo_200" data-name="Grupo 200" transform="translate(122.442 -144.367)">
        <path id="Caminho_183" data-name="Caminho 183" d="M0,0Q.134-.81.266-1.619c-4-.778-7.974-1.83-12.012-2.288-22.19-2.52-40.7,3.471-51.6,24.35A117.267,117.267,0,0,0-73.464,46.9C-77.5,63.671-71.983,75.825-57.74,85.517c10.665,7.256,22.625,11.22,35.078,13.935a14.938,14.938,0,0,0,3.528-.069q.078-.725.154-1.451c-1.77-.5-3.527-1.04-5.312-1.476-11.527-2.819-22.515-6.943-32.464-13.526-10.536-6.972-16.377-16.807-14.963-29.419a83.21,83.21,0,0,1,6.325-23.22C-54.551,5.063-40.881-2.957-13.3-1.3-8.853-1.033-4.431-.442,0,0" fill="#fff"/>
      </g>
      <g id="Grupo_201" data-name="Grupo 201" transform="translate(121.239 -137.69)">
        <path id="Caminho_184" data-name="Caminho 184" d="M0,0,.237-2.232C-6.051-2.979-12.321-4.086-18.631-4.4c-17.43-.876-30.115,6.139-36.146,22.469-4.262,11.541-6.275,24.069-8,36.339C-64,63.163-59.58,70.361-52.041,75.361c10.051,6.667,21.317,9.85,33.063,11.672a6.772,6.772,0,0,0,2.178-.41c-1.73-1.747-3.66-2.1-5.475-2.773-9.189-3.39-18.638-6.26-27.431-10.488C-57.42,69.652-61.439,62.593-60.2,53.777c1.392-9.9,2.473-20.024,5.481-29.48C-48.255,3.981-34.46-4.112-13.389-1.458c2.618.33,5.226.751,7.848,1.048C-3.7-.2-1.848-.132,0,0" fill="#fff"/>
      </g>
      <g id="Grupo_202" data-name="Grupo 202" transform="translate(120.377 -126.615)">
        <path id="Caminho_185" data-name="Caminho 185" d="M0,0C-9.423-6.941-31.727-4.314-41.181,3.752-51.2,12.3-55.83,34.934-49.993,46.812-45.009,56.956-24.624,67-12.68,64.258c-2.368-.82-3.7-1.356-5.067-1.741-4.235-1.188-8.558-2.108-12.718-3.512-10.83-3.654-18.74-10.269-19.068-22.5A65.148,65.148,0,0,1-47.2,17.8C-44.761,8.9-38.52,2.488-29.484.677-22.052-.813-14.213-.305-6.551-.581A60.689,60.689,0,0,1,0,0" fill="#fff"/>
      </g>
      <g id="Grupo_203" data-name="Grupo 203" transform="translate(117.367 -117.303)">
        <path id="Caminho_186" data-name="Caminho 186" d="M0,0Q-.046-1.065-.094-2.13C-10.02-3.174-19.9-3.012-29.2,1.45a21.688,21.688,0,0,0-7.683,33.136c6.826,8.515,16.6,11.976,26.963,13.975.122.024.35-.5,1.048-1.56-1.859-.655-3.58-1.119-5.179-1.849-5.567-2.543-11.5-4.563-16.531-7.929-6.844-4.582-9.469-11.636-7.886-19.884,1.552-8.078,6.59-13.27,14.417-15.158C-18.641.874-12.975.562-7.4,0A69.8,69.8,0,0,1,0,0" fill="#fff"/>
      </g>
      <g id="Grupo_204" data-name="Grupo 204" transform="translate(108.677 -75.174)">
        <path id="Caminho_187" data-name="Caminho 187" d="M0,0,.9-1.6C-3.293-3.851-7.754-5.727-11.628-8.44c-8.272-5.793-8.792-17.085-.528-22.724,4.057-2.768,9.7-3.279,14.672-4.605a23.713,23.713,0,0,1,5.057-.262c-6.707-3.925-16.59-2.019-22.4,3.359-5.012,4.639-7.332,13.04-4.6,18.837C-15.519-5.554-7.914-2.44,0,0" fill="#fff"/>
      </g>
      <g id="Grupo_205" data-name="Grupo 205" transform="translate(115.516 -107.579)">
        <path id="Caminho_188" data-name="Caminho 188" d="M0,0C-7.492,1.21-13.342,3.621-15.968,10.547c-1.637,4.317-.6,8.3,2.562,11.678,2.743,2.93,4.995,3.6,8.977,2.349-6.023-2.654-12.087-6.2-8.474-13.075C-10.521,6.967-4.863,4.156,0,0" fill="#fff"/>
      </g>
      <g id="Grupo_206" data-name="Grupo 206" transform="translate(114.709 -101.213)">
        <path id="Caminho_189" data-name="Caminho 189" d="M0,0C-5.561-.97-9.184,1.677-9.521,6.38c-.3,4.242,2.2,7.048,6.319,7.07C-9.539,4.762-7.719,4.721,0,0" fill="#fff"/>
      </g>
      <g id="Grupo_207" data-name="Grupo 207" transform="translate(94.356 -14.013)">
        <path id="Caminho_190" data-name="Caminho 190" d="M0,0-3.618,4.941A166.97,166.97,0,0,1-45.636-10.091C-75.969-26.08-91.914-57.17-87.894-92.018c1.843-15.972,6.557-30.977,15.022-44.666,11.143-18.02,26.889-28.7,48.438-30.634,19.74-1.772,38.9,1.441,58.405,5.116a32.22,32.22,0,0,1-.117,3.237,21.648,21.648,0,0,1-.739,2.7c-9.678-1.407-19.186-3.062-28.761-4.093a206.319,206.319,0,0,0-22.125-1.084c-21.622.009-38.732,9.084-49.737,27.617-17.525,29.515-21.073,60.175-3.934,91.271,9.028,16.381,23.971,25.932,40.964,32.394C-20.664-6.426-10.548-3.485,0,0" fill="#fff"/>
      </g>
      <g id="Grupo_208" data-name="Grupo 208" transform="translate(99.559 -25.421)">
        <path id="Caminho_191" data-name="Caminho 191" d="M0,0C-.824,1.776-1.449,3.121-2.236,4.816-28-1.561-51.666-11.23-69.621-31.376a44.9,44.9,0,0,1-11.561-29.9c-.224-15.211,1.246-30.191,6.677-44.588,6.826-18.1,19.737-29.711,38.079-35.077,20.943-6.127,42.062-4.1,63.547-.574-.348,1.79-.619,3.185-.8,4.133C14.08-138.25,2.2-139.4-9.7-139.853a71.31,71.31,0,0,0-32.773,6.835c-14.538,6.7-24.97,17.448-28.437,33.233a239,239,0,0,0-5.121,37.469c-.768,13.418,5.423,24.45,15.45,33.291C-45.51-15.732-28-7.122-8.643-2.1-5.942-1.4-3.219-.78,0,0" fill="#fff"/>
      </g>
      <g id="Grupo_209" data-name="Grupo 209" transform="translate(125.103 -158.138)">
        <path id="Caminho_192" data-name="Caminho 192" d="M0,0C-.552,2.84-.805,4.14-1.032,5.311c-9.158-.763-18.06-2.007-26.98-2.158-30.323-.515-49.4,14.723-57.574,45.467-6.885,25.884-3.143,37.057,18.567,52.7a122.68,122.68,0,0,0,20.526,11.806c7.15,3.278,14.849,5.358,22.741,8.115-.189.975-.456,2.349-.819,4.217-25.22-5.507-47.073-16.428-62.757-37.1A33.456,33.456,0,0,1-93.59,69.766c-.274-20.556,6.4-39.195,20.1-54.7C-63.1,3.3-49.042-1.441-33.768-1.727-22.774-1.932-11.752-.656,0,0" fill="#fff"/>
      </g>
      <g id="Grupo_210" data-name="Grupo 210" transform="translate(131.293 -188.514)">
        <path id="Caminho_193" data-name="Caminho 193" d="M0,0C-1.717-.023-3.446.076-5.15-.088-16.006-1.127-26.861-2.181-37.708-3.312-65.682-6.227-87.524,5.556-106.15,25.119c-16.134,16.947-24.122,37.169-22.605,60.465a249.757,249.757,0,0,0,5.722,40.614c7.388,31.537,28.662,49.763,59.115,58.314,2.71.761,5.428,1.493,8.132,2.274.3.087.532.406,1.734,1.371-2.357.123-3.951.582-5.332.222-20.11-5.233-38.582-13.326-51.794-30.343a80.1,80.1,0,0,1-14.277-30.353c-4.736-19.224-7.238-38.738-5.02-58.558,2.444-21.832,14.3-38.454,29.772-53.112C-79.564-4.014-54.376-9.165-26.41-5.1-17.625-3.822-8.749-3.16.085-2.216Q.043-1.107,0,0" fill="#fff"/>
      </g>
      <g id="Grupo_211" data-name="Grupo 211" transform="translate(122.442 -144.367)">
        <path id="Caminho_194" data-name="Caminho 194" d="M0,0C-4.431-.442-8.853-1.033-13.3-1.3c-27.586-1.657-41.256,6.363-52.1,31.591a83.21,83.21,0,0,0-6.325,23.22c-1.414,12.612,4.427,22.447,14.963,29.419,9.949,6.583,20.937,10.707,32.464,13.526,1.785.436,3.542.981,5.312,1.476q-.077.726-.154,1.451a14.938,14.938,0,0,1-3.528.069c-12.453-2.715-24.413-6.679-35.078-13.935C-71.983,75.825-77.5,63.671-73.464,46.9A117.267,117.267,0,0,1-63.343,20.443c10.892-20.879,29.407-26.87,51.6-24.35C-7.708-3.449-3.736-2.4.266-1.619Q.134-.809,0,0" fill="#fff"/>
      </g>
      <g id="Grupo_212" data-name="Grupo 212" transform="translate(121.239 -137.69)">
        <path id="Caminho_195" data-name="Caminho 195" d="M0,0C-1.848-.132-3.7-.2-5.541-.41c-2.622-.3-5.23-.718-7.848-1.048C-34.46-4.112-48.255,3.981-54.718,24.3c-3.008,9.456-4.089,19.58-5.481,29.48-1.24,8.816,2.779,15.875,10.493,19.585,8.793,4.228,18.242,7.1,27.431,10.488,1.815.67,3.745,1.026,5.475,2.773a6.772,6.772,0,0,1-2.178.41c-11.746-1.822-23.012-5-33.063-11.672-7.539-5-11.963-12.2-10.733-20.957,1.722-12.27,3.735-24.8,8-36.339C-48.746,1.735-36.061-5.28-18.631-4.4c6.31.318,12.58,1.425,18.868,2.172L0,0" fill="#fff"/>
      </g>
      <g id="Grupo_213" data-name="Grupo 213" transform="translate(120.377 -126.615)">
        <path id="Caminho_196" data-name="Caminho 196" d="M0,0A60.689,60.689,0,0,0-6.551-.581c-7.662.276-15.5-.232-22.933,1.258C-38.52,2.488-44.761,8.9-47.2,17.8a65.148,65.148,0,0,0-2.332,18.7c.328,12.231,8.238,18.846,19.068,22.5,4.16,1.4,8.483,2.324,12.718,3.512,1.371.385,2.7.921,5.067,1.741C-24.624,67-45.009,56.956-49.993,46.812-55.83,34.934-51.2,12.3-41.181,3.752-31.727-4.314-9.423-6.941,0,0" fill="#fff"/>
      </g>
      <g id="Grupo_214" data-name="Grupo 214" transform="translate(117.367 -117.303)">
        <path id="Caminho_197" data-name="Caminho 197" d="M0,0A69.8,69.8,0,0,0-7.4,0c-5.571.564-11.237.876-16.649,2.183C-31.88,4.069-36.918,9.261-38.47,17.339c-1.583,8.248,1.042,15.3,7.886,19.884,5.027,3.366,10.964,5.386,16.531,7.929,1.6.73,3.32,1.194,5.179,1.849-.7,1.057-.926,1.584-1.048,1.56-10.365-2-20.137-5.46-26.963-13.975A21.688,21.688,0,0,1-29.2,1.45C-19.9-3.012-10.02-3.174-.094-2.13Q-.048-1.065,0,0" fill="#fff"/>
      </g>
      <g id="Grupo_215" data-name="Grupo 215" transform="translate(108.677 -75.174)">
        <path id="Caminho_198" data-name="Caminho 198" d="M0,0C-7.914-2.44-15.519-5.554-19.424-13.835c-2.734-5.8-.414-14.2,4.6-18.837,5.809-5.378,15.692-7.284,22.4-3.359a23.713,23.713,0,0,0-5.057.262C-2.461-34.443-8.1-33.932-12.156-31.164c-8.264,5.639-7.744,16.931.528,22.724C-7.754-5.727-3.293-3.851.9-1.6L0,0" fill="#fff"/>
      </g>
      <g id="Grupo_216" data-name="Grupo 216" transform="translate(115.516 -107.579)">
        <path id="Caminho_199" data-name="Caminho 199" d="M0,0C-4.863,4.156-10.521,6.967-12.9,11.5c-3.613,6.873,2.451,10.421,8.474,13.075-3.982,1.252-6.234.581-8.977-2.349-3.163-3.381-4.2-7.361-2.562-11.678C-13.342,3.621-7.492,1.21,0,0" fill="#fff"/>
      </g>
      <g id="Grupo_217" data-name="Grupo 217" transform="translate(114.709 -101.213)">
        <path id="Caminho_200" data-name="Caminho 200" d="M0,0C-7.719,4.721-9.539,4.762-3.2,13.45c-4.115-.022-6.623-2.828-6.319-7.07C-9.184,1.677-5.561-.97,0,0" fill="#fff"/>
      </g>
    </g>
  </g>
</svg>
