<svg xmlns="http://www.w3.org/2000/svg" xmlns:xlink="http://www.w3.org/1999/xlink" width="168.372" height="756.241" viewBox="0 0 168.372 756.241">
  <defs>
    <clipPath id="clip-path">
      <path id="Caminho_1620" data-name="Caminho 1620" d="M0,0H168.372V-756.241H0Z" fill="none"/>
    </clipPath>
    <clipPath id="clip-path-2">
      <path id="Caminho_1638" data-name="Caminho 1638" d="M0-663.728H168.372v-92.513H0Z" fill="none"/>
    </clipPath>
  </defs>
  <g id="pv_pagempg1" transform="translate(0 756.241)">
    <g id="Grupo_1674" data-name="Grupo 1674" clip-path="url(#clip-path)">
      <g id="Grupo_1673" data-name="Grupo 1673" transform="translate(50.946 -39.951)">
        <path id="Caminho_1619" data-name="Caminho 1619" d="M0,0V-617.913c0-22.064-19.037-39.951-42.52-39.951h-8.426V39.951h8.426C-19.037,39.951,0,22.064,0,0" fill="#e4f4ea"/>
      </g>
    </g>
    <g id="Grupo_1692" data-name="Grupo 1692" clip-path="url(#clip-path-2)">
      <g id="Grupo_1675" data-name="Grupo 1675" transform="translate(104.753 -756.241)">
        <path id="Caminho_1621" data-name="Caminho 1621" d="M0,0C.018,2.662.063,4.905.042,7.148-.109,23.22-3.419,38.542-10.852,52.88-15.8,62.416-23.194,69.387-33.806,71.4a191.945,191.945,0,0,1-30.21,3.29C-77,75.054-87.4,69.009-95.455,58.977a57.3,57.3,0,0,1-11.7-24.224c-1.964-9.37-3.374-18.855-5.074-28.566l-3.379.177c1.428,17.437,3.952,34.3,12.8,49.435,7.75,13.258,19.315,21.066,34.752,22.871,12.28,1.436,24.246-.33,36.062-3.462A36.086,36.086,0,0,0-10.929,60.382C1.288,42.466,4.225,22.132,4.19.807L0,0" fill="#b3dd9e"/>
      </g>
      <g id="Grupo_1676" data-name="Grupo 1676" transform="translate(-3.69 -750.357)">
        <path id="Caminho_1622" data-name="Caminho 1622" d="M0,0C1.773,9.291,2.921,18.132,5.218,26.664,8.41,38.518,14.841,48.555,26.03,54.37a63.46,63.46,0,0,0,46.559,5.039,26.872,26.872,0,0,0,13.275-8.5C98.936,34.665,103.2,15.5,102.594-5.231l-3.447.181c-.616,6.689-.741,13.1-1.907,19.309a98.6,98.6,0,0,1-5.214,18.3c-7.976,19.967-15.96,25.057-37.48,24.721C28.986,56.879,13.4,44.97,7.9,21.228,6.288,14.243,5.527,7.061,4.342-.228L0,0" fill="#b3dd9e"/>
      </g>
      <g id="Grupo_1677" data-name="Grupo 1677" transform="translate(-21.284 -752.914)">
        <path id="Caminho_1623" data-name="Caminho 1623" d="M0,0-1.551.354C-.636,7.429.481,14.483,1.155,21.583,3.3,44.184,11.342,62.867,28.969,75.566c12.9,9.294,26.522,15.393,42.08,13.156,14.125-2.031,27.2-7.689,39.677-15.036A58.14,58.14,0,0,0,129.22,56.78c9.444-13.544,11.772-29.5,11.828-46.189,0-1.147-.6-2.3-1.1-4.12a8.658,8.658,0,0,0-.641,1.614c-.062,2.259-.087,4.519-.133,6.779-.518,25.394-9.368,45.46-29.905,57.214A165.681,165.681,0,0,1,82.147,84.255c-15.871,5.607-31.3,3.211-45.9-6.166C19.385,67.264,7.345,52.451,4.4,30.063Q2.686,17.04.853,4.036C.664,2.676.289,1.345,0,0" fill="#b3dd9e"/>
      </g>
      <g id="Grupo_1678" data-name="Grupo 1678" transform="translate(7.564 -750.96)">
        <path id="Caminho_1624" data-name="Caminho 1624" d="M0,0-1.314.107c.171,3.272.123,6.573.551,9.811C1.586,27.709,9.856,40.98,28.253,45.414a94.235,94.235,0,0,0,22.594,2.748c13.863-.11,22.266-6.778,27.054-19.768,3.584-9.725,4.349-19.821,4.046-30.058a12.07,12.07,0,0,0-.74-2.738l-1.161.163C80-2.763,79.921-1.287,79.927.189c.044,9.536-1.036,18.9-4.235,27.941C72.3,37.7,65.772,44.166,55.664,45.516A66.88,66.88,0,0,1,36.33,45.1C14.552,41.549,5.642,32.449,1.571,10.619.916,7.1.517,3.541,0,0" fill="#b3dd9e"/>
      </g>
      <g id="Grupo_1679" data-name="Grupo 1679" transform="translate(21.807 -752.801)">
        <path id="Caminho_1625" data-name="Caminho 1625" d="M0,0C-3.58,8.7,2.8,25.576,10.931,31.379c8.611,6.148,27.159,5.36,35.286-1.5,6.94-5.859,10.81-23.7,6.349-32.484-.179,2-.339,3.145-.372,4.289-.1,3.533.02,7.082-.266,10.6-.744,9.154-4.364,16.607-13.836,19.24a52.305,52.305,0,0,1-15.037,1.818c-7.41-.172-13.626-3.791-16.8-10.485C3.653,17.352,2.525,11.141.82,5.221A49.124,49.124,0,0,1,0,0" fill="#b3dd9e"/>
      </g>
      <g id="Grupo_1680" data-name="Grupo 1680" transform="translate(29.652 -752.264)">
        <path id="Caminho_1626" data-name="Caminho 1626" d="M0,0-1.642.488c1.115,7.942,3.163,15.616,8.449,22a17.427,17.427,0,0,0,27.329-.452C39.449,15.058,40.248,6.766,39.791-1.7c-.005-.1-.46-.175-1.42-.514-.149,1.577-.176,3.009-.435,4.4-.9,4.835-1.321,9.857-2.968,14.431C32.725,22.837,27.736,26.255,21,26.623A14.628,14.628,0,0,1,6.376,18.33,99.705,99.705,0,0,1,1.438,5.773,55.9,55.9,0,0,1,0,0" fill="#b3dd9e"/>
      </g>
      <g id="Grupo_1681" data-name="Grupo 1681" transform="translate(64.188 -753.679)">
        <path id="Caminho_1627" data-name="Caminho 1627" d="M0,0-1.419-.393c-.943,3.709-1.539,7.552-2.9,11.1-2.909,7.576-11.612,10.176-17.615,4.829-2.947-2.625-4.441-6.922-6.443-10.544A19.056,19.056,0,0,1-29.565,1.1c-1.757,5.992,1.651,13.327,6.973,16.811C-18,20.917-11,21.092-7.011,17.834-1.314,13.18-.364,6.645,0,0" fill="#b3dd9e"/>
      </g>
      <g id="Grupo_1682" data-name="Grupo 1682" transform="translate(37.593 -752.711)">
        <path id="Caminho_1628" data-name="Caminho 1628" d="M0,0C2.4,5.606,5.417,9.7,11.327,10.4a8.567,8.567,0,0,0,8.607-4.268c1.752-2.708,1.837-4.594.087-7.456-.9,5.212-2.486,10.63-8.547,9.149C7.477,6.848,4.186,2.984,0,0" fill="#b3dd9e"/>
      </g>
      <g id="Grupo_1683" data-name="Grupo 1683" transform="translate(42.714 -753.32)">
        <path id="Caminho_1629" data-name="Caminho 1629" d="M0,0C.325,4.525,3.093,6.835,6.825,6.183c3.367-.588,5.067-3.089,4.284-6.3C5.567,6.511,5.181,5.1,0,0" fill="#b3dd9e"/>
      </g>
      <g id="Grupo_1684" data-name="Grupo 1684" transform="translate(104.753 -756.241)">
        <path id="Caminho_1630" data-name="Caminho 1630" d="M0,0,4.19.807c.035,21.325-2.9,41.659-15.119,59.575A36.086,36.086,0,0,1-31.993,75.208c-11.816,3.132-23.782,4.9-36.062,3.462-15.437-1.805-27-9.613-34.752-22.871-8.849-15.138-11.373-32-12.8-49.435l3.379-.177c1.7,9.711,3.11,19.2,5.074,28.566a57.3,57.3,0,0,0,11.7,24.224C-87.4,69.009-77,75.054-64.016,74.688a191.945,191.945,0,0,0,30.21-3.29C-23.194,69.387-15.8,62.416-10.852,52.88-3.419,38.542-.109,23.22.042,7.148.063,4.905.018,2.662,0,0" fill="#b3dd9e"/>
      </g>
      <g id="Grupo_1685" data-name="Grupo 1685" transform="translate(-3.69 -750.357)">
        <path id="Caminho_1631" data-name="Caminho 1631" d="M0,0,4.342-.228C5.527,7.061,6.288,14.243,7.9,21.228,13.4,44.97,28.986,56.879,54.546,57.279c21.52.336,29.5-4.754,37.48-24.721a98.6,98.6,0,0,0,5.214-18.3c1.166-6.213,1.291-12.62,1.907-19.309l3.447-.181c.609,20.734-3.658,39.9-16.73,56.143a26.872,26.872,0,0,1-13.275,8.5A63.46,63.46,0,0,1,26.03,54.37C14.841,48.555,8.41,38.518,5.218,26.664,2.921,18.132,1.773,9.291,0,0" fill="#b3dd9e"/>
      </g>
      <g id="Grupo_1686" data-name="Grupo 1686" transform="translate(7.564 -750.96)">
        <path id="Caminho_1632" data-name="Caminho 1632" d="M0,0C.517,3.541.916,7.1,1.571,10.619,5.642,32.449,14.552,41.549,36.33,45.1a66.88,66.88,0,0,0,19.334.418C65.772,44.166,72.3,37.7,75.692,28.13c3.2-9.036,4.279-18.4,4.235-27.941-.006-1.476.077-2.952.119-4.428L81.207-4.4a12.07,12.07,0,0,1,.74,2.738c.3,10.237-.462,20.333-4.046,30.058C73.113,41.384,64.71,48.052,50.847,48.162a94.235,94.235,0,0,1-22.594-2.748C9.856,40.98,1.586,27.709-.763,9.918c-.428-3.238-.38-6.539-.551-9.811L0,0" fill="#b3dd9e"/>
      </g>
      <g id="Grupo_1687" data-name="Grupo 1687" transform="translate(21.807 -752.801)">
        <path id="Caminho_1633" data-name="Caminho 1633" d="M0,0A49.124,49.124,0,0,0,.82,5.221c1.705,5.92,2.833,12.131,5.439,17.635,3.17,6.694,9.386,10.313,16.8,10.485a52.305,52.305,0,0,0,15.037-1.818c9.472-2.633,13.092-10.086,13.836-19.24.286-3.517.163-7.066.266-10.6.033-1.144.193-2.284.372-4.289,4.461,8.779.591,26.625-6.349,32.484-8.127,6.86-26.675,7.648-35.286,1.5C2.8,25.576-3.58,8.7,0,0" fill="#b3dd9e"/>
      </g>
      <g id="Grupo_1688" data-name="Grupo 1688" transform="translate(29.652 -752.264)">
        <path id="Caminho_1634" data-name="Caminho 1634" d="M0,0A55.9,55.9,0,0,0,1.438,5.773,99.705,99.705,0,0,0,6.376,18.33,14.628,14.628,0,0,0,21,26.623c6.739-.368,11.728-3.786,13.971-10.013,1.647-4.574,2.067-9.6,2.968-14.431.259-1.388.286-2.82.435-4.4.96.339,1.415.414,1.42.514.457,8.47-.342,16.762-5.655,23.739a17.427,17.427,0,0,1-27.329.452C1.521,16.1-.527,8.43-1.642.488L0,0" fill="#b3dd9e"/>
      </g>
      <g id="Grupo_1689" data-name="Grupo 1689" transform="translate(64.188 -753.679)">
        <path id="Caminho_1635" data-name="Caminho 1635" d="M0,0C-.364,6.645-1.314,13.18-7.011,17.834-11,21.092-18,20.917-22.592,17.911c-5.322-3.484-8.73-10.819-6.973-16.811a19.056,19.056,0,0,0,1.187,3.892c2,3.622,3.5,7.919,6.443,10.544,6,5.347,14.706,2.747,17.615-4.829,1.362-3.548,1.958-7.391,2.9-11.1L0,0" fill="#b3dd9e"/>
      </g>
      <g id="Grupo_1690" data-name="Grupo 1690" transform="translate(37.593 -752.711)">
        <path id="Caminho_1636" data-name="Caminho 1636" d="M0,0C4.186,2.984,7.477,6.848,11.474,7.825c6.061,1.481,7.649-3.937,8.547-9.149,1.75,2.862,1.665,4.748-.087,7.456A8.567,8.567,0,0,1,11.327,10.4C5.417,9.7,2.4,5.606,0,0" fill="#b3dd9e"/>
      </g>
      <g id="Grupo_1691" data-name="Grupo 1691" transform="translate(42.714 -753.32)">
        <path id="Caminho_1637" data-name="Caminho 1637" d="M0,0C5.181,5.1,5.567,6.511,11.109-.118c.783,3.212-.917,5.713-4.284,6.3C3.093,6.835.325,4.525,0,0" fill="#b3dd9e"/>
      </g>
    </g>
    <g id="Grupo_1693" data-name="Grupo 1693" transform="translate(99.87 -756.241)">
      <path id="Caminho_1639" data-name="Caminho 1639" d="M0,0-37.218,20.309l.806,4.672L-2.85,7.848l-33.8,26.959,3.754,5.867,34.5-23.437-11.97,26.488,7.042,5.868L14.753,13.684l8.448,35.2,7.252-4.063L22.5,15.091,41.755,45.367,46.5,43.022,30.089,9.576l35.5,22L68.5,24.512,29.439,0Z" fill="#e13f44"/>
    </g>
  </g>
</svg>
