<svg xmlns="http://www.w3.org/2000/svg" xmlns:xlink="http://www.w3.org/1999/xlink" width="10.248" height="16.864" viewBox="0 0 10.248 16.864">
  <defs>
    <clipPath id="clip-path">
      <path id="Caminho_725" data-name="Caminho 725" d="M0,0H10.248V-16.864H0Z" fill="none"/>
    </clipPath>
  </defs>
  <g id="pv_p1sec2tit2" transform="translate(0 16.864)">
    <g id="Grupo_752" data-name="Grupo 752" clip-path="url(#clip-path)">
      <g id="Grupo_740" data-name="Grupo 740" transform="translate(0.716 -0.547)">
        <path id="Caminho_713" data-name="Caminho 713" d="M0,0C.012.135.023.271.035.406,1.181.321,2.337.3,3.473.139,6.609-.308,8.626-2,9.136-5.117A31.908,31.908,0,0,0,9.3-11.869a3.847,3.847,0,0,0-2.639-3.363,14.667,14.667,0,0,0-6.3-.935,1.234,1.234,0,0,0-.374.149,2.308,2.308,0,0,0,1.072.3c1.755.286,3.538.47,5.251.919a3.251,3.251,0,0,1,2.549,3.127,32.565,32.565,0,0,1,.044,5.443C8.461-2.381,6.283-.461,2.437-.2,1.958-.172,1.479-.157,1-.119.667-.092.334-.041,0,0" fill="#e13f44"/>
      </g>
      <g id="Grupo_741" data-name="Grupo 741" transform="translate(0.716 -0.547)">
        <path id="Caminho_714" data-name="Caminho 714" d="M0,0C.012.135.023.271.035.406,1.181.321,2.337.3,3.473.139,6.609-.308,8.626-2,9.136-5.117A31.908,31.908,0,0,0,9.3-11.869a3.847,3.847,0,0,0-2.639-3.363,14.667,14.667,0,0,0-6.3-.935,1.234,1.234,0,0,0-.374.149,2.308,2.308,0,0,0,1.072.3c1.755.286,3.538.47,5.251.919a3.251,3.251,0,0,1,2.549,3.127,32.565,32.565,0,0,1,.044,5.443C8.461-2.381,6.283-.461,2.437-.2,1.958-.172,1.479-.157,1-.119.667-.092.334-.041,0,0Z" fill="none" stroke="#e13f44" stroke-width="0.264"/>
      </g>
      <g id="Grupo_742" data-name="Grupo 742" transform="translate(0.486 -2.551)">
        <path id="Caminho_715" data-name="Caminho 715" d="M0,0C1.92.911,5.8-.33,7.208-2.1c1.489-1.87,1.531-6.064.079-7.979C6.048-11.709,2.067-12.793.034-11.89c.45.064.705.114.963.135.8.065,1.6.079,2.388.185,2.057.276,3.695,1.181,4.177,3.349A11.821,11.821,0,0,1,7.8-4.807,4.126,4.126,0,0,1,5.231-1.142,26.175,26.175,0,0,1,1.188-.123,11.328,11.328,0,0,1,0,0" fill="#e13f44"/>
      </g>
      <g id="Grupo_743" data-name="Grupo 743" transform="translate(0.486 -2.551)">
        <path id="Caminho_716" data-name="Caminho 716" d="M0,0C1.92.911,5.8-.33,7.208-2.1c1.489-1.87,1.531-6.064.079-7.979C6.048-11.709,2.067-12.793.034-11.89c.45.064.705.114.963.135.8.065,1.6.079,2.388.185,2.057.276,3.695,1.181,4.177,3.349A11.821,11.821,0,0,1,7.8-4.807,4.126,4.126,0,0,1,5.231-1.142,26.175,26.175,0,0,1,1.188-.123,11.328,11.328,0,0,1,0,0Z" fill="none" stroke="#e13f44" stroke-width="0.264"/>
      </g>
      <g id="Grupo_744" data-name="Grupo 744" transform="translate(1.06 -12.892)">
        <path id="Caminho_717" data-name="Caminho 717" d="M0,0-.145.366a35.046,35.046,0,0,1,3.4.911c2.3.865,2.97,3.178,1.212,4.676A12.822,12.822,0,0,1,1.088,7.494,6.834,6.834,0,0,1-.14,7.751,5.542,5.542,0,0,0,5.193,6.157a3.219,3.219,0,0,0,.23-4.078C4.07.524,2.057.186,0,0" fill="#e13f44"/>
      </g>
      <g id="Grupo_745" data-name="Grupo 745" transform="translate(1.06 -12.892)">
        <path id="Caminho_718" data-name="Caminho 718" d="M0,0-.145.366a35.046,35.046,0,0,1,3.4.911c2.3.865,2.97,3.178,1.212,4.676A12.822,12.822,0,0,1,1.088,7.494,6.834,6.834,0,0,1-.14,7.751,5.542,5.542,0,0,0,5.193,6.157a3.219,3.219,0,0,0,.23-4.078C4.07.524,2.057.186,0,0Z" fill="none" stroke="#e13f44" stroke-width="0.264"/>
      </g>
      <g id="Grupo_746" data-name="Grupo 746" transform="translate(0.882 -6.399)">
        <path id="Caminho_719" data-name="Caminho 719" d="M0,0C1.5-.476,2.618-1.11,2.883-2.438a1.841,1.841,0,0,0-1-2A1.755,1.755,0,0,0-.072-4.542c1.354.265,2.753.688,2.282,2.041C1.9-1.609.84-.911,0,0" fill="#e13f44"/>
      </g>
      <g id="Grupo_747" data-name="Grupo 747" transform="translate(0.882 -6.399)">
        <path id="Caminho_720" data-name="Caminho 720" d="M0,0C1.5-.476,2.618-1.11,2.883-2.438a1.841,1.841,0,0,0-1-2A1.755,1.755,0,0,0-.072-4.542c1.354.265,2.753.688,2.282,2.041C1.9-1.609.84-.911,0,0Z" fill="none" stroke="#e13f44" stroke-width="0.264"/>
      </g>
      <g id="Grupo_748" data-name="Grupo 748" transform="translate(0.716 -0.547)">
        <path id="Caminho_721" data-name="Caminho 721" d="M0,0C.334-.041.667-.092,1-.119c.477-.038.956-.053,1.435-.085C6.283-.461,8.461-2.381,8.909-6.225a32.565,32.565,0,0,0-.044-5.443A3.251,3.251,0,0,0,6.316-14.8c-1.713-.449-3.5-.633-5.251-.919a2.308,2.308,0,0,1-1.072-.3,1.234,1.234,0,0,1,.374-.149,14.667,14.667,0,0,1,6.3.935A3.847,3.847,0,0,1,9.3-11.869a31.908,31.908,0,0,1-.166,6.752C8.626-2,6.609-.308,3.473.139,2.337.3,1.181.321.035.406.023.271.012.135,0,0" fill="#e13f44"/>
      </g>
      <g id="Grupo_749" data-name="Grupo 749" transform="translate(0.716 -0.547)">
        <path id="Caminho_722" data-name="Caminho 722" d="M0,0C.334-.041.667-.092,1-.119c.477-.038.956-.053,1.435-.085C6.283-.461,8.461-2.381,8.909-6.225a32.565,32.565,0,0,0-.044-5.443A3.251,3.251,0,0,0,6.316-14.8c-1.713-.449-3.5-.633-5.251-.919a2.308,2.308,0,0,1-1.072-.3,1.234,1.234,0,0,1,.374-.149,14.667,14.667,0,0,1,6.3.935A3.847,3.847,0,0,1,9.3-11.869a31.908,31.908,0,0,1-.166,6.752C8.626-2,6.609-.308,3.473.139,2.337.3,1.181.321.035.406.023.271.012.135,0,0Z" fill="none" stroke="#e13f44" stroke-width="0.264"/>
      </g>
      <g id="Grupo_750" data-name="Grupo 750" transform="translate(0.486 -2.551)">
        <path id="Caminho_723" data-name="Caminho 723" d="M0,0A11.328,11.328,0,0,0,1.188-.123,26.175,26.175,0,0,0,5.231-1.142,4.126,4.126,0,0,0,7.8-4.807a11.821,11.821,0,0,0-.233-3.414c-.482-2.168-2.12-3.073-4.177-3.349-.79-.106-1.592-.12-2.388-.185-.258-.021-.513-.071-.963-.135,2.033-.9,6.014.181,7.253,1.816C8.739-8.159,8.7-3.965,7.208-2.1,5.8-.33,1.92.911,0,0" fill="#e13f44"/>
      </g>
      <g id="Grupo_751" data-name="Grupo 751" transform="translate(0.486 -2.551)">
        <path id="Caminho_724" data-name="Caminho 724" d="M0,0A11.328,11.328,0,0,0,1.188-.123,26.175,26.175,0,0,0,5.231-1.142,4.126,4.126,0,0,0,7.8-4.807a11.821,11.821,0,0,0-.233-3.414c-.482-2.168-2.12-3.073-4.177-3.349-.79-.106-1.592-.12-2.388-.185-.258-.021-.513-.071-.963-.135,2.033-.9,6.014.181,7.253,1.816C8.739-8.159,8.7-3.965,7.208-2.1,5.8-.33,1.92.911,0,0Z" fill="none" stroke="#e13f44" stroke-width="0.264"/>
      </g>
    </g>
  </g>
</svg>
