<svg xmlns="http://www.w3.org/2000/svg" xmlns:xlink="http://www.w3.org/1999/xlink" width="83.551" height="41.954" viewBox="0 0 83.551 41.954">
  <defs>
    <clipPath id="clip-path">
      <path id="Caminho_1603" data-name="Caminho 1603" d="M0-7.88H63.162V-41.117H0Z" fill="none"/>
    </clipPath>
  </defs>
  <g id="pv_p0tit1mp" transform="translate(0 41.953)">
    <g id="Grupo_1657" data-name="Grupo 1657" clip-path="url(#clip-path)">
      <g id="Grupo_1656" data-name="Grupo 1656" transform="translate(1.445 3.892)">
        <path id="Caminho_1602" data-name="Caminho 1602" d="M0,0C.533-.508,1.225-.865,1.259-1.277c.047-.557-.411-1.157-.844-2.2C-.5-2.5-.9-2.078-1.418-1.524L0,0M2.1,2.848l.467-.438c-.2-.622-.407-1.245-.788-2.409C.967.917.639,1.288.025,1.98L2.1,2.848m1.439-2L4.449.531q.1-1.022.2-2.042L2.586-1.717Q2.295-1.088,2-.46L3.541.844M3.771,3.3,5.7,2.92c0-.516.147-1.117-.028-1.232a11.028,11.028,0,0,0-2.1-.81c.092,1.123.136,1.668.2,2.423M7.79,1.16c.2.042.773-.539.735-.762a7.138,7.138,0,0,0-.807-1.709L5.9.255a9.421,9.421,0,0,0,1.894.9m2.391-7.7q.057-.395.113-.789L8.845-8.4l-.532.268c.074.559-.04,1.316.278,1.616.276.261,1.041,0,1.59-.024M9.766-2.8a7.072,7.072,0,0,0,1.883.418c.166-.269.33-.536.5-.8a5.391,5.391,0,0,0-1.2-1.466c-.244-.147-1.025.252-1.293.607-.2.263-.106,1.135.109,1.245m.657,4.175c.367.154.96-.233,1.455-.384.015-.211.031-.423.047-.633l-1.76-.75L9.742.062c.218.462.331,1.172.681,1.318m3.8-.472A7.183,7.183,0,0,0,15.505-.966a1.427,1.427,0,0,0-.792-1.177,8.085,8.085,0,0,0-2.407.495C13.137-.536,13.543.006,14.218.908m3.2-7.747c.506-.039.97-.642,1.739-1.211L17.468-9.463c-.544.51-.994.932-1.727,1.617.717.459,1.222,1.041,1.68,1.007m1.506,8.51a6.315,6.315,0,0,0,.841-1.9c.02-.29-.771-.948-1.072-.881-.569.125-1.051.654-1.9,1.248.967.693,1.38.99,2.136,1.533m-.734-7.39a8.023,8.023,0,0,0-.917,2.065c-.025.273.63.89.9.85a6.721,6.721,0,0,0,1.8-.918c-.617-.692-.991-1.111-1.783-2m3.529.789c.555-.563,1.41-1.057,1.558-1.712.1-.438-.807-1.1-1.623-2.112-.712,1.067-1.486,1.719-1.408,2.245.088.586.949,1.058,1.473,1.579M21.511-.586,24.338-1.3l-1.83-1.993c-.579.735-1.008,1.277-1.437,1.82.146.3.294.591.44.887m.45,3.534,1.7-.123c-.018-.3-.036-.6-.055-.9q-.854.051-1.707.1.029.461.058.921M24.994-8.02l1.027-.028a7.18,7.18,0,0,0,.729-2.158c.007-.311-.88-.9-1.343-.888s-1.3.668-1.272.985a7.016,7.016,0,0,0,.859,2.089m2.824,2.844c-.924-1.548-1.761-1.517-2.69-.235,1.067,1.886,1.439,1.92,2.69.235M26.2.934A8.746,8.746,0,0,0,28.37-.189L26.2-2.474A10,10,0,0,0,25.148-.035C25.114.268,25.9.99,26.2.934M28.668-9.851l2.171-.168c-.016-.365-.033-.73-.049-1.1H28.614Zm2.05,12.445c.539-.159.9-.908,1.342-1.405C31.58.812,31.1.142,30.618.14s-.954.673-1.744,1.3c.854.568,1.469,1.266,1.844,1.155m-1.326-5.28,1.444,1.76c.207-1.01.513-1.624.336-1.843-.275-.337-.882-.4-1.348-.584-.143.222-.288.444-.432.667M32.615-7.28l-2.81-.537-.46.592c.378.684.756,1.368,1.339,2.421.723-.926,1.1-1.413,1.931-2.476m2.647,3.246-2.711-.592c.789,2.327.967,2.364,2.711.592M33.4,1h2.16L35.747.38c-.405-.336-.794-.913-1.219-.94s-.889.492-1.336.773c.068.262.136.526.2.788m4.273-3.313,2-2L37.509-6.182,35.767-4.066l1.9,1.754M38.778.813l.535-.181c.033-.447.25-1.031.047-1.3-.22-.3-.83-.3-1.271-.433q-.222.314-.443.628Q38.21.168,38.778.813M39.4-12l-2.318,1.339-.135.761a7.032,7.032,0,0,0,1.87,1,1.433,1.433,0,0,0,1.126-.87A7.309,7.309,0,0,0,39.4-12m.871,6.226,2.243-.42-1.8-1.581L40-7.421q.135.82.271,1.644m2.263,4.085q.108-.636.215-1.272-1.058-.118-2.114-.24-.087.548-.175,1.093Zm-.766,3.023.877-.145C42.561.829,42.48.47,42.4.112L41.661.25c.035.361.071.721.106,1.081m2.277-9.48,1.27-1.58q-.125-.341-.248-.683l-2.165.163q-.062.334-.121.669l1.264,1.431M44.878-4c.418-.5,1.093-.969,1.169-1.519.055-.4-.682-.908-1.313-1.665C44.181-6.375,43.5-5.8,43.59-5.411c.124.54.831.948,1.288,1.413M45.316.18c.4-.284.807-.425.884-.671.1-.331.052-1-.113-1.068a5.111,5.111,0,0,0-1.509-.14l-.233.636c.3.389.608.777.971,1.243M47.76-11.254q.1-.505.206-1.013l-1.739-.448c-.077.4-.152.789-.228,1.185l1.761.276m.8,4.385a2.262,2.262,0,0,0,1.43-1.457c.09-.4-.726-1.007-1.474-1.939-.66.993-1.362,1.591-1.345,2.166.014.457,1,1.316,1.389,1.23M48.2-2.348l.729.087,1.086-1.983-.564-.506-1.913.088c.265.923.464,1.619.662,2.314m.151,3.26,2.3.21c-.552-.94-.8-1.745-1.08-1.753-.479-.017-.975.46-1.463.731q.121.405.245.812M51.289-9.909c.745-1.146,1.51-1.808,1.429-2.34a2.233,2.233,0,0,0-1.543-1.384c-.36-.071-1.285.87-1.294,1.368-.011.6.68,1.213,1.408,2.356m2.173,8.031c.661-1.1,1.336-1.729,1.295-2.306-.034-.48-.977-1.311-1.4-1.244a2.09,2.09,0,0,0-1.467,1.382c-.036.536.772,1.129,1.571,2.168M52.2.317a6.788,6.788,0,0,0,1.39,1.843A13.327,13.327,0,0,0,54.923.942a7.986,7.986,0,0,0,.6-1.368,7.731,7.731,0,0,0-2.352-.508C52.78-.894,52.1,0,52.2.317m4.524-12.075C55.828-12.4,55.4-12.7,54.981-13l-.538.288q.18.75.361,1.5l1.918-.546M57.8-.5c.455-.741,1-1.255.9-1.544-.151-.432-.755-.706-1.167-1.047-.292.394-.811.788-.813,1.184,0,.371.543.745,1.083,1.407m.327-4.243c.106-1.1.165-1.716.241-2.5-2,.706-2.014.794-.241,2.5M52.144-8.755l1.115,1.937.859-.117q.306-1.19.615-2.378l-.676-.536L52.144-8.755m2.566-7.937c-1.952.349-2.095,1.158-1.039,2.685.543-.341,1.3-.557,1.465-.995s-.256-1.1-.426-1.69m-2.929-4.877c-.715.042-1.381.914-2.069,1.427.16.406.318.813.478,1.219l3.181-.268q.138-.48.274-.96c-.623-.51-1.273-1.454-1.864-1.418m.6-4.59c-.283-.177-.927.223-1.409.366,0,.255,0,.51,0,.765l1.736.7.435-.413c-.24-.493-.364-1.17-.757-1.416M48.741-29.7c-.452-.048-1.4.694-1.394,1.069a6.736,6.736,0,0,0,.858,2.207c.281.012.563.022.843.032a6.85,6.85,0,0,0,1.188-2.142c.053-.331-.929-1.106-1.495-1.166m-3.554,15.7,2.339-1.346-1.917-1.778c-.16,1.183-.247,1.828-.422,3.124m3.535-2.167,1.468,1.213.8-.224q-.046-1.066-.095-2.131l-.669-.187-1.5,1.329m.914-6.427a6.207,6.207,0,0,0-.445-1.951l-.858-.093a6.738,6.738,0,0,0-.942,1.815c-.052.262.636.912,1.033.953s1.186-.428,1.212-.724m-4.774,1.246v3.026a8.238,8.238,0,0,0,2.387-.58,1.657,1.657,0,0,0-.017-1.575,8.207,8.207,0,0,0-2.37-.871m1.422-10.822q-.4.543-.8,1.086l.562.5L47.02-31.6l-.736-.572m-3-2.02-.006.99h2.158c0-.33,0-.66,0-.99Zm-1.439,4.622q.159.476.316.952l2.646-.191c.05-.318.1-.635.147-.953-.567-.3-1.139-.829-1.7-.817-.477.011-.94.649-1.41,1.009m-2.118-6.5c.935,1.817,1.75,1.4,2.718.277-.72-1.712-1.572-1.333-2.718-.277m.358-3.139-.549.444q.348.387.7.772.2-.141.4-.281l-.549-.935M37.815-29.135c-.036.262-.071.523-.106.785l2.1,1.189.681-.619c-.279-.617-.408-1.475-.887-1.772-.367-.229-1.173.252-1.784.417m.725-9.8-2.717-.542c.461,1.248.711,1.92.959,2.592l.87.356q.733-.657,1.469-1.312-.291-.548-.581-1.094m-4.822,9.984-.248.729c.6.41,1.177,1.091,1.795,1.128.354.021.771-1,1.159-1.558l-.626-.714-2.08.415m1.517-8.213-1.841-.564c-.205.2-.41.41-.616.614.3.526.569,1.453.913,1.484.542.047,1.138-.51,1.712-.811-.057-.241-.112-.482-.168-.723m-.478,6.373c.612-2.268-.109-2.5-2.1-1.444l2.1,1.444M30.978-16.506q-.071.774-.14,1.549l.976.124q.122-.772.242-1.546l-1.078-.127m2.9-7.214c-.334-.471-.6-.967-.681-.938a8.127,8.127,0,0,0-1.272.7q.237.375.475.751l1.478-.508m-1.083,5.283c.336-.637.973-1.307.9-1.9-.05-.432-1.026-.757-1.589-1.13l-.658.492q.261,1.183.521,2.366l.821.169M35.2-12.6a8.673,8.673,0,0,0-1.8-1.019c-.225-.062-.86.433-.858.671a9.968,9.968,0,0,0,.592,2.186L35.2-12.6M34.134-9.462c-.194.2-.389.407-.584.611q.365,1.083.728,2.168l.774.164q.548-.91,1.1-1.822L34.134-9.462M38.686-15.5l-2.851.683c.841,1.013,1.193,1.437,1.86,2.242.622-.922,1.064-1.58,1.506-2.236q-.257-.345-.515-.689M37.55-31.942c-.021.26-.043.52-.064.78l1.371.107q.033-.382.064-.765l-1.371-.122m.9-1.969q-.168-1.054-.334-2.107l-.949-.061q-.564.888-1.129,1.775l.307.671,2.1-.278m-2.2,9.5c.176-.366.322-.747.475-1.123l-.806-.186c-.092.393-.185.785-.281,1.192a3.21,3.21,0,0,0,.612.117m-2.094,7.27,1.018,1.009.682-.623-.876-1.122-.824.736m2.058-3.22q.345-.039.69-.081c.118-.651.545-1.645.286-1.879-.466-.422-1.345-.387-2.05-.543l-.387.906,1.461,1.6m1.632.648-.664,1.055,1.5,1.073c.256-.406.51-.813.766-1.22l-1.6-.908m2.542-4.4q.1-.756.2-1.513l-1.492-.093-.216.511q.493.606.988,1.213l.524-.118m1.041-7.09c.238-.49.544-.942.476-1.007a8.827,8.827,0,0,0-1.232-.88q-.228.413-.454.826l1.21,1.061m3.564,7.816,1.565-2.132-2.138-1.718-1.49,2.152,2.063,1.7m-3.4,3.9,1.886-2.281a10.666,10.666,0,0,0-2.263-.889c-.269-.037-.955.685-.892.892a12.768,12.768,0,0,0,1.269,2.278m-.5,7,.873.56c.46-.371,1.131-.661,1.31-1.136.141-.373-.327-.975-.525-1.476l-.773-.106q-.441,1.08-.885,2.158m1.678-3.568.62-.523c-.251-.593-.377-1.551-.783-1.689-.514-.176-1.256.313-1.9.517,0,.278,0,.558.007.837q1.027.429,2.056.858M31.389-28.09c-.318.349-.905.712-.887,1.044.024.449.51.876.8,1.311l.7-.118.252-1.93Zm-1.284-4.6c-.314-.09-1.284.82-1.3,1.3-.018.575.665,1.172,1.351,2.232.737-1.036,1.5-1.662,1.4-2.08a2.371,2.371,0,0,0-1.456-1.45m-1.3-3.357-.434.966,1.6,1.47c.511-1.222.746-1.782,1.193-2.852l-2.356.416m-1.453,6.583a8.705,8.705,0,0,0-2.311-.4,9.577,9.577,0,0,0,1.235,2.044c.15.136.943-.139,1.132-.429s.144-1.108-.056-1.215m-2.565-2.462,1.536.133q-.073-.868-.148-1.736l-.922-.084-.466,1.687m2.362-5.223-2-.361-.384.632c.421.434.78,1.077,1.286,1.228.309.092.844-.569,1.277-.892-.06-.2-.121-.4-.181-.607m-3.27,10.732c-.19.317-.382.634-.573.951l1.479.669.411-.8-1.317-.825m-.737-2.953-.992.864.429.6q.58-.38,1.157-.761l-.594-.7M20.5-32.191c1.064,1.424,1.927,1.207,2.94-.182-1.3-1.6-2.123-1.188-2.94.182m2.221-4.422a7.077,7.077,0,0,0-2.056-.348c.195,1.076.286,1.573.439,2.413a6.344,6.344,0,0,0,1.754-.845,1.272,1.272,0,0,0-.137-1.22m-4.567,9.638c.721.8,1.1,1.22,1.828,2.027.454-1.006.751-1.663,1.047-2.321-.166-.183-.332-.367-.5-.55l-2.376.844M17.9-38.054l1.354,1.569.96-2.174-2.314.6m.686,8.947.71.082.807-1.564c-.808.1-1.435.024-1.533.219-.169.333-.007.833.016,1.263m1.387-6.135-2.661-.271c.439.963.661,1.448,1.131,2.48.639-.922.944-1.364,1.53-2.209M16.934-24.586c-.444.06-.78.918-1.173,1.433,1.4,1.316,2.326,1.442,3.3-.669-.825-.327-1.519-.847-2.131-.764m-.166-12.668-1.415.3c.072.3.143.592.215.888l1.4-.409-.2-.782m-2.543,5.171c.184.563,1.141.873,1.763,1.294l.778-.541q-.375-1.308-.751-2.613l-.931-.07c-.32.654-1.021,1.433-.859,1.93m-.185,4.142c.011.6.691,1.19,1.08,1.784l.765-.05c.311-.638.96-1.352.84-1.9-.125-.563-.994-.964-1.538-1.435-.411.534-1.155,1.072-1.147,1.6m-.611,2.512-1.913.442c-.02.245-.039.49-.059.734l1.682,1.22.713-.35-.423-2.046m-2.7-6.831c-.022.208-.045.415-.067.623l1.368,1.174c.335-.729.571-1.239,1.06-2.3l-2.361.505m.481,5.217a8.724,8.724,0,0,0,1.858-.925c-.718-.684-1.123-1.067-1.842-1.75a8.694,8.694,0,0,0-.8,1.919c-.032.227.568.8.782.756M9.1-22.827c-.511.275-.82.924-1.546,1.829,1.286.356,1.882.519,2.954.815a6.743,6.743,0,0,0-.063-2.208A1.422,1.422,0,0,0,9.1-22.827m.042-3.7-.685-.206L7.236-25.023l.4.565c.558-.125,1.352-.076,1.607-.423s-.047-1.084-.1-1.651m-3.3,6.182c-.383,1.021-.608,1.618-.963,2.565l2.268.971,1.331-1.9L5.838-20.35m-.295-4c-.592-.073-1.26.472-1.894.751l-.026.792A7.614,7.614,0,0,0,5.66-21.768c.278.053,1.075-.837,1.016-1.2C6.589-23.5,6-24.3,5.543-24.355M3.175-13.038c-.472-.052-1.019.593-1.871,1.154.783.629,1.282,1.337,1.726,1.3a1.789,1.789,0,0,0,1.283-1.192c.048-.4-.686-1.215-1.138-1.265M2.638-16.9a6.907,6.907,0,0,0-2.445.651c1.167,2.238,2.2,2.3,3.747.787-.449-.529-.818-1.365-1.3-1.438m2,11.475A7.167,7.167,0,0,0,2.29-6.076c-.381.022-1.017.991-.971,1.478s.888,1.322,1.232,1.253a7.741,7.741,0,0,0,2.179-1.2c-.03-.292-.061-.583-.091-.874M6.658-8.085a1.785,1.785,0,0,0-.875-1.5A6.724,6.724,0,0,0,3.428-8.9c.481.953.744,1.474,1.324,2.626C5.62-7.051,6.387-7.46,6.658-8.085M8.027-4.152c-.734-.066-1.6-.393-2.158-.11-.407.207-.406,1.217-.586,1.87l.694.514,2.24-1.188-.19-1.086M7.022-14.134q-.337-.84-.676-1.681L5.285-15.3l.858,1.587.879-.425m2.252-1.654-.941.026c.031.419.063.837.094,1.235a3.359,3.359,0,0,0,.618,0c.094-.415.158-.837.229-1.257m-.042,3.047a5.911,5.911,0,0,0-2.343.55l-.132,1.153a15.025,15.025,0,0,0,2.6,1.2c.219.06,1.03-.866.969-1.239-.1-.626-.613-1.567-1.091-1.66m2.972-5.07L9.915-19.527c-.084,1.243-.132,1.944-.18,2.646l.575.286c.5-.319.992-.638,1.894-1.216m-.173,4.625.647-.256c-.1-.613-.2-1.226-.3-1.838l-1.746.395q.016.408.035.816Zm2.485,5.317c-1.187-2.314-1.783-2.438-3.359-.84.231.608.44,1.159.821,2.159l2.538-1.319m.808,2.728c-.112-.449-1.037-.694-1.605-1.029l-.637.54.557,2.059c.272.048.543.1.815.141.323-.578.988-1.242.87-1.711m-.685-15.9a6.99,6.99,0,0,0-1.86-.833q-.321.377-.643.75a5.434,5.434,0,0,0,.872,1.674,1.435,1.435,0,0,0,1.371-.218c.289-.288.45-1.214.26-1.373m-.984,4.285c.991,1.7,1.388,1.742,2.746.18-1.133-1.91-1.684-1.924-2.746-.18m1.475,3.3c-.256-.033-.9.755-.857,1.1.06.483.569,1.242.947,1.28a5.6,5.6,0,0,0,1.994-.554c.015-.345.032-.689.048-1.034a9.08,9.08,0,0,0-2.132-.8M18.3-18.382a1.4,1.4,0,0,0,.935-1.013,1.373,1.373,0,0,0-1-.932c-.373-.023-.78.51-1.5,1.037.749.465,1.2.966,1.559.908m1.5,4.612c.429.062,1.445-.988,1.423-1.5-.028-.638-.864-1.24-1.707-2.309-.7,1.1-1.5,1.829-1.375,2.3A2.464,2.464,0,0,0,19.8-13.77m1.083,1.616-.764.047-.56,2.2.885.429c.445-.392,1.166-.731,1.252-1.19.08-.428-.516-.982-.813-1.481m2.238-10.587c-.465-.33-.954-.945-1.391-.91-.452.036-.853.7-1.277,1.095.093.25.187.5.281.751l2.218-.21c.057-.243.113-.484.169-.726M24.772-18.5,22.886-20.28c-.7.806-1.083,1.242-1.422,1.63,1.021,2.086,1.877,2.161,3.308.151m.147,3.515-1.212-.058q-.1.862-.206,1.726.708.03,1.418.064Zm2.143-6.447q-.039-.594-.08-1.188H24.908c.028.488.058.976.086,1.465.69-.093,1.378-.186,2.068-.277m1.6-4.475c.049-.23-.575-.6-1.313-1.313-.13,1.118-.191,1.631-.251,2.143l.675.347c.318-.388.8-.742.889-1.177m1.409,2.4-1.055-.145q-.134.93-.266,1.861l1.063.146q.129-.932.258-1.862M27.35-13.955q.338.363.674.723L29.3-14.418l-.673-.721q-.639.591-1.276,1.184m.328-3.206a8.525,8.525,0,0,0,2.387-1.012c-.817-.891-1.248-1.363-2.026-2.213a8.805,8.805,0,0,0-1.449,2.074c-.086.262.729,1.176,1.088,1.151M1-9.776C.536-9.793.044-9.142-.646-8.631l2,1.875,1.78-1.757C2.1-9.165,1.562-9.756,1-9.776m.135,4.662-2.422-2c.117-1.158.24-2.373.36-3.559L1.363-11.5-.519-14.354C.139-16.207.967-18.542,1.8-20.881l.012,0c-.083.545-.169,1.1-.3,1.932l2.309.192c.4-2.2.1-2.48-2.013-2.124,0-.02.006-.041.01-.061l-.056.064c.629-1.641,1.257-3.282,1.8-4.693.077-.2.153-.4.226-.591a16.138,16.138,0,0,0,2.635-.05c.2-.037.29-.677.435-1.052L5.594-28.721l.991-1.189L8.4-28.46c1.924-1.389,1.245-2.49-.224-3.556l3.009-2.721,2.887,1.03-.886-2.779,7.306-3.422,1.793,2.362,1.082-2.737,1.059-.165,1.048,2.139,1.561-2.484h1.56c-.421,1.61,0,2.627,2.123,2.844.366-.931.754-1.916,1.2-3.047l1.409.064.769,1.651,1.945-1.665,6.6,2.038c.376.892.6,1.433.844,2l2.3-.149c.2.785.355,1.4.462,1.823,1.037.305,1.9.56,2.4.705-.106,1.314-.175,2.167-.266,3.307L51.47-31.8c.088.908.171,1.776.293,3.052l2.094.633c.56,1.1,1.174,2.3,1.772,3.472l-1.7,1.594c.389.671.737,1.27,1.048,1.808h2.051c.135.559.254,1.052.284,1.175l-1.972,1.4.276.673h2.312c.15.63.291,1.223.424,1.784L56.611-14.6l2.716,3.033-2.484,1.53c-.025.238-.051.475-.077.713l2.9,1.5c-.2.961-.45,2.194-.789,3.848.028.038.383.5.63.829V.037L56.8,1.489l1.775,2.073-2,.508c-.59-.606-1.064-1.092-1.288-1.324L52.6,4.52,51.125,2.237c-.74.8-1.3,1.4-1.985,2.135H47.766c-.488-1-.694-1.986-1.3-2.448-.387-.293-1.368.193-2.139.34.122,1,.193,1.584.277,2.271L43.026,4.6c-.218-.813-.409-1.527-.6-2.24l-.714-.157c-.381.739-.763,1.477-1.261,2.443H39.264c.015-2.33-.33-2.641-2.4-2.03.13.668.261,1.34.409,2.1H35.55c-.451-.794-.842-1.481-1.564-2.753-.692,1.324-1.082,2.07-1.572,3.009l-2.033-.966L27.975,5.06c-.561-2.521-.952-2.739-2.959-1.85-.137.511-.288,1.074-.436,1.623h-3.7L19.067,2.058,17.686,4.933l-1.762-.184c.363-.666.644-1.181,1.14-2.088l-2.42-1.4-.67.475c.115.979.23,1.956.351,2.976H12.744c-.158-.709-.285-1.28-.343-1.536C9.937,1.244,10.489,5.2,8.814,4.667c-.049-.672-.091-1.254-.149-2.057-.789.057-1.407.1-2.015.143-.194.8-.33,1.356-.463,1.9H4.495L3.132,3.074c-.652.589-1.118,1.01-1.623,1.468l-1.572-.72V1.829C-.583,1.357-1.031.95-1.445.572V-3.553L1.138-5.114" fill="#f7ada2"/>
      </g>
    </g>
    <g id="Grupo_1658" data-name="Grupo 1658" transform="translate(50.404 -41.953)">
      <path id="Caminho_1604" data-name="Caminho 1604" d="M0,0-2.722,1.677,4.885,20.608l-8.146-7.96-.973,1.21,5.674,7.4-8.244.388L4.178,25.754l5.778,6.078,10.13,10.122,4.149-1.9-10.5-10.615,13.972,4.642.906-1.836-13.363-5.2L32.689,28.58l.458-4.094L15.048,23.3l15.916-5.7-2.046-2.784L12.875,19.532,20.023,2.248l-3.889.278-6.3,15.452L11,2.05l-2.895.844L7.818,16.968.114,0Z" fill="#e2383a"/>
    </g>
  </g>
</svg>
