<svg xmlns="http://www.w3.org/2000/svg" width="24.121" height="28.617" viewBox="0 0 24.121 28.617">
  <g id="pv_p0tit4p" transform="translate(0.001 28.617)">
    <g id="Grupo_1166" data-name="Grupo 1166" transform="translate(9.724 -28.617)">
      <path id="Caminho_1114" data-name="Caminho 1114" d="M0,0-3.154,10.869-4.876.25-7.415,2.243l.691,9.715-3,1.33,4.261,10.545L-2.545,22.3l2.212,5.476,3.171.841L.883,21.151l9.044,7.4.636-1.042-5.841-7.78,9.231,2.16L14.4,19.92,3.973,16.713l9.807-1.155-.407-1.752-9.885.414,7.6-7.465L9.957,4.762,2.229,12.785,8.561,1.166l-1.978-.05L-.028,12.164,1.449.026Z" fill="#b3dd9e"/>
    </g>
  </g>
</svg>
