<svg xmlns="http://www.w3.org/2000/svg" xmlns:xlink="http://www.w3.org/1999/xlink" width="107.552" height="91.3" viewBox="0 0 107.552 91.3">
  <defs>
    <clipPath id="clip-path">
      <path id="Caminho_231" data-name="Caminho 231" d="M0-27.85H107.552v-91.3H0Z" transform="translate(0 27.85)" fill="none"/>
    </clipPath>
    <clipPath id="clip-path-2">
      <path id="Caminho_249" data-name="Caminho 249" d="M0,0H127.4V-95.573H0Z" fill="none"/>
    </clipPath>
  </defs>
  <g id="pv_p1sec1tit1" transform="translate(0 91.3)">
    <g id="Grupo_248" data-name="Grupo 248" clip-path="url(#clip-path)">
      <g id="Grupo_247" data-name="Grupo 247" transform="translate(0 -119.15)">
        <path id="Caminho_230" data-name="Caminho 230" d="M0-20V65.374a53.776,53.776,0,0,0,107.552,0V-20Z"/>
        <g id="Grupo_250" data-name="Grupo 250" transform="translate(51 56.489)">
          <g id="Grupo_267" data-name="Grupo 267" clip-path="url(#clip-path-2)">
            <g id="Grupo_250-2" data-name="Grupo 250" transform="translate(117.33 -68.687)">
              <path id="Caminho_232" data-name="Caminho 232" d="M0,0C-.613,2.35-1.1,4.338-1.651,6.31c-3.929,14.129-10.464,26.852-20.4,37.734-6.61,7.237-14.777,11.634-24.6,10.9a175.131,175.131,0,0,1-27.4-4.234c-11.528-2.743-19.271-10.528-24-21.272A52.271,52.271,0,0,1-102.65,5.324c.481-8.722,1.479-17.415,2.273-26.375l-3.019-.642c-2.86,15.705-4.617,31.161-.393,46.593,3.7,13.516,12.049,23.129,25.228,28.365,10.485,4.166,21.448,5.435,32.6,5.466a32.929,32.929,0,0,0,22.066-8.093C-8.894,37.733-1.5,20.5,3.5,1.7L0,0" fill="#b3dd9e"/>
            </g>
            <g id="Grupo_251" data-name="Grupo 251" transform="translate(20.362 -89.111)">
              <path id="Caminho_233" data-name="Caminho 233" d="M0,0C-.632,8.607-1.708,16.671-1.7,24.733c.014,11.2,3.311,21.567,11.8,29.335A57.909,57.909,0,0,0,49.948,69.5a24.525,24.525,0,0,0,13.707-4.353c15.357-11.233,23.644-27.114,28-45.532l-3.081-.655c-2.122,5.75-3.746,11.368-6.241,16.567a89.913,89.913,0,0,1-8.917,14.9C61.675,66.144,53.436,68.744,34.548,63.366,12.114,56.977,1.187,42.8,1.953,20.576,2.178,14.039,3.2,7.529,3.881.825L0,0" fill="#b3dd9e"/>
            </g>
            <g id="Grupo_252" data-name="Grupo 252" transform="translate(5.459 -95.519)">
              <path id="Caminho_234" data-name="Caminho 234" d="M0,0-1.45-.054C-2.315,6.4-3,12.878-4.079,19.3-7.524,39.722-4.85,58.088,7.686,73.443c9.177,11.238,19.741,19.831,33.982,21.533C54.6,96.522,67.457,94.623,80.189,91.1a53.054,53.054,0,0,0,20.292-10.534C112,70.855,117.823,57.343,121.814,42.645c.274-1.01.019-2.172,0-3.891-.666.881-.882,1.051-.947,1.27-.588,1.977-1.144,3.963-1.718,5.944-6.454,22.26-18.993,37.855-39.87,43.365A151.162,151.162,0,0,1,52.5,93.66C37.192,94.854,24.16,89.1,13.5,77.385,1.2,63.863-5.913,47.964-3.222,27.535Q-1.657,15.654-.2,3.759C-.047,2.515-.063,1.253,0,0" fill="#b3dd9e"/>
            </g>
            <g id="Grupo_253" data-name="Grupo 253" transform="translate(30.423 -86.984)">
              <path id="Caminho_235" data-name="Caminho 235" d="M0,0-1.183-.216C-1.8,2.708-2.627,5.606-3.015,8.561-5.146,24.8-.991,38.447,14.176,46.7a86.05,86.05,0,0,0,19.265,7.758c12.244,3.177,21.226-.716,28.513-11.034C67.41,35.7,70.469,26.981,72.618,17.886a10.977,10.977,0,0,0,0-2.587l-1.062-.132c-.385,1.292-.807,2.573-1.15,3.876A74.6,74.6,0,0,1,60.07,42.669C54.824,50.3,47.539,54.46,38.311,53.262A61.01,61.01,0,0,1,21.37,48.328C3.014,40.057-2.691,29.932-1.123,9.73-.871,6.477-.38,3.243,0,0" fill="#b3dd9e"/>
            </g>
            <g id="Grupo_254" data-name="Grupo 254" transform="translate(43.411 -85.243)">
              <path id="Caminho_236" data-name="Caminho 236" d="M0,0C-5.209,6.819-3.568,23.2,2.224,30.238,8.361,37.69,24.9,41.376,33.678,37.249c7.5-3.524,15.126-18.34,13.268-27.131C46.314,11.843,45.9,12.81,45.6,13.81c-.925,3.09-1.655,6.247-2.737,9.279C40.049,30.982,35.1,36.7,26.128,36.78a47.764,47.764,0,0,1-13.682-1.949c-6.49-1.9-11.115-6.56-12.327-13.208C-.878,16.156-.406,10.416-.51,4.8A44.4,44.4,0,0,1,0,0" fill="#b3dd9e"/>
            </g>
            <g id="Grupo_255" data-name="Grupo 255" transform="translate(50.199 -82.918)">
              <path id="Caminho_237" data-name="Caminho 237" d="M0,0-1.562.042C-2.455,7.3-2.463,14.553.689,21.427a15.9,15.9,0,0,0,24.194,6.056c6.33-4.9,8.992-12.014,10.59-19.588.019-.089-.364-.262-1.13-.788-.5,1.355-.866,2.61-1.422,3.773C30.985,14.928,29.429,19.255,26.9,22.9c-3.447,4.959-8.651,6.793-14.678,5.526A13.348,13.348,0,0,1,1.291,17.661,91.024,91.024,0,0,1-.1,5.428,51.021,51.021,0,0,1,0,0" fill="#b3dd9e"/>
            </g>
            <g id="Grupo_256" data-name="Grupo 256" transform="translate(80.973 -76.008)">
              <path id="Caminho_238" data-name="Caminho 238" d="M0,0-1.158-.682c-1.707,3.047-3.14,6.293-5.178,9.1-4.353,5.99-12.638,6.226-16.666.1C-24.98,5.5-25.281,1.363-26.19-2.3a17.321,17.321,0,0,1-.127-3.711c-2.964,4.867-1.693,12.137,2.175,16.464,3.337,3.733,9.467,5.542,13.751,3.612C-4.27,11.306-1.89,5.77,0,0" fill="#b3dd9e"/>
            </g>
            <g id="Grupo_257" data-name="Grupo 257" transform="translate(57.304 -81.436)">
              <path id="Caminho_239" data-name="Caminho 239" d="M0,0C.792,5.508,2.483,9.828,7.528,11.841a7.817,7.817,0,0,0,8.594-1.729c2.183-1.973,2.7-3.615,1.836-6.551-2.022,4.382-4.7,8.782-9.693,6.046C4.973,7.8,2.985,3.618,0,0" fill="#b3dd9e"/>
            </g>
            <g id="Grupo_258" data-name="Grupo 258" transform="translate(61.961 -80.763)">
              <path id="Caminho_240" data-name="Caminho 240" d="M0,0C-.783,4.065,1.112,6.755,4.555,7.062c3.107.277,5.2-1.526,5.264-4.543C3.369,7.054,3.362,5.719,0,0" fill="#b3dd9e"/>
            </g>
            <g id="Grupo_259" data-name="Grupo 259" transform="translate(117.33 -68.687)">
              <path id="Caminho_241" data-name="Caminho 241" d="M0,0,3.5,1.7C-1.5,20.5-8.894,37.733-23.893,50.638a32.929,32.929,0,0,1-22.066,8.093c-11.154-.031-22.117-1.3-32.6-5.466C-91.74,48.029-100.089,38.416-103.789,24.9c-4.224-15.432-2.467-30.888.393-46.593l3.019.642c-.794,8.96-1.792,17.653-2.273,26.375a52.271,52.271,0,0,0,4.591,24.114c4.728,10.744,12.471,18.529,24,21.272a175.131,175.131,0,0,0,27.4,4.234c9.827.734,17.994-3.663,24.6-10.9,9.938-10.882,16.473-23.6,20.4-37.734C-1.1,4.338-.613,2.35,0,0" fill="#b3dd9e"/>
            </g>
            <g id="Grupo_260" data-name="Grupo 260" transform="translate(20.362 -89.111)">
              <path id="Caminho_242" data-name="Caminho 242" d="M0,0,3.881.825c-.677,6.7-1.7,13.214-1.928,19.751-.766,22.223,10.161,36.4,32.6,42.79,18.888,5.378,27.127,2.778,38.872-12.937a89.913,89.913,0,0,0,8.917-14.9c2.5-5.2,4.119-10.817,6.241-16.567l3.081.655c-4.36,18.418-12.647,34.3-28,45.532A24.525,24.525,0,0,1,49.948,69.5,57.909,57.909,0,0,1,10.1,54.068C1.613,46.3-1.684,35.935-1.7,24.733-1.708,16.671-.632,8.607,0,0" fill="#b3dd9e"/>
            </g>
            <g id="Grupo_261" data-name="Grupo 261" transform="translate(30.423 -86.984)">
              <path id="Caminho_243" data-name="Caminho 243" d="M0,0C-.38,3.243-.871,6.477-1.123,9.73c-1.568,20.2,4.137,30.327,22.493,38.6a61.01,61.01,0,0,0,16.941,4.934c9.228,1.2,16.513-2.958,21.759-10.593A74.6,74.6,0,0,0,70.4,19.043c.343-1.3.765-2.584,1.15-3.876l1.062.132a10.977,10.977,0,0,1,0,2.587c-2.149,9.1-5.208,17.812-10.664,25.537C54.667,53.741,45.685,57.634,33.441,54.457A86.05,86.05,0,0,1,14.176,46.7C-.991,38.447-5.146,24.8-3.015,8.561-2.627,5.606-1.8,2.708-1.183-.216L0,0" fill="#b3dd9e"/>
            </g>
            <g id="Grupo_262" data-name="Grupo 262" transform="translate(43.411 -85.243)">
              <path id="Caminho_244" data-name="Caminho 244" d="M0,0A44.4,44.4,0,0,0-.51,4.8c.1,5.621-.368,11.361.629,16.828,1.212,6.648,5.837,11.305,12.327,13.208A47.764,47.764,0,0,0,26.128,36.78c8.971-.084,13.921-5.8,16.739-13.691,1.082-3.032,1.812-6.189,2.737-9.279.3-1,.71-1.967,1.342-3.692,1.858,8.791-5.767,23.607-13.268,27.131C24.9,41.376,8.361,37.69,2.224,30.238-3.568,23.2-5.209,6.819,0,0" fill="#b3dd9e"/>
            </g>
            <g id="Grupo_263" data-name="Grupo 263" transform="translate(50.199 -82.918)">
              <path id="Caminho_245" data-name="Caminho 245" d="M0,0A51.021,51.021,0,0,0-.1,5.428,91.024,91.024,0,0,0,1.291,17.661,13.348,13.348,0,0,0,12.219,28.424C18.246,29.691,23.45,27.857,26.9,22.9c2.532-3.643,4.088-7.97,6.024-12.018.556-1.163.918-2.418,1.422-3.773.766.526,1.149.7,1.13.788-1.6,7.574-4.26,14.693-10.59,19.588A15.9,15.9,0,0,1,.689,21.427C-2.463,14.553-2.455,7.3-1.562.042L0,0" fill="#b3dd9e"/>
            </g>
            <g id="Grupo_264" data-name="Grupo 264" transform="translate(80.973 -76.008)">
              <path id="Caminho_246" data-name="Caminho 246" d="M0,0C-1.89,5.77-4.27,11.306-10.391,14.063c-4.284,1.93-10.414.121-13.751-3.612-3.868-4.327-5.139-11.6-2.175-16.464A17.321,17.321,0,0,0-26.19-2.3C-25.281,1.363-24.98,5.5-23,8.513c4.028,6.13,12.313,5.894,16.666-.1C-4.3,5.611-2.865,2.365-1.158-.682L0,0" fill="#b3dd9e"/>
            </g>
            <g id="Grupo_265" data-name="Grupo 265" transform="translate(57.304 -81.436)">
              <path id="Caminho_247" data-name="Caminho 247" d="M0,0C2.985,3.618,4.973,7.8,8.265,9.607c4.992,2.736,7.671-1.664,9.693-6.046.867,2.936.347,4.578-1.836,6.551a7.817,7.817,0,0,1-8.594,1.729C2.483,9.828.792,5.508,0,0" fill="#b3dd9e"/>
            </g>
            <g id="Grupo_266" data-name="Grupo 266" transform="translate(61.961 -80.763)">
              <path id="Caminho_248" data-name="Caminho 248" d="M0,0C3.362,5.719,3.369,7.054,9.819,2.519c-.068,3.017-2.157,4.82-5.264,4.543C1.112,6.755-.783,4.065,0,0" fill="#b3dd9e"/>
            </g>
          </g>
        </g>
      </g>
    </g>
  </g>
</svg>
