<svg xmlns="http://www.w3.org/2000/svg" xmlns:xlink="http://www.w3.org/1999/xlink" width="11.794" height="18.45" viewBox="0 0 11.794 18.45">
  <defs>
    <clipPath id="clip-path">
      <path id="Caminho_15" data-name="Caminho 15" d="M0,0H11.794V-18.45H0Z" fill="none"/>
    </clipPath>
  </defs>
  <g id="pv_p0tit3" transform="translate(0 18.45)">
    <g id="Grupo_18" data-name="Grupo 18" clip-path="url(#clip-path)">
      <g id="Grupo_6" data-name="Grupo 6" transform="translate(1.202 -0.724)">
        <path id="Caminho_3" data-name="Caminho 3" d="M0,0,.03.439C1.27.369,2.518.369,3.747.216,7.142-.208,9.353-2,9.961-5.353a34.422,34.422,0,0,0,.307-7.289,4.155,4.155,0,0,0-2.785-3.681A15.849,15.849,0,0,0,.7-17.451a1.316,1.316,0,0,0-.406.154,2.5,2.5,0,0,0,1.151.349c1.89.342,3.812.574,5.654,1.091a3.509,3.509,0,0,1,2.692,3.424,35.16,35.16,0,0,1-.054,5.879c-.556,4.142-2.944,6.175-7.1,6.38-.517.025-1.035.033-1.551.065C.722-.087.361-.037,0,0" fill="#9fa6d5"/>
      </g>
      <g id="Grupo_7" data-name="Grupo 7" transform="translate(1.202 -0.724)">
        <path id="Caminho_4" data-name="Caminho 4" d="M0,0,.03.439C1.27.369,2.518.369,3.747.216,7.142-.208,9.353-2,9.961-5.353a34.422,34.422,0,0,0,.307-7.289,4.155,4.155,0,0,0-2.785-3.681A15.849,15.849,0,0,0,.7-17.451a1.316,1.316,0,0,0-.406.154,2.5,2.5,0,0,0,1.151.349c1.89.342,3.812.574,5.654,1.091a3.509,3.509,0,0,1,2.692,3.424,35.16,35.16,0,0,1-.054,5.879c-.556,4.142-2.944,6.175-7.1,6.38-.517.025-1.035.033-1.551.065C.722-.087.361-.037,0,0Z" fill="none" stroke="#9fa6d5" stroke-width="0.54"/>
      </g>
      <g id="Grupo_8" data-name="Grupo 8" transform="translate(0.992 -2.891)">
        <path id="Caminho_5" data-name="Caminho 5" d="M0,0C2.056,1.019,6.273-.247,7.823-2.126c1.644-1.992,1.767-6.52.236-8.615-1.308-1.788-5.586-3.034-7.8-2.1.485.078.759.136,1.037.164.858.085,1.724.116,2.575.245,2.216.337,3.968,1.345,4.448,3.7a12.8,12.8,0,0,1,.187,3.691A4.458,4.458,0,0,1,5.67-1.134,28.247,28.247,0,0,1,1.285-.111,11.9,11.9,0,0,1,0,0" fill="#9fa6d5"/>
      </g>
      <g id="Grupo_9" data-name="Grupo 9" transform="translate(0.992 -2.891)">
        <path id="Caminho_6" data-name="Caminho 6" d="M0,0C2.056,1.019,6.273-.247,7.823-2.126c1.644-1.992,1.767-6.52.236-8.615-1.308-1.788-5.586-3.034-7.8-2.1.485.078.759.136,1.037.164.858.085,1.724.116,2.575.245,2.216.337,3.968,1.345,4.448,3.7a12.8,12.8,0,0,1,.187,3.691A4.458,4.458,0,0,1,5.67-1.134,28.247,28.247,0,0,1,1.285-.111,11.9,11.9,0,0,1,0,0Z" fill="none" stroke="#9fa6d5" stroke-width="0.54"/>
      </g>
      <g id="Grupo_10" data-name="Grupo 10" transform="translate(1.806 -14.047)">
        <path id="Caminho_7" data-name="Caminho 7" d="M0,0C-.055.131-.109.262-.164.392A37.6,37.6,0,0,1,3.49,1.441c2.472.977,3.147,3.487,1.221,5.071a13.855,13.855,0,0,1-3.677,1.6A7.43,7.43,0,0,1-.3,8.368,5.989,5.989,0,0,0,5.492,6.747a3.478,3.478,0,0,0,.325-4.4C4.386.643,2.218.24,0,0" fill="#9fa6d5"/>
      </g>
      <g id="Grupo_11" data-name="Grupo 11" transform="translate(1.806 -14.047)">
        <path id="Caminho_8" data-name="Caminho 8" d="M0,0C-.055.131-.109.262-.164.392A37.6,37.6,0,0,1,3.49,1.441c2.472.977,3.147,3.487,1.221,5.071a13.855,13.855,0,0,1-3.677,1.6A7.43,7.43,0,0,1-.3,8.368,5.989,5.989,0,0,0,5.492,6.747a3.478,3.478,0,0,0,.325-4.4C4.386.643,2.218.24,0,0Z" fill="none" stroke="#9fa6d5" stroke-width="0.54"/>
      </g>
      <g id="Grupo_12" data-name="Grupo 12" transform="translate(1.491 -7.04)">
        <path id="Caminho_9" data-name="Caminho 9" d="M0,0C1.632-.486,2.848-1.149,3.159-2.578A1.988,1.988,0,0,0,2.116-4.753,1.9,1.9,0,0,0,.008-4.906c1.457.311,2.96.8,2.425,2.246C2.08-1.7.924-.968,0,0" fill="#9fa6d5"/>
      </g>
      <g id="Grupo_13" data-name="Grupo 13" transform="translate(1.491 -7.04)">
        <path id="Caminho_10" data-name="Caminho 10" d="M0,0C1.632-.486,2.848-1.149,3.159-2.578A1.988,1.988,0,0,0,2.116-4.753,1.9,1.9,0,0,0,.008-4.906c1.457.311,2.96.8,2.425,2.246C2.08-1.7.924-.968,0,0Z" fill="none" stroke="#9fa6d5" stroke-width="0.54"/>
      </g>
      <g id="Grupo_14" data-name="Grupo 14" transform="translate(1.202 -0.724)">
        <path id="Caminho_11" data-name="Caminho 11" d="M0,0C.361-.037.722-.087,1.084-.109,1.6-.141,2.118-.149,2.635-.174c4.159-.205,6.547-2.238,7.1-6.38a35.16,35.16,0,0,0,.054-5.879A3.509,3.509,0,0,0,7.1-15.857c-1.842-.517-3.764-.749-5.654-1.091A2.5,2.5,0,0,1,.295-17.3,1.316,1.316,0,0,1,.7-17.451a15.849,15.849,0,0,1,6.782,1.128,4.155,4.155,0,0,1,2.785,3.681,34.422,34.422,0,0,1-.307,7.289C9.353-2,7.142-.208,3.747.216,2.518.369,1.27.369.03.439L0,0" fill="#9fa6d5"/>
      </g>
      <g id="Grupo_15" data-name="Grupo 15" transform="translate(1.202 -0.724)">
        <path id="Caminho_12" data-name="Caminho 12" d="M0,0C.361-.037.722-.087,1.084-.109,1.6-.141,2.118-.149,2.635-.174c4.159-.205,6.547-2.238,7.1-6.38a35.16,35.16,0,0,0,.054-5.879A3.509,3.509,0,0,0,7.1-15.857c-1.842-.517-3.764-.749-5.654-1.091A2.5,2.5,0,0,1,.295-17.3,1.316,1.316,0,0,1,.7-17.451a15.849,15.849,0,0,1,6.782,1.128,4.155,4.155,0,0,1,2.785,3.681,34.422,34.422,0,0,1-.307,7.289C9.353-2,7.142-.208,3.747.216,2.518.369,1.27.369.03.439Z" fill="none" stroke="#9fa6d5" stroke-width="0.54"/>
      </g>
      <g id="Grupo_16" data-name="Grupo 16" transform="translate(0.992 -2.891)">
        <path id="Caminho_13" data-name="Caminho 13" d="M0,0A11.9,11.9,0,0,0,1.285-.111,28.247,28.247,0,0,0,5.67-1.134a4.458,4.458,0,0,0,2.838-3.91,12.8,12.8,0,0,0-.187-3.691c-.48-2.35-2.232-3.358-4.448-3.7-.851-.129-1.717-.16-2.575-.245C1.02-12.7.746-12.761.261-12.839c2.212-.936,6.49.31,7.8,2.1,1.531,2.1,1.408,6.623-.236,8.615C6.273-.247,2.056,1.019,0,0" fill="#9fa6d5"/>
      </g>
      <g id="Grupo_17" data-name="Grupo 17" transform="translate(0.992 -2.891)">
        <path id="Caminho_14" data-name="Caminho 14" d="M0,0A11.9,11.9,0,0,0,1.285-.111,28.247,28.247,0,0,0,5.67-1.134a4.458,4.458,0,0,0,2.838-3.91,12.8,12.8,0,0,0-.187-3.691c-.48-2.35-2.232-3.358-4.448-3.7-.851-.129-1.717-.16-2.575-.245C1.02-12.7.746-12.761.261-12.839c2.212-.936,6.49.31,7.8,2.1,1.531,2.1,1.408,6.623-.236,8.615C6.273-.247,2.056,1.019,0,0Z" fill="none" stroke="#9fa6d5" stroke-width="0.54"/>
      </g>
    </g>
  </g>
</svg>
