<svg xmlns="http://www.w3.org/2000/svg" xmlns:xlink="http://www.w3.org/1999/xlink" width="86.7" height="41.95" viewBox="0 0 86.7 41.95">
  <defs>
    <clipPath id="clip-path">
      <rect id="Retângulo_1" data-name="Retângulo 1" width="66.31" height="33.24" transform="translate(-3.15 0.84)" fill="none"/>
    </clipPath>
  </defs>
  <g id="pv_p1seciniciaistit1" transform="translate(3.15)">
    <g id="Grupo_3" data-name="Grupo 3">
      <g id="Grupo_2" data-name="Grupo 2" clip-path="url(#clip-path)">
        <g id="Grupo_1" data-name="Grupo 1">
          <path id="Caminho_1" data-name="Caminho 1" d="M2.58,40.73l-2.42-2c.11-1.16.24-2.38.36-3.56l2.28-.83L.92,31.49,3.24,25h0c-.08.55-.17,1.1-.29,1.93l2.3.2c.4-2.21.1-2.48-2-2.13v.01c.62-1.65,1.25-3.29,1.79-4.7.08-.2.16-.4.23-.59a16.152,16.152,0,0,0,2.63-.05c.21,0,.29-.68.44-1.05l-1.3-1.5c.38-.45.71-.86,1-1.18l1.81,1.45c1.93-1.39,1.25-2.49-.22-3.56l3-2.72,2.88,1-.88-2.78,7.35-3.39,1.8,2.36c.46-1.17.74-1.89,1.08-2.74l1.06-.16c.27.56.52,1.07,1.05,2.14.65-1,1.08-1.73,1.56-2.49h1.56c-.42,1.61,0,2.63,2.12,2.85.37-.93.75-1.92,1.2-3.05l1.41.06c.26.56.44,1,.77,1.66L37.48,4.9l6.6,2c.38.89.6,1.43.84,2l2.31-.15c.2.79.35,1.4.46,1.82l2.4.71c-.11,1.31-.18,2.16-.27,3.3l3.09-.57c.09.91.17,1.77.29,3.05l2.1.63,1.77,3.47-1.7,1.6,1,1.81h2.05c.13.56.25,1.05.28,1.17l-2,1.4c.09.23.18.45.28.67h2.31l.42,1.79c-.53.49-1,.94-1.74,1.6l2.72,3-2.41,1.61a2.449,2.449,0,0,1-.07.71l2.9,1.5c-.2,1-.45,2.19-.79,3.84l.63.83v3.19l-2.71,1.45,1.74,2.08-2,.51L56.7,48.59l-2.69,1.78-1.47-2.29-2,2.14H49.21c-.49-1-.7-2-1.3-2.45-.39-.29-1.37.19-2.14.34.12,1,.19,1.58.28,2.27l-1.58.07c-.22-.81-.41-1.53-.6-2.24l-.72-.16-1.26,2.44H40.71c0-2.33-.33-2.64-2.41-2l.41,2.1H36.98l-1.56-2.75-1.57,3-2-1-2.4,1.06c-.56-2.53-1-2.74-3-1.85l-.47,1.63h-3.7L20.51,47.9l-1.38,2.88-1.76-.19c.36-.66.64-1.18,1.14-2.08l-2.42-1.4-.67.48c.11,1,.23,1.95.35,3H14.19c-.16-.71-.29-1.28-.35-1.53-2.46-1.94-1.91,2-3.58,1.48,0-.67-.1-1.25-.15-2l-2,.14c-.19.8-.33,1.35-.46,1.9H5.98L4.57,48.92,2.98,50.39l-1.6-.72v-2l-1.4-1.25V42.29l2.6-1.56m-.14-4.66c-.46,0-.95.63-1.64,1.14l2,1.88,1.78-1.76c-1-.65-1.58-1.24-2.14-1.26m26.68-7.39a8.342,8.342,0,0,0,2.39-1l-2-2.21a9.053,9.053,0,0,0-1.45,2.07c-.08.27.73,1.18,1.09,1.15m-.33,3.21.68.72,1.27-1.18-.67-.72L28.82,31.9m2.72-9.55-1.05-.15-.27,1.86,1.06.15c.09-.62.18-1.24.26-1.86m-1.41-2.4c.05-.23-.57-.6-1.31-1.31l-.25,2.14.67.35c.32-.39.8-.75.89-1.18m-1.6,4.47c0-.39-.05-.79-.08-1.18h-2.1l.09,1.46,2.06-.28m-2.14,6.45-1.21-.06-.17,1.72,1.42.06Zm-.15-3.51-1.88-1.78c-.7.8-1.09,1.24-1.42,1.63,1,2.08,1.87,2.16,3.3.15M24.56,23.1c-.46-.33-.95-.94-1.39-.91s-.85.71-1.28,1.1c.1.25.19.5.28.75l2.22-.21c.06-.24.11-.48.17-.73M22.32,33.69l-.76.05c-.19.73-.37,1.46-.56,2.19l.88.43c.45-.39,1.17-.73,1.26-1.19s-.52-1-.82-1.48m-1.08-1.61c.43.06,1.44-1,1.42-1.51s-.86-1.24-1.7-2.31c-.7,1.1-1.51,1.83-1.38,2.3a2.47,2.47,0,0,0,1.66,1.52m-1.5-4.62a1.37,1.37,0,0,0,.93-1c0-.34-.62-.91-1-.93s-.78.51-1.5,1c.75.46,1.2,1,1.56.9M16.57,32.4a1.543,1.543,0,0,0-.86,1.1c.04.35.57,1.24.95,1.28a5.715,5.715,0,0,0,2-.55v-1a8.724,8.724,0,0,0-2.13-.79m-1.47-3.31c1,1.7,1.38,1.75,2.74.18-1.13-1.91-1.68-1.92-2.74-.18m1-4.28A7.024,7.024,0,0,0,14.22,24l-.64.75a5.391,5.391,0,0,0,.87,1.67c.22.21,1.09.06,1.37-.22s.45-1.21.26-1.37m.69,15.89c-.12-.44-1-.69-1.61-1l-.64.54c.19.68.37,1.37.56,2.05l.82.15c.32-.58,1-1.25.87-1.72M15.98,38c-1.19-2.32-1.79-2.44-3.36-.84l.82,2.16L15.98,38m-2.49-5.32.65-.26-.3-1.83L12.07,31v.82ZM13.65,28l-2.29-1.71c-.09,1.24-.14,1.94-.18,2.64l.57.29L13.65,28m-3,5.07a6.013,6.013,0,0,0-2.34.55,11.433,11.433,0,0,1-.13,1.16A14.783,14.783,0,0,0,10.8,36c.21.06,1-.86,1-1.24-.1-.62-.61-1.56-1.09-1.66m.05-3h-1c0,.42.07.84.1,1.24a2.92,2.92,0,0,0,.62,0c.09-.41.15-.83.23-1.25M8.46,31.71,7.79,30l-1.06.52.85,1.59.88-.43m1,10c-.74-.06-1.6-.39-2.16-.11s-.41,1.22-.59,1.87l.7.52,2.24-1.19-.19-1.09M8.1,37.76c.15-.34-.5-1.45-.88-1.5a7,7,0,0,0-2.35.68l1.32,2.63c.87-.78,1.64-1.18,1.91-1.81m-2,2.66a7.2,7.2,0,0,0-2.35-.65c-.38,0-1,1-1,1.48s.9,1.32,1.23,1.25a7.55,7.55,0,0,0,2.18-1.2l-.09-.88M4.08,29a7.1,7.1,0,0,0-2.45.65c1.17,2.24,2.2,2.3,3.75.79-.4-.58-.82-1.44-1.3-1.44m.54,3.86c-.48-.05-1,.59-1.87,1.15.78.63,1.28,1.34,1.72,1.3a1.75,1.75,0,0,0,1.28-1.19c.05-.4-.68-1.21-1.13-1.26M6.98,21.49c-.59-.07-1.26.47-1.89.75v.79a7.616,7.616,0,0,0,2,1c.28.05,1.08-.84,1-1.2-.09-.54-.68-1.33-1.14-1.39m.3,4c-.38,1-.61,1.61-1,2.56l2.33,1,1.34-1.89L7.28,25.5m3.3-6.19-.68-.2L8.68,20.82l.4.57c.55-.13,1.35-.08,1.6-.43s0-1.08-.1-1.65m0,3.71c-.51.27-.82.92-1.55,1.83l3,.81a6.615,6.615,0,0,0-.07-2.21A1.4,1.4,0,0,0,10.54,23m2.11-4.22a8.241,8.241,0,0,0,1.86-.92l-1.84-1.75a8.391,8.391,0,0,0-.8,1.92c0,.22.57.8.78.75m-.48-5.21-.06.62,1.36,1.17,1.06-2.3-2.36.51m2.7,6.83-1.89.46-.06.73,1.68,1.22.71-.35-.42-2m.61-2.52c0,.61.69,1.19,1.08,1.79l.77-.05c.31-.64,1-1.35.84-1.9s-1-1-1.54-1.43c-.41.53-1.16,1.07-1.15,1.59m.19-4.14c.18.57,1.14.88,1.76,1.3l.78-.54-.75-2.62-.93-.07c-.32.66-1,1.44-.86,1.93m2.54-5.17-1.42.31c.08.29.15.59.22.88l1.4-.41c-.06-.26-.13-.52-.2-.78M18.4,21.3c-.45.06-.78.92-1.18,1.43,1.4,1.32,2.33,1.44,3.31-.67-.83-.32-1.52-.84-2.13-.76m3-10.66-2.66-.27,1.13,2.48,1.53-2.21m-1.42,6.1.71.08c.21-.39.41-.79.81-1.56-.81.09-1.44,0-1.53.22a5.806,5.806,0,0,0,0,1.26m-.68-8.95,1.35,1.57c.32-.71.5-1.13,1-2.17l-2.31.6m.26,11.08,1.82,2,1-2.32c-.16-.19-.33-.37-.5-.55l-2.37.84M24.1,9.2a7.208,7.208,0,0,0-2.05-.34c.19,1.07.28,1.57.44,2.41a6.184,6.184,0,0,0,1.75-.85A1.261,1.261,0,0,0,24.1,9.2m-2.12,4.45c1.07,1.43,1.93,1.21,2.94-.18-1.29-1.6-2.12-1.19-2.94.18m2.64,2.83-1,.86.43.6,1.15-.76-.59-.7m.74,2.95-.58.95,1.48.67.41-.8-1.31-.82M28.59,8.7l-2-.36c-.13.21-.26.42-.38.63.42.43.78,1.08,1.28,1.23.31.09.85-.57,1.28-.89l-.18-.61m-2.36,5.22,1.53.13-.15-1.73-.92-.09c-.15.57-.31,1.13-.46,1.69m2.56,2.46A8.837,8.837,0,0,0,26.48,16a9.992,9.992,0,0,0,1.23,2c.15.13.95-.14,1.14-.43s.14-1.11-.06-1.22M30.24,9.8c-.14.32-.29.64-.43,1l1.6,1.47c.51-1.23.74-1.79,1.19-2.86l-2.36.42m1.31,3.36c-.32-.09-1.29.82-1.3,1.29s.66,1.18,1.35,2.24c.74-1,1.5-1.67,1.4-2.08a2.35,2.35,0,0,0-1.45-1.45m1.28,4.6c-.32.34-.9.71-.89,1s.51.88.8,1.31l.7-.12.25-1.93Zm11.37,12,.62-.52c-.25-.6-.37-1.56-.78-1.69s-1.26.31-1.9.51v.84l2,.86m-1.67,3.57.87.56c.46-.37,1.13-.66,1.31-1.14s-.33-1-.53-1.48l-.77-.1-.88,2.16m.5-7,1.88-2.28a10.985,10.985,0,0,0-2.26-.89c-.27,0-1,.69-.89.89a12.141,12.141,0,0,0,1.27,2.28m3.4-3.9,1.61-2.14L45.85,18.6l-1.49,2.16,2.07,1.69m-3.57-7.81c.24-.49.55-.94.48-1a8.267,8.267,0,0,0-1.23-.88l-.46.83,1.21,1.06m-1,7.09c.07-.51.13-1,.2-1.52l-1.49-.09c-.08.17-.15.34-.22.51l1,1.22.52-.12m-2.54,4.4-.66,1.05,1.5,1.08L40.88,27l-1.6-.91m-1.63-.65.69-.08c.12-.65.54-1.64.28-1.88-.46-.42-1.34-.39-2-.54l-.38.9c.48.54,1,1.07,1.46,1.6M35.59,28.7l1,1,.68-.62L36.41,28l-.82.73m2.09-7.27c.18-.36.33-.75.48-1.12l-.81-.19c-.09.4-.18.79-.28,1.19a2.757,2.757,0,0,0,.61.12m2.21-9.5c-.12-.7-.23-1.4-.34-2.1l-1-.06c-.37.59-.75,1.18-1.13,1.77l.31.67,2.11-.28m-.9,2-.06.78,1.37.11.06-.76-1.33-.19m1.14,16.44L37.28,31l1.86,2.24L40.64,31l-.51-.69m-4.55,6-.6.69c.24.73.49,1.45.73,2.17l.77.17,1.1-1.83-2-1.12m1.06-3.14a8.468,8.468,0,0,0-1.79-1c-.23-.06-.86.44-.86.67a9.65,9.65,0,0,0,.59,2.19c.93-.82,1.35-1.2,2.06-1.84m-2.41-5.83c.34-.64,1-1.31.91-1.9,0-.43-1-.76-1.59-1.13l-.66.49c.17.79.35,1.58.52,2.37l.82.17m1.09-5.28c-.34-.48-.61-1-.69-.94a8.758,8.758,0,0,0-1.27.69l.48.75,1.48-.5m-2.9,7.21c0,.52-.09,1-.14,1.55l1,.12.24-1.54-1.08-.13m3.78-14.29c.61-2.26-.11-2.49-2.1-1.44.91.63,1.5,1,2.1,1.44m.48-6.37-1.84-.56-.62.61c.3.53.57,1.45.91,1.49.54,0,1.14-.51,1.71-.82a3.724,3.724,0,0,0-.16-.72m-1.52,8.21c-.08.25-.17.49-.25.73.6.41,1.18,1.09,1.8,1.13.35,0,.77-1,1.16-1.56l-.63-.71-2.08.41m4.8-10.01-2.72-.54c.47,1.25.72,1.92,1,2.59l.87.36L40.56,8l-.58-1.09m-.72,9.8a5.552,5.552,0,0,1-.11.79l2.1,1.18.68-.61c-.28-.62-.41-1.48-.89-1.78s-1.17.26-1.78.42M41.53,6.63l-.55.44.69.78.4-.28-.54-.94m-.36,3.14c.93,1.82,1.75,1.4,2.72.28-.72-1.72-1.58-1.34-2.72-.28m2.12,6.5c.1.32.21.64.31.95L46.25,17c0-.32.1-.63.14-1-.56-.3-1.13-.83-1.69-.82s-.94.65-1.41,1m1.43-4.62v1h2.16v-1Zm3,2-.81,1.08.57.51,1-1-.73-.57M46.3,24.49v3a8.83,8.83,0,0,0,2.39-.58,1.669,1.669,0,0,0,0-1.58,8.348,8.348,0,0,0-2.37-.87m4.78-1.25a6.483,6.483,0,0,0-.45-1.95l-.86-.09A7,7,0,0,0,48.83,23c-.05.26.64.91,1,.95s1.18-.43,1.21-.73m-.92,6.43,1.47,1.21.8-.22-.09-2.13-.67-.19-1.51,1.33m-3.53,2.17,2.39-1.33-1.92-1.78c-.16,1.19-.25,1.83-.42,3.13m3.55-15.7c-.45-.05-1.4.7-1.39,1.07a6.742,6.742,0,0,0,.86,2.21h.84a6.811,6.811,0,0,0,1.19-2.14c0-.33-.93-1.11-1.5-1.17m3.65,3.55c-.29-.18-.93.22-1.41.36v.77l1.74.7.43-.42c-.24-.49-.36-1.17-.75-1.41m-.61,4.59c-.71,0-1.38.91-2.07,1.42l.48,1.22,3.18-.27c.09-.32.19-.64.28-1-.63-.51-1.28-1.45-1.87-1.41m2.93,4.87c-2,.35-2.09,1.16-1,2.69.55-.34,1.3-.56,1.47-1s-.26-1.1-.43-1.69m-2.56,7.94L54.7,39l.86-.12c.2-.79.41-1.58.61-2.38L55.5,36l-1.91,1.09m6,4c.1-1.1.16-1.72.24-2.51-2,.71-2,.8-.24,2.51m-.33,4.24c.45-.74,1-1.25.9-1.54s-.76-.71-1.17-1c-.29.39-.81.79-.81,1.18s.54.75,1.08,1.41m-1.1-11.29-1.74-1.24-.54.28c.12.5.25,1,.37,1.5l1.91-.54M53.64,46.16A6.983,6.983,0,0,0,55.03,48a14.086,14.086,0,0,0,1.33-1.22,7.355,7.355,0,0,0,.6-1.37,7.827,7.827,0,0,0-2.35-.51c-.39,0-1.06.93-1,1.25M54.9,44c.66-1.1,1.34-1.73,1.3-2.31a1.738,1.738,0,0,0-1.4-1.24,2.09,2.09,0,0,0-1.47,1.38c0,.54.77,1.13,1.57,2.17m-2.17-8c.75-1.15,1.51-1.81,1.43-2.34a2.251,2.251,0,0,0-1.54-1.39c-.36-.07-1.29.87-1.3,1.37S52,34.85,52.73,36M49.79,46.76l2.3.21c-.55-.94-.8-1.75-1.08-1.76-.48,0-1,.46-1.46.74l.24.81m-.15-3.26.73.08,1.09-2-.57-.5-1.91.1c.27.93.47,1.62.66,2.32m.34-4.5a2.26,2.26,0,0,0,1.43-1.46c.09-.4-.72-1-1.47-1.94-.66,1-1.36,1.59-1.35,2.17A1.674,1.674,0,0,0,49.98,39m-.8-4.39.21-1-1.74-.45c-.08.4-.15.79-.23,1.19l1.76.27M46.76,46c.39-.29.8-.43.88-.68s.05-1-.11-1.06a5.018,5.018,0,0,0-1.55-.11c-.08.21-.16.42-.23.63l1,1.25m-.44-4.18c.42-.5,1.09-1,1.17-1.52.05-.4-.68-.91-1.31-1.67-.56.81-1.24,1.38-1.15,1.77s.83,1,1.29,1.42m-.83-4.15,1.27-1.58c-.09-.23-.17-.46-.25-.69l-2.17.17-.12.67c.36.4.72.8,1.27,1.43M43.2,47.18l.88-.15c-.09-.36-.17-.71-.25-1.07l-.74.14a9.879,9.879,0,0,0,.11,1.08m.76-3c.08-.42.15-.84.22-1.27l-2.11-.24-.18,1.09ZM41.7,40.1l2.28-.45-1.8-1.58-.71.35.27,1.65m-.87-6.23-2.32,1.34a5.033,5.033,0,0,1-.13.76,6.92,6.92,0,0,0,1.87,1c.32.07,1.08-.52,1.12-.87a7.153,7.153,0,0,0-.54-2.23m-.62,12.82.53-.18c0-.45.25-1,0-1.3s-.83-.31-1.27-.44l-.44.63,1.13,1.29m-1.11-3.13,2-2-2.11-1.87-1.74,2.12,1.9,1.75m-4.27,3.32h2.11l.19-.62c-.41-.34-.8-.92-1.22-.94s-.89.49-1.34.77l.21.79m1.86-5-2.7-.63c.79,2.33,1,2.36,2.71.59m-2.64-3.24L31.25,38l-.46.59c.37.68.75,1.37,1.34,2.42l1.93-2.47m-3.23,4.59,1.45,1.76c.2-1,.51-1.62.33-1.84a4.738,4.738,0,0,0-1.34-.59l-.44.67m1.33,5.28c.54-.16.9-.91,1.34-1.41-.48-.37-1-1-1.44-1s-.95.67-1.74,1.29c.85.57,1.46,1.27,1.84,1.16M30.11,36l2.17-.16v-1.1H30.06ZM27.64,46.78a8.826,8.826,0,0,0,2.17-1.12l-2.17-2.29a10.085,10.085,0,0,0-1.05,2.44c0,.3.75,1,1.05,1m1.62-6.11c-.92-1.55-1.76-1.52-2.69-.24,1.07,1.89,1.44,1.92,2.69.24m-2.82-2.84h1a7.37,7.37,0,0,0,.73-2.16c0-.31-.88-.91-1.34-.89s-1.3.67-1.27,1a6.745,6.745,0,0,0,.86,2.09m-3,11,1.71-.12-.06-.9-1.71.1.06.92m-.44-3.64,2.83-.71-1.83-2-1.44,1.82c.15.3.3.59.44.89m.21-4.34c.56-.57,1.41-1.06,1.56-1.72.1-.43-.81-1.1-1.62-2.11-.71,1.07-1.49,1.72-1.41,2.25s.95,1,1.47,1.58m-3.53-.79a7.939,7.939,0,0,0-.91,2.06c0,.27.63.89.9.85a6.674,6.674,0,0,0,1.8-.92l-1.79-2m.74,7.39a6.3,6.3,0,0,0,.84-1.9c0-.29-.77-.95-1.07-.88-.57.12-1.05.65-1.91,1.24l2.14,1.54M18.86,39c.51,0,1-.65,1.74-1.21l-1.69-1.42L17.18,38c.72.46,1.22,1,1.68,1m-3.2,7.74a7.139,7.139,0,0,0,1.32-1.86,1.43,1.43,0,0,0-.8-1.18,8.29,8.29,0,0,0-2.4.5l1.91,2.55m-3.8.48c.37.15,1-.24,1.46-.39a2.68,2.68,0,0,1,.05-.63l-1.76-.75-.43.45c.22.46.33,1.17.68,1.32m-.65-4.18a7.094,7.094,0,0,0,1.88.42l.5-.81c-.39-.5-.69-1.16-1.2-1.46-.24-.15-1,.25-1.29.61a1.062,1.062,0,0,0,.11,1.24m.41-3.74.12-.79-1.45-1.07-.54.27c.08.56,0,1.31.28,1.61s1,0,1.59,0M9.23,47c.2,0,.77-.54.74-.77a7.42,7.42,0,0,0-.81-1.71L7.34,46.1a9.36,9.36,0,0,0,1.89.9m-4,2.14,1.93-.38c0-.52.15-1.12,0-1.24a11.914,11.914,0,0,0-2.18-.8c.1,1.13.14,1.67.2,2.43m-.2-2.46.91-.31.21-2.05-2.07-.2-.59,1.26,1.54,1.3m-1.44,2,.44-.43c-.2-.63-.41-1.25-.79-2.41l-1.75,2,2.07.86m-2.1-2.84c.57-.53,1.26-.87,1.29-1.3a7.772,7.772,0,0,0-.84-2.2L-.02,44.32,1.4,45.85" fill="#f0b3a7"/>
        </g>
      </g>
    </g>
    <path id="Caminho_2" data-name="Caminho 2" d="M50.41,0,47.68,1.68l7.61,18.93-8.15-7.96-.97,1.21,5.67,7.39-8.24.39,10.98,4.11,5.78,6.08L70.49,41.95l4.15-1.9L64.14,29.44l13.97,4.64.91-1.84-13.37-5.2,17.44,1.54.46-4.09L65.45,23.3l15.92-5.7-2.05-2.79L63.28,19.53,70.43,2.25l-3.89.28-6.3,15.45L61.41,2.05l-2.9.84-.29,14.08L50.52,0Z" fill="#cf2d37"/>
  </g>
</svg>
