<svg xmlns="http://www.w3.org/2000/svg" xmlns:xlink="http://www.w3.org/1999/xlink" width="8.151" height="13.414" viewBox="0 0 8.151 13.414">
  <defs>
    <clipPath id="clip-path">
      <path id="Caminho_1618" data-name="Caminho 1618" d="M0,0H8.151V-13.414H0Z" fill="none"/>
    </clipPath>
  </defs>
  <g id="pv_p0tit3mp" transform="translate(0 13.414)">
    <g id="Grupo_1672" data-name="Grupo 1672" clip-path="url(#clip-path)">
      <g id="Grupo_1660" data-name="Grupo 1660" transform="translate(0.625 -0.463)">
        <path id="Caminho_1606" data-name="Caminho 1606" d="M0,0C.009.107.018.214.028.322.929.254,1.839.239,2.732.11A4.745,4.745,0,0,0,7.187-4.052,25.471,25.471,0,0,0,7.318-9.4a3.045,3.045,0,0,0-2.076-2.663,11.474,11.474,0,0,0-4.953-.741A.959.959,0,0,0,0-12.687a1.809,1.809,0,0,0,.843.241c1.38.227,2.783.372,4.131.728A2.57,2.57,0,0,1,6.974-9.242,26.1,26.1,0,0,1,7.009-4.93C6.656-1.886,4.943-.365,1.917-.162c-.376.026-.753.038-1.129.068C.524-.073.263-.032,0,0" fill="#f7a49a"/>
      </g>
      <g id="Grupo_1661" data-name="Grupo 1661" transform="translate(0.625 -0.463)">
        <path id="Caminho_1607" data-name="Caminho 1607" d="M0,0C.009.107.018.214.028.322.929.254,1.839.239,2.732.11A4.745,4.745,0,0,0,7.187-4.052,25.471,25.471,0,0,0,7.318-9.4a3.045,3.045,0,0,0-2.076-2.663,11.474,11.474,0,0,0-4.953-.741A.959.959,0,0,0,0-12.687a1.809,1.809,0,0,0,.843.241c1.38.227,2.783.372,4.131.728A2.57,2.57,0,0,1,6.974-9.242,26.1,26.1,0,0,1,7.009-4.93C6.656-1.886,4.943-.365,1.917-.162c-.376.026-.753.038-1.129.068C.524-.073.263-.032,0,0Z" fill="none" stroke="#f7a49a" stroke-width="0.264"/>
      </g>
      <g id="Grupo_1662" data-name="Grupo 1662" transform="translate(0.481 -2.055)">
        <path id="Caminho_1608" data-name="Caminho 1608" d="M0,0C1.5.72,4.532-.261,5.629-1.657a6.215,6.215,0,0,0,.062-6.312A5.818,5.818,0,0,0,.026-9.406c.352.051.551.09.753.106.621.052,1.248.063,1.864.147A3.4,3.4,0,0,1,5.906-6.5a9.491,9.491,0,0,1,.181,2.7,3.263,3.263,0,0,1-2,2.9A20.155,20.155,0,0,1,.927-.1,8.329,8.329,0,0,1,0,0" fill="#f7a49a"/>
      </g>
      <g id="Grupo_1663" data-name="Grupo 1663" transform="translate(0.481 -2.055)">
        <path id="Caminho_1609" data-name="Caminho 1609" d="M0,0C1.5.72,4.532-.261,5.629-1.657a6.215,6.215,0,0,0,.062-6.312A5.818,5.818,0,0,0,.026-9.406c.352.051.551.09.753.106.621.052,1.248.063,1.864.147A3.4,3.4,0,0,1,5.906-6.5a9.491,9.491,0,0,1,.181,2.7,3.263,3.263,0,0,1-2,2.9A20.155,20.155,0,0,1,.927-.1,8.329,8.329,0,0,1,0,0Z" fill="none" stroke="#f7a49a" stroke-width="0.264"/>
      </g>
      <g id="Grupo_1664" data-name="Grupo 1664" transform="translate(0.943 -10.225)">
        <path id="Caminho_1610" data-name="Caminho 1610" d="M0,0-.112.288a26.883,26.883,0,0,1,2.632.719c1.784.682,2.3,2.505.939,3.686A9.885,9.885,0,0,1,.842,5.908a5.23,5.23,0,0,1-.95.2A4.244,4.244,0,0,0,4.021,4.854,2.572,2.572,0,0,0,4.2,1.639C3.152.413,1.593.147,0,0" fill="#f7a49a"/>
      </g>
      <g id="Grupo_1665" data-name="Grupo 1665" transform="translate(0.943 -10.225)">
        <path id="Caminho_1611" data-name="Caminho 1611" d="M0,0-.112.288a26.883,26.883,0,0,1,2.632.719c1.784.682,2.3,2.505.939,3.686A9.885,9.885,0,0,1,.842,5.908a5.23,5.23,0,0,1-.95.2A4.244,4.244,0,0,0,4.021,4.854,2.572,2.572,0,0,0,4.2,1.639C3.152.413,1.593.147,0,0Z" fill="none" stroke="#f7a49a" stroke-width="0.264"/>
      </g>
      <g id="Grupo_1666" data-name="Grupo 1666" transform="translate(0.777 -5.148)">
        <path id="Caminho_1612" data-name="Caminho 1612" d="M0,0C1.143-.37,1.99-.863,2.192-1.9a1.442,1.442,0,0,0-.761-1.552A1.311,1.311,0,0,0-.055-3.532C.975-3.326,2.038-3,1.68-1.945,1.443-1.252.639-.708,0,0" fill="#f7a49a"/>
      </g>
      <g id="Grupo_1667" data-name="Grupo 1667" transform="translate(0.777 -5.148)">
        <path id="Caminho_1613" data-name="Caminho 1613" d="M0,0C1.143-.37,1.99-.863,2.192-1.9a1.442,1.442,0,0,0-.761-1.552A1.311,1.311,0,0,0-.055-3.532C.975-3.326,2.038-3,1.68-1.945,1.443-1.252.639-.708,0,0Z" fill="none" stroke="#f7a49a" stroke-width="0.264"/>
      </g>
      <g id="Grupo_1668" data-name="Grupo 1668" transform="translate(0.625 -0.463)">
        <path id="Caminho_1614" data-name="Caminho 1614" d="M0,0C.263-.032.524-.073.788-.094c.376-.03.753-.042,1.129-.068,3.026-.2,4.739-1.724,5.092-4.768a26.1,26.1,0,0,0-.035-4.312,2.57,2.57,0,0,0-2.005-2.476c-1.348-.356-2.751-.5-4.131-.728A1.809,1.809,0,0,1,0-12.687a.959.959,0,0,1,.294-.118,11.474,11.474,0,0,1,4.953.741A3.045,3.045,0,0,1,7.318-9.4a25.471,25.471,0,0,1-.131,5.349A4.745,4.745,0,0,1,2.732.11C1.839.239.929.254.028.322.018.214.009.107,0,0" fill="#f7a49a"/>
      </g>
      <g id="Grupo_1669" data-name="Grupo 1669" transform="translate(0.625 -0.463)">
        <path id="Caminho_1615" data-name="Caminho 1615" d="M0,0C.263-.032.524-.073.788-.094c.376-.03.753-.042,1.129-.068,3.026-.2,4.739-1.724,5.092-4.768a26.1,26.1,0,0,0-.035-4.312,2.57,2.57,0,0,0-2.005-2.476c-1.348-.356-2.751-.5-4.131-.728A1.809,1.809,0,0,1,0-12.687a.959.959,0,0,1,.294-.118,11.474,11.474,0,0,1,4.953.741A3.045,3.045,0,0,1,7.318-9.4a25.471,25.471,0,0,1-.131,5.349A4.745,4.745,0,0,1,2.732.11C1.839.239.929.254.028.322.018.214.009.107,0,0Z" fill="none" stroke="#f7a49a" stroke-width="0.264"/>
      </g>
      <g id="Grupo_1670" data-name="Grupo 1670" transform="translate(0.481 -2.055)">
        <path id="Caminho_1616" data-name="Caminho 1616" d="M0,0A8.329,8.329,0,0,0,.927-.1,20.155,20.155,0,0,0,4.085-.9a3.263,3.263,0,0,0,2-2.9,9.491,9.491,0,0,0-.181-2.7A3.4,3.4,0,0,0,2.643-9.153C2.027-9.237,1.4-9.248.779-9.3c-.2-.016-.4-.055-.753-.106A5.818,5.818,0,0,1,5.691-7.969a6.215,6.215,0,0,1-.062,6.312C4.532-.261,1.5.72,0,0" fill="#f7a49a"/>
      </g>
      <g id="Grupo_1671" data-name="Grupo 1671" transform="translate(0.481 -2.055)">
        <path id="Caminho_1617" data-name="Caminho 1617" d="M0,0A8.329,8.329,0,0,0,.927-.1,20.155,20.155,0,0,0,4.085-.9a3.263,3.263,0,0,0,2-2.9,9.491,9.491,0,0,0-.181-2.7A3.4,3.4,0,0,0,2.643-9.153C2.027-9.237,1.4-9.248.779-9.3c-.2-.016-.4-.055-.753-.106A5.818,5.818,0,0,1,5.691-7.969a6.215,6.215,0,0,1-.062,6.312C4.532-.261,1.5.72,0,0Z" fill="none" stroke="#f7a49a" stroke-width="0.264"/>
      </g>
    </g>
  </g>
</svg>
