<svg xmlns="http://www.w3.org/2000/svg" xmlns:xlink="http://www.w3.org/1999/xlink" width="117.638" height="742.678" viewBox="0 0 117.638 742.678">
  <defs>
    <clipPath id="clip-path">
      <path id="Caminho_1574" data-name="Caminho 1574" d="M0,0H117.638V-742.677H0Z" fill="none"/>
    </clipPath>
    <clipPath id="clip-path-2">
      <path id="Caminho_1597" data-name="Caminho 1597" d="M0-630.965H117.638V-742.678H0Z" fill="none"/>
    </clipPath>
  </defs>
  <g id="pv_sumario" transform="translate(0 742.678)">
    <g id="Grupo_1629" data-name="Grupo 1629" clip-path="url(#clip-path)">
      <g id="Grupo_1628" data-name="Grupo 1628" transform="translate(0 -685.984)">
        <path id="Caminho_1573" data-name="Caminho 1573" d="M0,0H8.5a42.52,42.52,0,0,1,42.52,42.52V643.465A42.519,42.519,0,0,1,8.5,685.984H0Z" fill="#ffe8d7"/>
      </g>
    </g>
    <g id="Grupo_1652" data-name="Grupo 1652" clip-path="url(#clip-path-2)">
      <g id="Grupo_1630" data-name="Grupo 1630" transform="translate(59.221 -788.173)">
        <path id="Caminho_1575" data-name="Caminho 1575" d="M0,0C6.158,7.962,12.266,15.3,17.746,23.071,27.236,36.534,33.621,51.279,32.1,68.157c-2.88,32.04-21.079,53.272-49.2,66.562-17.655,8.345-35.105,6.493-51.35-4.455a186.657,186.657,0,0,1-16.069-12.023c-6.67-5.626-12.973-11.686-19.53-17.646a19.6,19.6,0,0,0-1.924,1.655c-.595.666-1.063,1.445-1.728,2.372,12.789,12.642,25.553,24.763,41.278,33.433,17.165,9.465,34.4,9.421,51.9,1.531A96.944,96.944,0,0,0,19.4,113.647C40.074,89.508,43.849,58.078,29.166,30.7A151.316,151.316,0,0,0,5.221-1.878L0,0" fill="#b3dd9e"/>
      </g>
      <g id="Grupo_1631" data-name="Grupo 1631" transform="translate(49.534 -782.24)">
        <path id="Caminho_1576" data-name="Caminho 1576" d="M0,0C2.023,2.217,3.753,4.062,5.428,5.957c12,13.581,20.785,28.916,25.374,46.538,3.052,11.721,2.113,23.144-5.262,32.834A216.53,216.53,0,0,1,2.71,110.878c-10.6,10.1-23.88,12.885-38.2,10.555a64.6,64.6,0,0,1-28.08-11.471c-8.714-6.369-17.052-13.253-25.8-20.107l-2.7,2.7c14.351,13.532,29.186,25.755,48.021,31.764,16.5,5.262,32.078,3.079,46.374-7.055C13.7,109.2,22.4,98.693,29.934,87.154A40.69,40.69,0,0,0,36.4,58.84C33.118,34.611,20.238,15.357,4.12-2.485L0,0" fill="#b3dd9e"/>
      </g>
      <g id="Grupo_1632" data-name="Grupo 1632" transform="translate(-36.892 -695.495)">
        <path id="Caminho_1577" data-name="Caminho 1577" d="M0,0C8.495,6.447,16.127,12.989,24.489,18.405c11.617,7.524,24.578,11.083,38.341,7.514A71.547,71.547,0,0,0,105.643-4.986a30.305,30.305,0,0,0,4.714-17.135C109.051-45.6,98.17-64.871,82.017-81.785l-2.752,2.752c4.531,6.07,9.26,11.533,12.97,17.618a111.227,111.227,0,0,1,9.437,19.266C110.053-19.4,107.2-9.112,88.918,6.841,67.2,25.791,45.153,27.573,22.638,11.824,16.014,7.191,9.958,1.747,3.466-3.466L0,0" fill="#b3dd9e"/>
      </g>
      <g id="Grupo_1633" data-name="Grupo 1633" transform="translate(-56.931 -675.815)">
        <path id="Caminho_1578" data-name="Caminho 1578" d="M0,0-1.187,1.621C4.971,6.806,11.3,11.8,17.254,17.211,36.2,34.433,57.728,43.325,83.752,38.992c19.048-3.171,36.375-9.65,49.272-24.81,11.707-13.763,19.714-29.688,25.9-46.527a72.569,72.569,0,0,0,4.655-30.032c-1.3-19.476-11.077-34.913-23.531-49.032-.855-.97-2.285-1.433-4.117-2.535a9.381,9.381,0,0,0,.608,1.908c1.635,1.957,3.3,3.884,4.955,5.829,18.543,21.851,25.288,46.319,14.859,73.75A226.342,226.342,0,0,1,140.071.948c-10.664,18.267-26.909,29.409-47.614,33.964-23.9,5.258-46.277,3.042-65.812-13.32Q15.284,12.075,3.824,2.675C2.627,1.689,1.278.887,0,0" fill="#b3dd9e"/>
      </g>
      <g id="Grupo_1634" data-name="Grupo 1634" transform="translate(-27.917 -704.491)">
        <path id="Caminho_1579" data-name="Caminho 1579" d="M0,0-1.02,1.081c2.612,2.612,5.062,5.414,7.863,7.8C22.234,22.021,39.176,26.9,57.935,16.737A106.269,106.269,0,0,0,78.941,1.994C90.473-8.557,92.484-20.485,86.695-34.98,82.361-45.834,75.386-54.87,67.407-63.219a13.612,13.612,0,0,0-2.684-1.736l-.851,1.012c1.079,1.269,2.123,2.569,3.242,3.8,7.231,7.958,13.394,16.622,17.531,26.608,4.382,10.574,3.787,20.92-3.665,29.677A75.412,75.412,0,0,1,64.466,10.379C43.54,23.835,29.208,22.933,9.328,7.712,6.127,5.261,3.105,2.577,0,0" fill="#b3dd9e"/>
      </g>
      <g id="Grupo_1635" data-name="Grupo 1635" transform="translate(-23.63 -708.897)">
        <path id="Caminho_1580" data-name="Caminho 1580" d="M0,0-1.309,1.556C3.036,5.3,7.185,9.312,11.763,12.747c12.648,9.489,25.73,10.646,38.533,1.436C59.345,7.674,67.2-.717,74.714-9.06c5.361-5.956,5.685-13.605,2.556-21.179-4.172-10.1-11.021-18.2-18.921-25.518a6.153,6.153,0,0,0-1.843-.8c.414,2.189,1.683,3.434,2.707,4.857,5.184,7.2,10.828,14.145,15.29,21.775,3.915,6.695,3.357,14.033-2.041,20.027C66.4-3.163,60.46,3.893,53.409,9.472,38.262,21.457,23.8,20.548,9.319,7.878,7.519,6.3,5.773,4.667,3.954,3.115,2.679,2.027,1.321,1.035,0,0" fill="#b3dd9e"/>
      </g>
      <g id="Grupo_1636" data-name="Grupo 1636" transform="translate(-17.371 -716.779)">
        <path id="Caminho_1581" data-name="Caminho 1581" d="M0,0C3.561,9.988,21.645,19.314,32.833,18.045c11.853-1.344,26.8-16,28.434-27.878,1.4-10.145-8.826-28.017-19.187-32.008,1.363,1.815,2.089,2.891,2.924,3.875,2.579,3.038,5.36,5.919,7.773,9.081C59.06-20.654,61.65-11.677,55.7-2.325A59,59,0,0,1,44.472,10.543c-6.339,5.446-14.278,7.1-21.983,3.886-6.337-2.646-11.968-7-17.863-10.673A55.164,55.164,0,0,1,0,0" fill="#b3dd9e"/>
      </g>
      <g id="Grupo_1637" data-name="Grupo 1637" transform="translate(-10.394 -722.248)">
        <path id="Caminho_1582" data-name="Caminho 1582" d="M0,0-1.008,1.647c6.926,5.814,14.432,10.7,23.677,12.059a19.649,19.649,0,0,0,22.558-21c-.812-9.854-6.4-17.4-13.172-24.158-.079-.079-.517.2-1.577.641,1.065,1.434,2.122,2.655,2.953,4.013,2.893,4.731,6.329,9.256,8.4,14.331C44.65-5.555,43.048,1.073,37.68,6.466c-5.258,5.282-11.673,6.629-18.509,4.082-4.726-1.761-9.14-4.4-13.611-6.8A62.809,62.809,0,0,1,0,0" fill="#b3dd9e"/>
      </g>
      <g id="Grupo_1638" data-name="Grupo 1638" transform="translate(17.478 -749.489)">
        <path id="Caminho_1583" data-name="Caminho 1583" d="M0,0-1.485.741C.523,4.561,2.923,8.23,4.458,12.231,7.736,20.773,2.406,29.518-6.659,29.567c-4.449.023-8.942-2.45-13.353-3.975a21.514,21.514,0,0,1-3.931-2.365c3.049,6.346,11.439,9.921,18.527,8.825C.7,31.106,6.7,25.971,7.581,20.233,8.843,12.034,4.708,5.842,0,0" fill="#b3dd9e"/>
      </g>
      <g id="Grupo_1639" data-name="Grupo 1639" transform="translate(-4.076 -728.614)">
        <path id="Caminho_1584" data-name="Caminho 1584" d="M0,0C6.241,2.887,11.856,4.04,17.337.168,20.754-2.246,21.993-5.76,21.329-9.9c-.575-3.59-1.927-5.235-5.553-6.312,3.18,5.045,5.937,10.782-.258,14.114C11.432.1,5.758-.658,0,0" fill="#b3dd9e"/>
      </g>
      <g id="Grupo_1640" data-name="Grupo 1640" transform="translate(-0.245 -732.987)">
        <path id="Caminho_1585" data-name="Caminho 1585" d="M0,0C3.686,3.547,7.748,3.393,10.384.032,12.761-3,12.3-6.379,9.219-8.48,9.577,1.256,8.189.365,0,0" fill="#b3dd9e"/>
      </g>
      <g id="Grupo_1641" data-name="Grupo 1641" transform="translate(59.221 -788.173)">
        <path id="Caminho_1586" data-name="Caminho 1586" d="M0,0,5.221-1.878A151.316,151.316,0,0,1,29.166,30.7C43.849,58.078,40.074,89.508,19.4,113.647a96.944,96.944,0,0,1-33.913,25.939c-17.5,7.89-34.737,7.934-51.9-1.531-15.725-8.67-28.489-20.791-41.278-33.433.665-.927,1.133-1.706,1.728-2.372a19.6,19.6,0,0,1,1.924-1.655c6.557,5.96,12.86,12.02,19.53,17.646a186.657,186.657,0,0,0,16.069,12.023c16.245,10.948,33.695,12.8,51.35,4.455,28.117-13.29,46.316-34.522,49.2-66.562,1.518-16.878-4.867-31.623-14.357-45.086C12.266,15.3,6.158,7.962,0,0" fill="#b3dd9e"/>
      </g>
      <g id="Grupo_1642" data-name="Grupo 1642" transform="translate(49.534 -782.24)">
        <path id="Caminho_1587" data-name="Caminho 1587" d="M0,0,4.12-2.485c16.118,17.842,29,37.1,32.278,61.325a40.69,40.69,0,0,1-6.464,28.314C22.4,98.693,13.7,109.2,2.329,117.262c-14.3,10.134-29.877,12.317-46.374,7.055-18.835-6.009-33.67-18.232-48.021-31.764l2.7-2.7c8.751,6.854,17.089,13.738,25.8,20.107a64.6,64.6,0,0,0,28.08,11.471c14.316,2.33,27.6-.455,38.2-10.555A216.53,216.53,0,0,0,25.54,85.329c7.375-9.69,8.314-21.113,5.262-32.834C26.213,34.873,17.427,19.538,5.428,5.957,3.753,4.062,2.023,2.217,0,0" fill="#b3dd9e"/>
      </g>
      <g id="Grupo_1643" data-name="Grupo 1643" transform="translate(-36.892 -695.495)">
        <path id="Caminho_1588" data-name="Caminho 1588" d="M0,0,3.466-3.466C9.958,1.747,16.014,7.191,22.638,11.824,45.153,27.573,67.2,25.791,88.918,6.841,107.2-9.112,110.053-19.4,101.672-42.149a111.227,111.227,0,0,0-9.437-19.266C88.525-67.5,83.8-72.963,79.265-79.033l2.752-2.752C98.17-64.871,109.051-45.6,110.357-22.121a30.305,30.305,0,0,1-4.714,17.135A71.547,71.547,0,0,1,62.83,25.919c-13.763,3.569-26.724.01-38.341-7.514C16.127,12.989,8.495,6.447,0,0" fill="#b3dd9e"/>
      </g>
      <g id="Grupo_1644" data-name="Grupo 1644" transform="translate(-56.931 -675.815)">
        <path id="Caminho_1589" data-name="Caminho 1589" d="M0,0C1.278.887,2.627,1.689,3.824,2.675Q15.265,12.1,26.645,21.592C46.18,37.954,68.556,40.17,92.457,34.912c20.705-4.555,36.95-15.7,47.614-33.964a226.342,226.342,0,0,0,16.278-33.405c10.429-27.431,3.684-51.9-14.859-73.75-1.65-1.945-3.32-3.872-4.955-5.829a9.381,9.381,0,0,1-.608-1.908c1.832,1.1,3.262,1.565,4.117,2.535C152.5-97.29,162.272-81.853,163.575-62.377a72.569,72.569,0,0,1-4.655,30.032c-6.182,16.839-14.189,32.764-25.9,46.527-12.9,15.16-30.224,21.639-49.272,24.81-26.024,4.333-47.553-4.559-66.5-21.781C11.3,11.8,4.971,6.806-1.187,1.621L0,0" fill="#b3dd9e"/>
      </g>
      <g id="Grupo_1645" data-name="Grupo 1645" transform="translate(-27.917 -704.491)">
        <path id="Caminho_1590" data-name="Caminho 1590" d="M0,0C3.105,2.577,6.127,5.261,9.328,7.712c19.88,15.221,34.212,16.123,55.138,2.667A75.412,75.412,0,0,0,80.98-3.858c7.452-8.757,8.047-19.1,3.665-29.677-4.137-9.986-10.3-18.65-17.531-26.608-1.119-1.231-2.163-2.531-3.242-3.8l.851-1.012a13.612,13.612,0,0,1,2.684,1.736C75.386-54.87,82.361-45.834,86.695-34.98c5.789,14.495,3.778,26.423-7.754,36.974A106.269,106.269,0,0,1,57.935,16.737C39.176,26.9,22.234,22.021,6.843,8.886c-2.8-2.391-5.251-5.193-7.863-7.8L0,0" fill="#b3dd9e"/>
      </g>
      <g id="Grupo_1646" data-name="Grupo 1646" transform="translate(-23.63 -708.897)">
        <path id="Caminho_1591" data-name="Caminho 1591" d="M0,0C1.321,1.035,2.679,2.027,3.954,3.115,5.773,4.667,7.519,6.3,9.319,7.878,23.8,20.548,38.262,21.457,53.409,9.472,60.46,3.893,66.4-3.163,72.462-9.894c5.4-5.994,5.956-13.332,2.041-20.027C70.041-37.551,64.4-44.494,59.213-51.7c-1.024-1.423-2.293-2.668-2.707-4.857a6.153,6.153,0,0,1,1.843.8c7.9,7.32,14.749,15.418,18.921,25.518C80.4-22.665,80.075-15.016,74.714-9.06,67.2-.717,59.345,7.674,50.3,14.183c-12.8,9.21-25.885,8.053-38.533-1.436C7.185,9.312,3.036,5.3-1.309,1.556L0,0" fill="#b3dd9e"/>
      </g>
      <g id="Grupo_1647" data-name="Grupo 1647" transform="translate(-17.371 -716.779)">
        <path id="Caminho_1592" data-name="Caminho 1592" d="M0,0A55.164,55.164,0,0,0,4.626,3.756c5.895,3.674,11.526,8.027,17.863,10.673,7.7,3.218,15.644,1.56,21.983-3.886A59,59,0,0,0,55.7-2.325c5.95-9.352,3.36-18.329-2.923-26.56-2.413-3.162-5.194-6.043-7.773-9.081-.835-.984-1.561-2.06-2.924-3.875C52.441-37.85,62.663-19.978,61.267-9.833,59.634,2.046,44.686,16.7,32.833,18.045,21.645,19.314,3.561,9.988,0,0" fill="#b3dd9e"/>
      </g>
      <g id="Grupo_1648" data-name="Grupo 1648" transform="translate(-10.394 -722.248)">
        <path id="Caminho_1593" data-name="Caminho 1593" d="M0,0A62.809,62.809,0,0,0,5.56,3.752c4.471,2.4,8.885,5.035,13.611,6.8,6.836,2.547,13.251,1.2,18.509-4.082,5.368-5.393,6.97-12.021,4.151-18.93-2.071-5.075-5.507-9.6-8.4-14.331-.831-1.358-1.888-2.579-2.953-4.013,1.06-.44,1.5-.72,1.577-.641,6.773,6.754,12.36,14.3,13.172,24.158a19.649,19.649,0,0,1-22.558,21C13.424,12.346,5.918,7.461-1.008,1.647L0,0" fill="#b3dd9e"/>
      </g>
      <g id="Grupo_1649" data-name="Grupo 1649" transform="translate(17.478 -749.489)">
        <path id="Caminho_1594" data-name="Caminho 1594" d="M0,0C4.708,5.842,8.843,12.034,7.581,20.233,6.7,25.971.7,31.106-5.416,32.052c-7.088,1.1-15.478-2.479-18.527-8.825a21.514,21.514,0,0,0,3.931,2.365c4.411,1.525,8.9,4,13.353,3.975,9.065-.049,14.395-8.794,11.117-17.336C2.923,8.23.523,4.561-1.485.741L0,0" fill="#b3dd9e"/>
      </g>
      <g id="Grupo_1650" data-name="Grupo 1650" transform="translate(-4.076 -728.614)">
        <path id="Caminho_1595" data-name="Caminho 1595" d="M0,0C5.758-.658,11.432.1,15.518-2.1c6.195-3.332,3.438-9.069.258-14.114,3.626,1.077,4.978,2.722,5.553,6.312.664,4.142-.575,7.656-3.992,10.07C11.856,4.04,6.241,2.887,0,0" fill="#b3dd9e"/>
      </g>
      <g id="Grupo_1651" data-name="Grupo 1651" transform="translate(-0.245 -732.987)">
        <path id="Caminho_1596" data-name="Caminho 1596" d="M0,0C8.189.365,9.577,1.256,9.219-8.48,12.3-6.379,12.761-3,10.384.032,7.748,3.393,3.686,3.547,0,0" fill="#b3dd9e"/>
      </g>
    </g>
  </g>
</svg>
