<svg xmlns="http://www.w3.org/2000/svg" xmlns:xlink="http://www.w3.org/1999/xlink" width="197" height="46" viewBox="0 0 197 46">
  <defs>
    <clipPath id="clip-path">
      <rect id="Retângulo_54" data-name="Retângulo 54" width="197" height="46" transform="translate(118 682)" fill="#fff" stroke="#707070" stroke-width="1"/>
    </clipPath>
  </defs>
  <g id="pv_sec2_before" transform="translate(-118 -682)" clip-path="url(#clip-path)">
    <g id="Grupo_280" data-name="Grupo 280" transform="translate(203.726 624.884)">
      <path id="Caminho_262" data-name="Caminho 262" d="M0,0C.085,3.711.045,7.43.275,11.131,1.707,34.122,9.73,44.617,31.7,51.025A69.379,69.379,0,0,0,51.556,53.9c10.578-.112,18.121-5.943,22.819-15.368,4.436-8.9,6.732-18.409,7.893-28.232.179-1.521.452-3.03.681-4.545l1.217-.02a12.5,12.5,0,0,1,.415,2.912c-.981,10.578-3.045,20.876-7.966,30.436C70.044,51.851,60.549,57.654,46.263,56.015a97.775,97.775,0,0,1-22.915-5.686C4.967,43.439-1.87,28.729-2.04,10.115c-.03-3.388.436-6.78.674-10.171L0,0" fill="#ffe8d7"/>
    </g>
    <g id="Grupo_288" data-name="Grupo 288">
      <g id="Grupo_269" data-name="Grupo 269" transform="translate(304.458 631.733)">
        <path id="Caminho_251" data-name="Caminho 251" d="M0,0C-.318,2.742-.555,5.058-.86,7.364c-2.187,16.529-7.532,31.886-17,45.708-6.3,9.193-14.794,15.436-25.974,16.164a199.1,199.1,0,0,1-31.519-.431c-13.411-1.264-23.36-8.8-30.383-20.15a59.432,59.432,0,0,1-8.984-26.42c-.837-9.9-1.09-19.84-1.613-30.053l-3.5-.244c-.734,18.132-.267,35.81,6.93,52.515,6.3,14.63,17.223,24.131,32.888,27.941,12.463,3.03,25.005,2.725,37.568.994a37.429,37.429,0,0,0,23.56-12.6C-4.042,43.885,1.552,23.321,4.212,1.36L0,0" fill="#ffe8d7"/>
      </g>
      <g id="Grupo_270" data-name="Grupo 270" transform="translate(192.063 624.082)">
        <path id="Caminho_252" data-name="Caminho 252" d="M0,0C.651,9.79.715,19.038,2,28.112,3.789,40.72,9.142,51.867,19.926,59.269a65.827,65.827,0,0,0,47.3,11.073,27.873,27.873,0,0,0,14.742-7.069C97.48,48.2,104.295,29.008,106.29,7.584l-3.572-.25c-1.479,6.81-2.419,13.391-4.4,19.639a102.331,102.331,0,0,1-7.682,18.181C79.9,64.7,71.032,68.935,48.919,65.869,22.653,62.226,8.108,47.994,5.454,22.855,4.673,15.46,4.8,7.969,4.5.315L0,0" fill="#ffe8d7"/>
      </g>
      <g id="Grupo_271" data-name="Grupo 271" transform="translate(161.598 618.34)">
        <path id="Caminho_253" data-name="Caminho 253" d="M0,0-1.842.155c.117,7.4.47,14.815.306,22.213-.523,23.549,6.3,43.865,25.013,59.319C37.176,93,52.133,101.119,70.443,100.923c16.623-.178,32.513-4.231,47.936-10.1a66.751,66.751,0,0,0,23.662-14.895c12.736-12.659,17.555-28.763,19.842-45.932.157-1.18-.384-2.452-.725-4.389-.676,1.093-.917,1.317-.958,1.574-.372,2.316-.7,4.639-1.056,6.959-3.98,26.063-16.9,45.515-42.239,54.831a208.183,208.183,0,0,1-33.02,8.859c-19.12,3.622-36.661-.932-52.32-12.559C13.487,71.846,1.521,54.973,1.091,31.533.924,22.444.693,13.357.451,4.269.413,2.843.156,1.423,0,0" fill="#ffe8d7"/>
      </g>
      <g id="Grupo_272" data-name="Grupo 272" transform="translate(203.726 624.884)">
        <path id="Caminho_254" data-name="Caminho 254" d="M0,0-1.366-.056c-.238,3.391-.7,6.783-.674,10.171.17,18.614,7.007,33.324,25.388,40.214a97.775,97.775,0,0,0,22.915,5.686c14.286,1.639,23.781-4.164,30.352-16.933,4.921-9.56,6.985-19.858,7.966-30.436a12.5,12.5,0,0,0-.415-2.912l-1.217.02c-.229,1.515-.5,3.024-.681,4.545-1.161,9.823-3.457,19.332-7.893,28.232-4.7,9.425-12.241,15.256-22.819,15.368A69.379,69.379,0,0,1,31.7,51.025C9.73,44.617,1.707,34.122.275,11.131.045,7.43.085,3.711,0,0" fill="#ffe8d7"/>
      </g>
      <g id="Grupo_273" data-name="Grupo 273" transform="translate(218.623 624.79)">
        <path id="Caminho_255" data-name="Caminho 255" d="M0,0C-4.785,8.5-.346,26.687,7.287,33.689c8.089,7.419,27.286,8.952,36.52,2.916,7.886-5.154,14.126-23.039,10.644-32.642-.439,2.042-.747,3.2-.926,4.369-.553,3.625-.875,7.294-1.614,10.879-1.923,9.331-6.592,16.547-16.678,18.06a54.275,54.275,0,0,1-15.711-.029c-7.608-1.115-13.55-5.626-15.967-12.918-1.987-6-2.364-12.534-3.37-18.845A50.6,50.6,0,0,1,0,0" fill="#ffe8d7"/>
      </g>
      <g id="Grupo_274" data-name="Grupo 274" transform="translate(226.632 626.333)">
        <path id="Caminho_256" data-name="Caminho 256" d="M0,0-1.752.294C-1.608,8.612-.47,16.773,4.166,24.012A18.077,18.077,0,0,0,32.36,27c6.352-6.513,8.223-14.949,8.824-23.727.007-.1-.452-.238-1.4-.709-.352,1.605-.562,3.076-1,4.473C37.244,11.9,36.176,17.02,33.9,21.522c-3.1,6.128-8.664,9.016-15.649,8.543A15.174,15.174,0,0,1,4.247,19.678c-1.63-4.345-2.464-9-3.5-13.553A58.133,58.133,0,0,1,0,0" fill="#ffe8d7"/>
      </g>
      <g id="Grupo_275" data-name="Grupo 275" transform="translate(262.369 629.243)">
        <path id="Caminho_257" data-name="Caminho 257" d="M0,0-1.411-.584C-2.851,3.116-3.95,7-5.8,10.478c-3.953,7.432-13.243,9.009-18.747,2.744-2.7-3.075-3.7-7.687-5.3-11.67a19.754,19.754,0,0,1-.73-4.157c-2.567,5.947.015,13.93,5.054,18.19,4.347,3.675,11.533,4.741,16.051,1.891C-3.019,13.4-1.215,6.8,0,0" fill="#ffe8d7"/>
      </g>
      <g id="Grupo_276" data-name="Grupo 276" transform="translate(234.865 626.877)">
        <path id="Caminho_258" data-name="Caminho 258" d="M0,0C1.762,6.075,4.351,10.671,10.348,12.139c3.738.916,6.925-.345,9.4-3.306,2.146-2.567,2.472-4.5,1.031-7.665C19.2,6.42,16.877,11.8,10.824,9.507,6.833,8,3.932,3.6,0,0" fill="#ffe8d7"/>
      </g>
      <g id="Grupo_277" data-name="Grupo 277" transform="translate(240.214 626.898)">
        <path id="Caminho_259" data-name="Caminho 259" d="M0,0C-.238,4.7,2.321,7.428,6.245,7.229c3.541-.18,5.608-2.54,5.208-5.946C4.908,7.408,4.69,5.906,0,0" fill="#ffe8d7"/>
      </g>
      <g id="Grupo_278" data-name="Grupo 278" transform="translate(304.458 631.733)">
        <path id="Caminho_260" data-name="Caminho 260" d="M0,0,4.212,1.36c-2.66,21.961-8.254,42.525-23.1,59.427a37.429,37.429,0,0,1-23.56,12.6c-12.563,1.731-25.105,2.036-37.568-.994C-95.679,68.584-106.6,59.083-112.9,44.453c-7.2-16.7-7.664-34.383-6.93-52.515l3.5.244c.523,10.213.776,20.158,1.613,30.053a59.432,59.432,0,0,0,8.984,26.42C-98.711,60-88.762,67.541-75.351,68.805a199.1,199.1,0,0,0,31.519.431c11.18-.728,19.678-6.971,25.974-16.164C-8.392,39.25-3.047,23.893-.86,7.364-.555,5.058-.318,2.742,0,0" fill="#ffe8d7"/>
      </g>
      <g id="Grupo_279" data-name="Grupo 279" transform="translate(192.063 624.082)">
        <path id="Caminho_261" data-name="Caminho 261" d="M0,0,4.5.315c.3,7.654.174,15.145.955,22.54,2.654,25.139,17.2,39.371,43.465,43.014C71.032,68.935,79.9,64.7,90.632,45.154a102.331,102.331,0,0,0,7.682-18.181c1.985-6.248,2.925-12.829,4.4-19.639l3.572.25c-2,21.424-8.81,40.614-24.322,55.689a27.873,27.873,0,0,1-14.742,7.069,65.827,65.827,0,0,1-47.3-11.073C9.142,51.867,3.789,40.72,2,28.112.715,19.038.651,9.79,0,0" fill="#ffe8d7"/>
      </g>
      <g id="Grupo_281" data-name="Grupo 281" transform="translate(218.623 624.79)">
        <path id="Caminho_263" data-name="Caminho 263" d="M0,0A50.6,50.6,0,0,0,.185,5.479c1.006,6.311,1.383,12.848,3.37,18.845,2.417,7.292,8.359,11.8,15.967,12.918a54.275,54.275,0,0,0,15.711.029c10.086-1.513,14.755-8.729,16.678-18.06.739-3.585,1.061-7.254,1.614-10.879.179-1.173.487-2.327.926-4.369,3.482,9.6-2.758,27.488-10.644,32.642-9.234,6.036-28.431,4.5-36.52-2.916C-.346,26.687-4.785,8.5,0,0" fill="#ffe8d7"/>
      </g>
      <g id="Grupo_282" data-name="Grupo 282" transform="translate(226.632 626.333)">
        <path id="Caminho_264" data-name="Caminho 264" d="M0,0A58.133,58.133,0,0,0,.75,6.125c1.033,4.553,1.867,9.208,3.5,13.553A15.174,15.174,0,0,0,18.253,30.065c6.985.473,12.554-2.415,15.649-8.543,2.274-4.5,3.342-9.619,4.881-14.482.441-1.4.651-2.868,1-4.473.946.471,1.405.606,1.4.709C40.583,12.054,38.712,20.49,32.36,27A18.077,18.077,0,0,1,4.166,24.012C-.47,16.773-1.608,8.612-1.752.294L0,0" fill="#ffe8d7"/>
      </g>
      <g id="Grupo_283" data-name="Grupo 283" transform="translate(262.369 629.243)">
        <path id="Caminho_265" data-name="Caminho 265" d="M0,0C-1.215,6.8-3.019,13.4-9.473,17.476c-4.518,2.85-11.7,1.784-16.051-1.891-5.039-4.26-7.621-12.243-5.054-18.19a19.754,19.754,0,0,0,.73,4.157c1.6,3.983,2.6,8.6,5.3,11.67,5.5,6.265,14.794,4.688,18.747-2.744C-3.95,7-2.851,3.116-1.411-.584L0,0" fill="#ffe8d7"/>
      </g>
      <g id="Grupo_284" data-name="Grupo 284" transform="translate(234.865 626.877)">
        <path id="Caminho_266" data-name="Caminho 266" d="M0,0C3.932,3.6,6.833,8,10.824,9.507,16.877,11.8,19.2,6.42,20.78,1.168c1.441,3.167,1.115,5.1-1.031,7.665-2.476,2.961-5.663,4.222-9.4,3.306C4.351,10.671,1.762,6.075,0,0" fill="#ffe8d7"/>
      </g>
      <g id="Grupo_285" data-name="Grupo 285" transform="translate(240.214 626.898)">
        <path id="Caminho_267" data-name="Caminho 267" d="M0,0C4.69,5.906,4.908,7.408,11.453,1.283c.4,3.406-1.667,5.766-5.208,5.946C2.321,7.428-.238,4.7,0,0" fill="#ffe8d7"/>
      </g>
    </g>
    <g id="Grupo_287" data-name="Grupo 287" transform="translate(166.715 648.313)">
      <path id="Caminho_269" data-name="Caminho 269" d="M0,0-38.778-4.47-45.033,6.646,8.543,12.779-48.75,44.043l.972,5.644L-7.242,28.994-48.061,61.552l4.535,7.087,41.67-28.306L-16.313,72.324l8.5,7.087,21.827-43.37,10.2,42.519,8.76-4.907-9.61-35.912L46.631,74.308l5.733-2.834L32.541,31.08,75.416,57.657l3.519-8.538-48.294-30.3,31.282.218.284-6.236-29.437.524,22.6-16.035L20.86-7.856Z" fill="#e13f44"/>
    </g>
  </g>
</svg>
