<svg xmlns="http://www.w3.org/2000/svg" xmlns:xlink="http://www.w3.org/1999/xlink" width="14.173" height="11.339" viewBox="0 0 14.173 11.339">
  <defs>
    <clipPath id="clip-path">
      <path id="Caminho_1559" data-name="Caminho 1559" d="M0,0H14.173V-11.339H0Z" fill="none"/>
    </clipPath>
    <clipPath id="clip-path-2">
      <path id="Caminho_1572" data-name="Caminho 1572" d="M0-11.338v9.617H9.949a.847.847,0,0,0,.847-.847h0v-8.288A5.648,5.648,0,0,0,8.5-11.338H0Z" fill="none"/>
    </clipPath>
  </defs>
  <g id="pv_secsumario" transform="translate(0 11.339)">
    <g id="Grupo_1614" data-name="Grupo 1614" clip-path="url(#clip-path)">
      <g id="Grupo_1613" data-name="Grupo 1613" transform="translate(0 -11.338)">
        <path id="Caminho_1558" data-name="Caminho 1558" d="M0,0V11.338H8.5A5.669,5.669,0,1,0,8.5,0Z" fill="#287642"/>
      </g>
    </g>
    <g id="Grupo_1627" data-name="Grupo 1627" clip-path="url(#clip-path-2)">
      <g id="Grupo_1615" data-name="Grupo 1615" transform="translate(-16.174 -18.476)">
        <path id="Caminho_1560" data-name="Caminho 1560" d="M0,0C.21,1.646.353,3.213.621,4.759A11.033,11.033,0,0,0,4.2,11.69c4.071,3.4,8.669,3.753,13.5,2.025a8.146,8.146,0,0,0,5.468-6.507,30.707,30.707,0,0,0,.472-3.275c.122-1.434.15-2.875.22-4.335a3.167,3.167,0,0,1,.417-.031,4.663,4.663,0,0,1,.478.075,31.564,31.564,0,0,1-.915,8.711,9.076,9.076,0,0,1-5.873,6.23,15.97,15.97,0,0,1-6.978.929A11.9,11.9,0,0,1,.179,6.98,24.924,24.924,0,0,1-.828.39L0,0" fill="#ffe8d7"/>
      </g>
      <g id="Grupo_1616" data-name="Grupo 1616" transform="translate(-14.353 -18.914)">
        <path id="Caminho_1561" data-name="Caminho 1561" d="M0,0C.023.494.036.911.062,1.327A18.559,18.559,0,0,0,2.529,9.712a6.054,6.054,0,0,0,4.442,3.215,35.831,35.831,0,0,0,5.641.317A7.057,7.057,0,0,0,18.3,10.021,10.643,10.643,0,0,0,20.232,5.41c.274-1.759.443-3.534.665-5.353h.629c-.1,3.251-.4,6.406-1.9,9.3A8.259,8.259,0,0,1,13.4,13.944a17.887,17.887,0,0,1-6.729-.292A6.7,6.7,0,0,1,2.617,11.1C.174,7.9-.569,4.15-.77.191L0,0" fill="#ffe8d7"/>
      </g>
      <g id="Grupo_1617" data-name="Grupo 1617" transform="translate(5.838 -18.877)">
        <path id="Caminho_1562" data-name="Caminho 1562" d="M0,0C-.239,1.742-.366,3.395-.709,5A7.779,7.779,0,0,1-4.3,10.348a11.8,11.8,0,0,1-8.6,1.388,4.991,4.991,0,0,1-2.547-1.448A15.276,15.276,0,0,1-19.1.027h.641c.18,1.236.265,2.424.542,3.566A18.313,18.313,0,0,0-16.769,6.94c1.675,3.63,3.207,4.5,7.2,4.225,4.742-.323,7.52-2.686,8.309-7.147.232-1.312.3-2.653.453-4.018Z" fill="#ffe8d7"/>
      </g>
      <g id="Grupo_1618" data-name="Grupo 1618" transform="translate(10.469 -18.919)">
        <path id="Caminho_1563" data-name="Caminho 1563" d="M0,0,.327.051C.214,1.373.058,2.694,0,4.018c-.2,4.217-1.674,7.764-5.214,10.293-2.59,1.852-5.366,3.116-8.637,2.852a24.821,24.821,0,0,1-8.445-2.4A11.968,11.968,0,0,1-26.345,11.8c-2.119-2.423-2.779-5.362-2.973-8.46a3.182,3.182,0,0,1,.184-.776,1.523,1.523,0,0,1,.152.293c.037.419.067.839.1,1.258.386,4.71,2.452,8.349,6.866,10.331a37.323,37.323,0,0,0,5.793,2A11.585,11.585,0,0,0-6.71,14.851C-3.31,12.677-.959,9.81-.589,5.624-.446,4-.291,2.379-.134.758-.109.5-.046.252,0,0" fill="#ffe8d7"/>
      </g>
      <g id="Grupo_1619" data-name="Grupo 1619" transform="translate(3.742 -18.879)">
        <path id="Caminho_1564" data-name="Caminho 1564" d="M0,0,.245.007c0,.609.041,1.222-.007,1.827C-.025,5.16-1.431,7.7-4.8,8.706a17.546,17.546,0,0,1-4.168.731A4.966,4.966,0,0,1-14.187,6.03,14.673,14.673,0,0,1-15.23.488a2.217,2.217,0,0,1,.11-.515l.217.019c.023.273.052.547.066.821a15.174,15.174,0,0,0,1.058,5.146A4.476,4.476,0,0,0-9.892,8.992a12.432,12.432,0,0,0,3.586-.266C-2.3,7.856-.732,6.079-.188,1.987-.1,1.328-.062.662,0,0" fill="#ffe8d7"/>
      </g>
      <g id="Grupo_1620" data-name="Grupo 1620" transform="translate(2.729 -18.893)">
        <path id="Caminho_1565" data-name="Caminho 1565" d="M0,0,.334.029C.264.972.248,1.923.115,2.858-.254,5.439-1.644,7.1-4.211,7.518a26.232,26.232,0,0,1-5.557.137,3.165,3.165,0,0,1-2.767-2.171A12.072,12.072,0,0,1-13.3.3,1.015,1.015,0,0,1-13.182,0a1.9,1.9,0,0,1,.251.881c.235,1.445.386,2.912.756,4.322A2.674,2.674,0,0,0-9.6,7.3a26.922,26.922,0,0,0,4.479.037C-1.959,6.963-.379,5.171-.168,2.005c.026-.393.039-.788.07-1.181C-.076.549-.033.275,0,0" fill="#ffe8d7"/>
      </g>
      <g id="Grupo_1621" data-name="Grupo 1621" transform="translate(-16.174 -18.476)">
        <path id="Caminho_1566" data-name="Caminho 1566" d="M0,0-.828.39A24.924,24.924,0,0,0,.179,6.98a11.9,11.9,0,0,0,10.81,8.532,15.97,15.97,0,0,0,6.978-.929,9.076,9.076,0,0,0,5.873-6.23,31.564,31.564,0,0,0,.915-8.711,4.663,4.663,0,0,0-.478-.075A3.167,3.167,0,0,0,23.86-.4c-.07,1.46-.1,2.9-.22,4.335a30.707,30.707,0,0,1-.472,3.275A8.146,8.146,0,0,1,17.7,13.715C12.873,15.443,8.275,15.09,4.2,11.69A11.033,11.033,0,0,1,.621,4.759C.353,3.213.21,1.646,0,0" fill="#ffe8d7"/>
      </g>
      <g id="Grupo_1622" data-name="Grupo 1622" transform="translate(-14.353 -18.914)">
        <path id="Caminho_1567" data-name="Caminho 1567" d="M0,0-.77.191C-.569,4.15.174,7.9,2.617,11.1a6.7,6.7,0,0,0,4.055,2.548,17.887,17.887,0,0,0,6.729.292A8.259,8.259,0,0,0,19.63,9.359c1.5-2.9,1.8-6.051,1.9-9.3H20.9c-.222,1.819-.391,3.594-.665,5.353A10.643,10.643,0,0,1,18.3,10.021a7.057,7.057,0,0,1-5.684,3.223,35.831,35.831,0,0,1-5.641-.317A6.054,6.054,0,0,1,2.529,9.712,18.559,18.559,0,0,1,.062,1.327C.036.911.023.494,0,0" fill="#ffe8d7"/>
      </g>
      <g id="Grupo_1623" data-name="Grupo 1623" transform="translate(5.838 -18.877)">
        <path id="Caminho_1568" data-name="Caminho 1568" d="M0,0H-.808c-.149,1.365-.221,2.706-.453,4.018-.789,4.461-3.567,6.824-8.309,7.147-3.992.272-5.524-.6-7.2-4.225a18.313,18.313,0,0,1-1.146-3.347c-.277-1.142-.362-2.33-.542-3.566H-19.1a15.276,15.276,0,0,0,3.652,10.261A4.991,4.991,0,0,0-12.9,11.736a11.8,11.8,0,0,0,8.6-1.388A7.779,7.779,0,0,0-.709,5c.343-1.606.47-3.259.709-5" fill="#ffe8d7"/>
      </g>
      <g id="Grupo_1624" data-name="Grupo 1624" transform="translate(10.469 -18.919)">
        <path id="Caminho_1569" data-name="Caminho 1569" d="M0,0C-.046.252-.109.5-.134.758-.291,2.379-.446,4-.589,5.624-.959,9.81-3.31,12.677-6.71,14.851a11.585,11.585,0,0,1-9.511,1.591,37.323,37.323,0,0,1-5.793-2c-4.414-1.982-6.48-5.621-6.866-10.331-.035-.419-.065-.839-.1-1.258a1.523,1.523,0,0,0-.152-.293,3.182,3.182,0,0,0-.184.776c.194,3.1.854,6.037,2.973,8.46A11.968,11.968,0,0,0-22.3,14.758a24.821,24.821,0,0,0,8.445,2.4c3.271.264,6.047-1,8.637-2.852C-1.679,11.782-.206,8.235,0,4.018.058,2.694.214,1.373.327.051L0,0" fill="#ffe8d7"/>
      </g>
      <g id="Grupo_1625" data-name="Grupo 1625" transform="translate(3.742 -18.879)">
        <path id="Caminho_1570" data-name="Caminho 1570" d="M0,0C-.062.662-.1,1.328-.188,1.987-.732,6.079-2.3,7.856-6.306,8.726a12.432,12.432,0,0,1-3.586.266,4.476,4.476,0,0,1-3.887-3.033A15.174,15.174,0,0,1-14.837.813c-.014-.274-.043-.548-.066-.821l-.217-.019a2.217,2.217,0,0,0-.11.515A14.673,14.673,0,0,0-14.187,6.03,4.966,4.966,0,0,0-8.972,9.437,17.546,17.546,0,0,0-4.8,8.706C-1.431,7.7-.025,5.16.238,1.834.286,1.229.245.616.245.007L0,0" fill="#ffe8d7"/>
      </g>
      <g id="Grupo_1626" data-name="Grupo 1626" transform="translate(2.729 -18.893)">
        <path id="Caminho_1571" data-name="Caminho 1571" d="M0,0C-.033.275-.076.549-.1.824c-.031.393-.044.788-.07,1.181C-.379,5.171-1.959,6.963-5.123,7.332A26.922,26.922,0,0,1-9.6,7.3a2.674,2.674,0,0,1-2.573-2.1c-.37-1.41-.521-2.877-.756-4.322A1.9,1.9,0,0,0-13.182,0,1.015,1.015,0,0,0-13.3.3a12.072,12.072,0,0,0,.769,5.182A3.165,3.165,0,0,0-9.768,7.655a26.232,26.232,0,0,0,5.557-.137C-1.644,7.1-.254,5.439.115,2.858.248,1.923.264.972.334.029L0,0" fill="#ffe8d7"/>
      </g>
    </g>
  </g>
</svg>
