<svg xmlns="http://www.w3.org/2000/svg" xmlns:xlink="http://www.w3.org/1999/xlink" width="60.866" height="36.393" viewBox="0 0 60.866 36.393">
  <defs>
    <clipPath id="clip-path">
      <path id="Caminho_1188" data-name="Caminho 1188" d="M0,0H60.866V-36.393H0Z" fill="none"/>
    </clipPath>
  </defs>
  <g id="pv_sintesecap_bg" transform="translate(0 36.393)">
    <g id="Grupo_1241" data-name="Grupo 1241" clip-path="url(#clip-path)">
      <g id="Grupo_1224" data-name="Grupo 1224" transform="translate(53.62 -3.105)">
        <path id="Caminho_1171" data-name="Caminho 1171" d="M0,0C-.082-1.017-.14-1.875-.223-2.731a38.261,38.261,0,0,0-5.689-17.1c-2.207-3.477-5.265-5.892-9.385-6.305a73.555,73.555,0,0,0-11.648-.248c-4.97.294-8.743,2.951-11.483,7.051a21.966,21.966,0,0,0-3.659,9.643c-.437,3.644-.659,7.314-.984,11.08l-1.3.045C-44.4-5.275-44-11.8-41.13-17.876a17.026,17.026,0,0,1,12.509-9.9,36.844,36.844,0,0,1,13.889.117A13.831,13.831,0,0,1-6.192-22.7C-.927-16.262.874-8.594,1.573-.448L0,0" fill="#ffc593"/>
      </g>
      <g id="Grupo_1225" data-name="Grupo 1225" transform="translate(12.005 -1.728)">
        <path id="Caminho_1172" data-name="Caminho 1172" d="M0,0C.367-3.608.51-7.023,1.1-10.358c.823-4.634,2.944-8.683,7.023-11.278a24.33,24.33,0,0,1,17.614-3.48,10.307,10.307,0,0,1,5.354,2.8C36.628-16.546,38.9-9.37,39.359-1.43l-1.323.046c-.459-2.534-.721-4.977-1.374-7.311a37.814,37.814,0,0,0-2.6-6.815c-3.714-7.359-6.933-9.037-15.141-8.189C9.17-22.693,3.614-17.623,2.309-8.372c-.384,2.722-.434,5.49-.643,8.314L0,0" fill="#ffc593"/>
      </g>
      <g id="Grupo_1226" data-name="Grupo 1226" transform="translate(0.678)">
        <path id="Caminho_1173" data-name="Caminho 1173" d="M0,0-.678-.081c.138-2.734.364-5.466.4-8.2.111-8.7,2.892-16.121,10-21.588,5.206-4,10.835-6.808,17.6-6.5A51.212,51.212,0,0,1,44.9-32.02a24.685,24.685,0,0,1,8.548,5.807c4.541,4.84,6.113,10.851,6.736,17.222a6.5,6.5,0,0,1-.324,1.612c-.236-.412-.322-.5-.334-.594-.107-.86-.2-1.723-.3-2.584-1.134-9.678-5.655-17.03-14.9-20.8a76.979,76.979,0,0,0-12.082-3.7,23.893,23.893,0,0,0-19.488,3.964C5.909-26.364,1.271-20.286.81-11.634.631-8.279.428-4.925.222-1.571.189-1.045.076-.524,0,0" fill="#ffc593"/>
      </g>
      <g id="Grupo_1227" data-name="Grupo 1227" transform="translate(16.324 -1.874)">
        <path id="Caminho_1174" data-name="Caminho 1174" d="M0,0-.5,0C-.549-1.252-.678-2.511-.623-3.763c.3-6.873,3.018-12.218,9.9-14.526a36.142,36.142,0,0,1,8.538-1.805c5.3-.421,8.73,1.845,10.993,6.646A30.258,30.258,0,0,1,31.354-2.1a4.669,4.669,0,0,1-.191,1.071l-.449-.024c-.066-.562-.147-1.123-.194-1.687a31.334,31.334,0,0,0-2.551-10.53c-1.613-3.542-4.324-5.793-8.23-5.971a25.616,25.616,0,0,0-7.37.806C4.17-16.355,1.07-12.582.245-4.108.112-2.744.079-1.37,0,0" fill="#ffc593"/>
      </g>
      <g id="Grupo_1228" data-name="Grupo 1228" transform="translate(21.825 -1.647)">
        <path id="Caminho_1175" data-name="Caminho 1175" d="M0,0C-1.658-3.2.216-9.862,3.126-12.35,6.21-14.986,13.32-15.3,16.653-12.956,19.5-10.95,21.574-4.264,20.164-.762c-.136-.76-.235-1.19-.286-1.625-.157-1.346-.229-2.706-.455-4.039-.591-3.472-2.222-6.2-5.928-6.887a20.056,20.056,0,0,0-5.8-.191A7,7,0,0,0,1.627-8.939,44.214,44.214,0,0,0,.139-2.021,18.736,18.736,0,0,0,0,0" fill="#ffc593"/>
      </g>
      <g id="Grupo_1229" data-name="Grupo 1229" transform="translate(24.803 -2.114)">
        <path id="Caminho_1176" data-name="Caminho 1176" d="M0,0-.643-.131A16.254,16.254,0,0,1,1.849-8.816,6.681,6.681,0,0,1,12.3-9.557c2.263,2.488,2.845,5.628,2.954,8.878,0,.038-.17.082-.526.244-.109-.6-.168-1.143-.313-1.665A35.4,35.4,0,0,0,12.8-7.512,5.645,5.645,0,0,0,7.13-10.87,5.609,5.609,0,0,0,1.823-7.214,38.2,38.2,0,0,0,.356-2.253,21.385,21.385,0,0,0,0,0" fill="#ffc593"/>
      </g>
      <g id="Grupo_1230" data-name="Grupo 1230" transform="translate(38.041 -2.728)">
        <path id="Caminho_1177" data-name="Caminho 1177" d="M0,0-.529.2A37.638,37.638,0,0,0-2.008-3.945,4.164,4.164,0,0,0-8.9-5.2c-1.038,1.1-1.465,2.792-2.108,4.243A7.309,7.309,0,0,0-11.329.568a6.183,6.183,0,0,1,2.1-6.654,5.4,5.4,0,0,1,5.953-.491C-.942-4.99-.361-2.526,0,0" fill="#ffc593"/>
      </g>
      <g id="Grupo_1231" data-name="Grupo 1231" transform="translate(27.852 -2.209)">
        <path id="Caminho_1178" data-name="Caminho 1178" d="M0,0C.729-2.221,1.745-3.885,3.979-4.35a3.284,3.284,0,0,1,3.43,1.342A2.28,2.28,0,0,1,7.691-.163c-.517-1.961-1.3-3.977-3.57-3.209C2.627-2.865,1.5-1.279,0,0" fill="#ffc593"/>
      </g>
      <g id="Grupo_1232" data-name="Grupo 1232" transform="translate(29.828 -2.147)">
        <path id="Caminho_1179" data-name="Caminho 1179" d="M0,0C-.027-1.739.953-2.714,2.4-2.59A1.865,1.865,0,0,1,4.247-.326C1.909-2.673,1.808-2.121,0,0" fill="#ffc593"/>
      </g>
      <g id="Grupo_1233" data-name="Grupo 1233" transform="translate(53.62 -3.105)">
        <path id="Caminho_1180" data-name="Caminho 1180" d="M0,0,1.573-.448C.874-8.594-.927-16.262-6.192-22.7a13.831,13.831,0,0,0-8.54-4.958,36.844,36.844,0,0,0-13.889-.117,17.026,17.026,0,0,0-12.509,9.9C-44-11.8-44.4-5.275-44.367,1.432l1.3-.045c.325-3.766.547-7.436.984-11.08a21.966,21.966,0,0,1,3.659-9.643c2.74-4.1,6.513-6.757,11.483-7.051a73.555,73.555,0,0,1,11.648.248c4.12.413,7.178,2.828,9.385,6.305A38.261,38.261,0,0,1-.223-2.731C-.14-1.875-.082-1.017,0,0" fill="#ffc593"/>
      </g>
      <g id="Grupo_1234" data-name="Grupo 1234" transform="translate(12.005 -1.728)">
        <path id="Caminho_1181" data-name="Caminho 1181" d="M0,0,1.666-.058c.209-2.824.259-5.592.643-8.314C3.614-17.623,9.17-22.693,18.919-23.7c8.208-.848,11.427.83,15.141,8.189a37.814,37.814,0,0,1,2.6,6.815c.653,2.334.915,4.777,1.374,7.311l1.323-.046c-.461-7.94-2.731-15.116-8.266-20.884a10.307,10.307,0,0,0-5.354-2.8,24.33,24.33,0,0,0-17.614,3.48c-4.079,2.595-6.2,6.644-7.023,11.278C.51-7.023.367-3.608,0,0" fill="#ffc593"/>
      </g>
      <g id="Grupo_1235" data-name="Grupo 1235" transform="translate(16.324 -1.874)">
        <path id="Caminho_1182" data-name="Caminho 1182" d="M0,0C.079-1.37.112-2.744.245-4.108c.825-8.474,3.925-12.247,12.124-14.33a25.616,25.616,0,0,1,7.37-.806c3.906.178,6.617,2.429,8.23,5.971A31.334,31.334,0,0,1,30.52-2.743c.047.564.128,1.125.194,1.687l.449.024A4.669,4.669,0,0,0,31.354-2.1,30.258,30.258,0,0,0,28.8-13.448c-2.263-4.8-5.7-7.067-10.993-6.646a36.142,36.142,0,0,0-8.538,1.805C2.395-15.981-.32-10.636-.623-3.763-.678-2.511-.549-1.252-.5,0L0,0" fill="#ffc593"/>
      </g>
      <g id="Grupo_1236" data-name="Grupo 1236" transform="translate(21.825 -1.647)">
        <path id="Caminho_1183" data-name="Caminho 1183" d="M0,0A18.736,18.736,0,0,1,.139-2.021,44.214,44.214,0,0,1,1.627-8.939,7,7,0,0,1,7.691-13.5a20.056,20.056,0,0,1,5.8.191c3.706.69,5.337,3.415,5.928,6.887.226,1.333.3,2.693.455,4.039.051.435.15.865.286,1.625,1.41-3.5-.664-10.188-3.511-12.194C13.32-15.3,6.21-14.986,3.126-12.35.216-9.862-1.658-3.2,0,0" fill="#ffc593"/>
      </g>
      <g id="Grupo_1237" data-name="Grupo 1237" transform="translate(24.803 -2.114)">
        <path id="Caminho_1184" data-name="Caminho 1184" d="M0,0A21.385,21.385,0,0,1,.356-2.253,38.2,38.2,0,0,1,1.823-7.214,5.609,5.609,0,0,1,7.13-10.87,5.645,5.645,0,0,1,12.8-7.512,35.4,35.4,0,0,1,14.416-2.1c.145.522.2,1.068.313,1.665.356-.162.527-.206.526-.244-.109-3.25-.691-6.39-2.954-8.878a6.681,6.681,0,0,0-10.452.741A16.254,16.254,0,0,0-.643-.131L0,0" fill="#ffc593"/>
      </g>
      <g id="Grupo_1238" data-name="Grupo 1238" transform="translate(38.041 -2.728)">
        <path id="Caminho_1185" data-name="Caminho 1185" d="M0,0C-.361-2.526-.942-4.99-3.274-6.577a5.4,5.4,0,0,0-5.953.491,6.183,6.183,0,0,0-2.1,6.654,7.309,7.309,0,0,1,.324-1.526C-10.362-2.409-9.935-4.1-8.9-5.2A4.164,4.164,0,0,1-2.008-3.945,37.638,37.638,0,0,1-.529.2L0,0" fill="#ffc593"/>
      </g>
      <g id="Grupo_1239" data-name="Grupo 1239" transform="translate(27.852 -2.209)">
        <path id="Caminho_1186" data-name="Caminho 1186" d="M0,0C1.5-1.279,2.627-2.865,4.121-3.372,6.386-4.14,7.174-2.124,7.691-.163a2.28,2.28,0,0,0-.282-2.845A3.284,3.284,0,0,0,3.979-4.35C1.745-3.885.729-2.221,0,0" fill="#ffc593"/>
      </g>
      <g id="Grupo_1240" data-name="Grupo 1240" transform="translate(29.828 -2.147)">
        <path id="Caminho_1187" data-name="Caminho 1187" d="M0,0C1.808-2.121,1.909-2.673,4.247-.326A1.865,1.865,0,0,0,2.4-2.59C.953-2.714-.027-1.739,0,0" fill="#ffc593"/>
      </g>
    </g>
  </g>
</svg>
