<svg xmlns="http://www.w3.org/2000/svg" xmlns:xlink="http://www.w3.org/1999/xlink" width="755" height="872" viewBox="0 0 755 872">
  <defs>
    <clipPath id="clip-path">
      <rect id="Retângulo_61" data-name="Retângulo 61" width="755" height="872" transform="translate(683 243)" fill="#fff" stroke="#707070" stroke-width="1"/>
    </clipPath>
    <clipPath id="clip-path-2">
      <path id="Caminho_900" data-name="Caminho 900" d="M0,0H50.946V-742.677H0Z" fill="none"/>
    </clipPath>
  </defs>
  <g id="pv_secreferencias_bg" transform="translate(-683 -243)" clip-path="url(#clip-path)">
    <g id="Grupo_947" data-name="Grupo 947" transform="translate(691 1404.762)">
      <g id="Grupo_1066" data-name="Grupo 1066" transform="translate(-23 -995.529)">
        <path id="Caminho_1014" data-name="Caminho 1014" d="M0,0H117.177V-170.078H0Z" fill="#b3dd9e"/>
      </g>
      <g id="Grupo_948" data-name="Grupo 948" transform="translate(-20)">
        <g id="Grupo_834" data-name="Grupo 834" transform="translate(294.803 -1256.882)">
          <g id="Grupo_951" data-name="Grupo 951" transform="translate(-314.803 810.474)">
            <g id="Grupo_950" data-name="Grupo 950" clip-path="url(#clip-path-2)">
              <g id="Grupo_949" data-name="Grupo 949" transform="translate(50.946 -42.52)">
                <path id="Caminho_899" data-name="Caminho 899" d="M0,0V-657.638a42.519,42.519,0,0,0-42.52-42.519h-8.426V42.52h8.426A42.52,42.52,0,0,0,0,0" fill="#b3dd9e"/>
              </g>
            </g>
          </g>
          <path id="Caminho_786" data-name="Caminho 786" d="M0,0C-162.815,0-294.8,131.988-294.8,294.8V962.079c0,162.815,131.988,294.8,294.8,294.8H157.323c162.815,0,294.8-131.988,294.8-294.8V294.8C452.126,131.988,320.138,0,157.323,0Z" transform="translate(30 -10)" fill="#fff"/>
        </g>
        <g id="Grupo_835" data-name="Grupo 835" transform="translate(68.956 -1113.134)">
          <path id="Caminho_787" data-name="Caminho 787" d="M0,0Q.368,2.314.734,4.63.368,2.315,0,0L4.627-.611,0,0" fill="#fff"/>
        </g>
        <g id="Grupo_836" data-name="Grupo 836" transform="translate(82.996 -1151.66)">
          <path id="Caminho_788" data-name="Caminho 788" d="M0,0,2.368.279,0,0Q.266-1.7.532-3.4.265-1.7,0,0" fill="#fff"/>
        </g>
        <g id="Grupo_837" data-name="Grupo 837" transform="translate(149.57 -1141.78)">
          <path id="Caminho_789" data-name="Caminho 789" d="M0,0C-1.388,3.614-2.77,7.221-3.957,10.323-2.77,7.222-1.39,3.616-.009.01L0,0" fill="#2b2e34"/>
        </g>
        <g id="Grupo_838" data-name="Grupo 838" transform="translate(150.938 -1176.415)">
          <path id="Caminho_790" data-name="Caminho 790" d="M0,0,5.323,4.383C5.065,6.929,4.8,9.6,4.532,12.2L-.5,14.034,3.641,20.3l-5.09,14.344-.028.005c.184-1.2.371-2.422.651-4.246L-5.9,29.983c-.874,4.84-.213,5.451,4.424,4.67l-.021.132.122-.14c-1.381,3.606-2.761,7.212-3.948,10.313l-.5,1.3a35.65,35.65,0,0,0-5.789.11c-.444.083-.639,1.489-.958,2.314l2.776,3.2-2.176,2.614-3.99-3.187c-4.228,3.051-2.737,5.471.491,7.814l-6.61,5.979-6.345-2.263c.943,2.956,1.364,4.274,1.948,6.107L-42.53,76.458l-3.941-5.19c-1.013,2.564-1.641,4.152-2.377,6.014l-2.327.364c-.607-1.239-1.157-2.363-2.3-4.7l-3.43,5.456h-3.429c.924-3.536-.008-5.772-4.664-6.248-.806,2.045-1.659,4.21-2.638,6.7l-3.1-.142-1.689-3.628L-76.7,78.74l-14.5-4.479-1.854-4.4-5.066.328-1.016-4.006-5.261-1.549c.232-2.888.382-4.763.583-7.267l-6.793,1.269c-.192-2-.374-3.9-.643-6.707l-4.6-1.392-3.894-7.628,3.74-3.5c-.855-1.475-1.617-2.791-2.3-3.974h-4.506c-.3-1.23-.559-2.311-.624-2.582l4.332-3.075-.6-1.482h-5.082l-.933-3.917,3.824-3.532c-2.13-2.378-4.06-4.533-5.97-6.664l5.459-3.361.168-1.568-6.373-3.287c.433-2.112.988-4.82,1.734-8.456-.064-.083-.842-1.106-1.385-1.82v-7.011l5.948-3.189-3.9-4.556,4.4-1.116,2.833,2.908,5.9-3.9,3.246,5.017,4.362-4.691h3.017c1.074,2.191,1.526,4.363,2.859,5.378.849.646,3-.422,4.7-.746-.268-2.2-.424-3.48-.608-4.989l3.468-.152c.479,1.788.9,3.356,1.32,4.925l1.57.343,2.771-5.368h2.606c-.033,5.12.724,5.8,5.285,4.46l-.9-4.605h3.776c.991,1.746,1.848,3.254,3.437,6.051,1.519-2.91,2.376-4.551,3.454-6.614l4.465,2.123,5.287-2.318c1.233,5.54,2.094,6.018,6.5,4.065.3-1.121.633-2.361.957-3.568h8.13l3.985,6.1c1.435-2.988,2.191-4.562,3.036-6.32l3.872.406L-35-17.086l5.318,3.067,1.472-1.043c-.253-2.15-.506-4.3-.769-6.539H-25.5c.347,1.558.627,2.811.753,3.375,5.415,4.254,4.2-4.448,7.883-3.267.107,1.477.2,2.754.328,4.519l4.426-.314c.428-1.754.727-2.98,1.019-4.175h3.719l2.994,3.47,3.568-3.226L2.64-19.637v4.379L5.677-12.5V-3.43L0,0M.3,10.245c1.027.038,2.107-1.394,3.625-2.516C2.4,6.3,1.408,5.377-.484,3.608L-4.395,7.469C-2.117,8.9-.933,10.2.3,10.245M-58.321,26.473c-1.546.107-3.023,1.207-5.245,2.224l4.451,4.863c1.358-1.822,2.693-3.052,3.186-4.557.189-.576-1.6-2.586-2.392-2.53m.72-7.047-1.48-1.588-2.8,2.607,1.479,1.586,2.8-2.6m-5.976,21,2.32.318.585-4.09-2.336-.32q-.285,2.046-.569,4.092m3.1,5.267c-.107.505,1.265,1.325,2.885,2.885.288-2.456.421-3.583.553-4.709l-1.482-.762c-.7.852-1.752,1.629-1.956,2.586m3.513-9.832q.088,1.3.175,2.608h4.559q-.1-1.608-.191-3.218l-4.543.61m4.709-14.168,2.663.126.453-3.791-3.116-.142Zm.323,7.723,4.144,3.912,3.124-3.58c-2.244-4.583-4.124-4.75-7.268-.332m3.631,9.322c1.023.724,2.1,2.076,3.057,2,.993-.08,1.876-1.545,2.806-2.4l-.615-1.653-4.876.463-.372,1.6m4.92-23.264,1.678-.106,1.23-4.822L-42.421,9.6c-.976.861-2.562,1.607-2.75,2.615-.176.941,1.132,2.159,1.787,3.255m2.379,3.551c-.941-.137-3.177,2.17-3.127,3.308.062,1.4,1.9,2.723,3.751,5.072,1.537-2.423,3.306-4.018,3.023-5.055a5.408,5.408,0,0,0-3.647-3.325m3.3,10.134a3.079,3.079,0,0,0-2.055,2.228,3.023,3.023,0,0,0,2.195,2.046c.82.05,1.713-1.12,3.285-2.28-1.646-1.022-2.635-2.122-3.425-1.994m6.959-10.838c.565.073,1.981-1.658,1.885-2.426-.132-1.062-1.253-2.729-2.082-2.812-1.406-.14-2.915.756-4.38,1.217q-.054,1.135-.107,2.272a19.994,19.994,0,0,0,4.684,1.749m3.243,7.257c-2.178-3.738-3.053-3.828-6.035-.4,2.491,4.2,3.7,4.23,6.035.4m-2.163,9.415c1.1.92,2.693,1.259,4.088,1.83l1.413-1.649c-.606-1.262-.965-2.789-1.918-3.679-.491-.458-2.4-.136-3.013.481-.634.634-.988,2.668-.57,3.017M-31.174.059c.246.986,2.279,1.525,3.526,2.26l1.4-1.185q-.612-2.263-1.225-4.526l-1.791-.31c-.709,1.272-2.17,2.731-1.912,3.761M-29.4,6.054c2.606,5.084,3.918,5.358,7.38,1.846-.507-1.336-.968-2.546-1.8-4.745l-5.576,2.9m5.459,11.683-1.421.563q.331,2.021.664,4.04l3.837-.869q-.039-.9-.076-1.792l-3-1.942M-24.317,27.9c1.881,1.41,2.861,2.145,5.031,3.77.185-2.731.289-4.273.394-5.815l-1.261-.627L-24.317,27.9m6.53-11.141c1.577.308,3.419-.74,5.149-1.211q.144-1.266.29-2.532a33.181,33.181,0,0,0-5.708-2.63c-.48-.13-2.262,1.9-2.126,2.725.227,1.376,1.345,3.442,2.395,3.648m-.091,6.695,2.067-.058c-.069-.92-.139-1.84-.205-2.714a7.5,7.5,0,0,0-1.359.008c-.207.913-.347,1.84-.5,2.764m4.947-3.634,1.485,3.694,2.332-1.142L-11,18.887l-1.933.935M-15.139-2.114c1.613.145,3.52.864,4.743.242.894-.456.891-2.675,1.288-4.109l-1.525-1.131L-15.557-4.5q.208,1.193.418,2.386m3.008,8.643c-.324.746,1.1,3.2,1.922,3.29,1.5.171,3.143-.832,5.177-1.493l-2.91-5.769c-1.906,1.7-3.593,2.6-4.189,3.972M-7.693.675c1.725.544,3.476,1.54,5.162,1.44C-1.693,2.064-.3-.063-.4-1.134s-1.952-2.9-2.708-2.754c-1.7.339-3.2,1.7-4.789,2.641l.2,1.922M-3.3,25.89c1.51.226,3.2-.783,5.372-1.429-2.563-4.92-4.823-5.063-8.233-1.729.986,1.161,1.8,3,2.861,3.158m-1.18-8.478c1.036.114,2.241-1.3,4.11-2.536-1.719-1.38-2.817-2.937-3.792-2.863a3.931,3.931,0,0,0-2.82,2.62c-.1.881,1.509,2.67,2.5,2.779m-5.2,24.869c1.3.16,2.767-1.037,4.162-1.65q.029-.87.058-1.741c-1.482-.822-2.9-1.988-4.478-2.293-.61-.118-2.363,1.839-2.234,2.629.192,1.184,1.492,2.932,2.492,3.055m-.65-8.8c.842-2.241,1.337-3.556,2.118-5.635L-13.2,25.71l-2.925,4.164,5.792,3.606M-17.58,47.064l1.5.453,2.679-3.769-.879-1.24c-1.226.273-2.971.166-3.53.929s.1,2.382.228,3.627m.091-8.141c1.122-.6,1.8-2.031,3.4-4.02l-6.493-1.79c0,2.12-.357,3.665.14,4.852a3.125,3.125,0,0,0,2.956.958m-4.648,9.266c-1.206.258-2.291,1.084-4.085,2.033l4.049,3.844c.825-1.853,1.582-2.993,1.754-4.215.07-.5-1.249-1.762-1.718-1.662m1.056,11.463q.073-.686.148-1.369L-23.939,55.7l-2.33,5.058,5.188-1.11M-27.01,44.641l4.2-.971q.066-.807.131-1.614l-3.7-2.68-1.568.768q.465,2.249.929,4.5m-1.343,5.519c-.022-1.319-1.517-2.614-2.372-3.919l-1.682.109c-.683,1.4-2.109,2.972-1.845,4.167.274,1.239,2.184,2.117,3.379,3.153.9-1.171,2.539-2.354,2.52-3.51m-.4,9.1c-.405-1.238-2.509-1.92-3.875-2.843l-1.709,1.189q.825,2.871,1.649,5.741l2.046.153c.7-1.438,2.245-3.149,1.889-4.24m-5.588,11.362,3.108-.666-.471-1.952-3.085.9q.223.86.448,1.717m-.365-27.837c.975-.132,1.713-2.018,2.577-3.148-3.074-2.894-5.111-3.169-7.261,1.468,1.814.721,3.339,1.862,4.684,1.68M-41.378,66.2l5.846.6c-.965-2.115-1.451-3.183-2.485-5.449-1.4,2.027-2.075,3-3.361,4.851m3.047-13.479-1.561-.181-1.772,3.438c1.775-.215,3.152-.054,3.37-.482.371-.73.014-1.83-.037-2.775m1.507,19.661L-39.8,68.936c-.7,1.574-1.1,2.488-2.111,4.779l5.085-1.33m-.57-24.346-4.019-4.455c-1,2.212-1.649,3.656-2.3,5.1q.548.6,1.1,1.21l5.223-1.856M-47.43,69.218c1.044.568,2.449.473,4.519.763-.431-2.363-.63-3.455-.966-5.3-1.586.709-2.983,1.012-3.853,1.858a2.793,2.793,0,0,0,.3,2.681m4.879-9.717c-2.337-3.128-4.233-2.653-6.459.4,2.845,3.524,4.665,2.609,6.459-.4m-5.8-6.2,2.181-1.9-.945-1.325-2.541,1.673,1.305,1.548m-1.62-6.486q.63-1.045,1.259-2.09l-3.249-1.472-.9,1.747,2.892,1.815m-7.185,23.581,4.391.793.844-1.387c-.926-.956-1.715-2.367-2.827-2.7-.679-.2-1.854,1.251-2.806,1.96q.2.666.4,1.332m5.191-11.476-3.377-.293q.164,1.908.326,3.815l2.026.183q.513-1.853,1.025-3.705m-5.637-5.41c1.032.556,2.4.484,5.08.879-1.364-2.386-1.82-3.683-2.716-4.492-.33-.3-2.07.305-2.488.943s-.316,2.433.124,2.67M-60.79,67.971q.476-1.062.952-2.123l-3.511-3.23c-1.122,2.686-1.637,3.917-2.62,6.267l5.179-.914M-63.654,60.6c.691.2,2.82-1.8,2.851-2.852.038-1.264-1.462-2.575-2.968-4.9-1.62,2.276-3.3,3.651-3.083,4.57a5.212,5.212,0,0,0,3.2,3.186m-2.823-10.107c.7-.767,1.99-1.565,1.952-2.292-.053-.989-1.122-1.924-1.755-2.883l-1.536.26q-.277,2.121-.554,4.242l1.893.673m-24.99-26.442-1.361,1.149c.549,1.305.826,3.41,1.718,3.714,1.13.387,2.76-.69,4.175-1.136l-.015-1.841-4.517-1.886m3.686-7.839L-89.7,14.975c-1.009.814-2.484,1.452-2.879,2.5-.309.819.719,2.143,1.153,3.242l1.7.232,1.944-4.74M-88.88,31.6l-4.143,5.014c2.091.878,3.486,1.744,4.972,1.951.593.083,2.1-1.505,1.96-1.959-.444-1.461-1.461-2.748-2.789-5.006m-7.471,8.566-3.442,4.683,4.7,3.778c1.218-1.761,2.127-3.074,3.274-4.73l-4.532-3.731m7.832,17.177c-.525,1.074-1.2,2.068-1.048,2.211a19.141,19.141,0,0,0,2.708,1.934l1-1.815c-.777-.68-1.553-1.361-2.658-2.33m2.285-15.581q-.214,1.662-.431,3.323l3.279.206q.239-.561.476-1.123L-85.082,41.5l-1.152.26m5.587-9.674,1.46-2.318-3.3-2.359q-.841,1.341-1.682,2.682l3.522,2m3.586,1.423-1.517.178c-.259,1.432-1.2,3.616-.627,4.132,1.023.926,2.954.85,4.505,1.193l.848-1.992-3.209-3.511m4.52-7.075-2.234-2.217-1.5,1.37,1.924,2.464,1.808-1.617m-4.6,15.977c-.387.8-.708,1.64-1.046,2.467l1.772.407c.2-.862.4-1.724.616-2.619a6.835,6.835,0,0,0-1.342-.255m-4.842,20.869q.366,2.314.734,4.63l2.086.133q1.239-1.952,2.48-3.9l-.673-1.473-4.627.611m1.966-4.328.141-1.713L-82.887,57q-.07.84-.14,1.681l3.012.268m-2.5-36.13,6.265-1.5L-80.333,16.4l-3.31,4.914,1.132,1.511m10-13.269,1.284-1.341-1.6-4.764-1.7-.363-2.408,4.005q2.212,1.23,4.425,2.463m-2.351,6.9c1.69,1.013,2.744,1.908,3.952,2.24.494.136,1.891-.951,1.887-1.474-.01-1.235-.613-2.467-1.3-4.8l-4.538,4.037m5.3,12.822c-.736,1.4-2.137,2.872-1.988,4.168.11.949,2.254,1.664,3.492,2.483l1.446-1.082q-.573-2.6-1.144-5.2l-1.806-.372m-2.379,11.609c.735,1.033,1.325,2.123,1.5,2.061a17.808,17.808,0,0,0,2.8-1.529l-1.044-1.649-3.249,1.117m6.364-15.853q.154-1.7.31-3.4l-2.147-.273-.531,3.4,2.368.279m-8.305,31.39c-1.342,4.984.239,5.492,4.609,3.173l-4.609-3.173m-1.049,14.005,4.044,1.24,1.355-1.351c-.663-1.154-1.249-3.193-2.007-3.259-1.192-.1-2.5,1.119-3.76,1.781q.185.8.368,1.589m3.334-18.049q.271-.8.544-1.6c-1.31-.9-2.584-2.4-3.943-2.479-.779-.046-1.694,2.205-2.548,3.423l1.375,1.571,4.572-.914m-10.6,21.942,5.971,1.189c-1.015-2.741-1.561-4.218-2.108-5.695l-1.91-.781-3.23,2.883,1.277,2.4M-80.6,52.784q.117-.861.233-1.723l-4.606-2.613-1.5,1.36c.614,1.356.9,3.242,1.95,3.9.805.5,2.579-.555,3.921-.919m-4.987,22.154,1.208-.976q-.767-.849-1.534-1.7l-.879.618q.6,1.027,1.205,2.054m.788-6.9c-2.055-3.993-3.848-3.085-5.974-.609,1.583,3.763,3.455,2.929,5.974.609m-4.656-14.288q-.347-1.047-.7-2.093l-5.814.419q-.162,1.047-.323,2.1c1.246.651,2.5,1.821,3.735,1.794,1.048-.023,2.066-1.424,3.1-2.215m-3.161,10.155q.006-1.088.013-2.175h-4.743q0,1.087-.01,2.175Zm-6.594-4.437,1.761-2.387-1.237-1.1-2.142,2.232,1.618,1.258m3.122-23.781V29.04c-2.106.442-3.911.468-5.245,1.273-.547.329-.577,2.96.039,3.461,1.195.973,3.014,1.18,5.206,1.916m-10.489,2.738c-.119,1.39.6,2.853.978,4.286l1.886.2c.74-1.319,1.794-2.577,2.071-3.988.113-.577-1.4-2-2.271-2.094s-2.608.94-2.664,1.591m2.009-14.126c-1.375-1.135-2.3-1.9-3.228-2.663l-1.755.492.21,4.682,1.469.41,3.3-2.921M-96.8,19.54c-2.367,1.364-3.443,1.984-5.138,2.959,1.465,1.36,2.342,2.173,4.211,3.909.351-2.6.543-4.018.927-6.868m-7.808,34.495c.991.1,3.08-1.524,3.061-2.347-.037-1.631-1.192-3.237-1.885-4.853l-1.853-.07c-.942,1.559-2.346,3.044-2.611,4.709-.115.727,2.043,2.43,3.288,2.561m-8.007-7.789c.622.388,2.035-.491,3.1-.8q.006-.84.011-1.681l-3.814-1.533-.956.907c.526,1.083.8,2.572,1.663,3.112m1.325-10.086c1.572-.094,3.035-2.009,4.546-3.136q-.525-1.339-1.048-2.678l-6.993.588q-.3,1.054-.6,2.107c1.37,1.122,2.8,3.2,4.1,3.119m-6.434-10.717c4.287-.768,4.6-2.547,2.282-5.9-1.194.751-2.855,1.224-3.22,2.188s.562,2.42.938,3.714M-112.085,8q-1.224-2.13-2.45-4.26l-1.886.26-1.353,5.224,1.486,1.178,4.2-2.4m-13.142-8.81c-.233,2.414-.363,3.771-.53,5.506,4.389-1.554,4.426-1.746.53-5.506m.719-9.322c-1,1.627-2.195,2.757-1.972,3.393.332.95,1.66,1.552,2.565,2.3.642-.868,1.781-1.733,1.785-2.6,0-.817-1.193-1.639-2.378-3.092m2.363,24.73,3.826,2.728,1.183-.633q-.4-1.648-.793-3.3l-4.216,1.2m9.942-26.535c-.41-1.388-1.8-2.489-3.054-4.049a29.218,29.218,0,0,0-2.933,2.675,17.449,17.449,0,0,0-1.318,3.007c1.94.479,3.605,1.282,5.169,1.118.857-.09,2.343-2.049,2.136-2.751m-2.779,4.826c-1.452,2.415-2.935,3.8-2.844,5.065C-117.75-.99-115.68.837-114.751.691c1.278-.2,3.142-1.884,3.221-3.037.08-1.178-1.694-2.482-3.452-4.763m4.775,17.645c-1.636,2.519-3.318,3.973-3.138,5.141.19,1.232,2.041,2.78,3.391,3.044.79.155,2.823-1.913,2.843-3.007.024-1.319-1.5-2.665-3.1-5.178m6.453-23.778-5.051-.461c1.215,2.066,1.765,3.833,2.374,3.853,1.053.036,2.143-1.013,3.217-1.606l-.54-1.786m.331,7.164-1.6-.191-2.387,4.356L-106.172-.8l4.2-.194-1.454-5.084m-.785,9.934a4.979,4.979,0,0,0-3.145,3.2c-.195.887,1.6,2.212,3.24,4.261,1.453-2.184,3-3.5,2.956-4.761-.031-1.005-2.205-2.892-3.051-2.7m1.757,9.636-.453,2.226,3.824.986q.249-1.3.5-2.605l-3.87-.607m5.371-25.126c-.871.624-1.773.935-1.942,1.475-.228.726-.113,2.206.248,2.346a11.263,11.263,0,0,0,3.317.309l.511-1.4c-.667-.855-1.335-1.709-2.134-2.732m.963,9.181c-.919,1.1-2.4,2.13-2.569,3.338-.121.878,1.5,2,2.885,3.659,1.216-1.773,2.71-3.025,2.513-3.891-.272-1.188-1.825-2.084-2.829-3.106m1.833,9.121-2.791,3.473q.273.75.544,1.5l4.759-.358.264-1.468-2.776-3.147m5-20.831-1.926.317q.269,1.18.538,2.362l1.622-.3-.234-2.375M-90.964-7.52q-.237,1.4-.473,2.794l4.646.527q.19-1.2.383-2.4l-4.556-.921m4.972,8.977-4.929.922,3.963,3.475,1.563-.783-.6-3.614m1.915,13.681,5.093-2.942q.148-.836.3-1.672c-1.36-.778-2.651-1.891-4.11-2.192a3.149,3.149,0,0,0-2.476,1.913c-.147,1.324.609,2.747,1.195,4.893m1.366-28.162-1.177.4c-.072.981-.55,2.266-.1,2.862.485.65,1.826.662,2.793.952l.976-1.38-2.487-2.831m2.436,6.865-4.393,4.406,4.745,4.1L-76.1-2.3l-4.179-3.855m9.391-7.279h-4.747q-.212.682-.422,1.364c.89.739,1.746,2.008,2.68,2.068s1.953-1.084,2.934-1.7q-.223-.867-.445-1.732m-4.1,11.065,5.959,1.3c-1.734-5.113-2.126-5.193-5.959-1.3m5.819,7.133L-63,5.94l1.013-1.3c-.831-1.5-1.663-3-2.944-5.32L-69.169,4.76m7.082-10.094L-65.26-9.2c-.455,2.22-1.13,3.569-.738,4.05.6.741,1.936.885,2.96,1.283l.951-1.463M-65-16.938c-1.184.349-1.985,1.995-2.949,3.087,1.057.829,2.111,2.3,3.17,2.3s2.1-1.479,3.832-2.855c-1.878-1.245-3.228-2.78-4.053-2.536m4.5,27.349-4.771.367.108,2.406h4.784q-.06-1.386-.121-2.773m5.425-23.7c-1.456.265-2.761,1.358-4.77,2.467L-55.08-5.8c1.161-2.507,2.156-3.888,2.32-5.361.073-.665-1.643-2.249-2.312-2.127M-58.628.137c2.028,3.4,3.869,3.332,5.91.516-2.344-4.146-3.161-4.22-5.91-.516m6.2,6.248-2.258.063c-.593,1.579-1.563,3.15-1.6,4.743-.015.681,1.934,1.986,2.953,1.95s2.849-1.468,2.793-2.165c-.127-1.57-1.2-3.065-1.887-4.591m6.667-24.1-3.745.271q.058.993.119,1.985l3.751-.231q-.063-1.013-.125-2.025m.987,7.767-6.212,1.569L-46.96-4-43.8-8l-.966-1.95m-.464,9.545c-1.218,1.236-3.1,2.323-3.423,3.761-.217.964,1.772,2.426,3.565,4.644,1.566-2.346,3.267-3.78,3.1-4.934-.192-1.289-2.085-2.325-3.237-3.471m7.754,1.733c1.033-2.175,1.9-3.321,2.016-4.537.055-.6-1.384-1.957-1.981-1.867-1.209.181-2.3,1.116-3.953,2.018l3.918,4.386M-39.09-14.911c-.79,1.643-1.758,2.879-1.848,4.177-.045.637,1.694,2.082,2.355,1.936,1.252-.277,2.309-1.437,4.186-2.744l-4.693-3.369m3.309,18.7C-36.9,3.876-37.914,5.2-39.6,6.452l3.717,3.1L-32.091,6c-1.574-1.008-2.684-2.287-3.69-2.211m7.038-17.025c-1.293,1.775-2.5,2.834-2.829,4.117A3.132,3.132,0,0,0-29.83-6.53c1.29.209,2.726-.492,5.289-1.086l-4.2-5.618m8.339-1.037c-.807-.337-2.11.513-3.2.845q-.051.7-.1,1.391l3.867,1.648.93-.986c-.478-1.016-.729-2.577-1.5-2.9M-18.959-5.1a15.386,15.386,0,0,0-4.14-.917q-.544.882-1.088,1.766c.849,1.119,1.509,2.55,2.626,3.221.536.323,2.251-.554,2.84-1.334.436-.579.234-2.494-.238-2.736m-.913,8.221q-.125.867-.248,1.733l3.184,2.353,1.169-.587c-.162-1.228.087-2.893-.612-3.552-.607-.573-2.287-.009-3.493.053m5.254-16.912c-.435-.093-1.7,1.184-1.616,1.676.186,1.127.967,2.156,1.774,3.755l4-3.444c-1.847-.936-2.948-1.726-4.162-1.987m8.832-4.7-4.241.835c0,1.133-.323,2.454.061,2.708,1.087.72,2.463,1,4.615,1.778-.2-2.465-.3-3.664-.435-5.321m.5,5.4-1.994.687q-.227,2.244-.452,4.487l4.545.452q.64-1.38,1.28-2.761-1.691-1.432-3.379-2.865m3.163-4.4-1.026.962c.447,1.368.895,2.737,1.732,5.294l3.858-4.349L-2.118-17.5M2.5-11.239C1.329-10.12-.192-9.336-.267-8.432c-.1,1.225.905,2.542,1.855,4.826C3.594-5.739,4.471-6.673,5.616-7.889L2.5-11.239" fill="#f7a49a"/>
        </g>
        <g id="Grupo_839" data-name="Grupo 839" transform="translate(132.882 -1166.026)">
          <path id="Caminho_791" data-name="Caminho 791" d="M0,0A33.1,33.1,0,0,1,5.708,2.629Q5.563,3.9,5.418,5.161C3.688,5.633,1.846,6.68.268,6.372-.781,6.167-1.9,4.1-2.126,2.725-2.262,1.9-.48-.13,0,0" fill="#fff"/>
        </g>
        <g id="Grupo_840" data-name="Grupo 840" transform="translate(36.598 -1185.598)">
          <path id="Caminho_792" data-name="Caminho 792" d="M0,0C-1.564.164-3.229-.64-5.169-1.118A17.349,17.349,0,0,1-3.85-4.125,28.8,28.8,0,0,1-.918-6.8C.339-5.24,1.727-4.14,2.136-2.751,2.343-2.05.857-.09,0,0" fill="#fff"/>
        </g>
        <g id="Grupo_841" data-name="Grupo 841" transform="translate(90.135 -1118.671)">
          <path id="Caminho_793" data-name="Caminho 793" d="M0,0C-.031,1.05-2.161,3.05-2.851,2.852a5.21,5.21,0,0,1-3.2-3.186c-.22-.919,1.463-2.294,3.082-4.571C-1.463-2.575.038-1.265,0,0" fill="#fff"/>
        </g>
        <g id="Grupo_842" data-name="Grupo 842" transform="translate(95.009 -1147.412)">
          <path id="Caminho_794" data-name="Caminho 794" d="M0,0C-.493,1.506-1.828,2.736-3.186,4.557-4.9,2.689-5.844,1.654-7.637-.306c2.222-1.017,3.7-2.116,5.245-2.224C-1.6-2.585.189-.576,0,0" fill="#fff"/>
        </g>
        <g id="Grupo_843" data-name="Grupo 843" transform="translate(137.741 -1150.705)">
          <path id="Caminho_795" data-name="Caminho 795" d="M0,0,4.985,2.135C4.2,4.214,3.71,5.528,2.867,7.77L-2.925,4.163,0,0" fill="#fff"/>
        </g>
        <g id="Grupo_844" data-name="Grupo 844" transform="translate(97.608 -1163.274)">
          <path id="Caminho_796" data-name="Caminho 796" d="M0,0C-1.019.036-2.968-1.269-2.952-1.95c.037-1.593,1.007-3.164,1.6-4.743L.906-6.755c.688,1.525,1.761,3.02,1.887,4.59C2.85-1.468,1.015-.036,0,0" fill="#fff"/>
        </g>
        <g id="Grupo_845" data-name="Grupo 845" transform="translate(145.906 -1168.088)">
          <path id="Caminho_797" data-name="Caminho 797" d="M0,0C-2.034.66-3.673,1.663-5.177,1.492-5.995,1.4-7.423-1.051-7.1-1.8c.6-1.373,2.282-2.274,4.188-3.972C-1.634-3.239-1.058-2.1,0,0" fill="#fff"/>
        </g>
        <g id="Grupo_846" data-name="Grupo 846" transform="translate(68.142 -1168.083)">
          <path id="Caminho_798" data-name="Caminho 798" d="M0,0C1.459.3,2.75,1.414,4.11,2.193q-.15.835-.3,1.672L-1.281,6.806c-.586-2.145-1.343-3.569-1.2-4.892A3.152,3.152,0,0,1,0,0" fill="#fff"/>
        </g>
        <g id="Grupo_847" data-name="Grupo 847" transform="translate(43.585 -1169.355)">
          <path id="Caminho_799" data-name="Caminho 799" d="M0,0A4.975,4.975,0,0,1,3.145-3.2C3.991-3.392,6.165-1.5,6.2-.5c.038,1.264-1.5,2.577-2.957,4.761C1.6,2.211-.195.886,0,0" fill="#fff"/>
        </g>
        <g id="Grupo_848" data-name="Grupo 848" transform="translate(141.001 -1139.818)">
          <path id="Caminho_800" data-name="Caminho 800" d="M0,0C1.581.305,3,1.471,4.477,2.293q-.029.87-.058,1.741c-1.4.613-2.862,1.81-4.162,1.65-1-.123-2.3-1.871-2.492-3.055C-2.363,1.839-.611-.118,0,0" fill="#fff"/>
        </g>
        <g id="Grupo_849" data-name="Grupo 849" transform="translate(52.252 -1175.53)">
          <path id="Caminho_801" data-name="Caminho 801" d="M0,0C.166-1.207,1.65-2.234,2.568-3.337c1,1.021,2.558,1.917,2.83,3.106.2.866-1.3,2.117-2.513,3.891C1.5,2-.121.879,0,0" fill="#fff"/>
        </g>
        <g id="Grupo_850" data-name="Grupo 850" transform="translate(118.803 -1136.774)">
          <path id="Caminho_802" data-name="Caminho 802" d="M0,0C-.864,1.13-1.6,3.016-2.577,3.148c-1.345.182-2.869-.959-4.684-1.679C-5.111-3.168-3.073-2.894,0,0" fill="#fff"/>
        </g>
        <g id="Grupo_851" data-name="Grupo 851" transform="translate(82.986 -1190.265)">
          <path id="Caminho_803" data-name="Caminho 803" d="M0,0C.964-1.093,1.765-2.739,2.949-3.088,3.775-3.332,5.125-1.8,7-.551,5.266.825,4.216,2.307,3.171,2.3S1.057.829,0,0" fill="#fff"/>
        </g>
        <g id="Grupo_852" data-name="Grupo 852" transform="translate(150.453 -1172.807)">
          <path id="Caminho_804" data-name="Caminho 804" d="M0,0,4.405,4.121C2.888,5.243,1.807,6.675.78,6.637-.449,6.593-1.633,5.293-3.911,3.861L0,0" fill="#fff"/>
        </g>
        <g id="Grupo_853" data-name="Grupo 853" transform="translate(146.78 -1164.402)">
          <path id="Caminho_805" data-name="Caminho 805" d="M0,0C.975-.074,2.073,1.483,3.792,2.863,1.922,4.1.718,5.514-.318,5.4c-.994-.109-2.605-1.9-2.5-2.779A3.932,3.932,0,0,1,0,0" fill="#fff"/>
        </g>
        <g id="Grupo_854" data-name="Grupo 854" transform="translate(141.83 -1182.396)">
          <path id="Caminho_806" data-name="Caminho 806" d="M0,0C-.4,1.433-.394,3.653-1.289,4.109c-1.223.622-3.129-.1-4.743-.242l-.417-2.386,4.924-2.612L0,0" fill="#fff"/>
        </g>
        <g id="Grupo_855" data-name="Grupo 855" transform="translate(117.397 -1151.237)">
          <path id="Caminho_807" data-name="Caminho 807" d="M0,0C2.983-3.431,3.857-3.341,6.035.4,3.7,4.23,2.491,4.2,0,0" fill="#fff"/>
        </g>
        <g id="Grupo_856" data-name="Grupo 856" transform="translate(111.336 -1169.963)">
          <path id="Caminho_808" data-name="Caminho 808" d="M0,0C1.688-1.251,2.707-2.576,3.82-2.661c1.007-.077,2.116,1.2,3.691,2.211L3.716,3.1,0,0" fill="#fff"/>
        </g>
        <g id="Grupo_857" data-name="Grupo 857" transform="translate(129.377 -1177.44)">
          <path id="Caminho_809" data-name="Caminho 809" d="M0,0C-1.117-.672-1.778-2.1-2.626-3.222q.544-.882,1.088-1.766a15.463,15.463,0,0,1,4.14.917c.471.243.674,2.158.237,2.737C2.251-.554.536.322,0,0" fill="#fff"/>
        </g>
        <g id="Grupo_858" data-name="Grupo 858" transform="translate(109.999 -1187.149)">
          <path id="Caminho_810" data-name="Caminho 810" d="M0,0C.09-1.3,1.058-2.534,1.848-4.177L6.541-.807C4.665.5,3.608,1.659,2.355,1.936,1.694,2.082-.044.637,0,0" fill="#fff"/>
        </g>
        <g id="Grupo_859" data-name="Grupo 859" transform="translate(75.946 -1128.115)">
          <path id="Caminho_811" data-name="Caminho 811" d="M0,0C1.359.081,2.633,1.576,3.943,2.479q-.271.8-.544,1.6l-4.572.914L-2.548,3.423C-1.694,2.2-.779-.046,0,0" fill="#fff"/>
        </g>
        <g id="Grupo_860" data-name="Grupo 860" transform="translate(54.977 -1124.336)">
          <path id="Caminho_812" data-name="Caminho 812" d="M0,0,5.814-.419l.7,2.093c-1.032.791-2.05,2.192-3.1,2.215C2.181,3.916.924,2.746-.322,2.1Q-.162,1.047,0,0" fill="#fff"/>
        </g>
        <g id="Grupo_861" data-name="Grupo 861" transform="translate(130.353 -1143.302)">
          <path id="Caminho_813" data-name="Caminho 813" d="M0,0,6.492,1.79C4.9,3.779,4.218,5.206,3.1,5.81A3.123,3.123,0,0,1,.14,4.851C-.358,3.665,0,2.12,0,0" fill="#fff"/>
        </g>
        <g id="Grupo_862" data-name="Grupo 862" transform="translate(150.671 -1184.847)">
          <path id="Caminho_814" data-name="Caminho 814" d="M0,0C.075-.9,1.6-1.688,2.767-2.807L5.883.543,1.855,4.826C.9,2.542-.1,1.225,0,0" fill="#fff"/>
        </g>
        <g id="Grupo_863" data-name="Grupo 863" transform="translate(92.31 -1176.278)">
          <path id="Caminho_815" data-name="Caminho 815" d="M0,0C2.749-3.7,3.566-3.63,5.91.516,3.869,3.332,2.028,3.4,0,0" fill="#fff"/>
        </g>
        <g id="Grupo_864" data-name="Grupo 864" transform="translate(88.955 -1171.776)">
          <path id="Caminho_816" data-name="Caminho 816" d="M0,0-1.013,1.3-7.186.121-2.944-5.32,0,0" fill="#fff"/>
        </g>
        <g id="Grupo_865" data-name="Grupo 865" transform="translate(108.386 -1116.914)">
          <path id="Caminho_817" data-name="Caminho 817" d="M0,0C-1.794,3.008-3.614,3.923-6.459.4-4.233-2.653-2.337-3.128,0,0" fill="#fff"/>
        </g>
        <g id="Grupo_866" data-name="Grupo 866" transform="translate(73.584 -1113.745)">
          <path id="Caminho_818" data-name="Caminho 818" d="M0,0Q.336.736.673,1.473l-2.48,3.9-2.086-.133q-.368-2.315-.734-4.63L0,0" fill="#fff"/>
        </g>
        <g id="Grupo_867" data-name="Grupo 867" transform="translate(147.755 -1183.881)">
          <path id="Caminho_819" data-name="Caminho 819" d="M0,0-4.545-.452q.225-2.244.452-4.487L-2.1-5.626,1.28-2.761Q.639-1.381,0,0" fill="#fff"/>
        </g>
        <g id="Grupo_868" data-name="Grupo 868" transform="translate(145.037 -1146.431)">
          <path id="Caminho_820" data-name="Caminho 820" d="M0,0,5.075.424c-.28,1.824-.468,3.045-.652,4.245C-.214,5.45-.874,4.84,0,0" fill="#fff"/>
        </g>
        <g id="Grupo_869" data-name="Grupo 869" transform="translate(149.562 -1141.771)">
          <path id="Caminho_821" data-name="Caminho 821" d="M0,0-.122.141-.074,0C-.045,0-.02,0,.009-.009L0,0S0,0,0,0" fill="#fff"/>
        </g>
        <g id="Grupo_870" data-name="Grupo 870" transform="translate(149.561 -1141.77)">
          <path id="Caminho_822" data-name="Caminho 822" d="M0,0-.121.139,0,0A0,0,0,0,0,0,0" fill="#fff"/>
        </g>
        <g id="Grupo_871" data-name="Grupo 871" transform="translate(149.46 -1141.762)">
          <path id="Caminho_823" data-name="Caminho 823" d="M0,0,.028,0-.02.132C-.014.088-.007.044,0,0" fill="#fff"/>
        </g>
        <g id="Grupo_872" data-name="Grupo 872" transform="translate(74.692 -1155.09)">
          <path id="Caminho_824" data-name="Caminho 824" d="M0,0-6.265,1.5-7.4-.013l3.31-4.914L0,0" fill="#fff"/>
        </g>
        <g id="Grupo_873" data-name="Grupo 873" transform="translate(71.732 -1138.595)">
          <path id="Caminho_825" data-name="Caminho 825" d="M0,0C-.57-.516.369-2.7.628-4.131L2.145-4.31,5.354-.8,4.505,1.193C2.954.85,1.024.926,0,0" fill="#fff"/>
        </g>
        <g id="Grupo_874" data-name="Grupo 874" transform="translate(64.47 -1126.607)">
          <path id="Caminho_826" data-name="Caminho 826" d="M0,0,1.5-1.36,6.1,1.254q-.116.861-.233,1.723C4.529,3.34,2.755,4.4,1.95,3.9.9,3.242.614,1.356,0,0" fill="#fff"/>
        </g>
        <g id="Grupo_875" data-name="Grupo 875" transform="translate(123.467 -1179.807)">
          <path id="Caminho_827" data-name="Caminho 827" d="M0,0Q.612,2.263,1.225,4.526l-1.4,1.185c-1.247-.735-3.28-1.274-3.526-2.26C-3.961,2.421-2.5.962-1.791-.31L0,0" fill="#fff"/>
        </g>
        <g id="Grupo_876" data-name="Grupo 876" transform="translate(35.498 -1156.874)">
          <path id="Caminho_828" data-name="Caminho 828" d="M0,0C2.319,3.356,2.006,5.135-2.282,5.9c-.376-1.294-1.3-2.75-.938-3.715S-1.194.751,0,0" fill="#fff"/>
        </g>
        <g id="Grupo_877" data-name="Grupo 877" transform="translate(84.329 -1141.567)">
          <path id="Caminho_829" data-name="Caminho 829" d="M0,0-1.446,1.081C-2.683.262-4.828-.453-4.937-1.4-5.086-2.7-3.686-4.172-2.95-5.57l1.806.372Q-.571-2.6,0,0" fill="#fff"/>
        </g>
        <g id="Grupo_878" data-name="Grupo 878" transform="translate(72.61 -1106.599)">
          <path id="Caminho_830" data-name="Caminho 830" d="M0,0,2.109,5.7l-5.972-1.19Q-4.5,3.3-5.139,2.1L-1.91-.781,0,0" fill="#fff"/>
        </g>
        <g id="Grupo_879" data-name="Grupo 879" transform="translate(108.517 -1166.814)">
          <path id="Caminho_831" data-name="Caminho 831" d="M0,0,1.945.942.715,5.764-.963,5.87c-.655-1.1-1.963-2.314-1.787-3.255C-2.562,1.607-.976.86,0,0" fill="#fff"/>
        </g>
        <g id="Grupo_880" data-name="Grupo 880" transform="translate(64.002 -1148.642)">
          <path id="Caminho_832" data-name="Caminho 832" d="M0,0C-1.415.446-3.045,1.523-4.175,1.136c-.892-.3-1.168-2.409-1.718-3.714l1.361-1.149L-.015-1.841,0,0" fill="#fff"/>
        </g>
        <g id="Grupo_881" data-name="Grupo 881" transform="translate(58.359 -1158.942)">
          <path id="Caminho_833" data-name="Caminho 833" d="M0,0C.4-1.046,1.87-1.684,2.879-2.5L4.8-1.267,2.853,3.474l-1.7-.232C.719,2.143-.309.819,0,0" fill="#fff"/>
        </g>
        <g id="Grupo_882" data-name="Grupo 882" transform="translate(128.262 -1134.359)">
          <path id="Caminho_834" data-name="Caminho 834" d="M0,0Q-.065.807-.131,1.613l-4.2.972Q-4.8.336-5.263-1.912L-3.7-2.68,0,0" fill="#fff"/>
        </g>
        <g id="Grupo_883" data-name="Grupo 883" transform="translate(107.225 -1127.73)">
          <path id="Caminho_835" data-name="Caminho 835" d="M0,0C.651-1.445,1.3-2.889,2.3-5.1L6.319-.646,1.1,1.21Q.549.6,0,0" fill="#fff"/>
        </g>
        <g id="Grupo_884" data-name="Grupo 884" transform="translate(98.705 -1137.948)">
          <path id="Caminho_836" data-name="Caminho 836" d="M0,0H-4.559q-.087-1.305-.175-2.609l4.543-.609Q-.1-1.609,0,0" fill="#fff"/>
        </g>
        <g id="Grupo_885" data-name="Grupo 885" transform="translate(66.143 -1108.374)">
          <path id="Caminho_837" data-name="Caminho 837" d="M0,0C-2.519,2.321-4.391,3.154-5.974-.609-3.848-3.085-2.055-3.993,0,0" fill="#fff"/>
        </g>
        <g id="Grupo_886" data-name="Grupo 886" transform="translate(107.06 -1111.735)">
          <path id="Caminho_838" data-name="Caminho 838" d="M0,0C.337,1.846.536,2.939.966,5.3c-2.07-.291-3.474-.2-4.518-.763a2.79,2.79,0,0,1-.3-2.682C-2.983,1.012-1.586.708,0,0" fill="#fff"/>
        </g>
        <g id="Grupo_887" data-name="Grupo 887" transform="translate(134.703 -1188.526)">
          <path id="Caminho_839" data-name="Caminho 839" d="M0,0C-.081-.492,1.181-1.769,1.616-1.676,2.83-1.415,3.931-.625,5.778.311l-4,3.443C.967,2.155.186,1.127,0,0" fill="#fff"/>
        </g>
        <g id="Grupo_888" data-name="Grupo 888" transform="translate(43.527 -1178.328)">
          <path id="Caminho_840" data-name="Caminho 840" d="M0,0,2.387-4.356l1.6.191L5.442.919l-4.2.194L0,0" fill="#fff"/>
        </g>
        <g id="Grupo_889" data-name="Grupo 889" transform="translate(74.884 -1188.489)">
          <path id="Caminho_841" data-name="Caminho 841" d="M0,0,.423-1.364H5.17L5.614.367c-.981.617-2,1.761-2.933,1.7S.89.739,0,0" fill="#fff"/>
        </g>
        <g id="Grupo_890" data-name="Grupo 890" transform="translate(41.601 -1149.602)">
          <path id="Caminho_842" data-name="Caminho 842" d="M0,0-.21-4.682l1.755-.492L4.773-2.51,1.469.41,0,0" fill="#fff"/>
        </g>
        <g id="Grupo_891" data-name="Grupo 891" transform="translate(108.497 -1138.085)">
          <path id="Caminho_843" data-name="Caminho 843" d="M0,0C-.931.859-1.813,2.325-2.807,2.4c-.959.077-2.033-1.275-3.057-2q.186-.8.373-1.594l4.876-.464L0,0" fill="#fff"/>
        </g>
        <g id="Grupo_892" data-name="Grupo 892" transform="translate(81.409 -1106.097)">
          <path id="Caminho_844" data-name="Caminho 844" d="M0,0-1.355,1.351-5.4.111q-.185-.8-.368-1.589C-4.507-2.14-3.2-3.363-2.006-3.259-1.248-3.193-.663-1.154,0,0" fill="#fff"/>
        </g>
        <g id="Grupo_893" data-name="Grupo 893" transform="translate(77.059 -1119.991)">
          <path id="Caminho_845" data-name="Caminho 845" d="M0,0,4.609,3.173C.24,5.492-1.342,4.984,0,0" fill="#fff"/>
        </g>
        <g id="Grupo_894" data-name="Grupo 894" transform="translate(85.67 -1165.636)">
          <path id="Caminho_846" data-name="Caminho 846" d="M0,0,4.771-.368q.06,1.387.121,2.774H.108L0,0" fill="#fff"/>
        </g>
        <g id="Grupo_895" data-name="Grupo 895" transform="translate(132.045 -1150.558)">
          <path id="Caminho_847" data-name="Caminho 847" d="M0,0C-.1,1.542-.209,3.084-.394,5.815l-5.031-3.77L-1.261-.627,0,0" fill="#fff"/>
        </g>
        <g id="Grupo_896" data-name="Grupo 896" transform="translate(58.338 -1114.682)">
          <path id="Caminho_848" data-name="Caminho 848" d="M0,0Q-.006,1.088-.013,2.175H-4.752q0-1.087.01-2.175Z" fill="#fff"/>
        </g>
        <g id="Grupo_897" data-name="Grupo 897" transform="translate(147.793 -1192.949)">
          <path id="Caminho_849" data-name="Caminho 849" d="M0,0,1.026-.961,5.59.945,1.732,5.294C.895,2.737.448,1.368,0,0" fill="#fff"/>
        </g>
        <g id="Grupo_898" data-name="Grupo 898" transform="translate(130.079 -1154.944)">
          <path id="Caminho_850" data-name="Caminho 850" d="M0,0-3.836.869q-.333-2.021-.664-4.04l1.421-.564,3,1.943Q-.038-.9,0,0" fill="#fff"/>
        </g>
        <g id="Grupo_899" data-name="Grupo 899" transform="translate(136.66 -1133.907)">
          <path id="Caminho_851" data-name="Caminho 851" d="M0,0,.879,1.241Q-.461,3.125-1.8,5.01l-1.5-.453C-3.427,3.312-4.08,1.68-3.53.929S-1.226.274,0,0" fill="#fff"/>
        </g>
        <g id="Grupo_900" data-name="Grupo 900" transform="translate(71.751 -1146.646)">
          <path id="Caminho_852" data-name="Caminho 852" d="M0,0Q-.73,1.158-1.46,2.318l-3.523-2Q-4.141-1.018-3.3-2.359L0,0" fill="#fff"/>
        </g>
        <g id="Grupo_901" data-name="Grupo 901" transform="translate(96.194 -1109.314)">
          <path id="Caminho_853" data-name="Caminho 853" d="M0,0C1.112.332,1.9,1.742,2.826,2.7q-.421.693-.844,1.387l-4.39-.793-.4-1.332C-1.854,1.251-.68-.2,0,0" fill="#fff"/>
        </g>
        <g id="Grupo_902" data-name="Grupo 902" transform="translate(81.909 -1177.489)">
          <path id="Caminho_854" data-name="Caminho 854" d="M0,0-5.959-1.3C-2.126-5.193-1.734-5.113,0,0" fill="#fff"/>
        </g>
        <g id="Grupo_903" data-name="Grupo 903" transform="translate(24.457 -1183.152)">
          <path id="Caminho_855" data-name="Caminho 855" d="M0,0C-.222-.636.971-1.766,1.973-3.393,3.157-1.94,4.353-1.118,4.35-.3c0,.869-1.142,1.735-1.785,2.6C1.66,1.552.332.95,0,0" fill="#fff"/>
        </g>
        <g id="Grupo_904" data-name="Grupo 904" transform="translate(91.099 -1110.567)">
          <path id="Caminho_856" data-name="Caminho 856" d="M0,0Q-.476,1.062-.952,2.123l-5.178.914c.982-2.35,1.5-3.582,2.62-6.267L0,0" fill="#fff"/>
        </g>
        <g id="Grupo_905" data-name="Grupo 905" transform="translate(59.5 -1181.14)">
          <path id="Caminho_857" data-name="Caminho 857" d="M0,0Q.237-1.4.473-2.794l4.556.92q-.19,1.2-.383,2.4L0,0" fill="#fff"/>
        </g>
        <g id="Grupo_906" data-name="Grupo 906" transform="translate(54.141 -1156.875)">
          <path id="Caminho_858" data-name="Caminho 858" d="M0,0C-.385,2.85-.576,4.266-.927,6.867L-5.138,2.959,0,0" fill="#fff"/>
        </g>
        <g id="Grupo_907" data-name="Grupo 907" transform="translate(113.37 -1142.984)">
          <path id="Caminho_859" data-name="Caminho 859" d="M0,0C-.825-.05-2.185-1.306-2.194-2.047A3.077,3.077,0,0,1-.14-4.274C.651-4.4,1.64-3.3,3.286-2.28,1.714-1.121.82.05,0,0" fill="#fff"/>
        </g>
        <g id="Grupo_908" data-name="Grupo 908" transform="translate(84.657 -1131.102)">
          <path id="Caminho_860" data-name="Caminho 860" d="M0,0C.633.958,1.7,1.893,1.755,2.882,1.793,3.61.5,4.408-.2,5.174L-2.09,4.5q.277-2.121.554-4.242L0,0" fill="#fff"/>
        </g>
        <g id="Grupo_909" data-name="Grupo 909" transform="translate(95.6 -1117.79)">
          <path id="Caminho_861" data-name="Caminho 861" d="M0,0,3.377.292Q2.864,2.146,2.352,4L.326,3.815Q.162,1.907,0,0" fill="#fff"/>
        </g>
        <g id="Grupo_910" data-name="Grupo 910" transform="translate(95.6 -1117.79)">
          <path id="Caminho_862" data-name="Caminho 862" d="M0,0,3.377.292Q2.864,2.146,2.352,4,2.865,2.146,3.377.292L0,0" fill="#fff"/>
        </g>
        <g id="Grupo_911" data-name="Grupo 911" transform="translate(60.017 -1174.036)">
          <path id="Caminho_863" data-name="Caminho 863" d="M0,0,4.929-.921l.6,3.613-1.563.783L0,0" fill="#fff"/>
        </g>
        <g id="Grupo_912" data-name="Grupo 912" transform="translate(134.001 -1169.204)">
          <path id="Caminho_864" data-name="Caminho 864" d="M0,0-3.184-2.353q.123-.866.248-1.732C-1.73-4.147-.05-4.712.557-4.139c.7.66.45,2.324.612,3.552L0,0" fill="#fff"/>
        </g>
        <g id="Grupo_913" data-name="Grupo 913" transform="translate(89.681 -1135.674)">
          <path id="Caminho_865" data-name="Caminho 865" d="M0,0-2.32-.318q.285-2.046.568-4.092l2.336.32Q.293-2.045,0,0" fill="#fff"/>
        </g>
        <g id="Grupo_914" data-name="Grupo 914" transform="translate(41.433 -1132.655)">
          <path id="Caminho_866" data-name="Caminho 866" d="M0,0Q-.006.84-.011,1.681c-1.061.314-2.474,1.193-3.1.805C-3.972,1.946-4.244.457-4.77-.626l.955-.907L0,0" fill="#fff"/>
        </g>
        <g id="Grupo_915" data-name="Grupo 915" transform="translate(101.342 -1154.599)">
          <path id="Caminho_867" data-name="Caminho 867" d="M0,0-2.663-.125V-3.932l3.117.141Q.226-1.895,0,0" fill="#fff"/>
        </g>
        <g id="Grupo_916" data-name="Grupo 916" transform="translate(42.133 -1190.118)">
          <path id="Caminho_868" data-name="Caminho 868" d="M0,0,5.051.461l.54,1.786C4.517,2.84,3.427,3.889,2.374,3.853,1.765,3.832,1.214,2.065,0,0" fill="#fff"/>
        </g>
        <g id="Grupo_917" data-name="Grupo 917" transform="translate(52.164 -1184.228)">
          <path id="Caminho_869" data-name="Caminho 869" d="M0,0C-.362-.14-.476-1.62-.248-2.346-.079-2.886.823-3.2,1.694-3.821c.8,1.024,1.467,1.878,2.134,2.732q-.255.7-.512,1.4A11.259,11.259,0,0,1,0,0" fill="#fff"/>
        </g>
        <g id="Grupo_918" data-name="Grupo 918" transform="translate(130.004 -1118.132)">
          <path id="Caminho_870" data-name="Caminho 870" d="M0,0Q-.073.684-.148,1.369l-5.188,1.11,2.33-5.058L0,0" fill="#fff"/>
        </g>
        <g id="Grupo_919" data-name="Grupo 919" transform="translate(25.18 -1171.717)">
          <path id="Caminho_871" data-name="Caminho 871" d="M0,0C.167-1.735.3-3.092.53-5.505,4.427-1.745,4.389-1.554,0,0" fill="#fff"/>
        </g>
        <g id="Grupo_920" data-name="Grupo 920" transform="translate(127.234 -1188.449)">
          <path id="Caminho_872" data-name="Caminho 872" d="M0,0Q.051-.7.1-1.391c1.086-.332,2.39-1.182,3.2-.845.768.32,1.019,1.882,1.5,2.9l-.93.987L0,0" fill="#fff"/>
        </g>
        <g id="Grupo_921" data-name="Grupo 921" transform="translate(85.678 -1185.619)">
          <path id="Caminho_873" data-name="Caminho 873" d="M0,0,3.173,3.871,2.222,5.333C1.2,4.936-.136,4.791-.738,4.051-1.13,3.569-.455,2.221,0,0" fill="#fff"/>
        </g>
        <g id="Grupo_922" data-name="Grupo 922" transform="translate(83.528 -1155.058)">
          <path id="Caminho_874" data-name="Caminho 874" d="M0,0,2.146.272q-.154,1.7-.31,3.405Q.653,3.536-.532,3.4-.265,1.7,0,0" fill="#fff"/>
        </g>
        <g id="Grupo_923" data-name="Grupo 923" transform="translate(141.824 -1154.041)">
          <path id="Caminho_875" data-name="Caminho 875" d="M0,0-2.332,1.142-3.817-2.552l1.933-.935L0,0" fill="#fff"/>
        </g>
        <g id="Grupo_924" data-name="Grupo 924" transform="translate(33.801 -1159.72)">
          <path id="Caminho_876" data-name="Caminho 876" d="M0,0-1.182.633-5.009-2.1-.792-3.3,0,0" fill="#fff"/>
        </g>
        <g id="Grupo_925" data-name="Grupo 925" transform="translate(51.857 -1159.711)">
          <path id="Caminho_877" data-name="Caminho 877" d="M0,0-3.824-.986l.453-2.226L.5-2.605Q.25-1.3,0,0" fill="#fff"/>
        </g>
        <g id="Grupo_926" data-name="Grupo 926" transform="translate(66.944 -1186.18)">
          <path id="Caminho_878" data-name="Caminho 878" d="M0,0C-.445-.6.034-1.881.1-2.862l1.177-.4Q2.526-1.843,3.77-.428L2.793.952C1.826.662.485.65,0,0" fill="#fff"/>
        </g>
        <g id="Grupo_927" data-name="Grupo 927" transform="translate(93.895 -1132.549)">
          <path id="Caminho_879" data-name="Caminho 879" d="M0,0-.552,4.71C-2.173,3.149-3.545,2.329-3.437,1.824-3.234.867-2.182.09-1.482-.762L0,0" fill="#fff"/>
        </g>
        <g id="Grupo_928" data-name="Grupo 928" transform="translate(68.028 -1132.248)">
          <path id="Caminho_880" data-name="Caminho 880" d="M0,0Q-.238.561-.476,1.123L-3.755.917q.216-1.66.431-3.323l1.152-.26L0,0" fill="#fff"/>
        </g>
        <g id="Grupo_929" data-name="Grupo 929" transform="translate(89.056 -1155.97)">
          <path id="Caminho_881" data-name="Caminho 881" d="M0,0,2.8-2.607l1.48,1.589-2.8,2.605L0,0" fill="#fff"/>
        </g>
        <g id="Grupo_930" data-name="Grupo 930" transform="translate(114.114 -1104.03)">
          <path id="Caminho_882" data-name="Caminho 882" d="M0,0-5.085,1.33l2.11-4.779L0,0" fill="#fff"/>
        </g>
        <g id="Grupo_931" data-name="Grupo 931" transform="translate(64.079 -1114.927)">
          <path id="Caminho_883" data-name="Caminho 883" d="M0,0A19.3,19.3,0,0,1-2.708-1.934c-.149-.144.523-1.137,1.047-2.211L1-1.815,0,0" fill="#fff"/>
        </g>
        <g id="Grupo_932" data-name="Grupo 932" transform="translate(76.162 -1152.197)">
          <path id="Caminho_884" data-name="Caminho 884" d="M0,0,2.234,2.217.426,3.833-1.5,1.37,0,0" fill="#fff"/>
        </g>
        <g id="Grupo_933" data-name="Grupo 933" transform="translate(101.436 -1193.861)">
          <path id="Caminho_885" data-name="Caminho 885" d="M0,0,3.745-.271Q3.808.742,3.87,1.754L.119,1.985Q.06.992,0,0" fill="#fff"/>
        </g>
        <g id="Grupo_934" data-name="Grupo 934" transform="translate(98.98 -1133.165)">
          <path id="Caminho_886" data-name="Caminho 886" d="M0,0,3.249,1.472Q2.62,2.517,1.99,3.563.544,2.654-.9,1.748L0,0" fill="#fff"/>
        </g>
        <g id="Grupo_935" data-name="Grupo 935" transform="translate(83.294 -1134.995)">
          <path id="Caminho_887" data-name="Caminho 887" d="M0,0A17.8,17.8,0,0,1-2.8,1.528c-.172.063-.762-1.028-1.5-2.06L-1.044-1.65,0,0" fill="#fff"/>
        </g>
        <g id="Grupo_936" data-name="Grupo 936" transform="translate(109.274 -1120.434)">
          <path id="Caminho_888" data-name="Caminho 888" d="M0,0C.881-1.709,1.326-2.574,1.772-3.438l1.561.182c.051.944.407,2.044.036,2.775C3.152-.053,1.774-.215,0,0" fill="#fff"/>
        </g>
        <g id="Grupo_937" data-name="Grupo 937" transform="translate(104.772 -1125.013)">
          <path id="Caminho_889" data-name="Caminho 889" d="M0,0-2.181,1.9-3.486.348-.945-1.325,0,0" fill="#fff"/>
        </g>
        <g id="Grupo_938" data-name="Grupo 938" transform="translate(53.492 -1119.33)">
          <path id="Caminho_890" data-name="Caminho 890" d="M0,0-1.761,2.386-3.378,1.129-1.237-1.1,0,0" fill="#fff"/>
        </g>
        <g id="Grupo_939" data-name="Grupo 939" transform="translate(68.05 -1119.411)">
          <path id="Caminho_891" data-name="Caminho 891" d="M0,0,3.014.236,2.873,1.949-.14,1.681Q-.07.841,0,0" fill="#fff"/>
        </g>
        <g id="Grupo_940" data-name="Grupo 940" transform="translate(134.922 -1155.73)">
          <path id="Caminho_892" data-name="Caminho 892" d="M0,0C.066.874.135,1.794.2,2.714l-2.068.058c.157-.924.3-1.852.5-2.764A7.5,7.5,0,0,1,0,0" fill="#fff"/>
        </g>
        <g id="Grupo_941" data-name="Grupo 941" transform="translate(119.699 -1106.455)">
          <path id="Caminho_893" data-name="Caminho 893" d="M0,0-3.108.666q-.223-.858-.448-1.717l3.085-.9L0,0" fill="#fff"/>
        </g>
        <g id="Grupo_942" data-name="Grupo 942" transform="translate(59.731 -1190.261)">
          <path id="Caminho_894" data-name="Caminho 894" d="M0,0,1.926-.317,2.16,2.058l-1.622.3Q.268,1.182,0,0" fill="#fff"/>
        </g>
        <g id="Grupo_943" data-name="Grupo 943" transform="translate(72.752 -1131.536)">
          <path id="Caminho_895" data-name="Caminho 895" d="M0,0C.338-.827.659-1.663,1.046-2.467a6.809,6.809,0,0,1,1.342.255c-.21.895-.413,1.757-.616,2.619L0,0" fill="#fff"/>
        </g>
        <g id="Grupo_944" data-name="Grupo 944" transform="translate(66.563 -1102.453)">
          <path id="Caminho_896" data-name="Caminho 896" d="M0,0-1.208.977q-.6-1.028-1.205-2.055l.879-.617L0,0" fill="#fff"/>
        </g>
      </g>
      <g id="Grupo_946" data-name="Grupo 946" transform="translate(55.984 -1093.89)">
        <path id="Caminho_898" data-name="Caminho 898" d="M0,0-22.784,22.766l-9.333-4.279L-8.5-5.386-39.928,5.059-41.965.924l30.059-11.7L-51.13-7.315l-1.027-9.205L-11.451-19.2l-35.8-12.821,4.6-6.254,36.085,10.6-16.08-38.87,8.747.631L.264-31.16-2.36-66.982l6.516,1.9L6.905-32.552,22.184-71.717l6.331,3.9L11.4-25.24,29.725-43.15l2.19,2.73L19.152-23.794l18.542.873L17.653-3.245Z" fill="#ffe8d7"/>
      </g>
    </g>
  </g>
</svg>
