<svg xmlns="http://www.w3.org/2000/svg" xmlns:xlink="http://www.w3.org/1999/xlink" width="82" height="21" viewBox="0 0 82 21">
  <defs>
    <clipPath id="clip-path">
      <rect id="Retângulo_68" data-name="Retângulo 68" width="82" height="21" transform="translate(1014 209)" fill="#fff" stroke="#707070" stroke-width="1"/>
    </clipPath>
  </defs>
  <g id="pv_secconexoesmpg" transform="translate(-1014 -209)" clip-path="url(#clip-path)">
    <g id="Grupo_1757" data-name="Grupo 1757">
      <g id="Grupo_1750" data-name="Grupo 1750" transform="translate(1090.638 192.283)">
        <path id="Caminho_1695" data-name="Caminho 1695" d="M0,0C-.131,1.127-.228,2.079-.353,3.027A42.551,42.551,0,0,1-7.34,21.813c-2.587,3.778-6.08,6.344-10.675,6.643a81.911,81.911,0,0,1-12.954-.177c-5.512-.52-9.6-3.618-12.488-8.282A24.433,24.433,0,0,1-47.149,9.139c-.344-4.067-.448-8.155-.663-12.352l-1.439-.1c-.3,7.452-.11,14.717,2.848,21.583A18.937,18.937,0,0,0-32.886,29.754a41,41,0,0,0,15.441.408,15.381,15.381,0,0,0,9.683-5.179c6.1-6.946,8.4-15.4,9.493-24.424L0,0" fill="#ffe8d7"/>
      </g>
      <g id="Grupo_1751" data-name="Grupo 1751" transform="translate(1044.444 189.138)">
        <path id="Caminho_1696" data-name="Caminho 1696" d="M0,0C.268,4.024.294,7.825.823,11.554c.734,5.182,2.934,9.763,7.367,12.806a27.056,27.056,0,0,0,19.44,4.551A11.46,11.46,0,0,0,33.689,26c6.375-6.2,9.176-14.083,10-22.888l-1.468-.1c-.608,2.8-.994,5.5-1.81,8.072a42.068,42.068,0,0,1-3.157,7.472c-4.413,8.035-8.055,9.774-17.144,8.514C9.31,25.575,3.332,19.726,2.242,9.393c-.321-3.039-.27-6.118-.393-9.264L0,0" fill="#ffe8d7"/>
      </g>
      <g id="Grupo_1752" data-name="Grupo 1752" transform="translate(1031.923 186.778)">
        <path id="Caminho_1697" data-name="Caminho 1697" d="M0,0-.757.064c.048,3.043.193,6.089.126,9.129-.215,9.679,2.588,18.029,10.28,24.38,5.63,4.65,11.778,7.987,19.3,7.906a56.958,56.958,0,0,0,19.7-4.152,27.435,27.435,0,0,0,9.725-6.121c5.234-5.2,7.215-11.822,8.155-18.878a7.286,7.286,0,0,0-.3-1.8c-.278.449-.377.541-.394.647-.153.951-.288,1.906-.434,2.86-1.636,10.712-6.945,18.706-17.36,22.535a85.464,85.464,0,0,1-13.571,3.641,26.573,26.573,0,0,1-21.5-5.161C5.543,29.529.625,22.594.448,12.96.38,9.224.285,5.49.185,1.755.17,1.168.064.585,0,0" fill="#ffe8d7"/>
      </g>
      <g id="Grupo_1753" data-name="Grupo 1753" transform="translate(1049.237 189.468)">
        <path id="Caminho_1698" data-name="Caminho 1698" d="M0,0-.561-.023c-.1,1.394-.29,2.788-.277,4.18.069,7.651,2.879,13.7,10.434,16.528a40.162,40.162,0,0,0,9.418,2.337c5.872.674,9.774-1.711,12.475-6.959A33.644,33.644,0,0,0,34.763,3.554a5.153,5.153,0,0,0-.171-1.2l-.5.008c-.094.623-.206,1.243-.28,1.868a34.864,34.864,0,0,1-3.244,11.6c-1.931,3.874-5.031,6.27-9.378,6.316a28.5,28.5,0,0,1-8.16-1.181C4,18.338.7,14.024.113,4.575.018,3.054.035,1.525,0,0" fill="#ffe8d7"/>
      </g>
      <g id="Grupo_1754" data-name="Grupo 1754" transform="translate(1090.638 192.283)">
        <path id="Caminho_1699" data-name="Caminho 1699" d="M0,0,1.731.559C.638,9.585-1.661,18.037-7.762,24.983a15.381,15.381,0,0,1-9.683,5.179,41,41,0,0,1-15.441-.408A18.937,18.937,0,0,1-46.4,18.27c-2.958-6.866-3.15-14.131-2.848-21.583l1.439.1c.215,4.2.319,8.285.663,12.352A24.433,24.433,0,0,0-43.457,20c2.887,4.664,6.976,7.762,12.488,8.282a81.911,81.911,0,0,0,12.954.177c4.595-.3,8.088-2.865,10.675-6.643A42.551,42.551,0,0,0-.353,3.027C-.228,2.079-.131,1.127,0,0" fill="#ffe8d7"/>
      </g>
      <g id="Grupo_1755" data-name="Grupo 1755" transform="translate(1044.444 189.138)">
        <path id="Caminho_1700" data-name="Caminho 1700" d="M0,0,1.849.129c.123,3.146.072,6.225.393,9.264C3.332,19.726,9.31,25.575,20.106,27.072c9.089,1.26,12.731-.479,17.144-8.514a42.068,42.068,0,0,0,3.157-7.472c.816-2.568,1.2-5.273,1.81-8.072l1.468.1c-.82,8.8-3.621,16.692-10,22.888a11.46,11.46,0,0,1-6.059,2.906A27.056,27.056,0,0,1,8.19,24.36C3.757,21.317,1.557,16.736.823,11.554.294,7.825.268,4.024,0,0" fill="#ffe8d7"/>
      </g>
      <g id="Grupo_1756" data-name="Grupo 1756" transform="translate(1049.237 189.468)">
        <path id="Caminho_1701" data-name="Caminho 1701" d="M0,0C.035,1.525.018,3.054.113,4.575.7,14.024,4,18.338,13.03,20.971a28.5,28.5,0,0,0,8.16,1.181c4.347-.046,7.447-2.442,9.378-6.316a34.864,34.864,0,0,0,3.244-11.6c.074-.625.186-1.245.28-1.868l.5-.008a5.153,5.153,0,0,1,.171,1.2,33.644,33.644,0,0,1-3.274,12.509c-2.7,5.248-6.6,7.633-12.475,6.959A40.162,40.162,0,0,1,9.6,20.685C2.041,17.853-.769,11.808-.838,4.157c-.013-1.392.179-2.786.277-4.18L0,0" fill="#ffe8d7"/>
      </g>
      <path id="Caminho_1702" data-name="Caminho 1702" d="M32.481-13.637h89.885V-37.319H32.481Z" transform="translate(975 246.637)" fill="none"/>
      <path id="Caminho_1703" data-name="Caminho 1703" d="M0,0-14.441,7.88l.4,2.32L2.62,1.7-14.156,15.077l1.864,2.912L4.834,6.355-1.108,19.5.223,20.613H3.294L11.358,4.591,15.2,20.613h2.944l1.005-.564L15.2,5.289l9.559,15.029,2.356-1.163-8.147-16.6L36.592,13.475l1.446-3.508L22.156,0Z" transform="translate(1029.012 209.319)" fill="#e13f44"/>
    </g>
  </g>
</svg>
