<svg xmlns="http://www.w3.org/2000/svg" xmlns:xlink="http://www.w3.org/1999/xlink" width="135" height="83" viewBox="0 0 135 83">
  <defs>
    <clipPath id="clip-path">
      <rect id="Retângulo_65" data-name="Retângulo 65" width="135" height="83" transform="translate(626 530)" fill="#fff" stroke="#707070" stroke-width="1"/>
    </clipPath>
    <clipPath id="clip-path-2">
      <path id="Caminho_1211" data-name="Caminho 1211" d="M0,0H173.527V-136.235H0Z" fill="none"/>
    </clipPath>
  </defs>
  <g id="pv_sugestcomp_bg" transform="translate(-626 -530)" clip-path="url(#clip-path)">
    <g id="pv_sugestcomp_bg-2" data-name="pv_sugestcomp_bg" transform="translate(587 608.47)">
      <g id="Grupo_1264" data-name="Grupo 1264" clip-path="url(#clip-path-2)">
        <g id="Grupo_1242" data-name="Grupo 1242" transform="translate(140.089 -135.781)">
          <path id="Caminho_1189" data-name="Caminho 1189" d="M0,0C3.812,9.1,7.737,17.6,10.955,26.36c5.573,15.163,7.878,30.751,2.156,46.355C2.25,102.336-20.38,117.83-50.389,123.283c-18.843,3.424-34.9-2.76-47.514-17.254a183.244,183.244,0,0,1-12.17-15.469C-114.964,83.538-119.4,76.2-124.1,68.886a19.463,19.463,0,0,0-2.243,1.079,28.684,28.684,0,0,0-2.239,1.809c8.906,15.222,17.921,29.944,30.617,42.149,13.858,13.324,30.2,17.657,48.779,14.625A95.066,95.066,0,0,0-10.47,112.584C15.243,94.965,26.8,66.148,19.837,36.486A148.369,148.369,0,0,0,5.422-.454L0,0" fill="#ffc593"/>
        </g>
        <g id="Grupo_1243" data-name="Grupo 1243" transform="translate(129.406 -132.62)">
          <path id="Caminho_1190" data-name="Caminho 1190" d="M0,0C1.353,2.613,2.525,4.8,3.63,7.021,11.549,22.932,15.98,39.69,15.854,57.548,15.77,69.426,11.981,80.009,2.535,87.317a212.309,212.309,0,0,1-28.113,18.408c-12.6,6.877-25.892,6.145-38.863.3A63.352,63.352,0,0,1-88.129,88.034c-6.639-8.245-12.79-16.883-19.34-25.6l-3.24,1.87c10.16,16.463,21.111,31.808,37.429,42.28,14.291,9.173,29.606,11.06,45.721,5.089,12.821-4.751,23.723-12.5,33.793-21.516A39.9,39.9,0,0,0,19.545,64.979C22.588,41.194,15.274,19.685,4.533-1.308L0,0" fill="#ffc593"/>
        </g>
        <g id="Grupo_1244" data-name="Grupo 1244" transform="translate(25.515 -72.382)">
          <path id="Caminho_1191" data-name="Caminho 1191" d="M0,0C6.411,8.264,11.981,16.4,18.527,23.651,27.623,33.728,39,40.389,52.941,40.5a70.167,70.167,0,0,0,48.4-18.41,29.713,29.713,0,0,0,8.815-15.035c4.722-22.57-.693-43.592-11.7-63.715L95.15-54.749c2.752,6.9,5.845,13.276,7.815,19.981a109.009,109.009,0,0,1,4.049,20.648c2.166,23.676-3.145,32.7-24.517,43.171-25.384,12.439-46.722,8.531-64.053-12.1C13.345,10.877,8.99,4.182,4.164-2.4L0,0" fill="#ffc593"/>
        </g>
        <g id="Grupo_1245" data-name="Grupo 1245" transform="translate(1.536 -58.826)">
          <path id="Caminho_1192" data-name="Caminho 1192" d="M0,0-1.536,1.235C2.981,7.709,7.711,14.047,11.976,20.684,25.552,41.807,43.689,55.7,69.443,58.2c18.849,1.831,36.908.092,52.973-11C137,37.135,148.628,24.081,158.758,9.7A71.155,71.155,0,0,0,170.79-17.57c3.71-18.781-1.63-35.885-9.844-52.422-.564-1.136-1.8-1.938-3.257-3.447a9.212,9.212,0,0,0,.091,1.962c1.053,2.269,2.146,4.519,3.215,6.78,12.019,25.407,12.2,50.3-4.644,73.637a222,222,0,0,1-23.9,27.513C117.712,51.051,99.5,57.482,78.725,56.541c-23.977-1.086-44.612-8.865-58.964-29.323Q11.414,15.318,2.943,3.505C2.06,2.267.986,1.165,0,0" fill="#ffc593"/>
        </g>
        <g id="Grupo_1246" data-name="Grupo 1246" transform="translate(36.3 -78.626)">
          <path id="Caminho_1193" data-name="Caminho 1193" d="M0,0-1.241.765C.571,3.9,2.18,7.179,4.227,10.155,15.473,26.5,30.284,35.428,50.635,30.561a104.206,104.206,0,0,0,23.641-8.635c13.6-7.067,18.535-17.856,16.731-33.057-1.351-11.382-5.665-21.713-11.1-31.647A13.3,13.3,0,0,0,77.8-45.1l-1.063.743c.7,1.475,1.359,2.972,2.106,4.423,4.831,9.373,8.47,19.146,9.855,29.655C90.165.847,86.975,10.5,77.693,16.9a73.929,73.929,0,0,1-19.258,9.294C35.2,33.631,21.848,29.138,6.879,9.674,4.468,6.539,2.287,3.229,0,0" fill="#ffc593"/>
        </g>
        <g id="Grupo_1247" data-name="Grupo 1247" transform="translate(41.48 -81.712)">
          <path id="Caminho_1194" data-name="Caminho 1194" d="M0,0-1.635,1.142c3.165,4.652,6.077,9.5,9.543,13.919C17.481,27.26,29.58,31.678,44.046,26.2c10.225-3.869,19.8-9.824,29.032-15.821,6.59-4.281,8.838-11.445,7.8-19.414-1.389-10.627-5.822-20.037-11.447-28.977-.329-.524-1.021-.819-1.544-1.221-.164,2.178.723,3.68,1.332,5.287C72.3-25.8,75.883-17.794,78.173-9.433,80.182-2.1,77.791,4.712,71.156,9.021c-7.451,4.837-14.87,10.014-22.965,13.509C30.8,30.039,17.331,25.507,6.828,9.829,5.523,7.88,4.285,5.886,2.955,3.955,2.023,2.6.989,1.316,0,0" fill="#ffc593"/>
        </g>
        <g id="Grupo_1248" data-name="Grupo 1248" transform="translate(49.41 -87.59)">
          <path id="Caminho_1195" data-name="Caminho 1195" d="M0,0C.838,10.365,15.6,23.791,26.522,25.429c11.571,1.735,29.451-8.354,34.014-19.192,3.9-9.256-1.25-28.782-10.052-35.193.83,2.066,1.245,3.27,1.786,4.413,1.672,3.533,3.575,6.968,5.059,10.576,3.862,9.393,4.037,18.554-3.973,25.9a57.877,57.877,0,0,1-13.9,9.34c-7.388,3.55-15.329,3.105-21.812-1.9C12.31,15.262,8.081,9.71,3.429,4.732A54.29,54.29,0,0,1,0,0" fill="#ffc593"/>
        </g>
        <g id="Grupo_1249" data-name="Grupo 1249" transform="translate(57.408 -90.999)">
          <path id="Caminho_1196" data-name="Caminho 1196" d="M0,0-1.373,1.3C3.712,8.57,9.583,15.1,18,18.738a19.27,19.27,0,0,0,26.7-14.164c1.732-9.542-1.644-18.113-6.346-26.229-.055-.095-.54.059-1.657.207.645,1.629,1.337,3.053,1.779,4.551,1.54,5.215,3.646,10.374,4.32,15.708.917,7.261-2.283,13.133-8.738,16.879-6.321,3.669-12.74,3.317-18.569-.831C11.453,11.991,7.941,8.374,4.315,4.966A61.778,61.778,0,0,1,0,0" fill="#ffc593"/>
        </g>
        <g id="Grupo_1250" data-name="Grupo 1250" transform="translate(90.726 -109.731)">
          <path id="Caminho_1197" data-name="Caminho 1197" d="M0,0-1.6.325C-.663,4.453.68,8.538,1.119,12.718c.937,8.924-6.333,15.856-14.932,13.6-4.221-1.107-7.85-4.591-11.641-7.155a21.1,21.1,0,0,1-3.123-3.238c1.277,6.785,8.317,12.3,15.31,13.063,6.033.656,13.019-2.686,15.313-7.9C5.322,13.645,2.977,6.73,0,0" fill="#ffc593"/>
        </g>
        <g id="Grupo_1251" data-name="Grupo 1251" transform="translate(65.008 -95.426)">
          <path id="Caminho_1198" data-name="Caminho 1198" d="M0,0C5.179,4.319,10.206,6.837,16.381,4.56,20.231,3.141,22.3.126,22.719-3.966c.366-3.548-.5-5.448-3.658-7.389C20.793-5.769,21.948.366,15.233,1.95,10.805,2.994,5.622.839,0,0" fill="#ffc593"/>
        </g>
        <g id="Grupo_1252" data-name="Grupo 1252" transform="translate(69.748 -98.597)">
          <path id="Caminho_1199" data-name="Caminho 1199" d="M0,0C2.591,4.3,6.479,5.181,9.829,2.666,12.851.4,13.27-2.921,10.886-5.693,8.754,3.621,7.665,2.424,0,0" fill="#ffc593"/>
        </g>
        <g id="Grupo_1253" data-name="Grupo 1253" transform="translate(140.089 -135.781)">
          <path id="Caminho_1200" data-name="Caminho 1200" d="M0,0,5.422-.454a148.369,148.369,0,0,1,14.415,36.94c6.96,29.662-4.594,58.479-30.307,76.1a95.066,95.066,0,0,1-38.711,15.964c-18.58,3.032-34.921-1.3-48.779-14.625-12.7-12.2-21.711-26.927-30.617-42.149a28.684,28.684,0,0,1,2.239-1.809,19.463,19.463,0,0,1,2.243-1.079c4.7,7.311,9.131,14.652,14.022,21.674A183.244,183.244,0,0,0-97.9,106.029c12.611,14.494,28.671,20.678,47.514,17.254,30.009-5.453,52.639-20.947,63.5-50.568,5.722-15.6,3.417-31.192-2.156-46.355C7.737,17.6,3.812,9.1,0,0" fill="#ffc593"/>
        </g>
        <g id="Grupo_1254" data-name="Grupo 1254" transform="translate(129.406 -132.62)">
          <path id="Caminho_1201" data-name="Caminho 1201" d="M0,0,4.533-1.308c10.741,20.993,18.055,42.5,15.012,66.287A39.9,39.9,0,0,1,6.234,90.16c-10.07,9.018-20.972,16.765-33.793,21.516-16.115,5.971-31.43,4.084-45.721-5.089C-89.6,96.115-100.549,80.77-110.709,64.307l3.24-1.87c6.55,8.714,12.7,17.352,19.34,25.6a63.352,63.352,0,0,0,23.688,17.994c12.971,5.842,26.258,6.574,38.863-.3A212.309,212.309,0,0,0,2.535,87.317c9.446-7.308,13.235-17.891,13.319-29.769C15.98,39.69,11.549,22.932,3.63,7.021,2.525,4.8,1.353,2.613,0,0" fill="#ffc593"/>
        </g>
        <g id="Grupo_1255" data-name="Grupo 1255" transform="translate(25.515 -72.382)">
          <path id="Caminho_1202" data-name="Caminho 1202" d="M0,0,4.164-2.4c4.826,6.586,9.181,13.281,14.28,19.351C35.775,37.582,57.113,41.49,82.5,29.051c21.372-10.472,26.683-19.5,24.517-43.171a109.009,109.009,0,0,0-4.049-20.648C101-41.473,97.9-47.849,95.15-54.749l3.306-1.909c11.009,20.123,16.424,41.145,11.7,63.715a29.713,29.713,0,0,1-8.815,15.035,70.167,70.167,0,0,1-48.4,18.41C39,40.389,27.623,33.728,18.527,23.651,11.981,16.4,6.411,8.264,0,0" fill="#ffc593"/>
        </g>
        <g id="Grupo_1256" data-name="Grupo 1256" transform="translate(1.536 -58.826)">
          <path id="Caminho_1203" data-name="Caminho 1203" d="M0,0C.986,1.165,2.06,2.267,2.943,3.505q8.448,11.829,16.818,23.713C34.113,47.676,54.748,55.455,78.725,56.541c20.77.941,38.987-5.49,53.726-20.088a222,222,0,0,0,23.9-27.513C173.193-14.4,173.014-39.29,160.995-64.7c-1.069-2.261-2.162-4.511-3.215-6.78a9.212,9.212,0,0,1-.091-1.962c1.456,1.509,2.693,2.311,3.257,3.447C169.16-53.455,174.5-36.351,170.79-17.57A71.155,71.155,0,0,1,158.758,9.7C148.628,24.081,137,37.135,122.416,47.2c-16.065,11.088-34.124,12.827-52.973,11-25.754-2.5-43.891-16.39-57.467-37.513C7.711,14.047,2.981,7.709-1.536,1.235L0,0" fill="#ffc593"/>
        </g>
        <g id="Grupo_1257" data-name="Grupo 1257" transform="translate(36.3 -78.626)">
          <path id="Caminho_1204" data-name="Caminho 1204" d="M0,0C2.287,3.229,4.468,6.539,6.879,9.674,21.848,29.138,35.2,33.631,58.435,26.195A73.929,73.929,0,0,0,77.693,16.9C86.975,10.5,90.165.847,88.7-10.283c-1.385-10.509-5.024-20.282-9.855-29.655-.747-1.451-1.406-2.948-2.106-4.423L77.8-45.1a13.3,13.3,0,0,1,2.1,2.326c5.439,9.934,9.753,20.265,11.1,31.647,1.8,15.2-3.128,25.99-16.731,33.057a104.206,104.206,0,0,1-23.641,8.635C30.284,35.428,15.473,26.5,4.227,10.155,2.18,7.179.571,3.9-1.241.765L0,0" fill="#ffc593"/>
        </g>
        <g id="Grupo_1258" data-name="Grupo 1258" transform="translate(41.48 -81.712)">
          <path id="Caminho_1205" data-name="Caminho 1205" d="M0,0C.989,1.316,2.023,2.6,2.955,3.955,4.285,5.886,5.523,7.88,6.828,9.829c10.5,15.678,23.972,20.21,41.363,12.7,8.095-3.5,15.514-8.672,22.965-13.509C77.791,4.712,80.182-2.1,78.173-9.433c-2.29-8.361-5.874-16.371-8.957-24.51-.609-1.607-1.5-3.109-1.332-5.287.523.4,1.215.7,1.544,1.221,5.625,8.94,10.058,18.35,11.447,28.977,1.041,7.969-1.207,15.133-7.8,19.414-9.233,6-18.807,11.952-29.032,15.821C29.58,31.678,17.481,27.26,7.908,15.061,4.442,10.645,1.53,5.794-1.635,1.142L0,0" fill="#ffc593"/>
        </g>
        <g id="Grupo_1259" data-name="Grupo 1259" transform="translate(49.41 -87.59)">
          <path id="Caminho_1206" data-name="Caminho 1206" d="M0,0A54.29,54.29,0,0,0,3.429,4.732C8.081,9.71,12.31,15.262,17.641,19.377c6.483,5,14.424,5.449,21.812,1.9a57.877,57.877,0,0,0,13.9-9.34c8.01-7.349,7.835-16.51,3.973-25.9-1.484-3.608-3.387-7.043-5.059-10.576-.541-1.143-.956-2.347-1.786-4.413,8.8,6.411,13.949,25.937,10.052,35.193C55.973,17.075,38.093,27.164,26.522,25.429,15.6,23.791.838,10.365,0,0" fill="#ffc593"/>
        </g>
        <g id="Grupo_1260" data-name="Grupo 1260" transform="translate(57.408 -90.999)">
          <path id="Caminho_1207" data-name="Caminho 1207" d="M0,0A61.778,61.778,0,0,0,4.315,4.966c3.626,3.408,7.138,7.025,11.169,9.893,5.829,4.148,12.248,4.5,18.569.831,6.455-3.746,9.655-9.618,8.738-16.879-.674-5.334-2.78-10.493-4.32-15.708-.442-1.5-1.134-2.922-1.779-4.551,1.117-.148,1.6-.3,1.657-.207,4.7,8.116,8.078,16.687,6.346,26.229A19.27,19.27,0,0,1,18,18.738C9.583,15.1,3.712,8.57-1.373,1.3L0,0" fill="#ffc593"/>
        </g>
        <g id="Grupo_1261" data-name="Grupo 1261" transform="translate(90.726 -109.731)">
          <path id="Caminho_1208" data-name="Caminho 1208" d="M0,0C2.977,6.73,5.322,13.645,2.046,21.091c-2.294,5.212-9.28,8.554-15.313,7.9-6.993-.761-14.033-6.278-15.31-13.063a21.1,21.1,0,0,0,3.123,3.238c3.791,2.564,7.42,6.048,11.641,7.155,8.6,2.255,15.869-4.677,14.932-13.6C.68,8.538-.663,4.453-1.6.325L0,0" fill="#ffc593"/>
        </g>
        <g id="Grupo_1262" data-name="Grupo 1262" transform="translate(65.008 -95.426)">
          <path id="Caminho_1209" data-name="Caminho 1209" d="M0,0C5.622.839,10.805,2.994,15.233,1.95c6.715-1.584,5.56-7.719,3.828-13.3,3.161,1.941,4.024,3.841,3.658,7.389C22.3.126,20.231,3.141,16.381,4.56,10.206,6.837,5.179,4.319,0,0" fill="#ffc593"/>
        </g>
        <g id="Grupo_1263" data-name="Grupo 1263" transform="translate(69.748 -98.597)">
          <path id="Caminho_1210" data-name="Caminho 1210" d="M0,0C7.665,2.424,8.754,3.621,10.886-5.693,13.27-2.921,12.851.4,9.829,2.666,6.479,5.181,2.591,4.3,0,0" fill="#ffc593"/>
        </g>
      </g>
    </g>
  </g>
</svg>
