<svg xmlns="http://www.w3.org/2000/svg" width="44.857" height="62.186" viewBox="0 0 44.857 62.186">
  <g id="pv_titatividades_bg" transform="translate(-462.054 -95.721)">
    <g id="Grupo_35" data-name="Grupo 35" transform="translate(462.213 155.247)">
      <path id="Caminho_30" data-name="Caminho 30" d="M0,0-.159.968c2.393.465,4.768,1.094,7.183,1.368C20.292,3.843,31.363.261,37.876-12.224a70.1,70.1,0,0,0,6.052-15.819c2.416-10.029-.886-17.3-9.4-23.092C28.148-55.474,21-57.844,13.55-59.467a8.951,8.951,0,0,0-2.109.041c-.031.289-.061.579-.092.868,1.058.3,2.109.622,3.176.882a60.873,60.873,0,0,1,19.412,8.088c6.3,4.169,9.793,10.05,8.947,17.591A49.745,49.745,0,0,1,39.1-18.113C32.619-3.028,24.445,1.768,7.95.777,5.294.618,2.65.264,0,0" fill="#ffe8d7"/>
    </g>
    <g id="Grupo_36" data-name="Grupo 36" transform="translate(462.932 151.254)">
      <path id="Caminho_31" data-name="Caminho 31" d="M0,0Q-.07.667-.142,1.335c3.76.446,7.509,1.108,11.282,1.3,10.422.524,18.007-3.67,21.614-13.435,2.549-6.9,3.752-14.392,4.782-21.729.735-5.237-1.91-9.541-6.418-12.531-6.01-3.986-12.746-5.89-19.77-6.979a4.056,4.056,0,0,0-1.3.245,7.6,7.6,0,0,0,3.273,1.658c5.495,2.027,11.145,3.743,16.4,6.271A10.7,10.7,0,0,1,36-32.156c-.833,5.92-1.479,11.973-3.278,17.628C28.854-2.381,20.606,2.459,8.006.872,6.44.674,4.881.423,3.313.245,2.214.121,1.105.079,0,0" fill="#ffe8d7"/>
    </g>
    <g id="Grupo_37" data-name="Grupo 37" transform="translate(463.448 144.632)">
      <path id="Caminho_32" data-name="Caminho 32" d="M0,0C5.634,4.15,18.971,2.579,24.624-2.244c5.989-5.11,8.759-18.644,5.269-25.747-2.98-6.066-15.169-12.072-22.311-10.432,1.416.49,2.21.811,3.03,1.041,2.532.71,5.117,1.26,7.6,2.1,6.475,2.185,11.205,6.141,11.4,13.454a38.927,38.927,0,0,1-1.4,11.184C26.765-5.325,23.033-1.488,17.63-.405,13.186.486,8.5.183,3.917.347A36.185,36.185,0,0,1,0,0" fill="#ffe8d7"/>
    </g>
    <g id="Grupo_38" data-name="Grupo 38" transform="translate(465.247 139.064)">
      <path id="Caminho_33" data-name="Caminho 33" d="M0,0Q.028.636.056,1.273C5.991,1.9,11.9,1.8,17.461-.867A12.967,12.967,0,0,0,22.055-20.68c-4.081-5.092-9.924-7.162-16.122-8.357-.073-.014-.209.3-.627.933,1.112.391,2.141.669,3.1,1.106,3.328,1.52,6.878,2.728,9.885,4.741C22.38-19.517,23.95-15.3,23-10.368A10.887,10.887,0,0,1,14.383-1.3,74.344,74.344,0,0,1,4.427,0,41.64,41.64,0,0,1,0,0" fill="#ffe8d7"/>
    </g>
    <g id="Grupo_39" data-name="Grupo 39" transform="translate(474.275 113.874)">
      <path id="Caminho_34" data-name="Caminho 34" d="M0,0-.539.954A73.125,73.125,0,0,1,6.953,5.047c4.946,3.464,5.257,10.216.315,13.588-2.425,1.655-5.8,1.96-8.773,2.753a14.2,14.2,0,0,1-3.023.157c4.01,2.347,9.92,1.207,13.393-2.009,3-2.774,4.384-7.8,2.75-11.263C9.28,3.321,4.732,1.459,0,0" fill="#ffe8d7"/>
    </g>
    <g id="pv_titatividades_bg-2" data-name="pv_titatividades_bg" transform="translate(462.213 155.247)">
      <path id="Caminho_35" data-name="Caminho 35" d="M0,0C2.65.264,5.294.618,7.95.777c16.495.991,24.669-3.805,31.152-18.89A49.745,49.745,0,0,0,42.884-32c.846-7.541-2.647-13.422-8.947-17.591a60.873,60.873,0,0,0-19.412-8.088c-1.067-.26-2.118-.586-3.176-.882.031-.289.061-.579.092-.868a8.951,8.951,0,0,1,2.109-.041c7.447,1.623,14.6,3.993,20.975,8.332,8.517,5.795,11.819,13.063,9.4,23.092a70.1,70.1,0,0,1-6.052,15.819C31.363.261,20.292,3.843,7.024,2.336c-2.415-.274-4.79-.9-7.183-1.368L0,0" fill="#ffe8d7"/>
    </g>
    <g id="Grupo_41" data-name="Grupo 41" transform="translate(462.932 151.254)">
      <path id="Caminho_36" data-name="Caminho 36" d="M0,0C1.105.079,2.214.121,3.313.245,4.881.423,6.44.674,8.006.872c12.6,1.587,20.848-3.253,24.712-15.4,1.8-5.655,2.445-11.708,3.278-17.628a10.7,10.7,0,0,0-6.275-11.711c-5.257-2.528-10.907-4.244-16.4-6.271A7.6,7.6,0,0,1,10.046-51.8a4.056,4.056,0,0,1,1.3-.245c7.024,1.089,13.76,2.993,19.77,6.979,4.508,2.99,7.153,7.294,6.418,12.531C36.506-25.194,35.3-17.7,32.754-10.8,29.147-1.037,21.562,3.157,11.14,2.633c-3.773-.19-7.522-.852-11.282-1.3Q-.07.667,0,0" fill="#ffe8d7"/>
    </g>
    <g id="Grupo_42" data-name="Grupo 42" transform="translate(463.448 144.632)">
      <path id="Caminho_37" data-name="Caminho 37" d="M0,0A36.185,36.185,0,0,0,3.917.347C8.5.183,13.186.486,17.63-.405c5.4-1.083,9.135-4.92,10.593-10.239a38.927,38.927,0,0,0,1.4-11.184c-.2-7.313-4.926-11.269-11.4-13.454-2.488-.84-5.073-1.39-7.6-2.1-.82-.23-1.614-.551-3.03-1.041,7.142-1.64,19.331,4.366,22.311,10.432,3.49,7.1.72,20.637-5.269,25.747C18.971,2.579,5.634,4.15,0,0" fill="#ffe8d7"/>
    </g>
    <g id="Grupo_43" data-name="Grupo 43" transform="translate(465.247 139.064)">
      <path id="Caminho_38" data-name="Caminho 38" d="M0,0A41.64,41.64,0,0,0,4.427,0,74.344,74.344,0,0,0,14.383-1.3,10.887,10.887,0,0,0,23-10.368c.947-4.932-.623-9.149-4.715-11.889C15.281-24.27,11.731-25.478,8.4-27c-.956-.437-1.985-.715-3.1-1.106.418-.632.554-.947.627-.933,6.2,1.2,12.041,3.265,16.122,8.357A12.967,12.967,0,0,1,17.461-.867C11.9,1.8,5.991,1.9.056,1.273Q.029.637,0,0" fill="#ffe8d7"/>
    </g>
  </g>
</svg>
