<svg xmlns="http://www.w3.org/2000/svg" xmlns:xlink="http://www.w3.org/1999/xlink" width="102.439" height="33.862" viewBox="0 0 102.439 33.862">
  <defs>
    <clipPath id="clip-path">
      <path id="Caminho_79" data-name="Caminho 79" d="M2.276-33.862A2.277,2.277,0,0,0,0-31.585H0V0H100.162a2.277,2.277,0,0,0,2.277-2.276h0V-33.862Z" fill="none"/>
    </clipPath>
  </defs>
  <g id="pv_titatividadesbg" transform="translate(0 33.862)">
    <g id="Grupo_85" data-name="Grupo 85" clip-path="url(#clip-path)">
      <g id="Grupo_46" data-name="Grupo 46" transform="translate(37.047 -14.863)">
        <path id="Caminho_40" data-name="Caminho 40" d="M0,0,.486-3.451,0,0,3.447.394,0,0" fill="#fff"/>
      </g>
      <g id="Grupo_47" data-name="Grupo 47" transform="translate(97.328 5.38)">
        <path id="Caminho_41" data-name="Caminho 41" d="M0,0C-1.078-2.668-2.152-5.331-3.075-7.62c.923,2.289,2,4.951,3.068,7.612C0,0,0,0,0,0" fill="#2b2e34"/>
      </g>
      <g id="Grupo_48" data-name="Grupo 48" transform="translate(98.794 31.102)">
        <path id="Caminho_42" data-name="Caminho 42" d="M0,0,3.9-3.326c-.224-1.89-.46-3.868-.689-5.8L-.55-10.423l2.992-4.714C1.315-18.145-.1-21.935-1.527-25.731l-.021,0c.153.89.308,1.8.54,3.147l-3.766.381c-.713-3.586-.23-4.048,3.226-3.528,0-.032-.011-.065-.016-.1,0,0,.072.081.092.1-1.073-2.661-2.145-5.323-3.068-7.612l-.386-.958a26.4,26.4,0,0,1-4.3-.007c-.331-.056-.494-1.1-.742-1.707.719-.856,1.331-1.586,2.022-2.411L-9.6-40.339l-2.924,2.42c-3.182-2.213-2.105-4.031.263-5.814l-4.99-4.357-4.685,1.764c.662-2.209.958-3.194,1.368-4.564L-32.6-56.27l-2.861,3.908c-.786-1.892-1.274-3.064-1.845-4.438l-1.734-.24-1.65,3.523-2.62-4.011-2.548.045c.732,2.616.068,4.289-3.386,4.7l-2.047-4.943-2.3.145L-54.8-54.859l-3.224-2.663-10.717,3.516c-.589,1.467-.946,2.357-1.321,3.293l-3.769-.178c-.3,1.286-.541,2.3-.7,2.99l-3.89,1.22c.21,2.143.346,3.534.528,5.393l-5.066-.855c-.116,1.486-.227,2.905-.39,4.992l-3.4,1.1-2.795,5.719,2.825,2.555L-88.381-24.8l-3.349.059c-.2.917-.385,1.724-.43,1.927l3.259,2.229q-.214.555-.43,1.109l-3.776.066-.643,2.923c.885.789,1.688,1.5,2.888,2.575l-4.35,5.03,4.1,2.427q.072.582.145,1.164L-95.66-2.765l1.4,6.261-1.006,1.371c.036,2.051.067,3.822.091,5.21l4.462,2.293-2.838,3.437,3.283.772,2.068-2.2,4.432,2.82c.9-1.454,1.411-2.268,2.347-3.771,1.23,1.278,2.167,2.25,3.3,3.43l2.242-.04c.771-1.642,1.078-3.262,2.055-4.033.623-.492,2.239.274,3.5.493-.171,1.637-.271,2.592-.388,3.716l2.579.068c.333-1.335.626-2.506.918-3.677l1.162-.276,2.129,3.954,1.936-.034c-.09-3.805.463-4.323,3.871-3.384-.194,1.094-.389,2.2-.608,3.435l2.806-.049c.714-1.311,1.331-2.443,2.476-4.542l2.653,4.871,3.291-1.636,3.959,1.654c.844-4.133,1.478-4.5,4.78-3.1.238.829.5,1.746.758,2.639l6.042-.1,2.882-4.586c1.106,2.2,1.688,3.361,2.338,4.657l2.873-.352-1.922-3.376,3.912-2.348,1.108.756c-.16,1.6-.32,3.2-.487,4.869l2.58-.045c.238-1.162.43-2.1.516-2.518,3.97-3.232,3.181,3.251,5.9,2.326.06-1.1.113-2.05.185-3.363l3.293.176c.341,1.3.58,2.2.812,3.09l2.764-.048,2.18-2.618L-.329,15.78l2.545-1.221c-.02-1.172-.039-2.243-.056-3.254L4.381,9.213c-.043-2.466-.084-4.79-.118-6.738L0,0M.087-7.618C.85-7.659,1.671-6.609,2.814-5.8L-.407-2.675-3.363-5.494C-1.689-6.587-.826-7.569.087-7.618m-43.773-11.3c-1.15-.06-2.262-.858-3.927-1.585,1.308-1.479,2-2.262,3.245-3.672,1.033,1.336,2.041,2.233,2.427,3.346.148.425-1.157,1.942-1.745,1.911m.627,5.227-1.08,1.2-2.115-1.9q.539-.6,1.078-1.2l2.117,1.9m-4.714-15.526,1.72-.267q.245,1.516.488,3.032l-1.732.268q-.239-1.516-.476-3.033m2.234-3.955c-.087-.374.922-1,2.106-2.182.246,1.823.359,2.658.472,3.493l-1.092.586c-.531-.624-1.323-1.188-1.486-1.9m2.738,7.262.1-1.941,3.388-.06q-.049,1.2-.1,2.4l-3.384-.394m3.683,10.467,1.977-.127q.193,1.406.386,2.811l-2.313.146q-.025-1.414-.05-2.83m.14-5.743,3.029-2.961,2.368,2.62c-1.608,3.435-3,3.584-5.4.341M-36.4-28.16c.752-.551,1.532-1.57,2.246-1.525.74.046,1.414,1.124,2.117,1.75q-.218.618-.436,1.236L-36.1-26.98q-.15-.589-.3-1.18m3.959,17.225,1.248.057q.489,1.784.977,3.567l-1.433.726c-.737-.627-1.925-1.161-2.078-1.907-.143-.7.813-1.62,1.286-2.443m1.721-2.67c-.7.114-2.389-1.571-2.366-2.418.028-1.041,1.375-2.048,2.722-3.817,1.174,1.78,2.508,2.943,2.312,3.717A4.02,4.02,0,0,1-30.721-13.6m2.32-7.574a2.288,2.288,0,0,1-1.556-1.628c0-.551.992-1.5,1.6-1.55s1.289.811,2.472,1.652c-1.21.781-1.931,1.611-2.52,1.526m5.313,7.964c.419-.061,1.493,1.207,1.432,1.779-.085.791-.9,2.045-1.511,2.117-1.043.122-2.176-.524-3.271-.848q-.054-.843-.109-1.687a14.9,14.9,0,0,1,3.459-1.361m2.315-5.435c-1.57,2.807-2.219,2.885-4.48.373,1.8-3.151,2.7-3.191,4.48-.373M-22.5-25.619a11.383,11.383,0,0,1,3.014-1.412l1.071,1.206a8.909,8.909,0,0,1-1.377,2.759,2.346,2.346,0,0,1-2.245-.318c-.48-.463-.77-1.97-.463-2.235M-23.168.36C-23-.375-21.5-.8-20.577-1.365L-19.52-.5l-.852,3.38-1.326.254c-.544-.936-1.648-2-1.47-2.771m1.242-4.478c1.871-3.812,2.843-4.032,5.461-1.467l-1.279,3.549-4.182-2.082m3.906-8.753-1.063-.4.441-3.011,2.862.6-.033,1.333-2.207,1.482m-.414-7.55,3.69-2.867c.173,2.027.271,3.172.368,4.317l-.929.482-3.129-1.932m5,8.2c1.169-.25,2.551.505,3.843.833q.125.939.248,1.878a24.66,24.66,0,0,1-4.207,2.028c-.356.1-1.706-1.385-1.616-2,.151-1.026.955-2.576,1.732-2.742m-.154-4.975,1.537.016c-.039.685-.079,1.37-.117,2.02a5.576,5.576,0,0,1-1.01.012c-.166-.676-.282-1.363-.41-2.048m3.724,2.637,1.056-2.765,1.747.818-1.355,2.617-1.448-.67m-1.357,16.33c1.2-.128,2.6-.688,3.522-.241.671.327.7,1.977,1.011,3.037l-1.119.86L-11.5,3.546l.279-1.779M-9.1-4.7a2.919,2.919,0,0,1,1.386-2.47c1.116-.146,2.346.578,3.867,1.042L-5.936-1.8C-7.374-3.034-8.639-3.682-9.1-4.7M-5.726-.4c1.275-.427,2.563-1.19,3.818-1.137C-1.285-1.512-.22.05-.28.848S-1.694,3.031-2.257,2.93c-1.271-.23-2.4-1.22-3.594-1.9Q-5.788.313-5.726-.4m2.941-18.8c1.118-.188,2.391.54,4.011.992-1.841,3.69-3.519,3.826-6.1,1.392.717-.876,1.3-2.252,2.085-2.384m-.767,6.316c.768-.1,1.682.938,3.087,1.831C-1.725-10-2.52-8.831-3.246-8.874a2.919,2.919,0,0,1-2.129-1.91c-.089-.654,1.086-2,1.823-2.1M-7.742-31.3c.964-.135,2.07.735,3.115,1.173q.033.646.065,1.293a12.455,12.455,0,0,1-3.3,1.762c-.453.1-1.781-1.336-1.695-1.925.128-.882,1.071-2.2,1.812-2.3m-.369,6.55c.655,1.654,1.04,2.625,1.647,4.16l-3.677,1.651-2.227-3.056,4.257-2.755m-5.565-10,1.111-.356,2.04,2.766q-.32.467-.637.934c-.915-.188-2.21-.086-2.636-.645s.046-1.772.122-2.7M-13.5-28.7c.842.435,1.365,1.486,2.576,2.944l-4.8,1.414c-.027-1.575-.313-2.719.041-3.607A2.325,2.325,0,0,1-13.5-28.7m-3.575-6.825a14.275,14.275,0,0,1-3.062-1.459l2.959-2.909a14.094,14.094,0,0,1,1.358,3.11c.059.371-.9,1.326-1.255,1.258m.636-8.533q.064.508.128,1.015l-2.2,1.956c-.569-1.181-.967-2.007-1.8-3.729l3.87.758m-4.211,11.233,3.137.667q.058.6.118,1.2l-2.712,2.04-1.175-.551q.317-1.677.632-3.353m-1.07-4.085c0,.981-1.094,1.963-1.712,2.944l-1.251-.06c-.526-1.034-1.606-2.181-1.425-3.072.187-.925,1.6-1.6,2.47-2.387.687.858,1.918,1.716,1.918,2.575m-.419-6.76c-.285.925-1.84,1.459-2.843,2.163l-1.285-.862q.574-2.144,1.151-4.288l1.518-.14c.542,1.059,1.71,2.311,1.459,3.127m-4.3-8.372,2.318.455q-.162.729-.325,1.457l-2.3-.63q.156-.641.311-1.282m.09,20.693c.726.085,1.3,1.477,1.955,2.306-2.246,2.191-3.757,2.421-5.415-1,1.339-.559,2.458-1.427,3.46-1.309m-5.258-17.315,4.336-.52C-27.962-47.6-28.31-46.8-29.049-45.1l-2.56-3.562m2.439,9.978-1.158.155-1.361-2.532c1.321.137,2.342,0,2.51.314.285.538.034,1.36.009,2.063m.865-14.631-2.166,2.6L-32.1-54.239l3.8.922m-.108,18.1-2.929,3.363-1.776-3.761q.4-.456.8-.913l3.906,1.311m-7.733-15.61c.768-.435,1.813-.383,3.348-.625-.289,1.761-.423,2.576-.649,3.952a10.35,10.35,0,0,1-2.887-1.33,2.072,2.072,0,0,1,.188-2m3.751,7.159c-1.7,2.354-3.111,2.026-4.805-.214,2.069-2.655,3.433-2,4.805.214m-4.227,4.684,1.646,1.382q-.342.5-.685,1l-1.91-1.211q.474-.583.949-1.168m-1.119,4.842.963,1.537-2.4,1.136-.693-1.287,2.126-1.386m-5.646-17.432,3.253-.646.645,1.02c-.675.722-1.243,1.781-2.065,2.042-.5.159-1.394-.906-2.111-1.421q.138-.5.278-1m4.007,8.462-2.506.261q.1-1.421.193-2.839l1.5-.163.81,2.741M-43.5-39.018c.76-.426,1.779-.39,3.763-.719-.982,1.791-1.3,2.761-1.959,3.374-.242.226-1.543-.2-1.861-.669s-.267-1.8.057-1.986m-2.56-10.708.735,1.566-2.567,2.446c-.869-1.981-1.268-2.89-2.028-4.624l3.86.612m-2.033,5.519c.511-.156,2.119,1.3,2.156,2.083.045.939-1.053,1.933-2.142,3.683-1.233-1.671-2.5-2.671-2.35-3.357a3.871,3.871,0,0,1,2.336-2.409m-1.966,7.548c.529.561,1.5,1.137,1.479,1.679-.026.735-.808,1.444-1.266,2.164l-1.145-.173q-.234-1.572-.467-3.145l1.4-.525m-18.23,19.976-1.026-.837c.392-.977.57-2.545,1.229-2.783.835-.3,2.06.478,3.117.791q.006.684.013,1.368l-3.333,1.461m2.842,5.777-1.41.94c-.76-.592-1.865-1.047-2.172-1.819-.24-.6.507-1.6.815-2.424l1.26-.194q.753,1.749,1.507,3.5m-1.017-11.425L-69.607-26a17.359,17.359,0,0,1,3.67-1.515c.439-.069,1.579,1.092,1.482,1.431a20.718,20.718,0,0,1-2.008,3.756M-72.127-28.6l-2.618-3.435L-71.3-34.9c.928,1.293,1.621,2.257,2.5,3.473L-72.127-28.6m5.6-12.867c-.4-.791-.916-1.521-.807-1.629a14.328,14.328,0,0,1,1.988-1.473l.764,1.336-1.945,1.766m1.9,11.55-.363-2.464,2.434-.195q.183.414.368.828l-1.58,2.01-.859-.179m4.277,7.117,1.116,1.7-2.423,1.8q-.642-.985-1.285-1.971l2.592-1.528m2.647-1.1-1.13-.113c-.211-1.061-.937-2.672-.52-3.062.749-.7,2.185-.67,3.333-.945q.329.735.656,1.469Q-56.534-25.229-57.7-23.9m3.451,5.2-1.632,1.677-1.131-1,1.4-1.856,1.365,1.178m-3.625-11.814c-.3-.592-.547-1.209-.809-1.819l1.312-.326c.161.638.323,1.276.492,1.938a4.941,4.941,0,0,1-.995.207m-3.869-15.446.486-3.45,1.548-.126,1.894,2.867q-.24.552-.481,1.1l-3.447-.394m1.518,3.191q.063.636.127,1.271l-2.237.214-.126-1.247,2.236-.238m-1.387,26.883,4.676,1.032-2.974,3.715-2.524-3.61.822-1.137m7.606,9.732.972.979Q-53.6-3.4-54.165-1.619l-1.26.292q-.921-1.472-1.841-2.945l3.256-1.887m-1.836-5.1a14.231,14.231,0,0,1,2.908-1.717c.365-.107,1.417.683,1.421,1.071a16.136,16.136,0,0,1-.905,3.587l-3.424-2.941m3.773-9.6c-.565-1.029-1.625-2.107-1.531-3.072.068-.707,1.653-1.266,2.562-1.89l1.089.784-.783,3.878-1.337.3m-1.919-8.6c.533-.777.958-1.6,1.086-1.551a13.217,13.217,0,0,1,2.1,1.1l-.755,1.239-2.429-.788m4.935,11.7q.138,1.263.275,2.526l-1.592.23q-.219-1.258-.439-2.518l1.756-.238m-6.579-23.22c-1.062-3.687.107-4.085,3.384-2.418l-3.384,2.418M-56.6-51.368l2.989-.975,1.024.987c-.477.866-.886,2.389-1.448,2.448-.885.093-1.873-.8-2.818-1.275q.127-.593.253-1.185M-53.885-38q.213.593.425,1.183c-.962.688-1.89,1.816-2.9,1.894-.578.044-1.288-1.617-1.938-2.511l1-1.185,3.41.619m-8.161-16.169,4.423-.961-1.493,4.26-1.409.6-2.438-2.1q.459-.9.917-1.8m1.465,15.986.195,1.277q-1.693,1-3.389,2l-1.131-.991c.439-1.016.626-2.421,1.4-2.92.592-.383,1.923.379,2.926.632m-3.994-16.4.911.711-1.118,1.279-.662-.448.869-1.542m.675,5.116c-1.475,2.994-2.819,2.343-4.432.53,1.128-2.817,2.53-2.222,4.432-.53m-3.274,10.679q-.246.783-.49,1.565l-4.326-.237-.267-1.552c.917-.5,1.836-1.386,2.752-1.382.779,0,1.554,1.031,2.331,1.606m-2.482-7.506q.02.808.038,1.616l-3.524.062-.036-1.617,3.522-.061M-74.5-42.91q.67.876,1.34,1.751l-.905.836-1.62-1.631,1.185-.956m2.63,17.633c.034,1.993.053,3.048.086,4.941-1.571-.3-2.913-.3-3.915-.877a2.719,2.719,0,0,1-.016-2.573c.876-.738,2.224-.916,3.845-1.491m-7.831-1.9a10.16,10.16,0,0,1,.671-3.2l1.4-.177a11.1,11.1,0,0,1,1.592,2.937c.091.427-1.015,1.508-1.661,1.585s-1.95-.664-2-1.147M-78.024-16.7l-2.365,2.022-1.31-.343q.048-1.742.1-3.482l1.087-.324,2.493,2.127m5.834,3.439L-76.047-15.4l3.079-2.959c.3,1.929.455,2.979.778,5.092M-78.44-38.8c.735-.091,2.308,1.093,2.305,1.7-.006,1.213-.844,2.421-1.338,3.631l-1.376.076c-.72-1.146-1.783-2.231-2-3.466-.1-.538,1.487-1.832,2.41-1.945m-5.85,5.892c.458-.3,1.519.339,2.311.558q.015.624.031,1.249l-2.815,1.189-.722-.661c.376-.812.559-1.923,1.195-2.335m1.116,7.478c1.169.05,2.282,1.454,3.419,2.272q-.372,1-.745,2l-5.2-.347-.474-1.558c1-.851,2.038-2.412,3-2.371m-4.643,8.048c3.2.516,3.452,1.834,1.773,4.357-.9-.542-2.138-.872-2.422-1.584s.386-1.806.649-2.773M-83.4-4.493l-1.765,3.2-1.406-.168q-.536-1.932-1.073-3.865l1.09-.895L-83.4-4.493m-9.653,6.718c-.2-1.791-.318-2.8-.465-4.085,3.282,1.1,3.312,1.24.465,4.085m.656,6.918c-.765-1.2-1.667-2.02-1.51-2.495.234-.711,1.214-1.175,1.876-1.744.489.636,1.347,1.264,1.361,1.91.013.608-.866,1.234-1.727,2.329m1.435-18.409,2.808-2.077.887.455-.546,2.46-3.149-.838m7.733,19.591c-.287,1.037-1.3,1.873-2.218,3.049a21.659,21.659,0,0,1-2.213-1.95,12.905,12.905,0,0,1-1.019-2.218c1.435-.38,2.662-1,3.827-.9.638.056,1.767,1.493,1.623,2.017m-2.128-3.55C-86.47,5-87.589,3.991-87.538,3.047-87.5,2.263-85.981.878-85.289.975A3.414,3.414,0,0,1-82.855,3.19c.075.875-1.227,1.867-2.5,3.585M-82.039-6.4c-1.249-1.85-2.517-2.909-2.4-3.78a3.646,3.646,0,0,1,2.48-2.306c.586-.125,2.123,1.385,2.152,2.2.035.98-1.076,2-2.233,3.888m5.1,17.588-3.747.408c.875-1.551,1.261-2.871,1.714-2.894.782-.04,1.605.725,2.411,1.152l-.378,1.334m.153-5.328-1.187.162L-79.8,2.815l.906-.844,3.127.09-1.015,3.8m-.712-7.373a3.7,3.7,0,0,1-2.379-2.34c-.157-.656,1.159-1.664,2.352-3.208,1.109,1.6,2.272,2.559,2.259,3.5-.01.747-1.6,2.177-2.232,2.048M-76.313-8.7l-.366-1.648,2.829-.783.4,1.93-2.868.5M-72,9.9c-.655-.452-1.33-.672-1.462-1.071-.179-.536-.113-1.637.154-1.746a8.372,8.372,0,0,1,2.46-.273l.4,1.033L-72,9.9m.6-6.835c-.7-.809-1.813-1.552-1.952-2.447-.1-.652,1.088-1.5,2.1-2.757C-70.329-.832-69.2.079-69.337.725c-.187.886-1.33,1.573-2.063,2.345m1.244-6.8-2.118-2.544L-71.89-7.4l3.541.2.216,1.088-2.023,2.374m3.989,15.416-1.436-.21.369-1.762,1.21.2q-.072.883-.143,1.767M-67.5,6.768l-.387-2.07,3.446-.451q.157.888.316,1.778l-3.375.743m3.58-6.736L-67.6-.588l2.9-2.634,1.171.561-.4,2.693m1.245-10.191,3.823,2.12.243,1.239A11.531,11.531,0,0,1-61.64-5.118a2.343,2.343,0,0,1-1.865-1.39c-.126-.981.418-2.049.825-3.651M-61.3,10.752l-.88-.28c-.066-.728-.438-1.676-.116-2.125.352-.49,1.349-.516,2.064-.744q.372.507.743,1.013L-61.3,10.752m1.721-5.134L-62.9,2.4l3.473-3.108,2.9,3.406-3.055,2.919m7.074,5.288-3.528.062q-.167-.5-.332-1.009c.652-.56,1.272-1.514,1.965-1.571s1.465.78,2.2,1.225q-.153.646-.307,1.293M-55.7,2.737l4.412-1.043C-52.509,5.516-52.8,5.581-55.7,2.737m4.232-5.377,4.572-.957.77.954-2.119,3.992L-51.466-2.64m5.394,7.409L-48.38,7.687c-.367-1.645-.886-2.638-.6-3,.438-.558,1.428-.683,2.183-.991l.726,1.074m-2.016,8.662c-.884-.244-1.5-1.457-2.232-2.256.775-.63,1.54-1.737,2.327-1.754s1.576,1.072,2.884,2.073c-1.379.95-2.362,2.108-2.979,1.937M-45.1-6.952l-3.55-.211q.024-.9.049-1.79l3.555-.062L-45.1-6.952m4.339,17.543c-1.085-.178-2.069-.973-3.577-1.772l3.475-3.793c.9,1.849,1.652,2.862,1.793,3.954.063.493-1.192,1.693-1.691,1.611M-43.572.659C-42.109-1.895-40.74-1.868-39.187.2c-1.688,3.112-2.294,3.178-4.385.461m4.53-4.724-1.679-.017a11.764,11.764,0,0,1-1.251-3.505c-.021-.505,1.411-1.5,2.169-1.487S-37.666-8.02-37.7-7.5a11.475,11.475,0,0,1-1.343,3.437m5.267,17.825-2.787-.153.063-1.476,2.791.123q-.033.753-.067,1.506m.633-5.785-4.637-1.086c1.352-1.525,1.957-2.206,2.931-3.306l2.4,2.931-.693,1.461M-33.611.888c-.921-.9-2.332-1.687-2.592-2.751-.174-.714,1.285-1.826,2.589-3.5,1.194,1.723,2.477,2.766,2.364,3.626-.126.961-1.519,1.755-2.361,2.622M-27.871-.5c.8,1.6,1.458,2.444,1.558,3.346.049.445-1,1.472-1.449,1.413A10.975,10.975,0,0,1-30.725,2.81L-27.871-.5m-.986,12.09c-.609-1.211-1.344-2.118-1.428-3.081-.041-.472,1.232-1.569,1.725-1.469.935.19,1.735,1.038,3.147,1.984l-3.444,2.566m2.216-13.942c-.828-.049-1.6-1.021-2.873-1.928l2.721-2.355,2.866,2.592c-1.157.769-1.965,1.735-2.714,1.691m5.452,12.561c-.984-1.3-1.9-2.074-2.156-3.023A2.329,2.329,0,0,1-22.084,5.24c.956-.172,2.032.33,3.945.739-1.327,1.839-1.974,2.736-3.05,4.229m6.211.662c-.6.261-1.576-.354-2.387-.586-.032-.344-.063-.689-.095-1.033l2.853-1.274q.351.36.7.721c-.342.761-.508,1.924-1.074,2.172m.954-6.837a11.468,11.468,0,0,1-3.065.736l-.831-1.3a8.782,8.782,0,0,1,1.91-2.428c.394-.246,1.68.382,2.127.955.332.424.207,1.85-.141,2.036m-.785-6.1-.207-1.284,2.336-1.79.876.421c-.1.915.1,2.148-.408,2.648-.444.433-1.7.036-2.6,0m4.124,12.5c-.322.075-1.277-.857-1.223-1.224A11.759,11.759,0,0,1-10.638,6.4L-7.617,8.9a15.344,15.344,0,0,1-3.068,1.53m6.625,3.382-3.163-.566c-.014-.842-.271-1.82.011-2.014A17.9,17.9,0,0,1-3.806,9.856c-.118,1.835-.175,2.727-.254,3.961m.3-4.019-1.491-.485q-.2-1.663-.394-3.329l3.372-.394.987,2.035L-3.755,9.8m2.408,3.232-.775-.7c.315-1.022.63-2.045,1.218-3.957L2.02,11.554-1.347,13.03M2,8.32C1.119,7.5-.021,6.941-.089,6.27c-.091-.909.64-1.9,1.316-3.61L4.276,5.79,2,8.32" fill="#ffd7b3"/>
      </g>
      <g id="Grupo_49" data-name="Grupo 49" transform="translate(90.934 4.033)">
        <path id="Caminho_43" data-name="Caminho 43" d="M0,0A12.476,12.476,0,0,0,3.3-1.762L3.232-3.055C2.187-3.493,1.081-4.364.117-4.228c-.741.105-1.684,1.421-1.812,2.3C-1.78-1.336-.452.1,0,0" fill="#fff"/>
      </g>
      <g id="Grupo_50" data-name="Grupo 50" transform="translate(74.398 2.059)">
        <path id="Caminho_44" data-name="Caminho 44" d="M0,0C-.657-.829-1.229-2.221-1.956-2.306c-1-.118-2.12.75-3.459,1.309C-3.757,2.421-2.246,2.191,0,0" fill="#fff"/>
      </g>
      <g id="Grupo_51" data-name="Grupo 51" transform="translate(42.435 -3.821)">
        <path id="Caminho_45" data-name="Caminho 45" d="M0,0C1.009-.078,1.937-1.206,2.9-1.893q-.212-.593-.425-1.183L-.937-3.7l-1,1.186C-1.287-1.617-.578.044,0,0" fill="#fff"/>
      </g>
      <g id="Grupo_52" data-name="Grupo 52" transform="translate(26.803 -6.357)">
        <path id="Caminho_46" data-name="Caminho 46" d="M0,0,4.326.236q.246-.781.49-1.564c-.777-.575-1.551-1.6-2.331-1.607-.915,0-1.834.882-2.752,1.382L0,0" fill="#fff"/>
      </g>
      <g id="Grupo_53" data-name="Grupo 53" transform="translate(66.399 -12.566)">
        <path id="Caminho_47" data-name="Caminho 47" d="M0,0C-1.372-2.212-2.737-2.868-4.8-.213-3.111,2.027-1.7,2.355,0,0" fill="#fff"/>
      </g>
      <g id="Grupo_54" data-name="Grupo 54" transform="translate(40.493 -14.469)">
        <path id="Caminho_48" data-name="Caminho 48" d="M0,0Q.24-.552.481-1.1L-1.413-3.97l-1.548.125L-3.447-.394,0,0" fill="#fff"/>
      </g>
      <g id="Grupo_55" data-name="Grupo 55" transform="translate(33.888 -4.792)">
        <path id="Caminho_49" data-name="Caminho 49" d="M0,0,1.131.991l3.389-2-.2-1.277C3.322-2.541,1.991-3.3,1.4-2.92.626-2.421.439-1.016,0,0" fill="#fff"/>
      </g>
      <g id="Grupo_56" data-name="Grupo 56" transform="translate(39.677 -19.767)">
        <path id="Caminho_50" data-name="Caminho 50" d="M0,0C.387-1.105.775-2.209,1.493-4.259L-2.929-3.3l-.918,1.8,2.438,2.1L0,0" fill="#fff"/>
      </g>
      <g id="Grupo_57" data-name="Grupo 57" transform="translate(81.396 0.141)">
        <path id="Caminho_51" data-name="Caminho 51" d="M0,0Q-.059-.6-.118-1.2l-3.137-.668Q-3.57-.188-3.887,1.489l1.175.551L0,0" fill="#fff"/>
      </g>
      <g id="Grupo_58" data-name="Grupo 58" transform="translate(65.676 -4.512)">
        <path id="Caminho_52" data-name="Caminho 52" d="M0,0C.5,1.065,1.006,2.13,1.775,3.761L4.7.4.8-.913,0,0" fill="#fff"/>
      </g>
      <g id="Grupo_59" data-name="Grupo 59" transform="translate(34.894 -18.364)">
        <path id="Caminho_53" data-name="Caminho 53" d="M0,0C-1.9-1.692-3.3-2.287-4.432.53-2.82,2.343-1.476,2.994,0,0" fill="#fff"/>
      </g>
      <g id="Grupo_60" data-name="Grupo 60" transform="translate(65.346 -16.397)">
        <path id="Caminho_54" data-name="Caminho 54" d="M0,0C.226-1.376.36-2.191.649-3.953c-1.534.243-2.579.19-3.348.626a2.077,2.077,0,0,0-.188,2A10.379,10.379,0,0,0,0,0" fill="#fff"/>
      </g>
      <g id="Grupo_61" data-name="Grupo 61" transform="translate(46.21 -20.255)">
        <path id="Caminho_55" data-name="Caminho 55" d="M0,0-1.024-.986l-2.989.974q-.128.592-.253,1.185c.944.475,1.933,1.368,2.817,1.275C-.886,2.389-.478.866,0,0" fill="#fff"/>
      </g>
      <g id="Grupo_62" data-name="Grupo 62" transform="translate(43.157 -9.872)">
        <path id="Caminho_56" data-name="Caminho 56" d="M0,0,3.384-2.418C.107-4.084-1.062-3.686,0,0" fill="#fff"/>
      </g>
      <g id="Grupo_63" data-name="Grupo 63" transform="translate(29.176 -13.575)">
        <path id="Caminho_57" data-name="Caminho 57" d="M0,0Q-.02-.808-.038-1.616l-3.522.061L-3.524.061,0,0" fill="#fff"/>
      </g>
      <g id="Grupo_64" data-name="Grupo 64" transform="translate(87.631 -0.303)">
        <path id="Caminho_58" data-name="Caminho 58" d="M0,0Q.318-.466.637-.934L-1.4-3.7l-1.11.356c-.077.927-.541,2.149-.122,2.7S-.914-.188,0,0" fill="#fff"/>
      </g>
      <g id="Grupo_65" data-name="Grupo 65" transform="translate(57.098 -5.261)">
        <path id="Caminho_59" data-name="Caminho 59" d="M0,0C.655-.613.977-1.583,1.96-3.374c-1.985.328-3,.293-3.764.719-.324.182-.378,1.514-.057,1.986S-.242.226,0,0" fill="#fff"/>
      </g>
      <g id="Grupo_66" data-name="Grupo 66" transform="translate(57.239 -18.055)">
        <path id="Caminho_60" data-name="Caminho 60" d="M0,0C.822-.261,1.39-1.319,2.066-2.042q-.324-.51-.646-1.02l-3.253.646q-.138.5-.278.995C-1.394-.9-.5.16,0,0" fill="#fff"/>
      </g>
      <g id="Grupo_67" data-name="Grupo 67" transform="translate(53.469 -17.059)">
        <path id="Caminho_61" data-name="Caminho 61" d="M0,0-.735-1.565l-3.86-.612,2.028,4.623L0,0" fill="#fff"/>
      </g>
      <g id="Grupo_68" data-name="Grupo 68" transform="translate(48.948 -1.714)">
        <path id="Caminho_62" data-name="Caminho 62" d="M0,0C.458-.72,1.24-1.429,1.267-2.165c.019-.541-.951-1.117-1.48-1.678l-1.4.524q.234,1.574.467,3.146L0,0" fill="#fff"/>
      </g>
      <g id="Grupo_69" data-name="Grupo 69" transform="translate(56.908 -11.748)">
        <path id="Caminho_63" data-name="Caminho 63" d="M0,0,2.506-.261,1.7-3l-1.5.163Q.1-1.42,0,0" fill="#fff"/>
      </g>
      <g id="Grupo_70" data-name="Grupo 70" transform="translate(56.908 -11.748)">
        <path id="Caminho_64" data-name="Caminho 64" d="M0,0,2.506-.261,1.7-3l.81,2.741L0,0" fill="#fff"/>
      </g>
      <g id="Grupo_71" data-name="Grupo 71" transform="translate(16.845 0.001)">
        <path id="Caminho_65" data-name="Caminho 65" d="M0,0-.03-1.249c-.792-.22-1.854-.854-2.311-.558-.636.412-.819,1.523-1.2,2.334l.722.662L0,0" fill="#fff"/>
      </g>
      <g id="Grupo_72" data-name="Grupo 72" transform="translate(82.48 -11.941)">
        <path id="Caminho_66" data-name="Caminho 66" d="M0,0C-.042-.338-.085-.677-.128-1.015L-4-1.773C-3.167-.051-2.769.775-2.2,1.956L0,0" fill="#fff"/>
      </g>
      <g id="Grupo_73" data-name="Grupo 73" transform="translate(55.832 -0.758)">
        <path id="Caminho_67" data-name="Caminho 67" d="M0,0C-.113-.835-.226-1.671-.472-3.493-1.656-2.312-2.665-1.685-2.578-1.311c.163.709.956,1.273,1.487,1.9Q-.546.292,0,0" fill="#fff"/>
      </g>
      <g id="Grupo_74" data-name="Grupo 74" transform="translate(36.604 -0.646)">
        <path id="Caminho_68" data-name="Caminho 68" d="M0,0Q-.185-.414-.368-.828L-2.8-.633l.363,2.464.859.179L0,0" fill="#fff"/>
      </g>
      <g id="Grupo_75" data-name="Grupo 75" transform="translate(70.488 -22.215)">
        <path id="Caminho_69" data-name="Caminho 69" d="M0,0-3.8-.922-2.166,2.6,0,0" fill="#fff"/>
      </g>
      <g id="Grupo_76" data-name="Grupo 76" transform="translate(33.445 -13.467)">
        <path id="Caminho_70" data-name="Caminho 70" d="M0,0A14.4,14.4,0,0,0-1.988,1.472c-.108.109.4.839.807,1.63L.765,1.336,0,0" fill="#fff"/>
      </g>
      <g id="Grupo_77" data-name="Grupo 77" transform="translate(59.62 -0.366)">
        <path id="Caminho_71" data-name="Caminho 71" d="M0,0,2.4-1.136,1.433-2.673-.693-1.287,0,0" fill="#fff"/>
      </g>
      <g id="Grupo_78" data-name="Grupo 78" transform="translate(67.104 -9.961)">
        <path id="Caminho_72" data-name="Caminho 72" d="M0,0,1.361,2.532l1.158-.155C2.545,1.674,2.8.852,2.51.314,2.343,0,1.321.137,0,0" fill="#fff"/>
      </g>
      <g id="Grupo_79" data-name="Grupo 79" transform="translate(63.818 -6.5)">
        <path id="Caminho_73" data-name="Caminho 73" d="M0,0-1.646-1.381Q-2.12-.8-2.6-.213L-.685,1,0,0" fill="#fff"/>
      </g>
      <g id="Grupo_80" data-name="Grupo 80" transform="translate(25.635 -10.058)">
        <path id="Caminho_74" data-name="Caminho 74" d="M0,0Q-.67-.875-1.34-1.751L-2.525-.8-.9.836,0,0" fill="#fff"/>
      </g>
      <g id="Grupo_81" data-name="Grupo 81" transform="translate(36.455 -10.187)">
        <path id="Caminho_75" data-name="Caminho 75" d="M0,0,2.237-.214Q2.173-.85,2.11-1.486l-2.236.239L0,0" fill="#fff"/>
      </g>
      <g id="Grupo_82" data-name="Grupo 82" transform="translate(74.671 -20.485)">
        <path id="Caminho_76" data-name="Caminho 76" d="M0,0-2.318-.455Q-2.474.186-2.629.827l2.3.63Q-.163.728,0,0" fill="#fff"/>
      </g>
      <g id="Grupo_83" data-name="Grupo 83" transform="translate(40.106 -1.237)">
        <path id="Caminho_77" data-name="Caminho 77" d="M0,0C.262.611.511,1.227.809,1.82a5.029,5.029,0,0,0,1-.207C1.635.95,1.474.312,1.312-.326L0,0" fill="#fff"/>
      </g>
      <g id="Grupo_84" data-name="Grupo 84" transform="translate(35.129 -22.77)">
        <path id="Caminho_78" data-name="Caminho 78" d="M0,0-.911-.71Q-1.345.061-1.78.832q.331.223.662.448L0,0" fill="#fff"/>
      </g>
    </g>
  </g>
</svg>
