<?xml version="1.0" encoding="utf-8"?>
<!-- Generator: Adobe Illustrator 26.0.1, SVG Export Plug-In . SVG Version: 6.00 Build 0)  -->
<svg version="1.1" id="Layer_1" xmlns="http://www.w3.org/2000/svg" xmlns:xlink="http://www.w3.org/1999/xlink" x="0px" y="0px"
	 viewBox="0 0 49.5 49.3" style="enable-background:new 0 0 49.5 49.3;" xml:space="preserve">
<style type="text/css">
	.st0{fill:#FFFFFF;}
	.st1{fill:#174526;}
</style>
<g id="ico_acessibilidade" transform="translate(-785 -378)">
	<g id="Caminho_2" transform="translate(785 378)">
		<path class="st0" d="M24.8,48.3c-3.2,0-6.3-0.6-9.2-1.9c-2.8-1.2-5.4-2.9-7.5-5.1c-2.2-2.2-3.9-4.7-5.1-7.5
			c-1.2-2.9-1.9-6-1.9-9.2s0.6-6.3,1.9-9.2c1.2-2.8,2.9-5.3,5.1-7.5s4.7-3.9,7.5-5.1c2.9-1.2,6-1.9,9.2-1.9s6.3,0.6,9.2,1.9
			c2.8,1.2,5.4,2.9,7.5,5.1c2.2,2.2,3.9,4.7,5.1,7.5c1.2,2.9,1.9,6,1.9,9.2s-0.6,6.3-1.9,9.2c-1.2,2.8-2.9,5.3-5.1,7.5
			c-2.2,2.2-4.7,3.9-7.5,5.1C31.1,47.7,28,48.3,24.8,48.3z"/>
		<path class="st1" d="M24.8,2c-3.1,0-6.1,0.6-8.9,1.8c-2.7,1.1-5.1,2.8-7.2,4.9S5,13.2,3.8,15.9S2,21.6,2,24.6s0.6,6,1.8,8.8
			c1.1,2.7,2.8,5.1,4.9,7.2c2.1,2.1,4.5,3.7,7.2,4.9c2.8,1.2,5.8,1.8,8.9,1.8s6.1-0.6,8.9-1.8c2.7-1.1,5.1-2.8,7.2-4.9
			c2.1-2.1,3.7-4.5,4.9-7.2c1.2-2.8,1.8-5.8,1.8-8.8s-0.6-6-1.8-8.8c-1.1-2.7-2.8-5.1-4.9-7.2c-2.1-2.1-4.5-3.7-7.2-4.9
			C30.8,2.6,27.8,2,24.8,2 M24.8,0c13.7,0,24.8,11,24.8,24.6S38.4,49.3,24.8,49.3S0,38.3,0,24.6S11.1,0,24.8,0z"/>
	</g>
	<ellipse id="Elipse_2" class="st1" cx="810" cy="402.5" rx="20" ry="19.5"/>
	<ellipse id="Elipse_3" class="st0" cx="809.5" cy="391" rx="3.5" ry="3"/>
	<path id="União_4" class="st0" d="M803.5,415.1c0-0.2,0-0.5,0.1-0.7l0,0l2.8-8.3l0.5-7.4l-7.2-0.9l0,0h-0.1
		c-0.9-0.2-1.6-1.1-1.4-2c0.2-0.9,1.2-1.5,2.1-1.3l0,0h0.1l7,1.1c1.6,0.2,3.2,0.2,4.8,0c3.2-0.4,7.1-1,7.1-1l0,0
		c0.9-0.1,1.7,0.4,1.8,1.3s-0.4,1.7-1.3,1.8l0,0l-7.2,1.1l0.5,7.4l2.6,8.1l0,0c0.3,0.8,0,1.7-0.8,2s-1.7,0-2-0.8
		c-0.1-0.1-0.1-0.3-0.1-0.5l-2.7-7.9c0,0-0.5-0.5-0.6,0c-0.2,0.5-2.6,7.8-2.7,8.1c-0.2,0.9-1,1.5-1.9,1.3
		C804.1,416.5,803.5,415.8,803.5,415.1z"/>
</g>
</svg>
